G04 #@! TF.FileFunction,Soldermask,Top*
%FSLAX45Y45*%
G04 Gerber Fmt 4.5, Leading zero omitted, Abs format (unit mm)*
G04 Created by KiCad (PCBNEW 4.0.6-e0-6349~52~ubuntu16.10.1) date Thu May  4 19:45:57 2017*
%MOMM*%
%LPD*%
G01*
G04 APERTURE LIST*
%ADD10C,0.100000*%
%ADD11C,3.400000*%
%ADD12R,3.400000X3.400000*%
%ADD13R,1.200000X1.150000*%
%ADD14R,1.150000X1.200000*%
%ADD15R,1.200000X1.200000*%
%ADD16R,2.100000X2.100000*%
%ADD17O,2.100000X2.100000*%
%ADD18R,2.500000X1.150000*%
%ADD19R,2.100000X1.600000*%
%ADD20O,2.100000X1.600000*%
%ADD21R,1.780000X0.850000*%
%ADD22R,2.500000X1.875000*%
%ADD23R,2.300000X1.575000*%
%ADD24R,2.300000X2.775000*%
%ADD25R,1.100000X0.850000*%
%ADD26R,0.900000X1.300000*%
%ADD27R,2.850000X1.400000*%
%ADD28R,1.400000X2.850000*%
%ADD29O,1.720000X0.420000*%
%ADD30O,0.420000X1.720000*%
%ADD31R,0.675000X0.650000*%
%ADD32R,0.650000X0.675000*%
%ADD33R,1.150000X0.900000*%
%ADD34R,1.150000X1.000000*%
%ADD35R,1.460000X1.050000*%
%ADD36R,2.200000X1.400000*%
%ADD37R,1.800000X1.600000*%
%ADD38C,2.540000*%
G04 APERTURE END LIST*
D10*
D11*
X13251000Y-14200000D03*
D12*
X15300000Y-14200000D03*
D13*
X11900000Y-10950000D03*
X11750000Y-10950000D03*
D14*
X14075000Y-7900000D03*
X14075000Y-8050000D03*
D13*
X12100000Y-11400000D03*
X12250000Y-11400000D03*
X12150000Y-10725000D03*
X12000000Y-10725000D03*
X12625000Y-11550000D03*
X12475000Y-11550000D03*
X13300000Y-11525000D03*
X13450000Y-11525000D03*
X13450000Y-11300000D03*
X13600000Y-11300000D03*
X13525000Y-11025000D03*
X13675000Y-11025000D03*
D14*
X12675000Y-11900000D03*
X12675000Y-11750000D03*
X12850000Y-10200000D03*
X12850000Y-10050000D03*
X13275000Y-11750000D03*
X13275000Y-11900000D03*
X13700000Y-11625000D03*
X13700000Y-11475000D03*
D13*
X13525000Y-10825000D03*
X13675000Y-10825000D03*
D14*
X12150000Y-8800000D03*
X12150000Y-8950000D03*
X16725000Y-9775000D03*
X16725000Y-9925000D03*
X18725000Y-9975000D03*
X18725000Y-9825000D03*
D13*
X17050000Y-10075000D03*
X16900000Y-10075000D03*
D14*
X18100000Y-9975000D03*
X18100000Y-9825000D03*
D15*
X17375000Y-7455000D03*
X17375000Y-7295000D03*
X17875000Y-7455000D03*
X17875000Y-7295000D03*
X18375000Y-7455000D03*
X18375000Y-7295000D03*
X18875000Y-7450000D03*
X18875000Y-7290000D03*
X18925000Y-9985000D03*
X18925000Y-9825000D03*
D16*
X14875000Y-10875000D03*
D17*
X14621000Y-10875000D03*
D16*
X14667000Y-9500000D03*
D17*
X14921000Y-9500000D03*
X15175000Y-9500000D03*
D16*
X17375000Y-8629000D03*
D17*
X17375000Y-8375000D03*
D16*
X17875000Y-8629000D03*
D17*
X17875000Y-8375000D03*
D16*
X18375000Y-8629000D03*
D17*
X18375000Y-8375000D03*
D16*
X18875000Y-8629000D03*
D17*
X18875000Y-8375000D03*
D16*
X10625000Y-7371000D03*
D17*
X10625000Y-7625000D03*
X10625000Y-7879000D03*
X10625000Y-8133000D03*
D16*
X10500000Y-11867000D03*
D17*
X10754000Y-11867000D03*
X10500000Y-12121000D03*
X10754000Y-12121000D03*
X10500000Y-12375000D03*
X10754000Y-12375000D03*
X10500000Y-12629000D03*
X10754000Y-12629000D03*
X10500000Y-12883000D03*
X10754000Y-12883000D03*
X10500000Y-13137000D03*
X10754000Y-13137000D03*
X10500000Y-13391000D03*
X10754000Y-13391000D03*
X10500000Y-13645000D03*
X10754000Y-13645000D03*
D18*
X10375000Y-10571000D03*
X10892000Y-10571000D03*
X10375000Y-10698000D03*
X10892000Y-10698000D03*
X10375000Y-10825000D03*
X10892000Y-10825000D03*
X10375000Y-10952000D03*
X10892000Y-10952000D03*
X10375000Y-11079000D03*
X10892000Y-11079000D03*
D16*
X15154000Y-12325000D03*
D17*
X14900000Y-12325000D03*
D16*
X10600000Y-9121000D03*
D17*
X10600000Y-9375000D03*
X10600000Y-9629000D03*
D16*
X17000000Y-10525000D03*
D17*
X16746000Y-10525000D03*
D16*
X17780000Y-13462000D03*
D17*
X17526000Y-13462000D03*
D16*
X17018000Y-11938000D03*
D17*
X17018000Y-11684000D03*
X17018000Y-11430000D03*
D16*
X17145000Y-14605000D03*
D17*
X17145000Y-14859000D03*
D16*
X19750000Y-14396000D03*
D17*
X19750000Y-14650000D03*
D16*
X17526000Y-11938000D03*
D17*
X17526000Y-11684000D03*
X17526000Y-11430000D03*
D16*
X17399000Y-14605000D03*
D17*
X17399000Y-14859000D03*
D19*
X19375000Y-13100000D03*
D20*
X19375000Y-12900000D03*
D16*
X18034000Y-11938000D03*
D17*
X18034000Y-11684000D03*
X18034000Y-11430000D03*
D16*
X17653000Y-14605000D03*
D17*
X17653000Y-14859000D03*
D16*
X18542000Y-11938000D03*
D17*
X18542000Y-11684000D03*
X18542000Y-11430000D03*
D16*
X17907000Y-14605000D03*
D17*
X17907000Y-14859000D03*
D16*
X18125000Y-10425000D03*
D17*
X18379000Y-10425000D03*
D21*
X19589000Y-11563750D03*
X19589000Y-11498750D03*
X19589000Y-11433750D03*
X19589000Y-11368750D03*
X19589000Y-11303750D03*
D22*
X19625000Y-11680000D03*
X19625000Y-11187500D03*
D23*
X19855000Y-11517500D03*
X19855000Y-11350000D03*
D24*
X19855000Y-11725000D03*
X19855000Y-11142500D03*
D25*
X15150000Y-11715000D03*
X15150000Y-11585000D03*
X14950000Y-11650000D03*
D26*
X14200000Y-8675000D03*
X14350000Y-8675000D03*
X14650000Y-8675000D03*
X14500000Y-8675000D03*
X19425000Y-7264400D03*
X19575000Y-7264400D03*
X19425000Y-7450000D03*
X19575000Y-7450000D03*
X19425000Y-7625000D03*
X19575000Y-7625000D03*
X19425000Y-7797800D03*
X19575000Y-7797800D03*
X11975000Y-9425000D03*
X11825000Y-9425000D03*
X15275000Y-11900000D03*
X15125000Y-11900000D03*
X14750000Y-11900000D03*
X14900000Y-11900000D03*
X18525000Y-9550000D03*
X18675000Y-9550000D03*
X18725000Y-10175000D03*
X18875000Y-10175000D03*
D27*
X14370500Y-7070000D03*
X14370500Y-7210000D03*
X14370500Y-7350000D03*
X14370500Y-7490000D03*
X14370500Y-7630000D03*
X14370500Y-7770000D03*
X14370500Y-7910000D03*
X14370500Y-8050000D03*
X15629500Y-7070000D03*
X15629500Y-7210000D03*
X15629500Y-7350000D03*
X15629500Y-7490000D03*
X15629500Y-7630000D03*
X15629500Y-7770000D03*
X15629500Y-7910000D03*
X15629500Y-8050000D03*
D28*
X14510000Y-8279500D03*
X14650000Y-8279500D03*
X14790000Y-8279500D03*
X14930000Y-8279500D03*
X15070000Y-8279500D03*
X15210000Y-8279500D03*
X15350000Y-8279500D03*
X15490000Y-8279500D03*
D29*
X12450000Y-10575000D03*
X12450000Y-10625000D03*
X12450000Y-10675000D03*
X12450000Y-10725000D03*
X12450000Y-10775000D03*
X12450000Y-10825000D03*
X12450000Y-10875000D03*
X12450000Y-10925000D03*
X12450000Y-10975000D03*
X12450000Y-11025000D03*
X12450000Y-11075000D03*
X12450000Y-11125000D03*
D30*
X12600000Y-11275000D03*
X12650000Y-11275000D03*
X12700000Y-11275000D03*
X12750000Y-11275000D03*
X12800000Y-11275000D03*
X12850000Y-11275000D03*
X12900000Y-11275000D03*
X12950000Y-11275000D03*
X13000000Y-11275000D03*
X13050000Y-11275000D03*
X13100000Y-11275000D03*
X13150000Y-11275000D03*
D29*
X13300000Y-11125000D03*
X13300000Y-11075000D03*
X13300000Y-11025000D03*
X13300000Y-10975000D03*
X13300000Y-10925000D03*
X13300000Y-10875000D03*
X13300000Y-10825000D03*
X13300000Y-10775000D03*
X13300000Y-10725000D03*
X13300000Y-10675000D03*
X13300000Y-10625000D03*
X13300000Y-10575000D03*
D30*
X13150000Y-10425000D03*
X13100000Y-10425000D03*
X13050000Y-10425000D03*
X13000000Y-10425000D03*
X12950000Y-10425000D03*
X12900000Y-10425000D03*
X12850000Y-10425000D03*
X12800000Y-10425000D03*
X12750000Y-10425000D03*
X12700000Y-10425000D03*
X12650000Y-10425000D03*
X12600000Y-10425000D03*
D31*
X11800000Y-8800000D03*
X11800000Y-8850000D03*
X11800000Y-8900000D03*
X11800000Y-8950000D03*
D32*
X11851250Y-8951250D03*
X11901250Y-8951250D03*
D31*
X11952500Y-8800000D03*
X11952500Y-8950000D03*
X11952500Y-8850000D03*
X11952500Y-8900000D03*
D32*
X11851250Y-8798750D03*
X11901250Y-8798750D03*
D33*
X16882500Y-9785000D03*
X17067500Y-9785000D03*
D34*
X16882500Y-9910000D03*
D33*
X17067500Y-9915000D03*
D35*
X18305000Y-9760000D03*
X18305000Y-9855000D03*
X18305000Y-9950000D03*
X18525000Y-9950000D03*
X18525000Y-9760000D03*
D36*
X12100000Y-10950000D03*
X12100000Y-11200000D03*
D37*
X12865000Y-11710000D03*
X13085000Y-11710000D03*
X13085000Y-11540000D03*
X12865000Y-11540000D03*
D38*
X10300000Y-15700000D03*
X19700000Y-15700000D03*
X19700000Y-8600000D03*
M02*
