G04 #@! TF.FileFunction,Copper,L2,Bot,Signal*
%FSLAX45Y45*%
G04 Gerber Fmt 4.5, Leading zero omitted, Abs format (unit mm)*
G04 Created by KiCad (PCBNEW 4.0.6-e0-6349~52~ubuntu16.10.1) date Thu May  4 19:45:57 2017*
%MOMM*%
%LPD*%
G01*
G04 APERTURE LIST*
%ADD10C,0.100000*%
%ADD11C,3.000000*%
%ADD12R,3.000000X3.000000*%
%ADD13R,1.700000X1.700000*%
%ADD14O,1.700000X1.700000*%
%ADD15R,1.700000X1.200000*%
%ADD16O,1.700000X1.200000*%
%ADD17C,0.600000*%
%ADD18C,0.250000*%
%ADD19C,0.500000*%
%ADD20C,0.200000*%
%ADD21C,0.254000*%
G04 APERTURE END LIST*
D10*
D11*
X13251000Y-14200000D03*
D12*
X15300000Y-14200000D03*
D13*
X14875000Y-10875000D03*
D14*
X14621000Y-10875000D03*
D13*
X14667000Y-9500000D03*
D14*
X14921000Y-9500000D03*
X15175000Y-9500000D03*
D13*
X17375000Y-8629000D03*
D14*
X17375000Y-8375000D03*
D13*
X17875000Y-8629000D03*
D14*
X17875000Y-8375000D03*
D13*
X18375000Y-8629000D03*
D14*
X18375000Y-8375000D03*
D13*
X18875000Y-8629000D03*
D14*
X18875000Y-8375000D03*
D13*
X10625000Y-7371000D03*
D14*
X10625000Y-7625000D03*
X10625000Y-7879000D03*
X10625000Y-8133000D03*
D13*
X10500000Y-11867000D03*
D14*
X10754000Y-11867000D03*
X10500000Y-12121000D03*
X10754000Y-12121000D03*
X10500000Y-12375000D03*
X10754000Y-12375000D03*
X10500000Y-12629000D03*
X10754000Y-12629000D03*
X10500000Y-12883000D03*
X10754000Y-12883000D03*
X10500000Y-13137000D03*
X10754000Y-13137000D03*
X10500000Y-13391000D03*
X10754000Y-13391000D03*
X10500000Y-13645000D03*
X10754000Y-13645000D03*
D13*
X15154000Y-12325000D03*
D14*
X14900000Y-12325000D03*
D13*
X10600000Y-9121000D03*
D14*
X10600000Y-9375000D03*
X10600000Y-9629000D03*
D13*
X17000000Y-10525000D03*
D14*
X16746000Y-10525000D03*
D13*
X17780000Y-13462000D03*
D14*
X17526000Y-13462000D03*
D13*
X17018000Y-11938000D03*
D14*
X17018000Y-11684000D03*
X17018000Y-11430000D03*
D13*
X17145000Y-14605000D03*
D14*
X17145000Y-14859000D03*
D13*
X19750000Y-14396000D03*
D14*
X19750000Y-14650000D03*
D13*
X17526000Y-11938000D03*
D14*
X17526000Y-11684000D03*
X17526000Y-11430000D03*
D13*
X17399000Y-14605000D03*
D14*
X17399000Y-14859000D03*
D15*
X19375000Y-13100000D03*
D16*
X19375000Y-12900000D03*
D13*
X18034000Y-11938000D03*
D14*
X18034000Y-11684000D03*
X18034000Y-11430000D03*
D13*
X17653000Y-14605000D03*
D14*
X17653000Y-14859000D03*
D13*
X18542000Y-11938000D03*
D14*
X18542000Y-11684000D03*
X18542000Y-11430000D03*
D13*
X17907000Y-14605000D03*
D14*
X17907000Y-14859000D03*
D13*
X18125000Y-10425000D03*
D14*
X18379000Y-10425000D03*
D17*
X12921097Y-11430305D03*
X12350000Y-11550000D03*
X12625000Y-10775000D03*
X12800970Y-10288654D03*
X12925000Y-11075000D03*
X12950000Y-11825000D03*
X11900000Y-10750000D03*
X12750000Y-10000000D03*
X10404195Y-11220805D03*
X10650000Y-8925000D03*
X12275000Y-11300000D03*
X11000000Y-13775000D03*
X11775000Y-9025000D03*
X12187499Y-8790001D03*
X13825000Y-11475000D03*
X13700000Y-11325000D03*
X15000000Y-11914999D03*
X11750000Y-11075000D03*
X13550000Y-11525000D03*
X13775000Y-11000000D03*
X13775000Y-10900000D03*
X19625000Y-7150000D03*
X19600000Y-7925000D03*
X15849600Y-7493000D03*
X15849600Y-7213600D03*
X15646400Y-8432800D03*
X14198600Y-8178800D03*
X18770600Y-9728200D03*
X17983200Y-9855200D03*
X16725000Y-10019400D03*
X16780600Y-10075000D03*
X19575000Y-11850000D03*
X19575000Y-11000000D03*
X16950000Y-15075000D03*
X17650000Y-15075000D03*
X16850000Y-11250000D03*
X17221954Y-11629001D03*
X12072190Y-10582501D03*
X11825000Y-10575000D03*
X12700000Y-9725000D03*
X12925000Y-9925000D03*
X16450000Y-11150000D03*
X16925000Y-11100000D03*
X19050000Y-12925000D03*
X19050000Y-13200000D03*
X14600000Y-10200000D03*
X14475000Y-9750000D03*
X14896194Y-9779996D03*
X14775000Y-9650000D03*
X15125000Y-8575000D03*
X15500000Y-8575000D03*
X15542305Y-8690397D03*
X15300000Y-8650000D03*
X13825000Y-7475000D03*
X14175000Y-7525000D03*
X13700000Y-8475000D03*
X10625000Y-7879000D03*
X14775000Y-8525000D03*
X11402215Y-10852277D03*
X12292499Y-10299951D03*
X11511488Y-10884183D03*
X12209983Y-10305824D03*
X11625080Y-10851682D03*
X12275000Y-10450000D03*
X11200000Y-12150000D03*
X12580727Y-12142508D03*
X12587501Y-11375000D03*
X11275000Y-12325000D03*
X12663677Y-12080007D03*
X12625000Y-11150000D03*
X12763407Y-12112499D03*
X12705827Y-11146980D03*
X10900000Y-12725000D03*
X12841782Y-12096448D03*
X12785761Y-11150264D03*
X12568123Y-12370267D03*
X12580000Y-10875000D03*
X12443167Y-12682014D03*
X12450000Y-11325000D03*
X13050000Y-12100000D03*
X13175000Y-10875000D03*
X13300000Y-12000000D03*
X13461100Y-10633977D03*
X13100000Y-10275000D03*
X11175000Y-12450000D03*
X11300000Y-11175000D03*
X13024567Y-10248353D03*
X11025000Y-11175000D03*
X12937500Y-10225000D03*
X11100000Y-12512499D03*
X11112499Y-11432050D03*
X12084981Y-10292415D03*
X11787304Y-10320576D03*
X12690068Y-10582501D03*
X12934007Y-10585420D03*
X12047308Y-10362991D03*
X11778160Y-10400053D03*
X12197191Y-10568599D03*
X13085908Y-10666824D03*
X11728282Y-10462602D03*
X13025000Y-10550000D03*
X11267794Y-11543813D03*
X10527820Y-11319032D03*
X13237501Y-11315559D03*
X13116731Y-11967499D03*
X11237501Y-11617857D03*
X10525000Y-11400000D03*
X13316829Y-11169781D03*
X13200000Y-12000000D03*
X12283085Y-10723304D03*
X12298303Y-10938307D03*
X11875000Y-9150000D03*
X11875000Y-9025000D03*
X13187780Y-10307107D03*
X13375000Y-9750000D03*
X15500000Y-10475000D03*
X15850000Y-10150000D03*
X16375000Y-8875000D03*
X16350000Y-8425000D03*
X15517529Y-10255642D03*
X15691674Y-9939636D03*
X16105235Y-8407266D03*
X16075000Y-8875000D03*
X15575653Y-10311137D03*
X15700000Y-10041013D03*
X15968305Y-8206695D03*
X16175000Y-8875000D03*
X15794943Y-10034460D03*
X15900000Y-8050000D03*
X16275000Y-8875000D03*
X15650000Y-10375000D03*
X15475131Y-10149603D03*
X15613475Y-9922751D03*
X15987499Y-8400000D03*
X15975000Y-8875000D03*
X13206569Y-10112501D03*
X12900000Y-9550000D03*
X13009914Y-10059696D03*
X12851865Y-9664996D03*
D18*
X12770970Y-10320970D02*
X12770970Y-10318654D01*
X12800970Y-10288654D02*
X12770970Y-10318654D01*
D19*
X17650000Y-15075000D02*
X16950000Y-15075000D01*
X16850000Y-11250000D02*
X16880000Y-11280000D01*
X16880000Y-11280000D02*
X17063572Y-11280000D01*
X17063572Y-11280000D02*
X17083573Y-11300000D01*
X17083573Y-11300000D02*
X17221954Y-11438381D01*
X17221954Y-11438381D02*
X17221954Y-11629001D01*
D18*
X12064688Y-10575000D02*
X12072190Y-10582501D01*
X11825000Y-10575000D02*
X12064688Y-10575000D01*
X12925000Y-9925000D02*
X12725000Y-9725000D01*
X12725000Y-9725000D02*
X12700000Y-9725000D01*
X16925000Y-11100000D02*
X16875000Y-11150000D01*
X16875000Y-11150000D02*
X16450000Y-11150000D01*
D19*
X19050000Y-13200000D02*
X19050000Y-12925000D01*
D18*
X14475000Y-9750000D02*
X14600000Y-9875000D01*
X14600000Y-9875000D02*
X14600000Y-10200000D01*
X14896194Y-9771194D02*
X14896194Y-9779996D01*
X14775000Y-9650000D02*
X14896194Y-9771194D01*
X15500000Y-8575000D02*
X15125000Y-8575000D01*
X15501908Y-8650000D02*
X15542305Y-8690397D01*
X15300000Y-8650000D02*
X15501908Y-8650000D01*
X14175000Y-7525000D02*
X14125000Y-7475000D01*
X14125000Y-7475000D02*
X13825000Y-7475000D01*
X14725000Y-8475000D02*
X13700000Y-8475000D01*
X14775000Y-8525000D02*
X14725000Y-8475000D01*
X12262499Y-10253423D02*
X12121577Y-10112500D01*
X11402215Y-10482783D02*
X11402215Y-10809850D01*
X12262499Y-10269951D02*
X12262499Y-10253423D01*
X11402215Y-10809850D02*
X11402215Y-10852277D01*
X11772498Y-10112500D02*
X11402215Y-10482783D01*
X12121577Y-10112500D02*
X11772498Y-10112500D01*
X12292499Y-10299951D02*
X12262499Y-10269951D01*
X11511488Y-10841757D02*
X11511488Y-10884183D01*
X11511488Y-10668511D02*
X11511488Y-10841757D01*
X11579999Y-10600000D02*
X11511488Y-10668511D01*
X11579999Y-10371941D02*
X11794438Y-10157502D01*
X12209983Y-10264547D02*
X12209983Y-10305824D01*
X12102937Y-10157502D02*
X12209983Y-10264547D01*
X11794438Y-10157502D02*
X12102937Y-10157502D01*
X11579999Y-10600000D02*
X11579999Y-10371941D01*
X11625080Y-10809255D02*
X11625080Y-10851682D01*
X12147482Y-10335825D02*
X12147482Y-10265688D01*
X12275000Y-10450000D02*
X12245000Y-10420000D01*
X12231658Y-10420000D02*
X12147482Y-10335825D01*
X12147482Y-10265688D02*
X12099060Y-10217265D01*
X12245000Y-10420000D02*
X12231658Y-10420000D01*
X12099060Y-10217265D02*
X11798316Y-10217265D01*
X11798316Y-10217265D02*
X11625080Y-10390501D01*
X11625080Y-10390501D02*
X11625080Y-10809255D01*
X11200000Y-12150000D02*
X10783000Y-12150000D01*
X10783000Y-12150000D02*
X10754000Y-12121000D01*
X12587501Y-12135734D02*
X12580727Y-12142508D01*
X12587501Y-11375000D02*
X12587501Y-12135734D01*
X11275000Y-12325000D02*
X10977900Y-12325000D01*
X10617500Y-12492500D02*
X10585000Y-12460000D01*
X10585000Y-12460000D02*
X10500000Y-12375000D01*
X10977900Y-12325000D02*
X10810400Y-12492500D01*
X10810400Y-12492500D02*
X10617500Y-12492500D01*
X12650001Y-12066330D02*
X12663677Y-12080007D01*
X12625000Y-11150000D02*
X12625000Y-11319999D01*
X12650001Y-11345000D02*
X12650001Y-12066330D01*
X12625000Y-11319999D02*
X12650001Y-11345000D01*
X12705827Y-11146980D02*
X12705827Y-12032549D01*
X12705827Y-12032549D02*
X12733408Y-12060130D01*
X12733408Y-12082499D02*
X12763407Y-12112499D01*
X12733408Y-12060130D02*
X12733408Y-12082499D01*
X12785761Y-11150264D02*
X12841782Y-11206285D01*
X12841782Y-11206285D02*
X12841782Y-12054022D01*
X12841782Y-12054022D02*
X12841782Y-12096448D01*
X10900000Y-12725000D02*
X10870000Y-12755000D01*
X10870000Y-12755000D02*
X10626000Y-12755000D01*
X10626000Y-12755000D02*
X10585000Y-12714000D01*
X10585000Y-12714000D02*
X10500000Y-12629000D01*
X12513123Y-12315267D02*
X12538123Y-12340267D01*
X12538123Y-12340267D02*
X12568123Y-12370267D01*
X12513123Y-10941877D02*
X12513123Y-12315267D01*
X12580000Y-10875000D02*
X12513123Y-10941877D01*
X12450000Y-12675181D02*
X12443167Y-12682014D01*
X12450000Y-11325000D02*
X12450000Y-12675181D01*
X13175000Y-11800000D02*
X13050000Y-11925000D01*
X13050000Y-11925000D02*
X13050000Y-12100000D01*
X13175000Y-10875000D02*
X13175000Y-11800000D01*
X13350000Y-11225000D02*
X13350000Y-11950000D01*
X13350000Y-11950000D02*
X13300000Y-12000000D01*
X13461100Y-11113900D02*
X13350000Y-11225000D01*
X13461100Y-10633977D02*
X13461100Y-11113900D01*
X13100000Y-10231359D02*
X12986140Y-10117499D01*
X12177497Y-9977497D02*
X11716578Y-9977497D01*
X12317499Y-10117499D02*
X12177497Y-9977497D01*
X12986140Y-10117499D02*
X12317499Y-10117499D01*
X11209998Y-10484077D02*
X11209998Y-10850000D01*
X13100000Y-10275000D02*
X13100000Y-10231359D01*
X11716578Y-9977497D02*
X11209998Y-10484077D01*
X10839000Y-13052000D02*
X10754000Y-13137000D01*
X10975000Y-12916000D02*
X10839000Y-13052000D01*
X10975000Y-12544999D02*
X10975000Y-12916000D01*
X11099999Y-12420000D02*
X10975000Y-12544999D01*
X11145000Y-12420000D02*
X11099999Y-12420000D01*
X11175000Y-12450000D02*
X11145000Y-12420000D01*
X11259998Y-11134998D02*
X11300000Y-11175000D01*
X11209998Y-11134998D02*
X11259998Y-11134998D01*
X11209998Y-10850000D02*
X11209998Y-10876361D01*
X11209998Y-10850000D02*
X11209998Y-11134998D01*
X11209998Y-10876361D02*
X11204999Y-10881360D01*
X11137500Y-11287500D02*
X11427689Y-11287500D01*
X11735218Y-10022498D02*
X12158857Y-10022498D01*
X11254999Y-10502717D02*
X11735218Y-10022498D01*
X11434649Y-11280539D02*
X11434649Y-11192149D01*
X11427689Y-11287500D02*
X11434649Y-11280539D01*
X11254999Y-11012499D02*
X11254999Y-10502717D01*
X12158857Y-10022498D02*
X12298859Y-10162500D01*
X12298859Y-10162500D02*
X12967500Y-10162500D01*
X11434649Y-11192149D02*
X11254999Y-11012499D01*
X12967500Y-10162500D02*
X13024567Y-10219567D01*
X13024567Y-10219567D02*
X13024567Y-10248353D01*
X11025000Y-11175000D02*
X11137500Y-11287500D01*
X12292618Y-10219900D02*
X12850000Y-10219900D01*
X12850000Y-10219900D02*
X12866779Y-10219900D01*
X12937500Y-10225000D02*
X12895074Y-10225000D01*
X12895074Y-10225000D02*
X12889974Y-10219900D01*
X12889974Y-10219900D02*
X12850000Y-10219900D01*
X11312500Y-10875000D02*
X11312500Y-10508857D01*
X11312500Y-10508857D02*
X11753858Y-10067499D01*
X11753858Y-10067499D02*
X12140217Y-10067499D01*
X12140217Y-10067499D02*
X12292618Y-10219900D01*
X11100000Y-12554925D02*
X11100000Y-12512499D01*
X11100000Y-13045000D02*
X11100000Y-12554925D01*
X10754000Y-13391000D02*
X11100000Y-13045000D01*
X11492499Y-11304921D02*
X11365370Y-11432050D01*
X11492499Y-11054999D02*
X11492499Y-11304921D01*
X11312500Y-10875000D02*
X11492499Y-11054999D01*
X11365370Y-11432050D02*
X11154925Y-11432050D01*
X11154925Y-11432050D02*
X11112499Y-11432050D01*
X11312500Y-10875000D02*
X11312500Y-10887500D01*
X11815465Y-10292415D02*
X11787304Y-10320576D01*
X12084981Y-10292415D02*
X11815465Y-10292415D01*
X12934007Y-10585420D02*
X12692987Y-10585420D01*
X12692987Y-10585420D02*
X12690068Y-10582501D01*
X12010246Y-10400053D02*
X11820587Y-10400053D01*
X11820587Y-10400053D02*
X11778160Y-10400053D01*
X12047308Y-10362991D02*
X12010246Y-10400053D01*
X12324324Y-10666824D02*
X12270000Y-10612500D01*
X12241092Y-10612500D02*
X12227191Y-10598599D01*
X13085908Y-10666824D02*
X12324324Y-10666824D01*
X12270000Y-10612500D02*
X12241092Y-10612500D01*
X12227191Y-10598599D02*
X12197191Y-10568599D01*
X11740709Y-10475000D02*
X11728311Y-10462602D01*
X11728311Y-10462602D02*
X11728282Y-10462602D01*
X11770709Y-10462602D02*
X11728282Y-10462602D01*
X11770721Y-10462586D02*
X11770721Y-10462589D01*
X11770721Y-10462589D02*
X11770709Y-10462602D01*
X12987500Y-10512500D02*
X12245000Y-10512500D01*
X11869204Y-10462586D02*
X11770721Y-10462586D01*
X11881618Y-10475000D02*
X11869204Y-10462586D01*
X12195086Y-10462586D02*
X11770721Y-10462586D01*
X12245000Y-10512500D02*
X12195086Y-10462586D01*
X13025000Y-10550000D02*
X12987500Y-10512500D01*
X11225367Y-11543813D02*
X11267794Y-11543813D01*
X11132454Y-11543813D02*
X11225367Y-11543813D01*
X10907673Y-11319032D02*
X11132454Y-11543813D01*
X10527820Y-11319032D02*
X10907673Y-11319032D01*
X13237501Y-11861305D02*
X13237501Y-11357985D01*
X13146731Y-11937499D02*
X13161307Y-11937499D01*
X13161307Y-11937499D02*
X13237501Y-11861305D01*
X13116731Y-11967499D02*
X13146731Y-11937499D01*
X13237501Y-11357985D02*
X13237501Y-11315559D01*
X11142857Y-11617857D02*
X10925000Y-11400000D01*
X10925000Y-11400000D02*
X10525000Y-11400000D01*
X11237501Y-11617857D02*
X11142857Y-11617857D01*
X13304999Y-11895001D02*
X13304999Y-11186147D01*
X13200000Y-12000000D02*
X13304999Y-11895001D01*
X13304999Y-11186147D02*
X13319097Y-11172049D01*
X13319097Y-11172049D02*
X13316829Y-11169781D01*
X12298303Y-10738522D02*
X12283085Y-10723304D01*
X12298303Y-10938307D02*
X12298303Y-10738522D01*
D20*
X11875000Y-9025000D02*
X11875000Y-9150000D01*
D18*
X13375000Y-9750000D02*
X13375000Y-10036571D01*
X13375000Y-10036571D02*
X13187780Y-10223790D01*
X13187780Y-10223790D02*
X13187780Y-10307107D01*
X15850000Y-10150000D02*
X15850000Y-10330890D01*
X15850000Y-10330890D02*
X15705890Y-10475000D01*
X15705890Y-10475000D02*
X15500000Y-10475000D01*
X16350000Y-8850000D02*
X16375000Y-8875000D01*
X16350000Y-8425000D02*
X16350000Y-8850000D01*
X15691674Y-9939636D02*
X15543439Y-10087871D01*
X15543439Y-10087871D02*
X15543439Y-10187306D01*
X15543439Y-10187306D02*
X15517529Y-10213216D01*
X15517529Y-10213216D02*
X15517529Y-10255642D01*
X16075000Y-8875000D02*
X16075000Y-8437501D01*
X16075000Y-8437501D02*
X16075235Y-8437266D01*
X16075235Y-8437266D02*
X16105235Y-8407266D01*
X15686790Y-10200000D02*
X15605653Y-10281137D01*
X15700000Y-10041013D02*
X15700000Y-10186790D01*
X15700000Y-10186790D02*
X15686790Y-10200000D01*
X15605653Y-10281137D02*
X15575653Y-10311137D01*
X15998305Y-8236695D02*
X15968305Y-8206695D01*
X16023054Y-8236695D02*
X15998305Y-8236695D01*
X16175000Y-8875000D02*
X16175000Y-8388641D01*
X16175000Y-8388641D02*
X16023054Y-8236695D01*
X15794943Y-10076886D02*
X15794943Y-10034460D01*
X15787499Y-10084330D02*
X15794943Y-10076886D01*
X15787499Y-10237501D02*
X15787499Y-10084330D01*
X15650000Y-10375000D02*
X15787499Y-10237501D01*
X16275000Y-8875000D02*
X16275000Y-8425000D01*
X16275000Y-8425000D02*
X15900000Y-8050000D01*
X15613475Y-9922751D02*
X15475131Y-10061096D01*
X15475131Y-10107177D02*
X15475131Y-10149603D01*
X15475131Y-10061096D02*
X15475131Y-10107177D01*
X15975000Y-8412499D02*
X15987499Y-8400000D01*
X15975000Y-8875000D02*
X15975000Y-8412499D01*
X13206569Y-10070075D02*
X13206569Y-10112501D01*
X12900000Y-9550000D02*
X13206569Y-9856569D01*
X13206569Y-9856569D02*
X13206569Y-10070075D01*
X13009914Y-10017269D02*
X13009914Y-10059696D01*
X13009914Y-9823045D02*
X13009914Y-10017269D01*
X12851865Y-9664996D02*
X13009914Y-9823045D01*
D21*
G36*
X19929000Y-15929000D02*
X10071000Y-15929000D01*
X10071000Y-15093517D01*
X16856484Y-15093517D01*
X16870688Y-15127894D01*
X16896967Y-15154219D01*
X16931320Y-15168484D01*
X16968517Y-15168516D01*
X16980657Y-15163500D01*
X17619318Y-15163500D01*
X17631320Y-15168484D01*
X17668517Y-15168516D01*
X17702894Y-15154312D01*
X17729219Y-15128033D01*
X17743484Y-15093680D01*
X17743516Y-15056483D01*
X17729312Y-15022106D01*
X17704986Y-14997738D01*
X17712738Y-14996196D01*
X17760915Y-14964005D01*
X17780000Y-14935442D01*
X17799085Y-14964005D01*
X17847262Y-14996196D01*
X17904091Y-15007500D01*
X17909909Y-15007500D01*
X17966738Y-14996196D01*
X18014915Y-14964005D01*
X18047105Y-14915828D01*
X18058409Y-14859000D01*
X18047105Y-14802171D01*
X18014915Y-14753995D01*
X18010755Y-14751215D01*
X18015532Y-14750316D01*
X18037144Y-14736409D01*
X18051643Y-14715189D01*
X18056744Y-14690000D01*
X18056744Y-14685689D01*
X19605852Y-14685689D01*
X19622836Y-14726692D01*
X19661864Y-14769518D01*
X19714311Y-14794149D01*
X19737300Y-14782082D01*
X19737300Y-14662700D01*
X19762700Y-14662700D01*
X19762700Y-14782082D01*
X19785689Y-14794149D01*
X19838136Y-14769518D01*
X19877165Y-14726692D01*
X19894148Y-14685689D01*
X19882016Y-14662700D01*
X19762700Y-14662700D01*
X19737300Y-14662700D01*
X19617985Y-14662700D01*
X19605852Y-14685689D01*
X18056744Y-14685689D01*
X18056744Y-14520000D01*
X18052316Y-14496468D01*
X18038409Y-14474856D01*
X18017189Y-14460357D01*
X17992000Y-14455256D01*
X17822000Y-14455256D01*
X17798468Y-14459684D01*
X17779792Y-14471701D01*
X17763189Y-14460357D01*
X17738000Y-14455256D01*
X17568000Y-14455256D01*
X17544468Y-14459684D01*
X17525792Y-14471701D01*
X17509189Y-14460357D01*
X17484000Y-14455256D01*
X17314000Y-14455256D01*
X17290468Y-14459684D01*
X17271792Y-14471701D01*
X17255189Y-14460357D01*
X17230000Y-14455256D01*
X17060000Y-14455256D01*
X17036468Y-14459684D01*
X17014856Y-14473591D01*
X17000357Y-14494811D01*
X16995256Y-14520000D01*
X16995256Y-14690000D01*
X16999684Y-14713532D01*
X17013591Y-14735144D01*
X17034811Y-14749643D01*
X17041554Y-14751009D01*
X17037085Y-14753995D01*
X17004895Y-14802171D01*
X16993591Y-14859000D01*
X17004895Y-14915828D01*
X17037085Y-14964005D01*
X17070751Y-14986500D01*
X16980682Y-14986500D01*
X16968680Y-14981516D01*
X16931483Y-14981484D01*
X16897106Y-14995688D01*
X16870781Y-15021967D01*
X16856516Y-15056320D01*
X16856484Y-15093517D01*
X10071000Y-15093517D01*
X10071000Y-14351397D01*
X13117563Y-14351397D01*
X13133542Y-14383274D01*
X13212619Y-14414272D01*
X13297539Y-14412650D01*
X13368458Y-14383274D01*
X13384436Y-14351397D01*
X13251000Y-14217960D01*
X13117563Y-14351397D01*
X10071000Y-14351397D01*
X10071000Y-14161619D01*
X13036728Y-14161619D01*
X13038350Y-14246539D01*
X13067726Y-14317458D01*
X13099603Y-14333436D01*
X13233039Y-14200000D01*
X13268960Y-14200000D01*
X13402397Y-14333436D01*
X13434274Y-14317458D01*
X13465272Y-14238381D01*
X13463650Y-14153461D01*
X13434274Y-14082542D01*
X13402397Y-14066563D01*
X13268960Y-14200000D01*
X13233039Y-14200000D01*
X13099603Y-14066563D01*
X13067726Y-14082542D01*
X13036728Y-14161619D01*
X10071000Y-14161619D01*
X10071000Y-14048603D01*
X13117563Y-14048603D01*
X13251000Y-14182039D01*
X13383039Y-14050000D01*
X15085256Y-14050000D01*
X15085256Y-14350000D01*
X15089684Y-14373532D01*
X15103591Y-14395144D01*
X15124811Y-14409643D01*
X15150000Y-14414744D01*
X15450000Y-14414744D01*
X15473532Y-14410316D01*
X15495144Y-14396409D01*
X15509643Y-14375189D01*
X15514744Y-14350000D01*
X15514744Y-14311000D01*
X19600256Y-14311000D01*
X19600256Y-14481000D01*
X19604684Y-14504532D01*
X19618591Y-14526144D01*
X19639811Y-14540643D01*
X19650611Y-14542830D01*
X19622836Y-14573308D01*
X19605852Y-14614311D01*
X19617985Y-14637300D01*
X19737300Y-14637300D01*
X19737300Y-14635300D01*
X19762700Y-14635300D01*
X19762700Y-14637300D01*
X19882016Y-14637300D01*
X19894148Y-14614311D01*
X19877165Y-14573308D01*
X19849550Y-14543006D01*
X19858532Y-14541316D01*
X19880144Y-14527409D01*
X19894643Y-14506189D01*
X19899744Y-14481000D01*
X19899744Y-14311000D01*
X19895316Y-14287468D01*
X19881409Y-14265856D01*
X19860189Y-14251357D01*
X19835000Y-14246256D01*
X19665000Y-14246256D01*
X19641468Y-14250684D01*
X19619856Y-14264591D01*
X19605357Y-14285811D01*
X19600256Y-14311000D01*
X15514744Y-14311000D01*
X15514744Y-14050000D01*
X15510316Y-14026468D01*
X15496409Y-14004856D01*
X15475189Y-13990357D01*
X15450000Y-13985256D01*
X15150000Y-13985256D01*
X15126468Y-13989684D01*
X15104856Y-14003591D01*
X15090357Y-14024811D01*
X15085256Y-14050000D01*
X13383039Y-14050000D01*
X13384436Y-14048603D01*
X13368458Y-14016726D01*
X13289381Y-13985728D01*
X13204461Y-13987350D01*
X13133542Y-14016726D01*
X13117563Y-14048603D01*
X10071000Y-14048603D01*
X10071000Y-13680689D01*
X10355852Y-13680689D01*
X10372836Y-13721692D01*
X10411864Y-13764518D01*
X10464311Y-13789149D01*
X10487300Y-13777082D01*
X10487300Y-13657700D01*
X10512700Y-13657700D01*
X10512700Y-13777082D01*
X10535689Y-13789149D01*
X10588136Y-13764518D01*
X10627000Y-13721873D01*
X10665864Y-13764518D01*
X10718311Y-13789149D01*
X10741300Y-13777082D01*
X10741300Y-13657700D01*
X10766700Y-13657700D01*
X10766700Y-13777082D01*
X10789689Y-13789149D01*
X10842136Y-13764518D01*
X10881165Y-13721692D01*
X10898148Y-13680689D01*
X10886016Y-13657700D01*
X10766700Y-13657700D01*
X10741300Y-13657700D01*
X10512700Y-13657700D01*
X10487300Y-13657700D01*
X10367985Y-13657700D01*
X10355852Y-13680689D01*
X10071000Y-13680689D01*
X10071000Y-12121000D01*
X10348591Y-12121000D01*
X10359895Y-12177828D01*
X10392085Y-12226005D01*
X10425003Y-12248000D01*
X10392085Y-12269995D01*
X10359895Y-12318171D01*
X10348591Y-12375000D01*
X10359895Y-12431828D01*
X10392085Y-12480005D01*
X10425003Y-12502000D01*
X10392085Y-12523995D01*
X10359895Y-12572171D01*
X10348591Y-12629000D01*
X10359895Y-12685828D01*
X10392085Y-12734005D01*
X10425003Y-12756000D01*
X10392085Y-12777995D01*
X10359895Y-12826171D01*
X10348591Y-12883000D01*
X10359895Y-12939828D01*
X10392085Y-12988005D01*
X10425003Y-13010000D01*
X10392085Y-13031995D01*
X10359895Y-13080171D01*
X10348591Y-13137000D01*
X10359895Y-13193828D01*
X10392085Y-13242005D01*
X10425003Y-13264000D01*
X10392085Y-13285995D01*
X10359895Y-13334171D01*
X10348591Y-13391000D01*
X10359895Y-13447828D01*
X10392085Y-13496005D01*
X10426155Y-13518770D01*
X10411864Y-13525482D01*
X10372836Y-13568308D01*
X10355852Y-13609311D01*
X10367985Y-13632300D01*
X10487300Y-13632300D01*
X10487300Y-13630300D01*
X10512700Y-13630300D01*
X10512700Y-13632300D01*
X10741300Y-13632300D01*
X10741300Y-13630300D01*
X10766700Y-13630300D01*
X10766700Y-13632300D01*
X10886016Y-13632300D01*
X10898148Y-13609311D01*
X10881165Y-13568308D01*
X10842136Y-13525482D01*
X10827845Y-13518770D01*
X10861915Y-13496005D01*
X10886580Y-13459091D01*
X17377500Y-13459091D01*
X17377500Y-13464909D01*
X17388804Y-13521738D01*
X17420995Y-13569915D01*
X17469172Y-13602105D01*
X17526000Y-13613409D01*
X17582829Y-13602105D01*
X17631005Y-13569915D01*
X17633785Y-13565755D01*
X17634684Y-13570532D01*
X17648591Y-13592144D01*
X17669811Y-13606643D01*
X17695000Y-13611744D01*
X17865000Y-13611744D01*
X17888532Y-13607316D01*
X17910144Y-13593409D01*
X17924643Y-13572189D01*
X17929744Y-13547000D01*
X17929744Y-13377000D01*
X17925316Y-13353468D01*
X17911409Y-13331856D01*
X17890189Y-13317357D01*
X17865000Y-13312256D01*
X17695000Y-13312256D01*
X17671468Y-13316684D01*
X17649856Y-13330591D01*
X17635357Y-13351811D01*
X17633991Y-13358554D01*
X17631005Y-13354085D01*
X17582829Y-13321895D01*
X17526000Y-13310591D01*
X17469172Y-13321895D01*
X17420995Y-13354085D01*
X17388804Y-13402262D01*
X17377500Y-13459091D01*
X10886580Y-13459091D01*
X10894105Y-13447828D01*
X10905409Y-13391000D01*
X10898121Y-13354359D01*
X11153740Y-13098740D01*
X11170215Y-13074084D01*
X11176000Y-13045000D01*
X11176000Y-12943517D01*
X18956484Y-12943517D01*
X18961500Y-12955657D01*
X18961500Y-13169318D01*
X18956516Y-13181320D01*
X18956484Y-13218517D01*
X18970688Y-13252894D01*
X18996967Y-13279219D01*
X19031320Y-13293484D01*
X19068517Y-13293516D01*
X19102894Y-13279312D01*
X19129219Y-13253033D01*
X19143484Y-13218680D01*
X19143516Y-13181483D01*
X19138500Y-13169343D01*
X19138500Y-13040000D01*
X19225256Y-13040000D01*
X19225256Y-13160000D01*
X19229684Y-13183532D01*
X19243591Y-13205144D01*
X19264811Y-13219643D01*
X19290000Y-13224744D01*
X19460000Y-13224744D01*
X19483532Y-13220316D01*
X19505144Y-13206409D01*
X19519643Y-13185189D01*
X19524744Y-13160000D01*
X19524744Y-13040000D01*
X19520316Y-13016468D01*
X19506409Y-12994856D01*
X19491169Y-12984443D01*
X19493193Y-12982912D01*
X19517829Y-12940938D01*
X19519346Y-12931761D01*
X19506873Y-12912700D01*
X19387700Y-12912700D01*
X19387700Y-12914700D01*
X19362300Y-12914700D01*
X19362300Y-12912700D01*
X19243127Y-12912700D01*
X19230654Y-12931761D01*
X19232171Y-12940938D01*
X19256807Y-12982912D01*
X19258942Y-12984527D01*
X19244856Y-12993591D01*
X19230357Y-13014811D01*
X19225256Y-13040000D01*
X19138500Y-13040000D01*
X19138500Y-12955682D01*
X19143484Y-12943680D01*
X19143516Y-12906483D01*
X19129312Y-12872106D01*
X19125452Y-12868239D01*
X19230654Y-12868239D01*
X19243127Y-12887300D01*
X19362300Y-12887300D01*
X19362300Y-12791745D01*
X19387700Y-12791745D01*
X19387700Y-12887300D01*
X19506873Y-12887300D01*
X19519346Y-12868239D01*
X19517829Y-12859062D01*
X19493193Y-12817087D01*
X19454370Y-12787735D01*
X19407270Y-12775474D01*
X19387700Y-12791745D01*
X19362300Y-12791745D01*
X19342730Y-12775474D01*
X19295630Y-12787735D01*
X19256807Y-12817087D01*
X19232171Y-12859062D01*
X19230654Y-12868239D01*
X19125452Y-12868239D01*
X19103033Y-12845781D01*
X19068680Y-12831516D01*
X19031483Y-12831484D01*
X18997106Y-12845688D01*
X18970781Y-12871967D01*
X18956516Y-12906320D01*
X18956484Y-12943517D01*
X11176000Y-12943517D01*
X11176000Y-12700530D01*
X12349651Y-12700530D01*
X12363856Y-12734908D01*
X12390135Y-12761233D01*
X12424488Y-12775497D01*
X12461684Y-12775530D01*
X12496062Y-12761325D01*
X12522387Y-12735046D01*
X12536651Y-12700694D01*
X12536684Y-12663497D01*
X12526000Y-12637640D01*
X12526000Y-12454017D01*
X12549443Y-12463751D01*
X12586639Y-12463783D01*
X12621017Y-12449579D01*
X12647342Y-12423300D01*
X12661606Y-12388947D01*
X12661639Y-12351751D01*
X12649384Y-12322091D01*
X14751500Y-12322091D01*
X14751500Y-12327909D01*
X14762804Y-12384738D01*
X14794995Y-12432915D01*
X14843171Y-12465105D01*
X14900000Y-12476409D01*
X14956828Y-12465105D01*
X15005005Y-12432915D01*
X15007785Y-12428755D01*
X15008684Y-12433532D01*
X15022591Y-12455144D01*
X15043811Y-12469643D01*
X15069000Y-12474744D01*
X15239000Y-12474744D01*
X15262532Y-12470316D01*
X15284144Y-12456409D01*
X15298643Y-12435189D01*
X15303744Y-12410000D01*
X15303744Y-12240000D01*
X15299316Y-12216468D01*
X15285409Y-12194856D01*
X15264189Y-12180357D01*
X15239000Y-12175256D01*
X15069000Y-12175256D01*
X15045468Y-12179684D01*
X15023856Y-12193591D01*
X15009357Y-12214811D01*
X15007991Y-12221554D01*
X15005005Y-12217085D01*
X14956828Y-12184895D01*
X14900000Y-12173591D01*
X14843171Y-12184895D01*
X14794995Y-12217085D01*
X14762804Y-12265262D01*
X14751500Y-12322091D01*
X12649384Y-12322091D01*
X12647434Y-12317373D01*
X12621155Y-12291048D01*
X12589123Y-12277747D01*
X12589123Y-12236015D01*
X12599244Y-12236024D01*
X12633622Y-12221819D01*
X12659947Y-12195540D01*
X12669094Y-12173511D01*
X12682194Y-12173523D01*
X12689286Y-12170592D01*
X12710375Y-12191718D01*
X12744728Y-12205983D01*
X12781924Y-12206015D01*
X12816302Y-12191811D01*
X12819629Y-12188490D01*
X12823102Y-12189932D01*
X12860299Y-12189964D01*
X12894676Y-12175760D01*
X12921001Y-12149481D01*
X12933858Y-12118517D01*
X12956484Y-12118517D01*
X12970688Y-12152894D01*
X12996967Y-12179219D01*
X13031320Y-12193484D01*
X13068517Y-12193516D01*
X13102894Y-12179312D01*
X13129219Y-12153033D01*
X13143484Y-12118680D01*
X13143516Y-12081483D01*
X13139483Y-12071722D01*
X13146967Y-12079219D01*
X13181320Y-12093484D01*
X13218517Y-12093516D01*
X13250035Y-12080493D01*
X13281320Y-12093484D01*
X13318517Y-12093516D01*
X13352894Y-12079312D01*
X13379219Y-12053033D01*
X13393484Y-12018680D01*
X13393488Y-12013992D01*
X13403740Y-12003740D01*
X13420215Y-11979084D01*
X13426000Y-11950000D01*
X13426000Y-11256480D01*
X13513963Y-11168517D01*
X16356484Y-11168517D01*
X16370688Y-11202894D01*
X16396967Y-11229219D01*
X16431320Y-11243484D01*
X16468517Y-11243516D01*
X16502894Y-11229312D01*
X16506212Y-11226000D01*
X16758725Y-11226000D01*
X16756516Y-11231320D01*
X16756484Y-11268517D01*
X16770688Y-11302894D01*
X16796967Y-11329219D01*
X16809099Y-11334257D01*
X16817421Y-11342579D01*
X16817421Y-11342579D01*
X16846132Y-11361763D01*
X16846492Y-11361835D01*
X16880000Y-11368500D01*
X16880000Y-11368500D01*
X16881016Y-11368500D01*
X16877895Y-11373171D01*
X16866591Y-11430000D01*
X16877895Y-11486828D01*
X16910085Y-11535005D01*
X16943003Y-11557000D01*
X16910085Y-11578995D01*
X16877895Y-11627171D01*
X16866591Y-11684000D01*
X16877895Y-11740828D01*
X16910085Y-11789005D01*
X16914245Y-11791785D01*
X16909468Y-11792684D01*
X16887856Y-11806591D01*
X16873357Y-11827811D01*
X16868256Y-11853000D01*
X16868256Y-12023000D01*
X16872684Y-12046532D01*
X16886591Y-12068144D01*
X16907811Y-12082643D01*
X16933000Y-12087744D01*
X17103000Y-12087744D01*
X17126532Y-12083316D01*
X17148144Y-12069409D01*
X17162643Y-12048189D01*
X17167744Y-12023000D01*
X17167744Y-11853000D01*
X17163316Y-11829468D01*
X17149409Y-11807856D01*
X17128189Y-11793357D01*
X17121446Y-11791991D01*
X17125915Y-11789005D01*
X17158105Y-11740828D01*
X17165311Y-11704604D01*
X17168921Y-11708220D01*
X17203274Y-11722485D01*
X17240470Y-11722517D01*
X17274848Y-11708313D01*
X17301173Y-11682034D01*
X17315438Y-11647681D01*
X17315470Y-11610484D01*
X17310454Y-11598344D01*
X17310454Y-11438382D01*
X17310454Y-11438381D01*
X17308787Y-11430000D01*
X17374591Y-11430000D01*
X17385895Y-11486828D01*
X17418085Y-11535005D01*
X17451003Y-11557000D01*
X17418085Y-11578995D01*
X17385895Y-11627171D01*
X17374591Y-11684000D01*
X17385895Y-11740828D01*
X17418085Y-11789005D01*
X17422245Y-11791785D01*
X17417468Y-11792684D01*
X17395856Y-11806591D01*
X17381357Y-11827811D01*
X17376256Y-11853000D01*
X17376256Y-12023000D01*
X17380684Y-12046532D01*
X17394591Y-12068144D01*
X17415811Y-12082643D01*
X17441000Y-12087744D01*
X17611000Y-12087744D01*
X17634532Y-12083316D01*
X17656144Y-12069409D01*
X17670643Y-12048189D01*
X17675744Y-12023000D01*
X17675744Y-11853000D01*
X17671316Y-11829468D01*
X17657409Y-11807856D01*
X17636189Y-11793357D01*
X17629446Y-11791991D01*
X17633915Y-11789005D01*
X17666105Y-11740828D01*
X17677409Y-11684000D01*
X17666105Y-11627171D01*
X17633915Y-11578995D01*
X17600997Y-11557000D01*
X17633915Y-11535005D01*
X17666105Y-11486828D01*
X17677409Y-11430000D01*
X17882591Y-11430000D01*
X17893895Y-11486828D01*
X17926085Y-11535005D01*
X17959003Y-11557000D01*
X17926085Y-11578995D01*
X17893895Y-11627171D01*
X17882591Y-11684000D01*
X17893895Y-11740828D01*
X17926085Y-11789005D01*
X17930245Y-11791785D01*
X17925468Y-11792684D01*
X17903856Y-11806591D01*
X17889357Y-11827811D01*
X17884256Y-11853000D01*
X17884256Y-12023000D01*
X17888684Y-12046532D01*
X17902591Y-12068144D01*
X17923811Y-12082643D01*
X17949000Y-12087744D01*
X18119000Y-12087744D01*
X18142532Y-12083316D01*
X18164144Y-12069409D01*
X18178643Y-12048189D01*
X18183744Y-12023000D01*
X18183744Y-11853000D01*
X18179316Y-11829468D01*
X18165409Y-11807856D01*
X18144189Y-11793357D01*
X18137446Y-11791991D01*
X18141915Y-11789005D01*
X18174105Y-11740828D01*
X18185409Y-11684000D01*
X18174105Y-11627171D01*
X18141915Y-11578995D01*
X18108997Y-11557000D01*
X18141915Y-11535005D01*
X18174105Y-11486828D01*
X18185409Y-11430000D01*
X18390591Y-11430000D01*
X18401895Y-11486828D01*
X18434085Y-11535005D01*
X18467003Y-11557000D01*
X18434085Y-11578995D01*
X18401895Y-11627171D01*
X18390591Y-11684000D01*
X18401895Y-11740828D01*
X18434085Y-11789005D01*
X18438245Y-11791785D01*
X18433468Y-11792684D01*
X18411856Y-11806591D01*
X18397357Y-11827811D01*
X18392256Y-11853000D01*
X18392256Y-12023000D01*
X18396684Y-12046532D01*
X18410591Y-12068144D01*
X18431811Y-12082643D01*
X18457000Y-12087744D01*
X18627000Y-12087744D01*
X18650532Y-12083316D01*
X18672144Y-12069409D01*
X18686643Y-12048189D01*
X18691744Y-12023000D01*
X18691744Y-11853000D01*
X18687316Y-11829468D01*
X18673409Y-11807856D01*
X18652189Y-11793357D01*
X18645446Y-11791991D01*
X18649915Y-11789005D01*
X18682105Y-11740828D01*
X18693409Y-11684000D01*
X18682105Y-11627171D01*
X18649915Y-11578995D01*
X18616997Y-11557000D01*
X18649915Y-11535005D01*
X18682105Y-11486828D01*
X18693409Y-11430000D01*
X18682105Y-11373171D01*
X18649915Y-11324995D01*
X18601738Y-11292804D01*
X18544909Y-11281500D01*
X18539091Y-11281500D01*
X18482262Y-11292804D01*
X18434085Y-11324995D01*
X18401895Y-11373171D01*
X18390591Y-11430000D01*
X18185409Y-11430000D01*
X18174105Y-11373171D01*
X18141915Y-11324995D01*
X18093738Y-11292804D01*
X18036909Y-11281500D01*
X18031091Y-11281500D01*
X17974262Y-11292804D01*
X17926085Y-11324995D01*
X17893895Y-11373171D01*
X17882591Y-11430000D01*
X17677409Y-11430000D01*
X17666105Y-11373171D01*
X17633915Y-11324995D01*
X17585738Y-11292804D01*
X17528909Y-11281500D01*
X17523091Y-11281500D01*
X17466262Y-11292804D01*
X17418085Y-11324995D01*
X17385895Y-11373171D01*
X17374591Y-11430000D01*
X17308787Y-11430000D01*
X17303717Y-11404514D01*
X17303717Y-11404514D01*
X17284533Y-11375802D01*
X17284532Y-11375802D01*
X17146152Y-11237421D01*
X17146151Y-11237421D01*
X17126151Y-11217421D01*
X17116539Y-11210998D01*
X17097440Y-11198237D01*
X17091059Y-11196967D01*
X17063572Y-11191500D01*
X17063572Y-11191500D01*
X16948397Y-11191500D01*
X16977894Y-11179312D01*
X17004219Y-11153033D01*
X17018484Y-11118680D01*
X17018516Y-11081483D01*
X17004312Y-11047106D01*
X16978033Y-11020781D01*
X16943680Y-11006516D01*
X16906483Y-11006484D01*
X16872106Y-11020688D01*
X16845781Y-11046967D01*
X16834556Y-11074000D01*
X16506246Y-11074000D01*
X16503033Y-11070781D01*
X16468680Y-11056516D01*
X16431483Y-11056484D01*
X16397106Y-11070688D01*
X16370781Y-11096967D01*
X16356516Y-11131320D01*
X16356484Y-11168517D01*
X13513963Y-11168517D01*
X13514841Y-11167640D01*
X13531315Y-11142984D01*
X13537100Y-11113900D01*
X13537100Y-10872091D01*
X14472500Y-10872091D01*
X14472500Y-10877909D01*
X14483804Y-10934738D01*
X14515995Y-10982915D01*
X14564171Y-11015105D01*
X14621000Y-11026409D01*
X14677828Y-11015105D01*
X14726005Y-10982915D01*
X14728785Y-10978755D01*
X14729684Y-10983532D01*
X14743591Y-11005144D01*
X14764811Y-11019643D01*
X14790000Y-11024744D01*
X14960000Y-11024744D01*
X14983532Y-11020316D01*
X15005144Y-11006409D01*
X15019643Y-10985189D01*
X15024744Y-10960000D01*
X15024744Y-10790000D01*
X15020316Y-10766468D01*
X15006409Y-10744856D01*
X14985189Y-10730357D01*
X14960000Y-10725256D01*
X14790000Y-10725256D01*
X14766468Y-10729684D01*
X14744856Y-10743591D01*
X14730357Y-10764811D01*
X14728991Y-10771554D01*
X14726005Y-10767085D01*
X14677828Y-10734895D01*
X14621000Y-10723591D01*
X14564171Y-10734895D01*
X14515995Y-10767085D01*
X14483804Y-10815262D01*
X14472500Y-10872091D01*
X13537100Y-10872091D01*
X13537100Y-10690223D01*
X13540320Y-10687010D01*
X13554584Y-10652657D01*
X13554617Y-10615460D01*
X13540412Y-10581083D01*
X13514133Y-10554758D01*
X13479780Y-10540493D01*
X13442584Y-10540461D01*
X13408206Y-10554665D01*
X13381881Y-10580944D01*
X13367617Y-10615297D01*
X13367584Y-10652494D01*
X13381789Y-10686871D01*
X13385100Y-10690189D01*
X13385100Y-11082419D01*
X13373407Y-11094113D01*
X13369862Y-11090562D01*
X13335509Y-11076297D01*
X13298313Y-11076265D01*
X13263935Y-11090469D01*
X13251000Y-11103382D01*
X13251000Y-10931246D01*
X13254219Y-10928033D01*
X13268484Y-10893680D01*
X13268516Y-10856483D01*
X13254312Y-10822106D01*
X13228033Y-10795781D01*
X13193680Y-10781516D01*
X13156483Y-10781484D01*
X13122106Y-10795688D01*
X13095781Y-10821967D01*
X13081516Y-10856320D01*
X13081484Y-10893517D01*
X13095688Y-10927894D01*
X13099000Y-10931212D01*
X13099000Y-11768520D01*
X12996260Y-11871260D01*
X12979785Y-11895916D01*
X12974000Y-11925000D01*
X12974000Y-12043754D01*
X12970781Y-12046967D01*
X12956516Y-12081320D01*
X12956484Y-12118517D01*
X12933858Y-12118517D01*
X12935266Y-12115128D01*
X12935298Y-12077931D01*
X12921094Y-12043554D01*
X12917782Y-12040236D01*
X12917782Y-11206285D01*
X12912424Y-11179348D01*
X12911997Y-11177201D01*
X12895522Y-11152545D01*
X12879273Y-11136296D01*
X12879277Y-11131748D01*
X12865072Y-11097370D01*
X12838793Y-11071045D01*
X12804441Y-11056780D01*
X12767244Y-11056748D01*
X12749748Y-11063977D01*
X12724507Y-11053496D01*
X12687310Y-11053464D01*
X12661757Y-11064022D01*
X12643680Y-11056516D01*
X12606483Y-11056484D01*
X12589123Y-11063657D01*
X12589123Y-10973358D01*
X12593968Y-10968512D01*
X12598517Y-10968516D01*
X12632894Y-10954312D01*
X12659219Y-10928033D01*
X12673484Y-10893680D01*
X12673516Y-10856483D01*
X12659312Y-10822106D01*
X12633033Y-10795781D01*
X12598680Y-10781516D01*
X12561483Y-10781484D01*
X12527106Y-10795688D01*
X12500781Y-10821967D01*
X12486516Y-10856320D01*
X12486512Y-10861008D01*
X12459383Y-10888137D01*
X12442908Y-10912793D01*
X12437123Y-10941877D01*
X12437123Y-11231489D01*
X12431483Y-11231484D01*
X12397106Y-11245688D01*
X12370781Y-11271967D01*
X12356516Y-11306320D01*
X12356484Y-11343517D01*
X12370688Y-11377894D01*
X12374000Y-11381212D01*
X12374000Y-12618947D01*
X12363948Y-12628981D01*
X12349684Y-12663334D01*
X12349651Y-12700530D01*
X11176000Y-12700530D01*
X11176000Y-12568745D01*
X11179219Y-12565532D01*
X11188363Y-12543512D01*
X11193517Y-12543516D01*
X11227894Y-12529312D01*
X11254219Y-12503033D01*
X11268484Y-12468680D01*
X11268516Y-12431483D01*
X11263147Y-12418490D01*
X11293517Y-12418516D01*
X11327894Y-12404312D01*
X11354219Y-12378033D01*
X11368484Y-12343680D01*
X11368516Y-12306483D01*
X11354312Y-12272106D01*
X11328033Y-12245781D01*
X11293680Y-12231516D01*
X11256483Y-12231484D01*
X11222106Y-12245688D01*
X11218788Y-12249000D01*
X10977900Y-12249000D01*
X10948816Y-12254785D01*
X10924160Y-12271260D01*
X10887354Y-12308066D01*
X10861915Y-12269995D01*
X10828997Y-12248000D01*
X10861915Y-12226005D01*
X10861918Y-12226000D01*
X11143754Y-12226000D01*
X11146967Y-12229219D01*
X11181320Y-12243484D01*
X11218517Y-12243516D01*
X11252894Y-12229312D01*
X11279219Y-12203033D01*
X11293484Y-12168680D01*
X11293516Y-12131483D01*
X11279312Y-12097106D01*
X11253033Y-12070781D01*
X11218680Y-12056516D01*
X11181483Y-12056484D01*
X11147106Y-12070688D01*
X11143788Y-12074000D01*
X10896060Y-12074000D01*
X10894105Y-12064171D01*
X10861915Y-12015995D01*
X10828997Y-11994000D01*
X10861915Y-11972005D01*
X10894105Y-11923828D01*
X10905409Y-11867000D01*
X10894105Y-11810171D01*
X10861915Y-11761995D01*
X10813738Y-11729804D01*
X10756909Y-11718500D01*
X10751091Y-11718500D01*
X10694262Y-11729804D01*
X10646085Y-11761995D01*
X10646003Y-11762118D01*
X10645316Y-11758468D01*
X10631409Y-11736856D01*
X10610189Y-11722357D01*
X10585000Y-11717256D01*
X10415000Y-11717256D01*
X10391468Y-11721684D01*
X10369856Y-11735591D01*
X10355357Y-11756811D01*
X10350256Y-11782000D01*
X10350256Y-11952000D01*
X10354684Y-11975532D01*
X10368591Y-11997144D01*
X10389811Y-12011643D01*
X10396554Y-12013009D01*
X10392085Y-12015995D01*
X10359895Y-12064171D01*
X10348591Y-12121000D01*
X10071000Y-12121000D01*
X10071000Y-11418517D01*
X10431484Y-11418517D01*
X10445688Y-11452894D01*
X10471967Y-11479219D01*
X10506320Y-11493484D01*
X10543517Y-11493516D01*
X10577894Y-11479312D01*
X10581212Y-11476000D01*
X10893520Y-11476000D01*
X11089117Y-11671597D01*
X11113773Y-11688072D01*
X11142857Y-11693857D01*
X11181255Y-11693857D01*
X11184468Y-11697076D01*
X11218821Y-11711341D01*
X11256018Y-11711373D01*
X11290395Y-11697169D01*
X11316720Y-11670890D01*
X11330985Y-11636537D01*
X11331005Y-11612825D01*
X11347013Y-11596846D01*
X11361277Y-11562493D01*
X11361310Y-11525296D01*
X11354184Y-11508050D01*
X11365370Y-11508050D01*
X11394454Y-11502264D01*
X11419110Y-11485790D01*
X11546239Y-11358661D01*
X11562714Y-11334005D01*
X11568499Y-11304921D01*
X11568499Y-11054999D01*
X11562714Y-11025915D01*
X11562714Y-11025915D01*
X11546239Y-11001259D01*
X11522673Y-10977693D01*
X11530005Y-10977699D01*
X11564382Y-10963495D01*
X11589693Y-10938228D01*
X11606400Y-10945166D01*
X11643596Y-10945198D01*
X11677974Y-10930994D01*
X11704299Y-10904715D01*
X11718563Y-10870362D01*
X11718596Y-10833165D01*
X11704391Y-10798788D01*
X11701080Y-10795470D01*
X11701080Y-10552547D01*
X11709602Y-10556086D01*
X11731605Y-10556105D01*
X11731516Y-10556320D01*
X11731484Y-10593517D01*
X11745688Y-10627894D01*
X11771967Y-10654219D01*
X11806320Y-10668484D01*
X11843517Y-10668516D01*
X11877894Y-10654312D01*
X11881212Y-10651000D01*
X12008455Y-10651000D01*
X12019157Y-10661720D01*
X12053510Y-10675985D01*
X12090706Y-10676017D01*
X12125084Y-10661813D01*
X12141635Y-10645291D01*
X12144158Y-10647818D01*
X12178511Y-10662083D01*
X12183198Y-10662087D01*
X12187352Y-10666240D01*
X12201589Y-10675753D01*
X12189601Y-10704624D01*
X12189569Y-10741821D01*
X12203773Y-10776198D01*
X12222303Y-10794760D01*
X12222303Y-10882061D01*
X12219084Y-10885275D01*
X12204819Y-10919627D01*
X12204787Y-10956824D01*
X12218991Y-10991202D01*
X12245270Y-11017527D01*
X12279623Y-11031791D01*
X12316819Y-11031824D01*
X12351197Y-11017619D01*
X12377522Y-10991340D01*
X12391787Y-10956987D01*
X12391819Y-10919791D01*
X12377614Y-10885413D01*
X12374303Y-10882096D01*
X12374303Y-10747441D01*
X12376220Y-10742824D01*
X13029661Y-10742824D01*
X13032875Y-10746044D01*
X13067228Y-10760308D01*
X13104424Y-10760341D01*
X13138802Y-10746136D01*
X13165127Y-10719857D01*
X13179392Y-10685504D01*
X13179424Y-10648308D01*
X13165219Y-10613930D01*
X13138940Y-10587605D01*
X13114789Y-10577577D01*
X13118484Y-10568680D01*
X13118516Y-10531483D01*
X13104312Y-10497106D01*
X13078033Y-10470781D01*
X13043680Y-10456516D01*
X13037874Y-10456511D01*
X13016584Y-10442285D01*
X12987500Y-10436500D01*
X12368512Y-10436500D01*
X12368516Y-10431483D01*
X12354312Y-10397106D01*
X12339097Y-10381864D01*
X12345393Y-10379263D01*
X12371718Y-10352984D01*
X12385983Y-10318631D01*
X12386003Y-10295900D01*
X12869436Y-10295900D01*
X12877830Y-10297570D01*
X12884467Y-10304219D01*
X12918820Y-10318484D01*
X12956017Y-10318516D01*
X12960603Y-10316621D01*
X12971534Y-10327572D01*
X13005887Y-10341836D01*
X13034631Y-10341861D01*
X13046967Y-10354219D01*
X13081320Y-10368484D01*
X13116967Y-10368515D01*
X13134748Y-10386327D01*
X13169101Y-10400591D01*
X13206297Y-10400624D01*
X13240675Y-10386419D01*
X13267000Y-10360140D01*
X13281264Y-10325787D01*
X13281297Y-10288591D01*
X13267092Y-10254213D01*
X13265966Y-10253085D01*
X13428740Y-10090311D01*
X13445215Y-10065655D01*
X13451000Y-10036571D01*
X13451000Y-9806246D01*
X13454219Y-9803033D01*
X13468484Y-9768680D01*
X13468484Y-9768517D01*
X14381484Y-9768517D01*
X14395688Y-9802894D01*
X14421967Y-9829219D01*
X14456320Y-9843484D01*
X14461008Y-9843488D01*
X14524000Y-9906480D01*
X14524000Y-10143754D01*
X14520781Y-10146967D01*
X14506516Y-10181320D01*
X14506484Y-10218517D01*
X14520688Y-10252894D01*
X14546967Y-10279219D01*
X14581320Y-10293484D01*
X14618517Y-10293516D01*
X14652894Y-10279312D01*
X14679219Y-10253033D01*
X14693484Y-10218680D01*
X14693516Y-10181483D01*
X14687994Y-10168120D01*
X15381615Y-10168120D01*
X15395819Y-10202497D01*
X15422098Y-10228822D01*
X15426642Y-10230709D01*
X15424045Y-10236962D01*
X15424013Y-10274159D01*
X15438217Y-10308536D01*
X15464496Y-10334861D01*
X15488388Y-10344782D01*
X15496341Y-10364031D01*
X15513792Y-10381512D01*
X15481483Y-10381484D01*
X15447106Y-10395688D01*
X15420781Y-10421967D01*
X15406516Y-10456320D01*
X15406484Y-10493517D01*
X15420688Y-10527894D01*
X15446967Y-10554219D01*
X15481320Y-10568484D01*
X15518517Y-10568516D01*
X15552894Y-10554312D01*
X15556212Y-10551000D01*
X15705890Y-10551000D01*
X15734974Y-10545215D01*
X15759630Y-10528740D01*
X15766279Y-10522091D01*
X16597500Y-10522091D01*
X16597500Y-10527909D01*
X16608804Y-10584738D01*
X16640995Y-10632915D01*
X16689171Y-10665105D01*
X16746000Y-10676409D01*
X16802829Y-10665105D01*
X16851005Y-10632915D01*
X16853785Y-10628755D01*
X16854684Y-10633532D01*
X16868591Y-10655144D01*
X16889811Y-10669643D01*
X16915000Y-10674744D01*
X17085000Y-10674744D01*
X17108532Y-10670316D01*
X17130144Y-10656409D01*
X17144643Y-10635189D01*
X17149744Y-10610000D01*
X17149744Y-10440000D01*
X17145316Y-10416468D01*
X17131409Y-10394856D01*
X17110189Y-10380357D01*
X17085000Y-10375256D01*
X16915000Y-10375256D01*
X16891468Y-10379684D01*
X16869856Y-10393591D01*
X16855357Y-10414811D01*
X16853991Y-10421554D01*
X16851005Y-10417085D01*
X16802829Y-10384895D01*
X16746000Y-10373591D01*
X16689171Y-10384895D01*
X16640995Y-10417085D01*
X16608804Y-10465262D01*
X16597500Y-10522091D01*
X15766279Y-10522091D01*
X15903740Y-10384630D01*
X15920215Y-10359974D01*
X15924188Y-10340000D01*
X17975256Y-10340000D01*
X17975256Y-10510000D01*
X17979684Y-10533532D01*
X17993591Y-10555144D01*
X18014811Y-10569643D01*
X18040000Y-10574744D01*
X18210000Y-10574744D01*
X18233532Y-10570316D01*
X18255144Y-10556409D01*
X18269643Y-10535189D01*
X18271009Y-10528446D01*
X18273995Y-10532915D01*
X18322172Y-10565105D01*
X18379000Y-10576409D01*
X18435829Y-10565105D01*
X18484005Y-10532915D01*
X18516196Y-10484738D01*
X18527500Y-10427909D01*
X18527500Y-10422091D01*
X18516196Y-10365262D01*
X18484005Y-10317085D01*
X18435829Y-10284895D01*
X18379000Y-10273591D01*
X18322172Y-10284895D01*
X18273995Y-10317085D01*
X18271215Y-10321245D01*
X18270316Y-10316468D01*
X18256409Y-10294856D01*
X18235189Y-10280357D01*
X18210000Y-10275256D01*
X18040000Y-10275256D01*
X18016468Y-10279684D01*
X17994856Y-10293591D01*
X17980357Y-10314811D01*
X17975256Y-10340000D01*
X15924188Y-10340000D01*
X15926000Y-10330890D01*
X15926000Y-10206246D01*
X15929219Y-10203033D01*
X15943484Y-10168680D01*
X15943516Y-10131483D01*
X15929312Y-10097106D01*
X15903033Y-10070781D01*
X15884327Y-10063013D01*
X15888427Y-10053140D01*
X15888459Y-10015943D01*
X15874255Y-9981566D01*
X15847976Y-9955241D01*
X15813623Y-9940976D01*
X15785173Y-9940951D01*
X15785190Y-9921119D01*
X15770986Y-9886742D01*
X15744707Y-9860417D01*
X15710354Y-9846152D01*
X15673157Y-9846120D01*
X15670278Y-9847309D01*
X15666508Y-9843532D01*
X15632155Y-9829268D01*
X15594958Y-9829235D01*
X15560581Y-9843440D01*
X15534256Y-9869719D01*
X15519991Y-9904072D01*
X15519987Y-9908759D01*
X15421391Y-10007356D01*
X15404916Y-10032012D01*
X15399131Y-10061096D01*
X15399131Y-10093357D01*
X15395912Y-10096570D01*
X15381647Y-10130923D01*
X15381615Y-10168120D01*
X14687994Y-10168120D01*
X14679312Y-10147106D01*
X14676000Y-10143788D01*
X14676000Y-9875000D01*
X14670215Y-9845916D01*
X14653740Y-9821260D01*
X14568512Y-9736032D01*
X14568516Y-9731483D01*
X14554312Y-9697106D01*
X14528033Y-9670781D01*
X14493680Y-9656516D01*
X14456483Y-9656484D01*
X14422106Y-9670688D01*
X14395781Y-9696967D01*
X14381516Y-9731320D01*
X14381484Y-9768517D01*
X13468484Y-9768517D01*
X13468516Y-9731483D01*
X13454312Y-9697106D01*
X13428033Y-9670781D01*
X13393680Y-9656516D01*
X13356483Y-9656484D01*
X13322106Y-9670688D01*
X13295781Y-9696967D01*
X13281516Y-9731320D01*
X13281484Y-9768517D01*
X13295688Y-9802894D01*
X13299000Y-9806212D01*
X13299000Y-10005090D01*
X13282569Y-10021521D01*
X13282569Y-9856569D01*
X13276784Y-9827486D01*
X13260309Y-9802829D01*
X12993512Y-9536032D01*
X12993516Y-9531483D01*
X12979312Y-9497106D01*
X12953033Y-9470781D01*
X12918680Y-9456516D01*
X12881483Y-9456484D01*
X12847106Y-9470688D01*
X12820781Y-9496967D01*
X12806516Y-9531320D01*
X12806484Y-9568517D01*
X12811447Y-9580529D01*
X12798970Y-9585684D01*
X12772645Y-9611963D01*
X12758381Y-9646316D01*
X12758377Y-9651134D01*
X12753033Y-9645781D01*
X12718680Y-9631516D01*
X12681483Y-9631484D01*
X12647106Y-9645688D01*
X12620781Y-9671967D01*
X12606516Y-9706320D01*
X12606484Y-9743517D01*
X12620688Y-9777894D01*
X12646967Y-9804219D01*
X12681320Y-9818484D01*
X12711029Y-9818510D01*
X12831488Y-9938968D01*
X12831484Y-9943517D01*
X12845688Y-9977894D01*
X12871967Y-10004219D01*
X12906320Y-10018484D01*
X12925779Y-10018501D01*
X12916430Y-10041016D01*
X12916429Y-10041499D01*
X12348979Y-10041499D01*
X12231237Y-9923757D01*
X12206581Y-9907283D01*
X12177497Y-9901497D01*
X11716578Y-9901497D01*
X11687494Y-9907283D01*
X11662838Y-9923757D01*
X11156258Y-10430337D01*
X11139783Y-10454993D01*
X11133998Y-10484077D01*
X11133998Y-10856229D01*
X11128999Y-10881360D01*
X11133998Y-10906491D01*
X11133998Y-11134998D01*
X11139783Y-11164082D01*
X11156258Y-11188738D01*
X11180914Y-11205213D01*
X11209998Y-11210998D01*
X11213707Y-11210998D01*
X11213914Y-11211500D01*
X11168980Y-11211500D01*
X11118512Y-11161032D01*
X11118516Y-11156483D01*
X11104312Y-11122106D01*
X11078033Y-11095781D01*
X11043680Y-11081516D01*
X11006483Y-11081484D01*
X10972106Y-11095688D01*
X10945781Y-11121967D01*
X10931516Y-11156320D01*
X10931484Y-11193517D01*
X10945688Y-11227894D01*
X10971967Y-11254219D01*
X11006320Y-11268484D01*
X11011008Y-11268488D01*
X11083760Y-11341240D01*
X11085163Y-11342177D01*
X11059605Y-11352738D01*
X11054227Y-11358106D01*
X10961413Y-11265292D01*
X10936757Y-11248817D01*
X10907673Y-11243032D01*
X10584066Y-11243032D01*
X10580853Y-11239813D01*
X10546500Y-11225548D01*
X10509303Y-11225516D01*
X10474926Y-11239720D01*
X10448601Y-11265999D01*
X10434336Y-11300352D01*
X10434304Y-11337548D01*
X10441979Y-11356124D01*
X10431516Y-11381320D01*
X10431484Y-11418517D01*
X10071000Y-11418517D01*
X10071000Y-9375000D01*
X10448591Y-9375000D01*
X10459895Y-9431829D01*
X10492085Y-9480005D01*
X10525003Y-9502000D01*
X10492085Y-9523995D01*
X10459895Y-9572172D01*
X10448591Y-9629000D01*
X10459895Y-9685829D01*
X10492085Y-9734005D01*
X10540262Y-9766196D01*
X10597091Y-9777500D01*
X10602909Y-9777500D01*
X10659738Y-9766196D01*
X10707915Y-9734005D01*
X10740105Y-9685829D01*
X10751409Y-9629000D01*
X10740105Y-9572172D01*
X10707915Y-9523995D01*
X10674997Y-9502000D01*
X10707915Y-9480005D01*
X10740105Y-9431829D01*
X10743453Y-9415000D01*
X14517256Y-9415000D01*
X14517256Y-9585000D01*
X14521684Y-9608532D01*
X14535591Y-9630144D01*
X14556811Y-9644643D01*
X14582000Y-9649744D01*
X14681500Y-9649744D01*
X14681484Y-9668517D01*
X14695688Y-9702894D01*
X14721967Y-9729219D01*
X14756320Y-9743484D01*
X14761008Y-9743488D01*
X14802689Y-9785170D01*
X14802678Y-9798512D01*
X14816882Y-9832890D01*
X14843161Y-9859215D01*
X14877514Y-9873479D01*
X14914711Y-9873512D01*
X14949088Y-9859307D01*
X14975413Y-9833028D01*
X14989678Y-9798676D01*
X14989710Y-9761479D01*
X14975506Y-9727101D01*
X14949227Y-9700776D01*
X14921916Y-9689436D01*
X14874675Y-9642195D01*
X14921000Y-9651409D01*
X14977828Y-9640105D01*
X15026005Y-9607915D01*
X15048000Y-9574997D01*
X15069995Y-9607915D01*
X15118171Y-9640105D01*
X15175000Y-9651409D01*
X15231828Y-9640105D01*
X15280005Y-9607915D01*
X15312196Y-9559738D01*
X15323500Y-9502909D01*
X15323500Y-9497091D01*
X15312196Y-9440262D01*
X15280005Y-9392085D01*
X15231828Y-9359895D01*
X15175000Y-9348591D01*
X15118171Y-9359895D01*
X15069995Y-9392085D01*
X15048000Y-9425003D01*
X15026005Y-9392085D01*
X14977828Y-9359895D01*
X14921000Y-9348591D01*
X14864171Y-9359895D01*
X14815995Y-9392085D01*
X14813215Y-9396245D01*
X14812316Y-9391468D01*
X14798409Y-9369856D01*
X14777189Y-9355357D01*
X14752000Y-9350256D01*
X14582000Y-9350256D01*
X14558468Y-9354684D01*
X14536856Y-9368591D01*
X14522357Y-9389811D01*
X14517256Y-9415000D01*
X10743453Y-9415000D01*
X10751409Y-9375000D01*
X10740105Y-9318172D01*
X10707915Y-9269995D01*
X10703522Y-9267060D01*
X10720970Y-9259833D01*
X10738833Y-9241970D01*
X10748500Y-9218631D01*
X10748500Y-9149575D01*
X10732625Y-9133700D01*
X10612700Y-9133700D01*
X10612700Y-9135700D01*
X10587300Y-9135700D01*
X10587300Y-9133700D01*
X10467375Y-9133700D01*
X10451500Y-9149575D01*
X10451500Y-9218631D01*
X10461167Y-9241970D01*
X10479030Y-9259833D01*
X10496478Y-9267060D01*
X10492085Y-9269995D01*
X10459895Y-9318172D01*
X10448591Y-9375000D01*
X10071000Y-9375000D01*
X10071000Y-9023369D01*
X10451500Y-9023369D01*
X10451500Y-9092425D01*
X10467375Y-9108300D01*
X10587300Y-9108300D01*
X10587300Y-8988375D01*
X10612700Y-8988375D01*
X10612700Y-9108300D01*
X10732625Y-9108300D01*
X10748500Y-9092425D01*
X10748500Y-9043517D01*
X11781484Y-9043517D01*
X11795688Y-9077894D01*
X11801500Y-9083716D01*
X11801500Y-9091258D01*
X11795781Y-9096967D01*
X11781516Y-9131320D01*
X11781484Y-9168517D01*
X11795688Y-9202894D01*
X11821967Y-9229219D01*
X11856320Y-9243484D01*
X11893517Y-9243516D01*
X11927894Y-9229312D01*
X11954219Y-9203033D01*
X11968484Y-9168680D01*
X11968516Y-9131483D01*
X11954312Y-9097106D01*
X11948500Y-9091284D01*
X11948500Y-9083742D01*
X11954219Y-9078033D01*
X11968484Y-9043680D01*
X11968516Y-9006483D01*
X11954312Y-8972106D01*
X11928033Y-8945781D01*
X11893680Y-8931516D01*
X11856483Y-8931484D01*
X11822106Y-8945688D01*
X11795781Y-8971967D01*
X11781516Y-9006320D01*
X11781484Y-9043517D01*
X10748500Y-9043517D01*
X10748500Y-9023369D01*
X10738833Y-9000030D01*
X10720970Y-8982167D01*
X10697631Y-8972500D01*
X10628575Y-8972500D01*
X10612700Y-8988375D01*
X10587300Y-8988375D01*
X10571425Y-8972500D01*
X10502369Y-8972500D01*
X10479030Y-8982167D01*
X10461167Y-9000030D01*
X10451500Y-9023369D01*
X10071000Y-9023369D01*
X10071000Y-8493517D01*
X13606484Y-8493517D01*
X13620688Y-8527894D01*
X13646967Y-8554219D01*
X13681320Y-8568484D01*
X13718517Y-8568516D01*
X13752894Y-8554312D01*
X13756212Y-8551000D01*
X14684576Y-8551000D01*
X14695688Y-8577894D01*
X14721967Y-8604219D01*
X14756320Y-8618484D01*
X14793517Y-8618516D01*
X14827894Y-8604312D01*
X14838708Y-8593517D01*
X15031484Y-8593517D01*
X15045688Y-8627894D01*
X15071967Y-8654219D01*
X15106320Y-8668484D01*
X15143517Y-8668516D01*
X15177894Y-8654312D01*
X15181212Y-8651000D01*
X15206499Y-8651000D01*
X15206484Y-8668517D01*
X15220688Y-8702894D01*
X15246967Y-8729219D01*
X15281320Y-8743484D01*
X15318517Y-8743516D01*
X15352894Y-8729312D01*
X15356212Y-8726000D01*
X15455849Y-8726000D01*
X15462994Y-8743292D01*
X15489273Y-8769616D01*
X15523625Y-8783881D01*
X15560822Y-8783913D01*
X15595200Y-8769709D01*
X15621524Y-8743430D01*
X15635789Y-8709077D01*
X15635821Y-8671881D01*
X15621617Y-8637503D01*
X15595338Y-8611178D01*
X15587559Y-8607948D01*
X15593484Y-8593680D01*
X15593516Y-8556483D01*
X15579312Y-8522106D01*
X15553033Y-8495781D01*
X15518680Y-8481516D01*
X15481483Y-8481484D01*
X15447106Y-8495688D01*
X15443788Y-8499000D01*
X15181246Y-8499000D01*
X15178033Y-8495781D01*
X15143680Y-8481516D01*
X15106483Y-8481484D01*
X15072106Y-8495688D01*
X15045781Y-8521967D01*
X15031516Y-8556320D01*
X15031484Y-8593517D01*
X14838708Y-8593517D01*
X14854219Y-8578033D01*
X14868484Y-8543680D01*
X14868516Y-8506483D01*
X14854312Y-8472106D01*
X14828033Y-8445781D01*
X14793680Y-8431516D01*
X14788992Y-8431512D01*
X14778740Y-8421260D01*
X14754084Y-8404785D01*
X14725000Y-8399000D01*
X13756246Y-8399000D01*
X13753033Y-8395781D01*
X13718680Y-8381516D01*
X13681483Y-8381484D01*
X13647106Y-8395688D01*
X13620781Y-8421967D01*
X13606516Y-8456320D01*
X13606484Y-8493517D01*
X10071000Y-8493517D01*
X10071000Y-8168689D01*
X10480852Y-8168689D01*
X10497836Y-8209692D01*
X10536864Y-8252518D01*
X10589311Y-8277149D01*
X10612300Y-8265082D01*
X10612300Y-8145700D01*
X10637700Y-8145700D01*
X10637700Y-8265082D01*
X10660689Y-8277149D01*
X10713136Y-8252518D01*
X10752165Y-8209692D01*
X10769148Y-8168689D01*
X10757016Y-8145700D01*
X10637700Y-8145700D01*
X10612300Y-8145700D01*
X10492985Y-8145700D01*
X10480852Y-8168689D01*
X10071000Y-8168689D01*
X10071000Y-7625000D01*
X10473591Y-7625000D01*
X10484895Y-7681828D01*
X10517085Y-7730005D01*
X10550003Y-7752000D01*
X10517085Y-7773995D01*
X10484895Y-7822171D01*
X10473591Y-7879000D01*
X10484895Y-7935828D01*
X10517085Y-7984005D01*
X10551155Y-8006770D01*
X10536864Y-8013482D01*
X10497836Y-8056308D01*
X10480852Y-8097311D01*
X10492985Y-8120300D01*
X10612300Y-8120300D01*
X10612300Y-8118300D01*
X10637700Y-8118300D01*
X10637700Y-8120300D01*
X10757016Y-8120300D01*
X10769148Y-8097311D01*
X10757221Y-8068517D01*
X15806484Y-8068517D01*
X15820688Y-8102894D01*
X15846967Y-8129219D01*
X15881320Y-8143484D01*
X15886008Y-8143488D01*
X15892637Y-8150117D01*
X15889086Y-8153662D01*
X15874821Y-8188015D01*
X15874789Y-8225212D01*
X15888993Y-8259589D01*
X15915272Y-8285914D01*
X15949625Y-8300179D01*
X15959160Y-8300187D01*
X15968736Y-8306585D01*
X15934605Y-8320688D01*
X15908280Y-8346967D01*
X15894015Y-8381320D01*
X15893983Y-8418517D01*
X15899000Y-8430659D01*
X15899000Y-8818754D01*
X15895781Y-8821967D01*
X15881516Y-8856320D01*
X15881484Y-8893517D01*
X15895688Y-8927894D01*
X15921967Y-8954219D01*
X15956320Y-8968484D01*
X15993517Y-8968516D01*
X16025035Y-8955493D01*
X16056320Y-8968484D01*
X16093517Y-8968516D01*
X16125035Y-8955493D01*
X16156320Y-8968484D01*
X16193517Y-8968516D01*
X16225035Y-8955493D01*
X16256320Y-8968484D01*
X16293517Y-8968516D01*
X16325035Y-8955493D01*
X16356320Y-8968484D01*
X16393517Y-8968516D01*
X16427894Y-8954312D01*
X16454219Y-8928033D01*
X16468484Y-8893680D01*
X16468516Y-8856483D01*
X16454312Y-8822106D01*
X16428033Y-8795781D01*
X16426000Y-8794937D01*
X16426000Y-8481246D01*
X16429219Y-8478033D01*
X16443484Y-8443680D01*
X16443516Y-8406483D01*
X16430508Y-8375000D01*
X17223591Y-8375000D01*
X17234895Y-8431829D01*
X17267085Y-8480005D01*
X17271245Y-8482785D01*
X17266468Y-8483684D01*
X17244856Y-8497591D01*
X17230357Y-8518811D01*
X17225256Y-8544000D01*
X17225256Y-8714000D01*
X17229684Y-8737532D01*
X17243591Y-8759144D01*
X17264811Y-8773643D01*
X17290000Y-8778744D01*
X17460000Y-8778744D01*
X17483532Y-8774316D01*
X17505144Y-8760409D01*
X17519643Y-8739189D01*
X17524744Y-8714000D01*
X17524744Y-8544000D01*
X17520316Y-8520468D01*
X17506409Y-8498856D01*
X17485189Y-8484357D01*
X17478446Y-8482991D01*
X17482915Y-8480005D01*
X17515105Y-8431829D01*
X17526409Y-8375000D01*
X17723591Y-8375000D01*
X17734895Y-8431829D01*
X17767085Y-8480005D01*
X17771245Y-8482785D01*
X17766468Y-8483684D01*
X17744856Y-8497591D01*
X17730357Y-8518811D01*
X17725256Y-8544000D01*
X17725256Y-8714000D01*
X17729684Y-8737532D01*
X17743591Y-8759144D01*
X17764811Y-8773643D01*
X17790000Y-8778744D01*
X17960000Y-8778744D01*
X17983532Y-8774316D01*
X18005144Y-8760409D01*
X18019643Y-8739189D01*
X18024744Y-8714000D01*
X18024744Y-8544000D01*
X18020316Y-8520468D01*
X18006409Y-8498856D01*
X17985189Y-8484357D01*
X17978446Y-8482991D01*
X17982915Y-8480005D01*
X18015105Y-8431829D01*
X18026409Y-8375000D01*
X18223591Y-8375000D01*
X18234895Y-8431829D01*
X18267085Y-8480005D01*
X18271245Y-8482785D01*
X18266468Y-8483684D01*
X18244856Y-8497591D01*
X18230357Y-8518811D01*
X18225256Y-8544000D01*
X18225256Y-8714000D01*
X18229684Y-8737532D01*
X18243591Y-8759144D01*
X18264811Y-8773643D01*
X18290000Y-8778744D01*
X18460000Y-8778744D01*
X18483532Y-8774316D01*
X18505144Y-8760409D01*
X18519643Y-8739189D01*
X18524744Y-8714000D01*
X18524744Y-8544000D01*
X18520316Y-8520468D01*
X18506409Y-8498856D01*
X18485189Y-8484357D01*
X18478446Y-8482991D01*
X18482915Y-8480005D01*
X18515105Y-8431829D01*
X18526409Y-8375000D01*
X18723591Y-8375000D01*
X18734895Y-8431829D01*
X18767085Y-8480005D01*
X18771245Y-8482785D01*
X18766468Y-8483684D01*
X18744856Y-8497591D01*
X18730357Y-8518811D01*
X18725256Y-8544000D01*
X18725256Y-8714000D01*
X18729684Y-8737532D01*
X18743591Y-8759144D01*
X18764811Y-8773643D01*
X18790000Y-8778744D01*
X18960000Y-8778744D01*
X18983532Y-8774316D01*
X19005144Y-8760409D01*
X19019643Y-8739189D01*
X19024744Y-8714000D01*
X19024744Y-8544000D01*
X19020316Y-8520468D01*
X19006409Y-8498856D01*
X18985189Y-8484357D01*
X18978446Y-8482991D01*
X18982915Y-8480005D01*
X19015105Y-8431829D01*
X19026409Y-8375000D01*
X19015105Y-8318171D01*
X18982915Y-8269995D01*
X18934738Y-8237804D01*
X18877909Y-8226500D01*
X18872091Y-8226500D01*
X18815262Y-8237804D01*
X18767085Y-8269995D01*
X18734895Y-8318171D01*
X18723591Y-8375000D01*
X18526409Y-8375000D01*
X18515105Y-8318171D01*
X18482915Y-8269995D01*
X18434738Y-8237804D01*
X18377909Y-8226500D01*
X18372091Y-8226500D01*
X18315262Y-8237804D01*
X18267085Y-8269995D01*
X18234895Y-8318171D01*
X18223591Y-8375000D01*
X18026409Y-8375000D01*
X18015105Y-8318171D01*
X17982915Y-8269995D01*
X17934738Y-8237804D01*
X17877909Y-8226500D01*
X17872091Y-8226500D01*
X17815262Y-8237804D01*
X17767085Y-8269995D01*
X17734895Y-8318171D01*
X17723591Y-8375000D01*
X17526409Y-8375000D01*
X17515105Y-8318171D01*
X17482915Y-8269995D01*
X17434738Y-8237804D01*
X17377909Y-8226500D01*
X17372091Y-8226500D01*
X17315262Y-8237804D01*
X17267085Y-8269995D01*
X17234895Y-8318171D01*
X17223591Y-8375000D01*
X16430508Y-8375000D01*
X16429312Y-8372106D01*
X16403033Y-8345781D01*
X16368680Y-8331516D01*
X16331483Y-8331484D01*
X16301396Y-8343916D01*
X15993512Y-8036032D01*
X15993516Y-8031483D01*
X15979312Y-7997106D01*
X15953033Y-7970781D01*
X15918680Y-7956516D01*
X15881483Y-7956484D01*
X15847106Y-7970688D01*
X15820781Y-7996967D01*
X15806516Y-8031320D01*
X15806484Y-8068517D01*
X10757221Y-8068517D01*
X10752165Y-8056308D01*
X10713136Y-8013482D01*
X10698845Y-8006770D01*
X10732915Y-7984005D01*
X10765105Y-7935828D01*
X10776409Y-7879000D01*
X10765105Y-7822171D01*
X10732915Y-7773995D01*
X10699997Y-7752000D01*
X10732915Y-7730005D01*
X10765105Y-7681828D01*
X10776409Y-7625000D01*
X10765105Y-7568171D01*
X10732915Y-7519995D01*
X10728755Y-7517215D01*
X10733532Y-7516316D01*
X10755144Y-7502409D01*
X10761220Y-7493517D01*
X13731484Y-7493517D01*
X13745688Y-7527894D01*
X13771967Y-7554219D01*
X13806320Y-7568484D01*
X13843517Y-7568516D01*
X13877894Y-7554312D01*
X13881212Y-7551000D01*
X14084576Y-7551000D01*
X14095688Y-7577894D01*
X14121967Y-7604219D01*
X14156320Y-7618484D01*
X14193517Y-7618516D01*
X14227894Y-7604312D01*
X14254219Y-7578033D01*
X14268484Y-7543680D01*
X14268516Y-7506483D01*
X14254312Y-7472106D01*
X14228033Y-7445781D01*
X14193680Y-7431516D01*
X14188992Y-7431512D01*
X14178740Y-7421260D01*
X14154084Y-7404785D01*
X14125000Y-7399000D01*
X13881246Y-7399000D01*
X13878033Y-7395781D01*
X13843680Y-7381516D01*
X13806483Y-7381484D01*
X13772106Y-7395688D01*
X13745781Y-7421967D01*
X13731516Y-7456320D01*
X13731484Y-7493517D01*
X10761220Y-7493517D01*
X10769643Y-7481189D01*
X10774744Y-7456000D01*
X10774744Y-7286000D01*
X10770316Y-7262468D01*
X10756409Y-7240856D01*
X10735189Y-7226357D01*
X10710000Y-7221256D01*
X10540000Y-7221256D01*
X10516468Y-7225684D01*
X10494856Y-7239591D01*
X10480357Y-7260811D01*
X10475256Y-7286000D01*
X10475256Y-7456000D01*
X10479684Y-7479532D01*
X10493591Y-7501144D01*
X10514811Y-7515643D01*
X10521554Y-7517009D01*
X10517085Y-7519995D01*
X10484895Y-7568171D01*
X10473591Y-7625000D01*
X10071000Y-7625000D01*
X10071000Y-7012700D01*
X19929000Y-7012700D01*
X19929000Y-15929000D01*
X19929000Y-15929000D01*
G37*
X19929000Y-15929000D02*
X10071000Y-15929000D01*
X10071000Y-15093517D01*
X16856484Y-15093517D01*
X16870688Y-15127894D01*
X16896967Y-15154219D01*
X16931320Y-15168484D01*
X16968517Y-15168516D01*
X16980657Y-15163500D01*
X17619318Y-15163500D01*
X17631320Y-15168484D01*
X17668517Y-15168516D01*
X17702894Y-15154312D01*
X17729219Y-15128033D01*
X17743484Y-15093680D01*
X17743516Y-15056483D01*
X17729312Y-15022106D01*
X17704986Y-14997738D01*
X17712738Y-14996196D01*
X17760915Y-14964005D01*
X17780000Y-14935442D01*
X17799085Y-14964005D01*
X17847262Y-14996196D01*
X17904091Y-15007500D01*
X17909909Y-15007500D01*
X17966738Y-14996196D01*
X18014915Y-14964005D01*
X18047105Y-14915828D01*
X18058409Y-14859000D01*
X18047105Y-14802171D01*
X18014915Y-14753995D01*
X18010755Y-14751215D01*
X18015532Y-14750316D01*
X18037144Y-14736409D01*
X18051643Y-14715189D01*
X18056744Y-14690000D01*
X18056744Y-14685689D01*
X19605852Y-14685689D01*
X19622836Y-14726692D01*
X19661864Y-14769518D01*
X19714311Y-14794149D01*
X19737300Y-14782082D01*
X19737300Y-14662700D01*
X19762700Y-14662700D01*
X19762700Y-14782082D01*
X19785689Y-14794149D01*
X19838136Y-14769518D01*
X19877165Y-14726692D01*
X19894148Y-14685689D01*
X19882016Y-14662700D01*
X19762700Y-14662700D01*
X19737300Y-14662700D01*
X19617985Y-14662700D01*
X19605852Y-14685689D01*
X18056744Y-14685689D01*
X18056744Y-14520000D01*
X18052316Y-14496468D01*
X18038409Y-14474856D01*
X18017189Y-14460357D01*
X17992000Y-14455256D01*
X17822000Y-14455256D01*
X17798468Y-14459684D01*
X17779792Y-14471701D01*
X17763189Y-14460357D01*
X17738000Y-14455256D01*
X17568000Y-14455256D01*
X17544468Y-14459684D01*
X17525792Y-14471701D01*
X17509189Y-14460357D01*
X17484000Y-14455256D01*
X17314000Y-14455256D01*
X17290468Y-14459684D01*
X17271792Y-14471701D01*
X17255189Y-14460357D01*
X17230000Y-14455256D01*
X17060000Y-14455256D01*
X17036468Y-14459684D01*
X17014856Y-14473591D01*
X17000357Y-14494811D01*
X16995256Y-14520000D01*
X16995256Y-14690000D01*
X16999684Y-14713532D01*
X17013591Y-14735144D01*
X17034811Y-14749643D01*
X17041554Y-14751009D01*
X17037085Y-14753995D01*
X17004895Y-14802171D01*
X16993591Y-14859000D01*
X17004895Y-14915828D01*
X17037085Y-14964005D01*
X17070751Y-14986500D01*
X16980682Y-14986500D01*
X16968680Y-14981516D01*
X16931483Y-14981484D01*
X16897106Y-14995688D01*
X16870781Y-15021967D01*
X16856516Y-15056320D01*
X16856484Y-15093517D01*
X10071000Y-15093517D01*
X10071000Y-14351397D01*
X13117563Y-14351397D01*
X13133542Y-14383274D01*
X13212619Y-14414272D01*
X13297539Y-14412650D01*
X13368458Y-14383274D01*
X13384436Y-14351397D01*
X13251000Y-14217960D01*
X13117563Y-14351397D01*
X10071000Y-14351397D01*
X10071000Y-14161619D01*
X13036728Y-14161619D01*
X13038350Y-14246539D01*
X13067726Y-14317458D01*
X13099603Y-14333436D01*
X13233039Y-14200000D01*
X13268960Y-14200000D01*
X13402397Y-14333436D01*
X13434274Y-14317458D01*
X13465272Y-14238381D01*
X13463650Y-14153461D01*
X13434274Y-14082542D01*
X13402397Y-14066563D01*
X13268960Y-14200000D01*
X13233039Y-14200000D01*
X13099603Y-14066563D01*
X13067726Y-14082542D01*
X13036728Y-14161619D01*
X10071000Y-14161619D01*
X10071000Y-14048603D01*
X13117563Y-14048603D01*
X13251000Y-14182039D01*
X13383039Y-14050000D01*
X15085256Y-14050000D01*
X15085256Y-14350000D01*
X15089684Y-14373532D01*
X15103591Y-14395144D01*
X15124811Y-14409643D01*
X15150000Y-14414744D01*
X15450000Y-14414744D01*
X15473532Y-14410316D01*
X15495144Y-14396409D01*
X15509643Y-14375189D01*
X15514744Y-14350000D01*
X15514744Y-14311000D01*
X19600256Y-14311000D01*
X19600256Y-14481000D01*
X19604684Y-14504532D01*
X19618591Y-14526144D01*
X19639811Y-14540643D01*
X19650611Y-14542830D01*
X19622836Y-14573308D01*
X19605852Y-14614311D01*
X19617985Y-14637300D01*
X19737300Y-14637300D01*
X19737300Y-14635300D01*
X19762700Y-14635300D01*
X19762700Y-14637300D01*
X19882016Y-14637300D01*
X19894148Y-14614311D01*
X19877165Y-14573308D01*
X19849550Y-14543006D01*
X19858532Y-14541316D01*
X19880144Y-14527409D01*
X19894643Y-14506189D01*
X19899744Y-14481000D01*
X19899744Y-14311000D01*
X19895316Y-14287468D01*
X19881409Y-14265856D01*
X19860189Y-14251357D01*
X19835000Y-14246256D01*
X19665000Y-14246256D01*
X19641468Y-14250684D01*
X19619856Y-14264591D01*
X19605357Y-14285811D01*
X19600256Y-14311000D01*
X15514744Y-14311000D01*
X15514744Y-14050000D01*
X15510316Y-14026468D01*
X15496409Y-14004856D01*
X15475189Y-13990357D01*
X15450000Y-13985256D01*
X15150000Y-13985256D01*
X15126468Y-13989684D01*
X15104856Y-14003591D01*
X15090357Y-14024811D01*
X15085256Y-14050000D01*
X13383039Y-14050000D01*
X13384436Y-14048603D01*
X13368458Y-14016726D01*
X13289381Y-13985728D01*
X13204461Y-13987350D01*
X13133542Y-14016726D01*
X13117563Y-14048603D01*
X10071000Y-14048603D01*
X10071000Y-13680689D01*
X10355852Y-13680689D01*
X10372836Y-13721692D01*
X10411864Y-13764518D01*
X10464311Y-13789149D01*
X10487300Y-13777082D01*
X10487300Y-13657700D01*
X10512700Y-13657700D01*
X10512700Y-13777082D01*
X10535689Y-13789149D01*
X10588136Y-13764518D01*
X10627000Y-13721873D01*
X10665864Y-13764518D01*
X10718311Y-13789149D01*
X10741300Y-13777082D01*
X10741300Y-13657700D01*
X10766700Y-13657700D01*
X10766700Y-13777082D01*
X10789689Y-13789149D01*
X10842136Y-13764518D01*
X10881165Y-13721692D01*
X10898148Y-13680689D01*
X10886016Y-13657700D01*
X10766700Y-13657700D01*
X10741300Y-13657700D01*
X10512700Y-13657700D01*
X10487300Y-13657700D01*
X10367985Y-13657700D01*
X10355852Y-13680689D01*
X10071000Y-13680689D01*
X10071000Y-12121000D01*
X10348591Y-12121000D01*
X10359895Y-12177828D01*
X10392085Y-12226005D01*
X10425003Y-12248000D01*
X10392085Y-12269995D01*
X10359895Y-12318171D01*
X10348591Y-12375000D01*
X10359895Y-12431828D01*
X10392085Y-12480005D01*
X10425003Y-12502000D01*
X10392085Y-12523995D01*
X10359895Y-12572171D01*
X10348591Y-12629000D01*
X10359895Y-12685828D01*
X10392085Y-12734005D01*
X10425003Y-12756000D01*
X10392085Y-12777995D01*
X10359895Y-12826171D01*
X10348591Y-12883000D01*
X10359895Y-12939828D01*
X10392085Y-12988005D01*
X10425003Y-13010000D01*
X10392085Y-13031995D01*
X10359895Y-13080171D01*
X10348591Y-13137000D01*
X10359895Y-13193828D01*
X10392085Y-13242005D01*
X10425003Y-13264000D01*
X10392085Y-13285995D01*
X10359895Y-13334171D01*
X10348591Y-13391000D01*
X10359895Y-13447828D01*
X10392085Y-13496005D01*
X10426155Y-13518770D01*
X10411864Y-13525482D01*
X10372836Y-13568308D01*
X10355852Y-13609311D01*
X10367985Y-13632300D01*
X10487300Y-13632300D01*
X10487300Y-13630300D01*
X10512700Y-13630300D01*
X10512700Y-13632300D01*
X10741300Y-13632300D01*
X10741300Y-13630300D01*
X10766700Y-13630300D01*
X10766700Y-13632300D01*
X10886016Y-13632300D01*
X10898148Y-13609311D01*
X10881165Y-13568308D01*
X10842136Y-13525482D01*
X10827845Y-13518770D01*
X10861915Y-13496005D01*
X10886580Y-13459091D01*
X17377500Y-13459091D01*
X17377500Y-13464909D01*
X17388804Y-13521738D01*
X17420995Y-13569915D01*
X17469172Y-13602105D01*
X17526000Y-13613409D01*
X17582829Y-13602105D01*
X17631005Y-13569915D01*
X17633785Y-13565755D01*
X17634684Y-13570532D01*
X17648591Y-13592144D01*
X17669811Y-13606643D01*
X17695000Y-13611744D01*
X17865000Y-13611744D01*
X17888532Y-13607316D01*
X17910144Y-13593409D01*
X17924643Y-13572189D01*
X17929744Y-13547000D01*
X17929744Y-13377000D01*
X17925316Y-13353468D01*
X17911409Y-13331856D01*
X17890189Y-13317357D01*
X17865000Y-13312256D01*
X17695000Y-13312256D01*
X17671468Y-13316684D01*
X17649856Y-13330591D01*
X17635357Y-13351811D01*
X17633991Y-13358554D01*
X17631005Y-13354085D01*
X17582829Y-13321895D01*
X17526000Y-13310591D01*
X17469172Y-13321895D01*
X17420995Y-13354085D01*
X17388804Y-13402262D01*
X17377500Y-13459091D01*
X10886580Y-13459091D01*
X10894105Y-13447828D01*
X10905409Y-13391000D01*
X10898121Y-13354359D01*
X11153740Y-13098740D01*
X11170215Y-13074084D01*
X11176000Y-13045000D01*
X11176000Y-12943517D01*
X18956484Y-12943517D01*
X18961500Y-12955657D01*
X18961500Y-13169318D01*
X18956516Y-13181320D01*
X18956484Y-13218517D01*
X18970688Y-13252894D01*
X18996967Y-13279219D01*
X19031320Y-13293484D01*
X19068517Y-13293516D01*
X19102894Y-13279312D01*
X19129219Y-13253033D01*
X19143484Y-13218680D01*
X19143516Y-13181483D01*
X19138500Y-13169343D01*
X19138500Y-13040000D01*
X19225256Y-13040000D01*
X19225256Y-13160000D01*
X19229684Y-13183532D01*
X19243591Y-13205144D01*
X19264811Y-13219643D01*
X19290000Y-13224744D01*
X19460000Y-13224744D01*
X19483532Y-13220316D01*
X19505144Y-13206409D01*
X19519643Y-13185189D01*
X19524744Y-13160000D01*
X19524744Y-13040000D01*
X19520316Y-13016468D01*
X19506409Y-12994856D01*
X19491169Y-12984443D01*
X19493193Y-12982912D01*
X19517829Y-12940938D01*
X19519346Y-12931761D01*
X19506873Y-12912700D01*
X19387700Y-12912700D01*
X19387700Y-12914700D01*
X19362300Y-12914700D01*
X19362300Y-12912700D01*
X19243127Y-12912700D01*
X19230654Y-12931761D01*
X19232171Y-12940938D01*
X19256807Y-12982912D01*
X19258942Y-12984527D01*
X19244856Y-12993591D01*
X19230357Y-13014811D01*
X19225256Y-13040000D01*
X19138500Y-13040000D01*
X19138500Y-12955682D01*
X19143484Y-12943680D01*
X19143516Y-12906483D01*
X19129312Y-12872106D01*
X19125452Y-12868239D01*
X19230654Y-12868239D01*
X19243127Y-12887300D01*
X19362300Y-12887300D01*
X19362300Y-12791745D01*
X19387700Y-12791745D01*
X19387700Y-12887300D01*
X19506873Y-12887300D01*
X19519346Y-12868239D01*
X19517829Y-12859062D01*
X19493193Y-12817087D01*
X19454370Y-12787735D01*
X19407270Y-12775474D01*
X19387700Y-12791745D01*
X19362300Y-12791745D01*
X19342730Y-12775474D01*
X19295630Y-12787735D01*
X19256807Y-12817087D01*
X19232171Y-12859062D01*
X19230654Y-12868239D01*
X19125452Y-12868239D01*
X19103033Y-12845781D01*
X19068680Y-12831516D01*
X19031483Y-12831484D01*
X18997106Y-12845688D01*
X18970781Y-12871967D01*
X18956516Y-12906320D01*
X18956484Y-12943517D01*
X11176000Y-12943517D01*
X11176000Y-12700530D01*
X12349651Y-12700530D01*
X12363856Y-12734908D01*
X12390135Y-12761233D01*
X12424488Y-12775497D01*
X12461684Y-12775530D01*
X12496062Y-12761325D01*
X12522387Y-12735046D01*
X12536651Y-12700694D01*
X12536684Y-12663497D01*
X12526000Y-12637640D01*
X12526000Y-12454017D01*
X12549443Y-12463751D01*
X12586639Y-12463783D01*
X12621017Y-12449579D01*
X12647342Y-12423300D01*
X12661606Y-12388947D01*
X12661639Y-12351751D01*
X12649384Y-12322091D01*
X14751500Y-12322091D01*
X14751500Y-12327909D01*
X14762804Y-12384738D01*
X14794995Y-12432915D01*
X14843171Y-12465105D01*
X14900000Y-12476409D01*
X14956828Y-12465105D01*
X15005005Y-12432915D01*
X15007785Y-12428755D01*
X15008684Y-12433532D01*
X15022591Y-12455144D01*
X15043811Y-12469643D01*
X15069000Y-12474744D01*
X15239000Y-12474744D01*
X15262532Y-12470316D01*
X15284144Y-12456409D01*
X15298643Y-12435189D01*
X15303744Y-12410000D01*
X15303744Y-12240000D01*
X15299316Y-12216468D01*
X15285409Y-12194856D01*
X15264189Y-12180357D01*
X15239000Y-12175256D01*
X15069000Y-12175256D01*
X15045468Y-12179684D01*
X15023856Y-12193591D01*
X15009357Y-12214811D01*
X15007991Y-12221554D01*
X15005005Y-12217085D01*
X14956828Y-12184895D01*
X14900000Y-12173591D01*
X14843171Y-12184895D01*
X14794995Y-12217085D01*
X14762804Y-12265262D01*
X14751500Y-12322091D01*
X12649384Y-12322091D01*
X12647434Y-12317373D01*
X12621155Y-12291048D01*
X12589123Y-12277747D01*
X12589123Y-12236015D01*
X12599244Y-12236024D01*
X12633622Y-12221819D01*
X12659947Y-12195540D01*
X12669094Y-12173511D01*
X12682194Y-12173523D01*
X12689286Y-12170592D01*
X12710375Y-12191718D01*
X12744728Y-12205983D01*
X12781924Y-12206015D01*
X12816302Y-12191811D01*
X12819629Y-12188490D01*
X12823102Y-12189932D01*
X12860299Y-12189964D01*
X12894676Y-12175760D01*
X12921001Y-12149481D01*
X12933858Y-12118517D01*
X12956484Y-12118517D01*
X12970688Y-12152894D01*
X12996967Y-12179219D01*
X13031320Y-12193484D01*
X13068517Y-12193516D01*
X13102894Y-12179312D01*
X13129219Y-12153033D01*
X13143484Y-12118680D01*
X13143516Y-12081483D01*
X13139483Y-12071722D01*
X13146967Y-12079219D01*
X13181320Y-12093484D01*
X13218517Y-12093516D01*
X13250035Y-12080493D01*
X13281320Y-12093484D01*
X13318517Y-12093516D01*
X13352894Y-12079312D01*
X13379219Y-12053033D01*
X13393484Y-12018680D01*
X13393488Y-12013992D01*
X13403740Y-12003740D01*
X13420215Y-11979084D01*
X13426000Y-11950000D01*
X13426000Y-11256480D01*
X13513963Y-11168517D01*
X16356484Y-11168517D01*
X16370688Y-11202894D01*
X16396967Y-11229219D01*
X16431320Y-11243484D01*
X16468517Y-11243516D01*
X16502894Y-11229312D01*
X16506212Y-11226000D01*
X16758725Y-11226000D01*
X16756516Y-11231320D01*
X16756484Y-11268517D01*
X16770688Y-11302894D01*
X16796967Y-11329219D01*
X16809099Y-11334257D01*
X16817421Y-11342579D01*
X16817421Y-11342579D01*
X16846132Y-11361763D01*
X16846492Y-11361835D01*
X16880000Y-11368500D01*
X16880000Y-11368500D01*
X16881016Y-11368500D01*
X16877895Y-11373171D01*
X16866591Y-11430000D01*
X16877895Y-11486828D01*
X16910085Y-11535005D01*
X16943003Y-11557000D01*
X16910085Y-11578995D01*
X16877895Y-11627171D01*
X16866591Y-11684000D01*
X16877895Y-11740828D01*
X16910085Y-11789005D01*
X16914245Y-11791785D01*
X16909468Y-11792684D01*
X16887856Y-11806591D01*
X16873357Y-11827811D01*
X16868256Y-11853000D01*
X16868256Y-12023000D01*
X16872684Y-12046532D01*
X16886591Y-12068144D01*
X16907811Y-12082643D01*
X16933000Y-12087744D01*
X17103000Y-12087744D01*
X17126532Y-12083316D01*
X17148144Y-12069409D01*
X17162643Y-12048189D01*
X17167744Y-12023000D01*
X17167744Y-11853000D01*
X17163316Y-11829468D01*
X17149409Y-11807856D01*
X17128189Y-11793357D01*
X17121446Y-11791991D01*
X17125915Y-11789005D01*
X17158105Y-11740828D01*
X17165311Y-11704604D01*
X17168921Y-11708220D01*
X17203274Y-11722485D01*
X17240470Y-11722517D01*
X17274848Y-11708313D01*
X17301173Y-11682034D01*
X17315438Y-11647681D01*
X17315470Y-11610484D01*
X17310454Y-11598344D01*
X17310454Y-11438382D01*
X17310454Y-11438381D01*
X17308787Y-11430000D01*
X17374591Y-11430000D01*
X17385895Y-11486828D01*
X17418085Y-11535005D01*
X17451003Y-11557000D01*
X17418085Y-11578995D01*
X17385895Y-11627171D01*
X17374591Y-11684000D01*
X17385895Y-11740828D01*
X17418085Y-11789005D01*
X17422245Y-11791785D01*
X17417468Y-11792684D01*
X17395856Y-11806591D01*
X17381357Y-11827811D01*
X17376256Y-11853000D01*
X17376256Y-12023000D01*
X17380684Y-12046532D01*
X17394591Y-12068144D01*
X17415811Y-12082643D01*
X17441000Y-12087744D01*
X17611000Y-12087744D01*
X17634532Y-12083316D01*
X17656144Y-12069409D01*
X17670643Y-12048189D01*
X17675744Y-12023000D01*
X17675744Y-11853000D01*
X17671316Y-11829468D01*
X17657409Y-11807856D01*
X17636189Y-11793357D01*
X17629446Y-11791991D01*
X17633915Y-11789005D01*
X17666105Y-11740828D01*
X17677409Y-11684000D01*
X17666105Y-11627171D01*
X17633915Y-11578995D01*
X17600997Y-11557000D01*
X17633915Y-11535005D01*
X17666105Y-11486828D01*
X17677409Y-11430000D01*
X17882591Y-11430000D01*
X17893895Y-11486828D01*
X17926085Y-11535005D01*
X17959003Y-11557000D01*
X17926085Y-11578995D01*
X17893895Y-11627171D01*
X17882591Y-11684000D01*
X17893895Y-11740828D01*
X17926085Y-11789005D01*
X17930245Y-11791785D01*
X17925468Y-11792684D01*
X17903856Y-11806591D01*
X17889357Y-11827811D01*
X17884256Y-11853000D01*
X17884256Y-12023000D01*
X17888684Y-12046532D01*
X17902591Y-12068144D01*
X17923811Y-12082643D01*
X17949000Y-12087744D01*
X18119000Y-12087744D01*
X18142532Y-12083316D01*
X18164144Y-12069409D01*
X18178643Y-12048189D01*
X18183744Y-12023000D01*
X18183744Y-11853000D01*
X18179316Y-11829468D01*
X18165409Y-11807856D01*
X18144189Y-11793357D01*
X18137446Y-11791991D01*
X18141915Y-11789005D01*
X18174105Y-11740828D01*
X18185409Y-11684000D01*
X18174105Y-11627171D01*
X18141915Y-11578995D01*
X18108997Y-11557000D01*
X18141915Y-11535005D01*
X18174105Y-11486828D01*
X18185409Y-11430000D01*
X18390591Y-11430000D01*
X18401895Y-11486828D01*
X18434085Y-11535005D01*
X18467003Y-11557000D01*
X18434085Y-11578995D01*
X18401895Y-11627171D01*
X18390591Y-11684000D01*
X18401895Y-11740828D01*
X18434085Y-11789005D01*
X18438245Y-11791785D01*
X18433468Y-11792684D01*
X18411856Y-11806591D01*
X18397357Y-11827811D01*
X18392256Y-11853000D01*
X18392256Y-12023000D01*
X18396684Y-12046532D01*
X18410591Y-12068144D01*
X18431811Y-12082643D01*
X18457000Y-12087744D01*
X18627000Y-12087744D01*
X18650532Y-12083316D01*
X18672144Y-12069409D01*
X18686643Y-12048189D01*
X18691744Y-12023000D01*
X18691744Y-11853000D01*
X18687316Y-11829468D01*
X18673409Y-11807856D01*
X18652189Y-11793357D01*
X18645446Y-11791991D01*
X18649915Y-11789005D01*
X18682105Y-11740828D01*
X18693409Y-11684000D01*
X18682105Y-11627171D01*
X18649915Y-11578995D01*
X18616997Y-11557000D01*
X18649915Y-11535005D01*
X18682105Y-11486828D01*
X18693409Y-11430000D01*
X18682105Y-11373171D01*
X18649915Y-11324995D01*
X18601738Y-11292804D01*
X18544909Y-11281500D01*
X18539091Y-11281500D01*
X18482262Y-11292804D01*
X18434085Y-11324995D01*
X18401895Y-11373171D01*
X18390591Y-11430000D01*
X18185409Y-11430000D01*
X18174105Y-11373171D01*
X18141915Y-11324995D01*
X18093738Y-11292804D01*
X18036909Y-11281500D01*
X18031091Y-11281500D01*
X17974262Y-11292804D01*
X17926085Y-11324995D01*
X17893895Y-11373171D01*
X17882591Y-11430000D01*
X17677409Y-11430000D01*
X17666105Y-11373171D01*
X17633915Y-11324995D01*
X17585738Y-11292804D01*
X17528909Y-11281500D01*
X17523091Y-11281500D01*
X17466262Y-11292804D01*
X17418085Y-11324995D01*
X17385895Y-11373171D01*
X17374591Y-11430000D01*
X17308787Y-11430000D01*
X17303717Y-11404514D01*
X17303717Y-11404514D01*
X17284533Y-11375802D01*
X17284532Y-11375802D01*
X17146152Y-11237421D01*
X17146151Y-11237421D01*
X17126151Y-11217421D01*
X17116539Y-11210998D01*
X17097440Y-11198237D01*
X17091059Y-11196967D01*
X17063572Y-11191500D01*
X17063572Y-11191500D01*
X16948397Y-11191500D01*
X16977894Y-11179312D01*
X17004219Y-11153033D01*
X17018484Y-11118680D01*
X17018516Y-11081483D01*
X17004312Y-11047106D01*
X16978033Y-11020781D01*
X16943680Y-11006516D01*
X16906483Y-11006484D01*
X16872106Y-11020688D01*
X16845781Y-11046967D01*
X16834556Y-11074000D01*
X16506246Y-11074000D01*
X16503033Y-11070781D01*
X16468680Y-11056516D01*
X16431483Y-11056484D01*
X16397106Y-11070688D01*
X16370781Y-11096967D01*
X16356516Y-11131320D01*
X16356484Y-11168517D01*
X13513963Y-11168517D01*
X13514841Y-11167640D01*
X13531315Y-11142984D01*
X13537100Y-11113900D01*
X13537100Y-10872091D01*
X14472500Y-10872091D01*
X14472500Y-10877909D01*
X14483804Y-10934738D01*
X14515995Y-10982915D01*
X14564171Y-11015105D01*
X14621000Y-11026409D01*
X14677828Y-11015105D01*
X14726005Y-10982915D01*
X14728785Y-10978755D01*
X14729684Y-10983532D01*
X14743591Y-11005144D01*
X14764811Y-11019643D01*
X14790000Y-11024744D01*
X14960000Y-11024744D01*
X14983532Y-11020316D01*
X15005144Y-11006409D01*
X15019643Y-10985189D01*
X15024744Y-10960000D01*
X15024744Y-10790000D01*
X15020316Y-10766468D01*
X15006409Y-10744856D01*
X14985189Y-10730357D01*
X14960000Y-10725256D01*
X14790000Y-10725256D01*
X14766468Y-10729684D01*
X14744856Y-10743591D01*
X14730357Y-10764811D01*
X14728991Y-10771554D01*
X14726005Y-10767085D01*
X14677828Y-10734895D01*
X14621000Y-10723591D01*
X14564171Y-10734895D01*
X14515995Y-10767085D01*
X14483804Y-10815262D01*
X14472500Y-10872091D01*
X13537100Y-10872091D01*
X13537100Y-10690223D01*
X13540320Y-10687010D01*
X13554584Y-10652657D01*
X13554617Y-10615460D01*
X13540412Y-10581083D01*
X13514133Y-10554758D01*
X13479780Y-10540493D01*
X13442584Y-10540461D01*
X13408206Y-10554665D01*
X13381881Y-10580944D01*
X13367617Y-10615297D01*
X13367584Y-10652494D01*
X13381789Y-10686871D01*
X13385100Y-10690189D01*
X13385100Y-11082419D01*
X13373407Y-11094113D01*
X13369862Y-11090562D01*
X13335509Y-11076297D01*
X13298313Y-11076265D01*
X13263935Y-11090469D01*
X13251000Y-11103382D01*
X13251000Y-10931246D01*
X13254219Y-10928033D01*
X13268484Y-10893680D01*
X13268516Y-10856483D01*
X13254312Y-10822106D01*
X13228033Y-10795781D01*
X13193680Y-10781516D01*
X13156483Y-10781484D01*
X13122106Y-10795688D01*
X13095781Y-10821967D01*
X13081516Y-10856320D01*
X13081484Y-10893517D01*
X13095688Y-10927894D01*
X13099000Y-10931212D01*
X13099000Y-11768520D01*
X12996260Y-11871260D01*
X12979785Y-11895916D01*
X12974000Y-11925000D01*
X12974000Y-12043754D01*
X12970781Y-12046967D01*
X12956516Y-12081320D01*
X12956484Y-12118517D01*
X12933858Y-12118517D01*
X12935266Y-12115128D01*
X12935298Y-12077931D01*
X12921094Y-12043554D01*
X12917782Y-12040236D01*
X12917782Y-11206285D01*
X12912424Y-11179348D01*
X12911997Y-11177201D01*
X12895522Y-11152545D01*
X12879273Y-11136296D01*
X12879277Y-11131748D01*
X12865072Y-11097370D01*
X12838793Y-11071045D01*
X12804441Y-11056780D01*
X12767244Y-11056748D01*
X12749748Y-11063977D01*
X12724507Y-11053496D01*
X12687310Y-11053464D01*
X12661757Y-11064022D01*
X12643680Y-11056516D01*
X12606483Y-11056484D01*
X12589123Y-11063657D01*
X12589123Y-10973358D01*
X12593968Y-10968512D01*
X12598517Y-10968516D01*
X12632894Y-10954312D01*
X12659219Y-10928033D01*
X12673484Y-10893680D01*
X12673516Y-10856483D01*
X12659312Y-10822106D01*
X12633033Y-10795781D01*
X12598680Y-10781516D01*
X12561483Y-10781484D01*
X12527106Y-10795688D01*
X12500781Y-10821967D01*
X12486516Y-10856320D01*
X12486512Y-10861008D01*
X12459383Y-10888137D01*
X12442908Y-10912793D01*
X12437123Y-10941877D01*
X12437123Y-11231489D01*
X12431483Y-11231484D01*
X12397106Y-11245688D01*
X12370781Y-11271967D01*
X12356516Y-11306320D01*
X12356484Y-11343517D01*
X12370688Y-11377894D01*
X12374000Y-11381212D01*
X12374000Y-12618947D01*
X12363948Y-12628981D01*
X12349684Y-12663334D01*
X12349651Y-12700530D01*
X11176000Y-12700530D01*
X11176000Y-12568745D01*
X11179219Y-12565532D01*
X11188363Y-12543512D01*
X11193517Y-12543516D01*
X11227894Y-12529312D01*
X11254219Y-12503033D01*
X11268484Y-12468680D01*
X11268516Y-12431483D01*
X11263147Y-12418490D01*
X11293517Y-12418516D01*
X11327894Y-12404312D01*
X11354219Y-12378033D01*
X11368484Y-12343680D01*
X11368516Y-12306483D01*
X11354312Y-12272106D01*
X11328033Y-12245781D01*
X11293680Y-12231516D01*
X11256483Y-12231484D01*
X11222106Y-12245688D01*
X11218788Y-12249000D01*
X10977900Y-12249000D01*
X10948816Y-12254785D01*
X10924160Y-12271260D01*
X10887354Y-12308066D01*
X10861915Y-12269995D01*
X10828997Y-12248000D01*
X10861915Y-12226005D01*
X10861918Y-12226000D01*
X11143754Y-12226000D01*
X11146967Y-12229219D01*
X11181320Y-12243484D01*
X11218517Y-12243516D01*
X11252894Y-12229312D01*
X11279219Y-12203033D01*
X11293484Y-12168680D01*
X11293516Y-12131483D01*
X11279312Y-12097106D01*
X11253033Y-12070781D01*
X11218680Y-12056516D01*
X11181483Y-12056484D01*
X11147106Y-12070688D01*
X11143788Y-12074000D01*
X10896060Y-12074000D01*
X10894105Y-12064171D01*
X10861915Y-12015995D01*
X10828997Y-11994000D01*
X10861915Y-11972005D01*
X10894105Y-11923828D01*
X10905409Y-11867000D01*
X10894105Y-11810171D01*
X10861915Y-11761995D01*
X10813738Y-11729804D01*
X10756909Y-11718500D01*
X10751091Y-11718500D01*
X10694262Y-11729804D01*
X10646085Y-11761995D01*
X10646003Y-11762118D01*
X10645316Y-11758468D01*
X10631409Y-11736856D01*
X10610189Y-11722357D01*
X10585000Y-11717256D01*
X10415000Y-11717256D01*
X10391468Y-11721684D01*
X10369856Y-11735591D01*
X10355357Y-11756811D01*
X10350256Y-11782000D01*
X10350256Y-11952000D01*
X10354684Y-11975532D01*
X10368591Y-11997144D01*
X10389811Y-12011643D01*
X10396554Y-12013009D01*
X10392085Y-12015995D01*
X10359895Y-12064171D01*
X10348591Y-12121000D01*
X10071000Y-12121000D01*
X10071000Y-11418517D01*
X10431484Y-11418517D01*
X10445688Y-11452894D01*
X10471967Y-11479219D01*
X10506320Y-11493484D01*
X10543517Y-11493516D01*
X10577894Y-11479312D01*
X10581212Y-11476000D01*
X10893520Y-11476000D01*
X11089117Y-11671597D01*
X11113773Y-11688072D01*
X11142857Y-11693857D01*
X11181255Y-11693857D01*
X11184468Y-11697076D01*
X11218821Y-11711341D01*
X11256018Y-11711373D01*
X11290395Y-11697169D01*
X11316720Y-11670890D01*
X11330985Y-11636537D01*
X11331005Y-11612825D01*
X11347013Y-11596846D01*
X11361277Y-11562493D01*
X11361310Y-11525296D01*
X11354184Y-11508050D01*
X11365370Y-11508050D01*
X11394454Y-11502264D01*
X11419110Y-11485790D01*
X11546239Y-11358661D01*
X11562714Y-11334005D01*
X11568499Y-11304921D01*
X11568499Y-11054999D01*
X11562714Y-11025915D01*
X11562714Y-11025915D01*
X11546239Y-11001259D01*
X11522673Y-10977693D01*
X11530005Y-10977699D01*
X11564382Y-10963495D01*
X11589693Y-10938228D01*
X11606400Y-10945166D01*
X11643596Y-10945198D01*
X11677974Y-10930994D01*
X11704299Y-10904715D01*
X11718563Y-10870362D01*
X11718596Y-10833165D01*
X11704391Y-10798788D01*
X11701080Y-10795470D01*
X11701080Y-10552547D01*
X11709602Y-10556086D01*
X11731605Y-10556105D01*
X11731516Y-10556320D01*
X11731484Y-10593517D01*
X11745688Y-10627894D01*
X11771967Y-10654219D01*
X11806320Y-10668484D01*
X11843517Y-10668516D01*
X11877894Y-10654312D01*
X11881212Y-10651000D01*
X12008455Y-10651000D01*
X12019157Y-10661720D01*
X12053510Y-10675985D01*
X12090706Y-10676017D01*
X12125084Y-10661813D01*
X12141635Y-10645291D01*
X12144158Y-10647818D01*
X12178511Y-10662083D01*
X12183198Y-10662087D01*
X12187352Y-10666240D01*
X12201589Y-10675753D01*
X12189601Y-10704624D01*
X12189569Y-10741821D01*
X12203773Y-10776198D01*
X12222303Y-10794760D01*
X12222303Y-10882061D01*
X12219084Y-10885275D01*
X12204819Y-10919627D01*
X12204787Y-10956824D01*
X12218991Y-10991202D01*
X12245270Y-11017527D01*
X12279623Y-11031791D01*
X12316819Y-11031824D01*
X12351197Y-11017619D01*
X12377522Y-10991340D01*
X12391787Y-10956987D01*
X12391819Y-10919791D01*
X12377614Y-10885413D01*
X12374303Y-10882096D01*
X12374303Y-10747441D01*
X12376220Y-10742824D01*
X13029661Y-10742824D01*
X13032875Y-10746044D01*
X13067228Y-10760308D01*
X13104424Y-10760341D01*
X13138802Y-10746136D01*
X13165127Y-10719857D01*
X13179392Y-10685504D01*
X13179424Y-10648308D01*
X13165219Y-10613930D01*
X13138940Y-10587605D01*
X13114789Y-10577577D01*
X13118484Y-10568680D01*
X13118516Y-10531483D01*
X13104312Y-10497106D01*
X13078033Y-10470781D01*
X13043680Y-10456516D01*
X13037874Y-10456511D01*
X13016584Y-10442285D01*
X12987500Y-10436500D01*
X12368512Y-10436500D01*
X12368516Y-10431483D01*
X12354312Y-10397106D01*
X12339097Y-10381864D01*
X12345393Y-10379263D01*
X12371718Y-10352984D01*
X12385983Y-10318631D01*
X12386003Y-10295900D01*
X12869436Y-10295900D01*
X12877830Y-10297570D01*
X12884467Y-10304219D01*
X12918820Y-10318484D01*
X12956017Y-10318516D01*
X12960603Y-10316621D01*
X12971534Y-10327572D01*
X13005887Y-10341836D01*
X13034631Y-10341861D01*
X13046967Y-10354219D01*
X13081320Y-10368484D01*
X13116967Y-10368515D01*
X13134748Y-10386327D01*
X13169101Y-10400591D01*
X13206297Y-10400624D01*
X13240675Y-10386419D01*
X13267000Y-10360140D01*
X13281264Y-10325787D01*
X13281297Y-10288591D01*
X13267092Y-10254213D01*
X13265966Y-10253085D01*
X13428740Y-10090311D01*
X13445215Y-10065655D01*
X13451000Y-10036571D01*
X13451000Y-9806246D01*
X13454219Y-9803033D01*
X13468484Y-9768680D01*
X13468484Y-9768517D01*
X14381484Y-9768517D01*
X14395688Y-9802894D01*
X14421967Y-9829219D01*
X14456320Y-9843484D01*
X14461008Y-9843488D01*
X14524000Y-9906480D01*
X14524000Y-10143754D01*
X14520781Y-10146967D01*
X14506516Y-10181320D01*
X14506484Y-10218517D01*
X14520688Y-10252894D01*
X14546967Y-10279219D01*
X14581320Y-10293484D01*
X14618517Y-10293516D01*
X14652894Y-10279312D01*
X14679219Y-10253033D01*
X14693484Y-10218680D01*
X14693516Y-10181483D01*
X14687994Y-10168120D01*
X15381615Y-10168120D01*
X15395819Y-10202497D01*
X15422098Y-10228822D01*
X15426642Y-10230709D01*
X15424045Y-10236962D01*
X15424013Y-10274159D01*
X15438217Y-10308536D01*
X15464496Y-10334861D01*
X15488388Y-10344782D01*
X15496341Y-10364031D01*
X15513792Y-10381512D01*
X15481483Y-10381484D01*
X15447106Y-10395688D01*
X15420781Y-10421967D01*
X15406516Y-10456320D01*
X15406484Y-10493517D01*
X15420688Y-10527894D01*
X15446967Y-10554219D01*
X15481320Y-10568484D01*
X15518517Y-10568516D01*
X15552894Y-10554312D01*
X15556212Y-10551000D01*
X15705890Y-10551000D01*
X15734974Y-10545215D01*
X15759630Y-10528740D01*
X15766279Y-10522091D01*
X16597500Y-10522091D01*
X16597500Y-10527909D01*
X16608804Y-10584738D01*
X16640995Y-10632915D01*
X16689171Y-10665105D01*
X16746000Y-10676409D01*
X16802829Y-10665105D01*
X16851005Y-10632915D01*
X16853785Y-10628755D01*
X16854684Y-10633532D01*
X16868591Y-10655144D01*
X16889811Y-10669643D01*
X16915000Y-10674744D01*
X17085000Y-10674744D01*
X17108532Y-10670316D01*
X17130144Y-10656409D01*
X17144643Y-10635189D01*
X17149744Y-10610000D01*
X17149744Y-10440000D01*
X17145316Y-10416468D01*
X17131409Y-10394856D01*
X17110189Y-10380357D01*
X17085000Y-10375256D01*
X16915000Y-10375256D01*
X16891468Y-10379684D01*
X16869856Y-10393591D01*
X16855357Y-10414811D01*
X16853991Y-10421554D01*
X16851005Y-10417085D01*
X16802829Y-10384895D01*
X16746000Y-10373591D01*
X16689171Y-10384895D01*
X16640995Y-10417085D01*
X16608804Y-10465262D01*
X16597500Y-10522091D01*
X15766279Y-10522091D01*
X15903740Y-10384630D01*
X15920215Y-10359974D01*
X15924188Y-10340000D01*
X17975256Y-10340000D01*
X17975256Y-10510000D01*
X17979684Y-10533532D01*
X17993591Y-10555144D01*
X18014811Y-10569643D01*
X18040000Y-10574744D01*
X18210000Y-10574744D01*
X18233532Y-10570316D01*
X18255144Y-10556409D01*
X18269643Y-10535189D01*
X18271009Y-10528446D01*
X18273995Y-10532915D01*
X18322172Y-10565105D01*
X18379000Y-10576409D01*
X18435829Y-10565105D01*
X18484005Y-10532915D01*
X18516196Y-10484738D01*
X18527500Y-10427909D01*
X18527500Y-10422091D01*
X18516196Y-10365262D01*
X18484005Y-10317085D01*
X18435829Y-10284895D01*
X18379000Y-10273591D01*
X18322172Y-10284895D01*
X18273995Y-10317085D01*
X18271215Y-10321245D01*
X18270316Y-10316468D01*
X18256409Y-10294856D01*
X18235189Y-10280357D01*
X18210000Y-10275256D01*
X18040000Y-10275256D01*
X18016468Y-10279684D01*
X17994856Y-10293591D01*
X17980357Y-10314811D01*
X17975256Y-10340000D01*
X15924188Y-10340000D01*
X15926000Y-10330890D01*
X15926000Y-10206246D01*
X15929219Y-10203033D01*
X15943484Y-10168680D01*
X15943516Y-10131483D01*
X15929312Y-10097106D01*
X15903033Y-10070781D01*
X15884327Y-10063013D01*
X15888427Y-10053140D01*
X15888459Y-10015943D01*
X15874255Y-9981566D01*
X15847976Y-9955241D01*
X15813623Y-9940976D01*
X15785173Y-9940951D01*
X15785190Y-9921119D01*
X15770986Y-9886742D01*
X15744707Y-9860417D01*
X15710354Y-9846152D01*
X15673157Y-9846120D01*
X15670278Y-9847309D01*
X15666508Y-9843532D01*
X15632155Y-9829268D01*
X15594958Y-9829235D01*
X15560581Y-9843440D01*
X15534256Y-9869719D01*
X15519991Y-9904072D01*
X15519987Y-9908759D01*
X15421391Y-10007356D01*
X15404916Y-10032012D01*
X15399131Y-10061096D01*
X15399131Y-10093357D01*
X15395912Y-10096570D01*
X15381647Y-10130923D01*
X15381615Y-10168120D01*
X14687994Y-10168120D01*
X14679312Y-10147106D01*
X14676000Y-10143788D01*
X14676000Y-9875000D01*
X14670215Y-9845916D01*
X14653740Y-9821260D01*
X14568512Y-9736032D01*
X14568516Y-9731483D01*
X14554312Y-9697106D01*
X14528033Y-9670781D01*
X14493680Y-9656516D01*
X14456483Y-9656484D01*
X14422106Y-9670688D01*
X14395781Y-9696967D01*
X14381516Y-9731320D01*
X14381484Y-9768517D01*
X13468484Y-9768517D01*
X13468516Y-9731483D01*
X13454312Y-9697106D01*
X13428033Y-9670781D01*
X13393680Y-9656516D01*
X13356483Y-9656484D01*
X13322106Y-9670688D01*
X13295781Y-9696967D01*
X13281516Y-9731320D01*
X13281484Y-9768517D01*
X13295688Y-9802894D01*
X13299000Y-9806212D01*
X13299000Y-10005090D01*
X13282569Y-10021521D01*
X13282569Y-9856569D01*
X13276784Y-9827486D01*
X13260309Y-9802829D01*
X12993512Y-9536032D01*
X12993516Y-9531483D01*
X12979312Y-9497106D01*
X12953033Y-9470781D01*
X12918680Y-9456516D01*
X12881483Y-9456484D01*
X12847106Y-9470688D01*
X12820781Y-9496967D01*
X12806516Y-9531320D01*
X12806484Y-9568517D01*
X12811447Y-9580529D01*
X12798970Y-9585684D01*
X12772645Y-9611963D01*
X12758381Y-9646316D01*
X12758377Y-9651134D01*
X12753033Y-9645781D01*
X12718680Y-9631516D01*
X12681483Y-9631484D01*
X12647106Y-9645688D01*
X12620781Y-9671967D01*
X12606516Y-9706320D01*
X12606484Y-9743517D01*
X12620688Y-9777894D01*
X12646967Y-9804219D01*
X12681320Y-9818484D01*
X12711029Y-9818510D01*
X12831488Y-9938968D01*
X12831484Y-9943517D01*
X12845688Y-9977894D01*
X12871967Y-10004219D01*
X12906320Y-10018484D01*
X12925779Y-10018501D01*
X12916430Y-10041016D01*
X12916429Y-10041499D01*
X12348979Y-10041499D01*
X12231237Y-9923757D01*
X12206581Y-9907283D01*
X12177497Y-9901497D01*
X11716578Y-9901497D01*
X11687494Y-9907283D01*
X11662838Y-9923757D01*
X11156258Y-10430337D01*
X11139783Y-10454993D01*
X11133998Y-10484077D01*
X11133998Y-10856229D01*
X11128999Y-10881360D01*
X11133998Y-10906491D01*
X11133998Y-11134998D01*
X11139783Y-11164082D01*
X11156258Y-11188738D01*
X11180914Y-11205213D01*
X11209998Y-11210998D01*
X11213707Y-11210998D01*
X11213914Y-11211500D01*
X11168980Y-11211500D01*
X11118512Y-11161032D01*
X11118516Y-11156483D01*
X11104312Y-11122106D01*
X11078033Y-11095781D01*
X11043680Y-11081516D01*
X11006483Y-11081484D01*
X10972106Y-11095688D01*
X10945781Y-11121967D01*
X10931516Y-11156320D01*
X10931484Y-11193517D01*
X10945688Y-11227894D01*
X10971967Y-11254219D01*
X11006320Y-11268484D01*
X11011008Y-11268488D01*
X11083760Y-11341240D01*
X11085163Y-11342177D01*
X11059605Y-11352738D01*
X11054227Y-11358106D01*
X10961413Y-11265292D01*
X10936757Y-11248817D01*
X10907673Y-11243032D01*
X10584066Y-11243032D01*
X10580853Y-11239813D01*
X10546500Y-11225548D01*
X10509303Y-11225516D01*
X10474926Y-11239720D01*
X10448601Y-11265999D01*
X10434336Y-11300352D01*
X10434304Y-11337548D01*
X10441979Y-11356124D01*
X10431516Y-11381320D01*
X10431484Y-11418517D01*
X10071000Y-11418517D01*
X10071000Y-9375000D01*
X10448591Y-9375000D01*
X10459895Y-9431829D01*
X10492085Y-9480005D01*
X10525003Y-9502000D01*
X10492085Y-9523995D01*
X10459895Y-9572172D01*
X10448591Y-9629000D01*
X10459895Y-9685829D01*
X10492085Y-9734005D01*
X10540262Y-9766196D01*
X10597091Y-9777500D01*
X10602909Y-9777500D01*
X10659738Y-9766196D01*
X10707915Y-9734005D01*
X10740105Y-9685829D01*
X10751409Y-9629000D01*
X10740105Y-9572172D01*
X10707915Y-9523995D01*
X10674997Y-9502000D01*
X10707915Y-9480005D01*
X10740105Y-9431829D01*
X10743453Y-9415000D01*
X14517256Y-9415000D01*
X14517256Y-9585000D01*
X14521684Y-9608532D01*
X14535591Y-9630144D01*
X14556811Y-9644643D01*
X14582000Y-9649744D01*
X14681500Y-9649744D01*
X14681484Y-9668517D01*
X14695688Y-9702894D01*
X14721967Y-9729219D01*
X14756320Y-9743484D01*
X14761008Y-9743488D01*
X14802689Y-9785170D01*
X14802678Y-9798512D01*
X14816882Y-9832890D01*
X14843161Y-9859215D01*
X14877514Y-9873479D01*
X14914711Y-9873512D01*
X14949088Y-9859307D01*
X14975413Y-9833028D01*
X14989678Y-9798676D01*
X14989710Y-9761479D01*
X14975506Y-9727101D01*
X14949227Y-9700776D01*
X14921916Y-9689436D01*
X14874675Y-9642195D01*
X14921000Y-9651409D01*
X14977828Y-9640105D01*
X15026005Y-9607915D01*
X15048000Y-9574997D01*
X15069995Y-9607915D01*
X15118171Y-9640105D01*
X15175000Y-9651409D01*
X15231828Y-9640105D01*
X15280005Y-9607915D01*
X15312196Y-9559738D01*
X15323500Y-9502909D01*
X15323500Y-9497091D01*
X15312196Y-9440262D01*
X15280005Y-9392085D01*
X15231828Y-9359895D01*
X15175000Y-9348591D01*
X15118171Y-9359895D01*
X15069995Y-9392085D01*
X15048000Y-9425003D01*
X15026005Y-9392085D01*
X14977828Y-9359895D01*
X14921000Y-9348591D01*
X14864171Y-9359895D01*
X14815995Y-9392085D01*
X14813215Y-9396245D01*
X14812316Y-9391468D01*
X14798409Y-9369856D01*
X14777189Y-9355357D01*
X14752000Y-9350256D01*
X14582000Y-9350256D01*
X14558468Y-9354684D01*
X14536856Y-9368591D01*
X14522357Y-9389811D01*
X14517256Y-9415000D01*
X10743453Y-9415000D01*
X10751409Y-9375000D01*
X10740105Y-9318172D01*
X10707915Y-9269995D01*
X10703522Y-9267060D01*
X10720970Y-9259833D01*
X10738833Y-9241970D01*
X10748500Y-9218631D01*
X10748500Y-9149575D01*
X10732625Y-9133700D01*
X10612700Y-9133700D01*
X10612700Y-9135700D01*
X10587300Y-9135700D01*
X10587300Y-9133700D01*
X10467375Y-9133700D01*
X10451500Y-9149575D01*
X10451500Y-9218631D01*
X10461167Y-9241970D01*
X10479030Y-9259833D01*
X10496478Y-9267060D01*
X10492085Y-9269995D01*
X10459895Y-9318172D01*
X10448591Y-9375000D01*
X10071000Y-9375000D01*
X10071000Y-9023369D01*
X10451500Y-9023369D01*
X10451500Y-9092425D01*
X10467375Y-9108300D01*
X10587300Y-9108300D01*
X10587300Y-8988375D01*
X10612700Y-8988375D01*
X10612700Y-9108300D01*
X10732625Y-9108300D01*
X10748500Y-9092425D01*
X10748500Y-9043517D01*
X11781484Y-9043517D01*
X11795688Y-9077894D01*
X11801500Y-9083716D01*
X11801500Y-9091258D01*
X11795781Y-9096967D01*
X11781516Y-9131320D01*
X11781484Y-9168517D01*
X11795688Y-9202894D01*
X11821967Y-9229219D01*
X11856320Y-9243484D01*
X11893517Y-9243516D01*
X11927894Y-9229312D01*
X11954219Y-9203033D01*
X11968484Y-9168680D01*
X11968516Y-9131483D01*
X11954312Y-9097106D01*
X11948500Y-9091284D01*
X11948500Y-9083742D01*
X11954219Y-9078033D01*
X11968484Y-9043680D01*
X11968516Y-9006483D01*
X11954312Y-8972106D01*
X11928033Y-8945781D01*
X11893680Y-8931516D01*
X11856483Y-8931484D01*
X11822106Y-8945688D01*
X11795781Y-8971967D01*
X11781516Y-9006320D01*
X11781484Y-9043517D01*
X10748500Y-9043517D01*
X10748500Y-9023369D01*
X10738833Y-9000030D01*
X10720970Y-8982167D01*
X10697631Y-8972500D01*
X10628575Y-8972500D01*
X10612700Y-8988375D01*
X10587300Y-8988375D01*
X10571425Y-8972500D01*
X10502369Y-8972500D01*
X10479030Y-8982167D01*
X10461167Y-9000030D01*
X10451500Y-9023369D01*
X10071000Y-9023369D01*
X10071000Y-8493517D01*
X13606484Y-8493517D01*
X13620688Y-8527894D01*
X13646967Y-8554219D01*
X13681320Y-8568484D01*
X13718517Y-8568516D01*
X13752894Y-8554312D01*
X13756212Y-8551000D01*
X14684576Y-8551000D01*
X14695688Y-8577894D01*
X14721967Y-8604219D01*
X14756320Y-8618484D01*
X14793517Y-8618516D01*
X14827894Y-8604312D01*
X14838708Y-8593517D01*
X15031484Y-8593517D01*
X15045688Y-8627894D01*
X15071967Y-8654219D01*
X15106320Y-8668484D01*
X15143517Y-8668516D01*
X15177894Y-8654312D01*
X15181212Y-8651000D01*
X15206499Y-8651000D01*
X15206484Y-8668517D01*
X15220688Y-8702894D01*
X15246967Y-8729219D01*
X15281320Y-8743484D01*
X15318517Y-8743516D01*
X15352894Y-8729312D01*
X15356212Y-8726000D01*
X15455849Y-8726000D01*
X15462994Y-8743292D01*
X15489273Y-8769616D01*
X15523625Y-8783881D01*
X15560822Y-8783913D01*
X15595200Y-8769709D01*
X15621524Y-8743430D01*
X15635789Y-8709077D01*
X15635821Y-8671881D01*
X15621617Y-8637503D01*
X15595338Y-8611178D01*
X15587559Y-8607948D01*
X15593484Y-8593680D01*
X15593516Y-8556483D01*
X15579312Y-8522106D01*
X15553033Y-8495781D01*
X15518680Y-8481516D01*
X15481483Y-8481484D01*
X15447106Y-8495688D01*
X15443788Y-8499000D01*
X15181246Y-8499000D01*
X15178033Y-8495781D01*
X15143680Y-8481516D01*
X15106483Y-8481484D01*
X15072106Y-8495688D01*
X15045781Y-8521967D01*
X15031516Y-8556320D01*
X15031484Y-8593517D01*
X14838708Y-8593517D01*
X14854219Y-8578033D01*
X14868484Y-8543680D01*
X14868516Y-8506483D01*
X14854312Y-8472106D01*
X14828033Y-8445781D01*
X14793680Y-8431516D01*
X14788992Y-8431512D01*
X14778740Y-8421260D01*
X14754084Y-8404785D01*
X14725000Y-8399000D01*
X13756246Y-8399000D01*
X13753033Y-8395781D01*
X13718680Y-8381516D01*
X13681483Y-8381484D01*
X13647106Y-8395688D01*
X13620781Y-8421967D01*
X13606516Y-8456320D01*
X13606484Y-8493517D01*
X10071000Y-8493517D01*
X10071000Y-8168689D01*
X10480852Y-8168689D01*
X10497836Y-8209692D01*
X10536864Y-8252518D01*
X10589311Y-8277149D01*
X10612300Y-8265082D01*
X10612300Y-8145700D01*
X10637700Y-8145700D01*
X10637700Y-8265082D01*
X10660689Y-8277149D01*
X10713136Y-8252518D01*
X10752165Y-8209692D01*
X10769148Y-8168689D01*
X10757016Y-8145700D01*
X10637700Y-8145700D01*
X10612300Y-8145700D01*
X10492985Y-8145700D01*
X10480852Y-8168689D01*
X10071000Y-8168689D01*
X10071000Y-7625000D01*
X10473591Y-7625000D01*
X10484895Y-7681828D01*
X10517085Y-7730005D01*
X10550003Y-7752000D01*
X10517085Y-7773995D01*
X10484895Y-7822171D01*
X10473591Y-7879000D01*
X10484895Y-7935828D01*
X10517085Y-7984005D01*
X10551155Y-8006770D01*
X10536864Y-8013482D01*
X10497836Y-8056308D01*
X10480852Y-8097311D01*
X10492985Y-8120300D01*
X10612300Y-8120300D01*
X10612300Y-8118300D01*
X10637700Y-8118300D01*
X10637700Y-8120300D01*
X10757016Y-8120300D01*
X10769148Y-8097311D01*
X10757221Y-8068517D01*
X15806484Y-8068517D01*
X15820688Y-8102894D01*
X15846967Y-8129219D01*
X15881320Y-8143484D01*
X15886008Y-8143488D01*
X15892637Y-8150117D01*
X15889086Y-8153662D01*
X15874821Y-8188015D01*
X15874789Y-8225212D01*
X15888993Y-8259589D01*
X15915272Y-8285914D01*
X15949625Y-8300179D01*
X15959160Y-8300187D01*
X15968736Y-8306585D01*
X15934605Y-8320688D01*
X15908280Y-8346967D01*
X15894015Y-8381320D01*
X15893983Y-8418517D01*
X15899000Y-8430659D01*
X15899000Y-8818754D01*
X15895781Y-8821967D01*
X15881516Y-8856320D01*
X15881484Y-8893517D01*
X15895688Y-8927894D01*
X15921967Y-8954219D01*
X15956320Y-8968484D01*
X15993517Y-8968516D01*
X16025035Y-8955493D01*
X16056320Y-8968484D01*
X16093517Y-8968516D01*
X16125035Y-8955493D01*
X16156320Y-8968484D01*
X16193517Y-8968516D01*
X16225035Y-8955493D01*
X16256320Y-8968484D01*
X16293517Y-8968516D01*
X16325035Y-8955493D01*
X16356320Y-8968484D01*
X16393517Y-8968516D01*
X16427894Y-8954312D01*
X16454219Y-8928033D01*
X16468484Y-8893680D01*
X16468516Y-8856483D01*
X16454312Y-8822106D01*
X16428033Y-8795781D01*
X16426000Y-8794937D01*
X16426000Y-8481246D01*
X16429219Y-8478033D01*
X16443484Y-8443680D01*
X16443516Y-8406483D01*
X16430508Y-8375000D01*
X17223591Y-8375000D01*
X17234895Y-8431829D01*
X17267085Y-8480005D01*
X17271245Y-8482785D01*
X17266468Y-8483684D01*
X17244856Y-8497591D01*
X17230357Y-8518811D01*
X17225256Y-8544000D01*
X17225256Y-8714000D01*
X17229684Y-8737532D01*
X17243591Y-8759144D01*
X17264811Y-8773643D01*
X17290000Y-8778744D01*
X17460000Y-8778744D01*
X17483532Y-8774316D01*
X17505144Y-8760409D01*
X17519643Y-8739189D01*
X17524744Y-8714000D01*
X17524744Y-8544000D01*
X17520316Y-8520468D01*
X17506409Y-8498856D01*
X17485189Y-8484357D01*
X17478446Y-8482991D01*
X17482915Y-8480005D01*
X17515105Y-8431829D01*
X17526409Y-8375000D01*
X17723591Y-8375000D01*
X17734895Y-8431829D01*
X17767085Y-8480005D01*
X17771245Y-8482785D01*
X17766468Y-8483684D01*
X17744856Y-8497591D01*
X17730357Y-8518811D01*
X17725256Y-8544000D01*
X17725256Y-8714000D01*
X17729684Y-8737532D01*
X17743591Y-8759144D01*
X17764811Y-8773643D01*
X17790000Y-8778744D01*
X17960000Y-8778744D01*
X17983532Y-8774316D01*
X18005144Y-8760409D01*
X18019643Y-8739189D01*
X18024744Y-8714000D01*
X18024744Y-8544000D01*
X18020316Y-8520468D01*
X18006409Y-8498856D01*
X17985189Y-8484357D01*
X17978446Y-8482991D01*
X17982915Y-8480005D01*
X18015105Y-8431829D01*
X18026409Y-8375000D01*
X18223591Y-8375000D01*
X18234895Y-8431829D01*
X18267085Y-8480005D01*
X18271245Y-8482785D01*
X18266468Y-8483684D01*
X18244856Y-8497591D01*
X18230357Y-8518811D01*
X18225256Y-8544000D01*
X18225256Y-8714000D01*
X18229684Y-8737532D01*
X18243591Y-8759144D01*
X18264811Y-8773643D01*
X18290000Y-8778744D01*
X18460000Y-8778744D01*
X18483532Y-8774316D01*
X18505144Y-8760409D01*
X18519643Y-8739189D01*
X18524744Y-8714000D01*
X18524744Y-8544000D01*
X18520316Y-8520468D01*
X18506409Y-8498856D01*
X18485189Y-8484357D01*
X18478446Y-8482991D01*
X18482915Y-8480005D01*
X18515105Y-8431829D01*
X18526409Y-8375000D01*
X18723591Y-8375000D01*
X18734895Y-8431829D01*
X18767085Y-8480005D01*
X18771245Y-8482785D01*
X18766468Y-8483684D01*
X18744856Y-8497591D01*
X18730357Y-8518811D01*
X18725256Y-8544000D01*
X18725256Y-8714000D01*
X18729684Y-8737532D01*
X18743591Y-8759144D01*
X18764811Y-8773643D01*
X18790000Y-8778744D01*
X18960000Y-8778744D01*
X18983532Y-8774316D01*
X19005144Y-8760409D01*
X19019643Y-8739189D01*
X19024744Y-8714000D01*
X19024744Y-8544000D01*
X19020316Y-8520468D01*
X19006409Y-8498856D01*
X18985189Y-8484357D01*
X18978446Y-8482991D01*
X18982915Y-8480005D01*
X19015105Y-8431829D01*
X19026409Y-8375000D01*
X19015105Y-8318171D01*
X18982915Y-8269995D01*
X18934738Y-8237804D01*
X18877909Y-8226500D01*
X18872091Y-8226500D01*
X18815262Y-8237804D01*
X18767085Y-8269995D01*
X18734895Y-8318171D01*
X18723591Y-8375000D01*
X18526409Y-8375000D01*
X18515105Y-8318171D01*
X18482915Y-8269995D01*
X18434738Y-8237804D01*
X18377909Y-8226500D01*
X18372091Y-8226500D01*
X18315262Y-8237804D01*
X18267085Y-8269995D01*
X18234895Y-8318171D01*
X18223591Y-8375000D01*
X18026409Y-8375000D01*
X18015105Y-8318171D01*
X17982915Y-8269995D01*
X17934738Y-8237804D01*
X17877909Y-8226500D01*
X17872091Y-8226500D01*
X17815262Y-8237804D01*
X17767085Y-8269995D01*
X17734895Y-8318171D01*
X17723591Y-8375000D01*
X17526409Y-8375000D01*
X17515105Y-8318171D01*
X17482915Y-8269995D01*
X17434738Y-8237804D01*
X17377909Y-8226500D01*
X17372091Y-8226500D01*
X17315262Y-8237804D01*
X17267085Y-8269995D01*
X17234895Y-8318171D01*
X17223591Y-8375000D01*
X16430508Y-8375000D01*
X16429312Y-8372106D01*
X16403033Y-8345781D01*
X16368680Y-8331516D01*
X16331483Y-8331484D01*
X16301396Y-8343916D01*
X15993512Y-8036032D01*
X15993516Y-8031483D01*
X15979312Y-7997106D01*
X15953033Y-7970781D01*
X15918680Y-7956516D01*
X15881483Y-7956484D01*
X15847106Y-7970688D01*
X15820781Y-7996967D01*
X15806516Y-8031320D01*
X15806484Y-8068517D01*
X10757221Y-8068517D01*
X10752165Y-8056308D01*
X10713136Y-8013482D01*
X10698845Y-8006770D01*
X10732915Y-7984005D01*
X10765105Y-7935828D01*
X10776409Y-7879000D01*
X10765105Y-7822171D01*
X10732915Y-7773995D01*
X10699997Y-7752000D01*
X10732915Y-7730005D01*
X10765105Y-7681828D01*
X10776409Y-7625000D01*
X10765105Y-7568171D01*
X10732915Y-7519995D01*
X10728755Y-7517215D01*
X10733532Y-7516316D01*
X10755144Y-7502409D01*
X10761220Y-7493517D01*
X13731484Y-7493517D01*
X13745688Y-7527894D01*
X13771967Y-7554219D01*
X13806320Y-7568484D01*
X13843517Y-7568516D01*
X13877894Y-7554312D01*
X13881212Y-7551000D01*
X14084576Y-7551000D01*
X14095688Y-7577894D01*
X14121967Y-7604219D01*
X14156320Y-7618484D01*
X14193517Y-7618516D01*
X14227894Y-7604312D01*
X14254219Y-7578033D01*
X14268484Y-7543680D01*
X14268516Y-7506483D01*
X14254312Y-7472106D01*
X14228033Y-7445781D01*
X14193680Y-7431516D01*
X14188992Y-7431512D01*
X14178740Y-7421260D01*
X14154084Y-7404785D01*
X14125000Y-7399000D01*
X13881246Y-7399000D01*
X13878033Y-7395781D01*
X13843680Y-7381516D01*
X13806483Y-7381484D01*
X13772106Y-7395688D01*
X13745781Y-7421967D01*
X13731516Y-7456320D01*
X13731484Y-7493517D01*
X10761220Y-7493517D01*
X10769643Y-7481189D01*
X10774744Y-7456000D01*
X10774744Y-7286000D01*
X10770316Y-7262468D01*
X10756409Y-7240856D01*
X10735189Y-7226357D01*
X10710000Y-7221256D01*
X10540000Y-7221256D01*
X10516468Y-7225684D01*
X10494856Y-7239591D01*
X10480357Y-7260811D01*
X10475256Y-7286000D01*
X10475256Y-7456000D01*
X10479684Y-7479532D01*
X10493591Y-7501144D01*
X10514811Y-7515643D01*
X10521554Y-7517009D01*
X10517085Y-7519995D01*
X10484895Y-7568171D01*
X10473591Y-7625000D01*
X10071000Y-7625000D01*
X10071000Y-7012700D01*
X19929000Y-7012700D01*
X19929000Y-15929000D01*
M02*
