G04 #@! TF.FileFunction,Paste,Top*
%FSLAX45Y45*%
G04 Gerber Fmt 4.5, Leading zero omitted, Abs format (unit mm)*
G04 Created by KiCad (PCBNEW 4.0.7-e2-6376~61~ubuntu18.04.1) date Thu Oct  4 13:43:13 2018*
%MOMM*%
%LPD*%
G01*
G04 APERTURE LIST*
%ADD10C,0.100000*%
%ADD11R,0.740000X0.690000*%
%ADD12R,0.690000X0.740000*%
%ADD13R,0.740000X0.740000*%
%ADD14R,2.040000X0.690000*%
%ADD15R,1.320000X0.390000*%
%ADD16R,2.040000X1.415000*%
%ADD17R,1.840000X1.115000*%
%ADD18R,1.840000X2.315000*%
%ADD19R,0.640000X0.390000*%
%ADD20R,0.440000X0.840000*%
%ADD21R,0.840000X0.440000*%
%ADD22R,2.390000X0.940000*%
%ADD23R,0.940000X2.390000*%
%ADD24O,1.540000X0.240000*%
%ADD25O,0.240000X1.540000*%
%ADD26R,0.215000X0.190000*%
%ADD27R,0.190000X0.215000*%
%ADD28R,0.690000X0.440000*%
%ADD29R,0.690000X0.540000*%
%ADD30R,0.590000X1.000000*%
%ADD31R,0.940000X1.740000*%
%ADD32R,1.440000X0.640000*%
%ADD33R,0.740000X0.940000*%
G04 APERTURE END LIST*
D10*
D11*
X13380000Y-10520000D03*
X13230000Y-10520000D03*
D12*
X14075000Y-7900000D03*
X14075000Y-8050000D03*
D11*
X13780000Y-10790000D03*
X13630000Y-10790000D03*
D12*
X13750000Y-9835000D03*
X13750000Y-9685000D03*
D11*
X14305000Y-10570000D03*
X14155000Y-10570000D03*
D12*
X14490000Y-10585000D03*
X14490000Y-10735000D03*
D11*
X14765000Y-10400000D03*
X14915000Y-10400000D03*
X15005000Y-10155000D03*
X15155000Y-10155000D03*
D12*
X14330000Y-9330000D03*
X14330000Y-9180000D03*
X14680000Y-10595000D03*
X14680000Y-10745000D03*
D11*
X15005000Y-10010000D03*
X15155000Y-10010000D03*
D12*
X13520000Y-10080000D03*
X13520000Y-10230000D03*
X16025000Y-8505000D03*
X16025000Y-8655000D03*
D11*
X16035000Y-9840000D03*
X16185000Y-9840000D03*
X16350000Y-8805000D03*
X16200000Y-8805000D03*
X16055000Y-9240000D03*
X16205000Y-9240000D03*
D13*
X13290000Y-8560000D03*
X13130000Y-8560000D03*
X13290000Y-8860000D03*
X13130000Y-8860000D03*
X13290000Y-9460000D03*
X13130000Y-9460000D03*
X13290000Y-9160000D03*
X13130000Y-9160000D03*
X16390000Y-9540000D03*
X16390000Y-9380000D03*
D14*
X14775000Y-8821000D03*
X15292000Y-8821000D03*
X14775000Y-8948000D03*
X15292000Y-8948000D03*
X14775000Y-9075000D03*
X15292000Y-9075000D03*
X14775000Y-9202000D03*
X15292000Y-9202000D03*
X14775000Y-9329000D03*
X15292000Y-9329000D03*
D15*
X16589000Y-9773750D03*
X16589000Y-9708750D03*
X16589000Y-9643750D03*
X16589000Y-9578750D03*
X16589000Y-9513750D03*
D16*
X16625000Y-9890000D03*
X16625000Y-9397500D03*
D17*
X16855000Y-9727500D03*
X16855000Y-9560000D03*
D18*
X16855000Y-9935000D03*
X16855000Y-9352500D03*
D19*
X15700000Y-10105000D03*
X15700000Y-9975000D03*
X15500000Y-10040000D03*
D20*
X13135000Y-8710000D03*
X13285000Y-8710000D03*
X13135000Y-9010000D03*
X13285000Y-9010000D03*
X13145000Y-9610000D03*
X13295000Y-9610000D03*
X13130000Y-9310000D03*
X13280000Y-9310000D03*
D21*
X15520000Y-9645000D03*
X15520000Y-9795000D03*
D20*
X15620000Y-10260000D03*
X15770000Y-10260000D03*
X16035000Y-10030000D03*
X16185000Y-10030000D03*
D21*
X16390000Y-9835000D03*
X16390000Y-9685000D03*
D22*
X14370500Y-7070000D03*
X14370500Y-7210000D03*
X14370500Y-7350000D03*
X14370500Y-7490000D03*
X14370500Y-7630000D03*
X14370500Y-7770000D03*
X14370500Y-7910000D03*
X14370500Y-8050000D03*
X15629500Y-7070000D03*
X15629500Y-7210000D03*
X15629500Y-7350000D03*
X15629500Y-7490000D03*
X15629500Y-7630000D03*
X15629500Y-7770000D03*
X15629500Y-7910000D03*
X15629500Y-8050000D03*
D23*
X14510000Y-8279500D03*
X14650000Y-8279500D03*
X14790000Y-8279500D03*
X14930000Y-8279500D03*
X15070000Y-8279500D03*
X15210000Y-8279500D03*
X15350000Y-8279500D03*
X15490000Y-8279500D03*
D24*
X13930000Y-9705000D03*
X13930000Y-9755000D03*
X13930000Y-9805000D03*
X13930000Y-9855000D03*
X13930000Y-9905000D03*
X13930000Y-9955000D03*
X13930000Y-10005000D03*
X13930000Y-10055000D03*
X13930000Y-10105000D03*
X13930000Y-10155000D03*
X13930000Y-10205000D03*
X13930000Y-10255000D03*
D25*
X14080000Y-10405000D03*
X14130000Y-10405000D03*
X14180000Y-10405000D03*
X14230000Y-10405000D03*
X14280000Y-10405000D03*
X14330000Y-10405000D03*
X14380000Y-10405000D03*
X14430000Y-10405000D03*
X14480000Y-10405000D03*
X14530000Y-10405000D03*
X14580000Y-10405000D03*
X14630000Y-10405000D03*
D24*
X14780000Y-10255000D03*
X14780000Y-10205000D03*
X14780000Y-10155000D03*
X14780000Y-10105000D03*
X14780000Y-10055000D03*
X14780000Y-10005000D03*
X14780000Y-9955000D03*
X14780000Y-9905000D03*
X14780000Y-9855000D03*
X14780000Y-9805000D03*
X14780000Y-9755000D03*
X14780000Y-9705000D03*
D25*
X14630000Y-9555000D03*
X14580000Y-9555000D03*
X14530000Y-9555000D03*
X14480000Y-9555000D03*
X14430000Y-9555000D03*
X14380000Y-9555000D03*
X14330000Y-9555000D03*
X14280000Y-9555000D03*
X14230000Y-9555000D03*
X14180000Y-9555000D03*
X14130000Y-9555000D03*
X14080000Y-9555000D03*
D26*
X13250000Y-10080000D03*
X13250000Y-10130000D03*
X13250000Y-10180000D03*
X13250000Y-10230000D03*
D27*
X13301250Y-10231250D03*
X13351250Y-10231250D03*
D26*
X13402500Y-10080000D03*
X13402500Y-10230000D03*
X13402500Y-10130000D03*
X13402500Y-10180000D03*
D27*
X13301250Y-10078750D03*
X13351250Y-10078750D03*
D28*
X16182500Y-8515000D03*
X16367500Y-8515000D03*
D29*
X16182500Y-8640000D03*
D28*
X16367500Y-8645000D03*
D30*
X16215000Y-9430000D03*
X16120000Y-9430000D03*
X16025000Y-9430000D03*
X16025000Y-9650000D03*
X16215000Y-9650000D03*
D31*
X13535000Y-10590000D03*
X13785000Y-10590000D03*
D32*
X16645000Y-8845000D03*
X16645000Y-8545000D03*
X16645000Y-8395000D03*
D33*
X16710000Y-8985000D03*
X16930000Y-8985000D03*
X16710000Y-8255000D03*
X16930000Y-8255000D03*
M02*
