G04 #@! TF.FileFunction,Legend,Bot*
%FSLAX45Y45*%
G04 Gerber Fmt 4.5, Leading zero omitted, Abs format (unit mm)*
G04 Created by KiCad (PCBNEW 4.0.7-e2-6376~61~ubuntu18.04.1) date Mon Jan 28 20:27:59 2019*
%MOMM*%
%LPD*%
G01*
G04 APERTURE LIST*
%ADD10C,0.100000*%
%ADD11C,0.200000*%
%ADD12C,0.150000*%
G04 APERTURE END LIST*
D10*
D11*
X14549524Y-9325238D02*
X14549524Y-9406191D01*
X14544762Y-9415714D01*
X14540000Y-9420476D01*
X14530476Y-9425238D01*
X14511428Y-9425238D01*
X14501905Y-9420476D01*
X14497143Y-9415714D01*
X14492381Y-9406191D01*
X14492381Y-9325238D01*
X14449524Y-9396667D02*
X14401905Y-9396667D01*
X14459048Y-9425238D02*
X14425714Y-9325238D01*
X14392381Y-9425238D01*
X14301905Y-9425238D02*
X14335238Y-9377619D01*
X14359048Y-9425238D02*
X14359048Y-9325238D01*
X14320952Y-9325238D01*
X14311428Y-9330000D01*
X14306667Y-9334762D01*
X14301905Y-9344286D01*
X14301905Y-9358571D01*
X14306667Y-9368095D01*
X14311428Y-9372857D01*
X14320952Y-9377619D01*
X14359048Y-9377619D01*
X14273333Y-9325238D02*
X14216190Y-9325238D01*
X14244762Y-9425238D02*
X14244762Y-9325238D01*
X14683809Y-8975238D02*
X14683809Y-8875238D01*
X14660000Y-8875238D01*
X14645714Y-8880000D01*
X14636190Y-8889524D01*
X14631428Y-8899048D01*
X14626667Y-8918095D01*
X14626667Y-8932381D01*
X14631428Y-8951429D01*
X14636190Y-8960952D01*
X14645714Y-8970476D01*
X14660000Y-8975238D01*
X14683809Y-8975238D01*
X14583809Y-8922857D02*
X14550476Y-8922857D01*
X14536190Y-8975238D02*
X14583809Y-8975238D01*
X14583809Y-8875238D01*
X14536190Y-8875238D01*
X14460000Y-8922857D02*
X14445714Y-8927619D01*
X14440952Y-8932381D01*
X14436190Y-8941905D01*
X14436190Y-8956191D01*
X14440952Y-8965714D01*
X14445714Y-8970476D01*
X14455238Y-8975238D01*
X14493333Y-8975238D01*
X14493333Y-8875238D01*
X14460000Y-8875238D01*
X14450476Y-8880000D01*
X14445714Y-8884762D01*
X14440952Y-8894286D01*
X14440952Y-8903810D01*
X14445714Y-8913333D01*
X14450476Y-8918095D01*
X14460000Y-8922857D01*
X14493333Y-8922857D01*
X14393333Y-8875238D02*
X14393333Y-8956191D01*
X14388571Y-8965714D01*
X14383809Y-8970476D01*
X14374286Y-8975238D01*
X14355238Y-8975238D01*
X14345714Y-8970476D01*
X14340952Y-8965714D01*
X14336190Y-8956191D01*
X14336190Y-8875238D01*
X14236190Y-8880000D02*
X14245714Y-8875238D01*
X14260000Y-8875238D01*
X14274286Y-8880000D01*
X14283809Y-8889524D01*
X14288571Y-8899048D01*
X14293333Y-8918095D01*
X14293333Y-8932381D01*
X14288571Y-8951429D01*
X14283809Y-8960952D01*
X14274286Y-8970476D01*
X14260000Y-8975238D01*
X14250476Y-8975238D01*
X14236190Y-8970476D01*
X14231428Y-8965714D01*
X14231428Y-8932381D01*
X14250476Y-8932381D01*
X13504286Y-9119524D02*
X13499524Y-9124286D01*
X13494762Y-9138571D01*
X13494762Y-9148095D01*
X13499524Y-9162381D01*
X13509048Y-9171905D01*
X13518571Y-9176667D01*
X13537619Y-9181429D01*
X13551905Y-9181429D01*
X13570952Y-9176667D01*
X13580476Y-9171905D01*
X13590000Y-9162381D01*
X13594762Y-9148095D01*
X13594762Y-9138571D01*
X13590000Y-9124286D01*
X13585238Y-9119524D01*
X13494762Y-9029048D02*
X13494762Y-9076667D01*
X13594762Y-9076667D01*
X13494762Y-8995714D02*
X13594762Y-8995714D01*
X13494762Y-8938571D02*
X13551905Y-8981429D01*
X13594762Y-8938571D02*
X13537619Y-8995714D01*
X13364762Y-9042381D02*
X13464762Y-9042381D01*
X13464762Y-8975714D02*
X13464762Y-8956667D01*
X13460000Y-8947143D01*
X13450476Y-8937619D01*
X13431429Y-8932857D01*
X13398095Y-8932857D01*
X13379048Y-8937619D01*
X13369524Y-8947143D01*
X13364762Y-8956667D01*
X13364762Y-8975714D01*
X13369524Y-8985238D01*
X13379048Y-8994762D01*
X13398095Y-8999524D01*
X13431429Y-8999524D01*
X13450476Y-8994762D01*
X13460000Y-8985238D01*
X13464762Y-8975714D01*
X13649524Y-9208095D02*
X13644762Y-9193810D01*
X13644762Y-9170000D01*
X13649524Y-9160476D01*
X13654286Y-9155714D01*
X13663809Y-9150952D01*
X13673333Y-9150952D01*
X13682857Y-9155714D01*
X13687619Y-9160476D01*
X13692381Y-9170000D01*
X13697143Y-9189048D01*
X13701905Y-9198571D01*
X13706667Y-9203333D01*
X13716190Y-9208095D01*
X13725714Y-9208095D01*
X13735238Y-9203333D01*
X13740000Y-9198571D01*
X13744762Y-9189048D01*
X13744762Y-9165238D01*
X13740000Y-9150952D01*
X13744762Y-9117619D02*
X13644762Y-9093810D01*
X13716190Y-9074762D01*
X13644762Y-9055714D01*
X13744762Y-9031905D01*
X13744762Y-8974762D02*
X13744762Y-8955714D01*
X13740000Y-8946190D01*
X13730476Y-8936667D01*
X13711429Y-8931905D01*
X13678095Y-8931905D01*
X13659048Y-8936667D01*
X13649524Y-8946190D01*
X13644762Y-8955714D01*
X13644762Y-8974762D01*
X13649524Y-8984286D01*
X13659048Y-8993810D01*
X13678095Y-8998571D01*
X13711429Y-8998571D01*
X13730476Y-8993810D01*
X13740000Y-8984286D01*
X13744762Y-8974762D01*
X13364762Y-8803333D02*
X13464762Y-8803333D01*
X13464762Y-8765238D01*
X13460000Y-8755714D01*
X13455238Y-8750952D01*
X13445714Y-8746190D01*
X13431429Y-8746190D01*
X13421905Y-8750952D01*
X13417143Y-8755714D01*
X13412381Y-8765238D01*
X13412381Y-8803333D01*
X13464762Y-8712857D02*
X13364762Y-8689048D01*
X13436190Y-8670000D01*
X13364762Y-8650952D01*
X13464762Y-8627143D01*
X13364762Y-8531905D02*
X13412381Y-8565238D01*
X13364762Y-8589048D02*
X13464762Y-8589048D01*
X13464762Y-8550952D01*
X13460000Y-8541429D01*
X13455238Y-8536667D01*
X13445714Y-8531905D01*
X13431429Y-8531905D01*
X13421905Y-8536667D01*
X13417143Y-8541429D01*
X13412381Y-8550952D01*
X13412381Y-8589048D01*
X13494762Y-8744762D02*
X13542381Y-8778095D01*
X13494762Y-8801905D02*
X13594762Y-8801905D01*
X13594762Y-8763810D01*
X13590000Y-8754286D01*
X13585238Y-8749524D01*
X13575714Y-8744762D01*
X13561429Y-8744762D01*
X13551905Y-8749524D01*
X13547143Y-8754286D01*
X13542381Y-8763810D01*
X13542381Y-8801905D01*
X13499524Y-8706667D02*
X13494762Y-8692381D01*
X13494762Y-8668571D01*
X13499524Y-8659048D01*
X13504286Y-8654286D01*
X13513809Y-8649524D01*
X13523333Y-8649524D01*
X13532857Y-8654286D01*
X13537619Y-8659048D01*
X13542381Y-8668571D01*
X13547143Y-8687619D01*
X13551905Y-8697143D01*
X13556667Y-8701905D01*
X13566190Y-8706667D01*
X13575714Y-8706667D01*
X13585238Y-8701905D01*
X13590000Y-8697143D01*
X13594762Y-8687619D01*
X13594762Y-8663810D01*
X13590000Y-8649524D01*
X13594762Y-8620952D02*
X13594762Y-8563810D01*
X13494762Y-8592381D02*
X13594762Y-8592381D01*
X13730000Y-8756190D02*
X13734762Y-8765714D01*
X13734762Y-8780000D01*
X13730000Y-8794286D01*
X13720476Y-8803810D01*
X13710952Y-8808571D01*
X13691905Y-8813333D01*
X13677619Y-8813333D01*
X13658571Y-8808571D01*
X13649048Y-8803810D01*
X13639524Y-8794286D01*
X13634762Y-8780000D01*
X13634762Y-8770476D01*
X13639524Y-8756190D01*
X13644286Y-8751429D01*
X13677619Y-8751429D01*
X13677619Y-8770476D01*
X13634762Y-8708571D02*
X13734762Y-8708571D01*
X13634762Y-8651429D01*
X13734762Y-8651429D01*
X13634762Y-8603810D02*
X13734762Y-8603810D01*
X13734762Y-8580000D01*
X13730000Y-8565714D01*
X13720476Y-8556190D01*
X13710952Y-8551429D01*
X13691905Y-8546667D01*
X13677619Y-8546667D01*
X13658571Y-8551429D01*
X13649048Y-8556190D01*
X13639524Y-8565714D01*
X13634762Y-8580000D01*
X13634762Y-8603810D01*
X16660000Y-7476190D02*
X16664762Y-7485714D01*
X16664762Y-7500000D01*
X16660000Y-7514286D01*
X16650476Y-7523809D01*
X16640952Y-7528571D01*
X16621905Y-7533333D01*
X16607619Y-7533333D01*
X16588571Y-7528571D01*
X16579048Y-7523809D01*
X16569524Y-7514286D01*
X16564762Y-7500000D01*
X16564762Y-7490476D01*
X16569524Y-7476190D01*
X16574286Y-7471428D01*
X16607619Y-7471428D01*
X16607619Y-7490476D01*
X16564762Y-7428571D02*
X16664762Y-7428571D01*
X16564762Y-7371428D01*
X16664762Y-7371428D01*
X16564762Y-7323809D02*
X16664762Y-7323809D01*
X16664762Y-7300000D01*
X16660000Y-7285714D01*
X16650476Y-7276190D01*
X16640952Y-7271428D01*
X16621905Y-7266667D01*
X16607619Y-7266667D01*
X16588571Y-7271428D01*
X16579048Y-7276190D01*
X16569524Y-7285714D01*
X16564762Y-7300000D01*
X16564762Y-7323809D01*
X16434762Y-7479048D02*
X16482381Y-7512381D01*
X16434762Y-7536190D02*
X16534762Y-7536190D01*
X16534762Y-7498095D01*
X16530000Y-7488571D01*
X16525238Y-7483809D01*
X16515714Y-7479048D01*
X16501429Y-7479048D01*
X16491905Y-7483809D01*
X16487143Y-7488571D01*
X16482381Y-7498095D01*
X16482381Y-7536190D01*
X16534762Y-7445714D02*
X16434762Y-7379048D01*
X16534762Y-7379048D02*
X16434762Y-7445714D01*
X16534762Y-7321905D02*
X16534762Y-7302857D01*
X16530000Y-7293333D01*
X16520476Y-7283809D01*
X16501429Y-7279048D01*
X16468095Y-7279048D01*
X16449048Y-7283809D01*
X16439524Y-7293333D01*
X16434762Y-7302857D01*
X16434762Y-7321905D01*
X16439524Y-7331429D01*
X16449048Y-7340952D01*
X16468095Y-7345714D01*
X16501429Y-7345714D01*
X16520476Y-7340952D01*
X16530000Y-7331429D01*
X16534762Y-7321905D01*
X16434762Y-7236190D02*
X16534762Y-7236190D01*
X16434762Y-7179048D02*
X16491905Y-7221905D01*
X16534762Y-7179048D02*
X16477619Y-7236190D01*
X16309524Y-7531429D02*
X16304762Y-7517143D01*
X16304762Y-7493333D01*
X16309524Y-7483809D01*
X16314286Y-7479048D01*
X16323809Y-7474286D01*
X16333333Y-7474286D01*
X16342857Y-7479048D01*
X16347619Y-7483809D01*
X16352381Y-7493333D01*
X16357143Y-7512381D01*
X16361905Y-7521905D01*
X16366667Y-7526667D01*
X16376190Y-7531429D01*
X16385714Y-7531429D01*
X16395238Y-7526667D01*
X16400000Y-7521905D01*
X16404762Y-7512381D01*
X16404762Y-7488571D01*
X16400000Y-7474286D01*
X16357143Y-7398095D02*
X16357143Y-7431429D01*
X16304762Y-7431429D02*
X16404762Y-7431429D01*
X16404762Y-7383809D01*
X16304762Y-7345714D02*
X16404762Y-7345714D01*
X16404762Y-7321905D01*
X16400000Y-7307619D01*
X16390476Y-7298095D01*
X16380952Y-7293333D01*
X16361905Y-7288571D01*
X16347619Y-7288571D01*
X16328571Y-7293333D01*
X16319048Y-7298095D01*
X16309524Y-7307619D01*
X16304762Y-7321905D01*
X16304762Y-7345714D01*
X16174762Y-7476667D02*
X16222381Y-7510000D01*
X16174762Y-7533809D02*
X16274762Y-7533809D01*
X16274762Y-7495714D01*
X16270000Y-7486190D01*
X16265238Y-7481428D01*
X16255714Y-7476667D01*
X16241429Y-7476667D01*
X16231905Y-7481428D01*
X16227143Y-7486190D01*
X16222381Y-7495714D01*
X16222381Y-7533809D01*
X16274762Y-7443333D02*
X16174762Y-7376667D01*
X16274762Y-7376667D02*
X16174762Y-7443333D01*
X16144762Y-7526190D02*
X16144762Y-7469048D01*
X16044762Y-7497619D02*
X16144762Y-7497619D01*
X16144762Y-7445238D02*
X16044762Y-7378571D01*
X16144762Y-7378571D02*
X16044762Y-7445238D01*
X14794762Y-9467619D02*
X14794762Y-9405714D01*
X14756667Y-9439048D01*
X14756667Y-9424762D01*
X14751905Y-9415238D01*
X14747143Y-9410476D01*
X14737619Y-9405714D01*
X14713809Y-9405714D01*
X14704286Y-9410476D01*
X14699524Y-9415238D01*
X14694762Y-9424762D01*
X14694762Y-9453333D01*
X14699524Y-9462857D01*
X14704286Y-9467619D01*
X14704286Y-9362857D02*
X14699524Y-9358095D01*
X14694762Y-9362857D01*
X14699524Y-9367619D01*
X14704286Y-9362857D01*
X14694762Y-9362857D01*
X14794762Y-9324762D02*
X14794762Y-9262857D01*
X14756667Y-9296191D01*
X14756667Y-9281905D01*
X14751905Y-9272381D01*
X14747143Y-9267619D01*
X14737619Y-9262857D01*
X14713809Y-9262857D01*
X14704286Y-9267619D01*
X14699524Y-9272381D01*
X14694762Y-9281905D01*
X14694762Y-9310476D01*
X14699524Y-9320000D01*
X14704286Y-9324762D01*
X14794762Y-9234286D02*
X14694762Y-9200952D01*
X14794762Y-9167619D01*
X14862857Y-9477143D02*
X14862857Y-9400952D01*
X14824762Y-9439048D02*
X14900952Y-9439048D01*
X14877143Y-9320000D02*
X14872381Y-9305714D01*
X14867619Y-9300952D01*
X14858095Y-9296191D01*
X14843809Y-9296191D01*
X14834286Y-9300952D01*
X14829524Y-9305714D01*
X14824762Y-9315238D01*
X14824762Y-9353333D01*
X14924762Y-9353333D01*
X14924762Y-9320000D01*
X14920000Y-9310476D01*
X14915238Y-9305714D01*
X14905714Y-9300952D01*
X14896190Y-9300952D01*
X14886667Y-9305714D01*
X14881905Y-9310476D01*
X14877143Y-9320000D01*
X14877143Y-9353333D01*
X14853333Y-9258095D02*
X14853333Y-9210476D01*
X14824762Y-9267619D02*
X14924762Y-9234286D01*
X14824762Y-9200952D01*
X14924762Y-9181905D02*
X14924762Y-9124762D01*
X14824762Y-9153333D02*
X14924762Y-9153333D01*
X14924762Y-9105714D02*
X14924762Y-9048571D01*
X14824762Y-9077143D02*
X14924762Y-9077143D01*
X14954762Y-9408095D02*
X14954762Y-9455714D01*
X15054762Y-9455714D01*
X14954762Y-9374762D02*
X15021429Y-9374762D01*
X15054762Y-9374762D02*
X15050000Y-9379524D01*
X15045238Y-9374762D01*
X15050000Y-9370000D01*
X15054762Y-9374762D01*
X15045238Y-9374762D01*
X14954762Y-9327143D02*
X15054762Y-9327143D01*
X15054762Y-9289048D01*
X15050000Y-9279524D01*
X15045238Y-9274762D01*
X15035714Y-9270000D01*
X15021429Y-9270000D01*
X15011905Y-9274762D01*
X15007143Y-9279524D01*
X15002381Y-9289048D01*
X15002381Y-9327143D01*
X14954762Y-9212857D02*
X14959524Y-9222381D01*
X14964286Y-9227143D01*
X14973809Y-9231905D01*
X15002381Y-9231905D01*
X15011905Y-9227143D01*
X15016667Y-9222381D01*
X15021429Y-9212857D01*
X15021429Y-9198571D01*
X15016667Y-9189048D01*
X15011905Y-9184286D01*
X15002381Y-9179524D01*
X14973809Y-9179524D01*
X14964286Y-9184286D01*
X14959524Y-9189048D01*
X14954762Y-9198571D01*
X14954762Y-9212857D01*
X15184762Y-9473333D02*
X15084762Y-9440000D01*
X15184762Y-9406667D01*
X15137143Y-9340000D02*
X15132381Y-9325714D01*
X15127619Y-9320952D01*
X15118095Y-9316190D01*
X15103809Y-9316190D01*
X15094286Y-9320952D01*
X15089524Y-9325714D01*
X15084762Y-9335238D01*
X15084762Y-9373333D01*
X15184762Y-9373333D01*
X15184762Y-9340000D01*
X15180000Y-9330476D01*
X15175238Y-9325714D01*
X15165714Y-9320952D01*
X15156190Y-9320952D01*
X15146667Y-9325714D01*
X15141905Y-9330476D01*
X15137143Y-9340000D01*
X15137143Y-9373333D01*
X15184762Y-9273333D02*
X15103809Y-9273333D01*
X15094286Y-9268571D01*
X15089524Y-9263810D01*
X15084762Y-9254286D01*
X15084762Y-9235238D01*
X15089524Y-9225714D01*
X15094286Y-9220952D01*
X15103809Y-9216190D01*
X15184762Y-9216190D01*
X15089524Y-9173333D02*
X15084762Y-9159048D01*
X15084762Y-9135238D01*
X15089524Y-9125714D01*
X15094286Y-9120952D01*
X15103809Y-9116190D01*
X15113333Y-9116190D01*
X15122857Y-9120952D01*
X15127619Y-9125714D01*
X15132381Y-9135238D01*
X15137143Y-9154286D01*
X15141905Y-9163810D01*
X15146667Y-9168571D01*
X15156190Y-9173333D01*
X15165714Y-9173333D01*
X15175238Y-9168571D01*
X15180000Y-9163810D01*
X15184762Y-9154286D01*
X15184762Y-9130476D01*
X15180000Y-9116190D01*
X15310000Y-9406190D02*
X15314762Y-9415714D01*
X15314762Y-9430000D01*
X15310000Y-9444286D01*
X15300476Y-9453810D01*
X15290952Y-9458571D01*
X15271905Y-9463333D01*
X15257619Y-9463333D01*
X15238571Y-9458571D01*
X15229048Y-9453810D01*
X15219524Y-9444286D01*
X15214762Y-9430000D01*
X15214762Y-9420476D01*
X15219524Y-9406190D01*
X15224286Y-9401429D01*
X15257619Y-9401429D01*
X15257619Y-9420476D01*
X15214762Y-9358571D02*
X15314762Y-9358571D01*
X15214762Y-9301429D01*
X15314762Y-9301429D01*
X15214762Y-9253810D02*
X15314762Y-9253810D01*
X15314762Y-9230000D01*
X15310000Y-9215714D01*
X15300476Y-9206190D01*
X15290952Y-9201429D01*
X15271905Y-9196667D01*
X15257619Y-9196667D01*
X15238571Y-9201429D01*
X15229048Y-9206190D01*
X15219524Y-9215714D01*
X15214762Y-9230000D01*
X15214762Y-9253810D01*
X13824762Y-9416667D02*
X13872381Y-9450000D01*
X13824762Y-9473810D02*
X13924762Y-9473810D01*
X13924762Y-9435714D01*
X13920000Y-9426190D01*
X13915238Y-9421429D01*
X13905714Y-9416667D01*
X13891429Y-9416667D01*
X13881905Y-9421429D01*
X13877143Y-9426190D01*
X13872381Y-9435714D01*
X13872381Y-9473810D01*
X13924762Y-9383333D02*
X13824762Y-9316667D01*
X13924762Y-9316667D02*
X13824762Y-9383333D01*
X14054762Y-9466191D02*
X14054762Y-9409048D01*
X13954762Y-9437619D02*
X14054762Y-9437619D01*
X14054762Y-9385238D02*
X13954762Y-9318571D01*
X14054762Y-9318571D02*
X13954762Y-9385238D01*
X14180000Y-9526190D02*
X14184762Y-9535714D01*
X14184762Y-9550000D01*
X14180000Y-9564286D01*
X14170476Y-9573810D01*
X14160952Y-9578571D01*
X14141905Y-9583333D01*
X14127619Y-9583333D01*
X14108571Y-9578571D01*
X14099048Y-9573810D01*
X14089524Y-9564286D01*
X14084762Y-9550000D01*
X14084762Y-9540476D01*
X14089524Y-9526190D01*
X14094286Y-9521429D01*
X14127619Y-9521429D01*
X14127619Y-9540476D01*
X14084762Y-9478571D02*
X14184762Y-9478571D01*
X14084762Y-9421429D01*
X14184762Y-9421429D01*
X14084762Y-9373810D02*
X14184762Y-9373810D01*
X14184762Y-9350000D01*
X14180000Y-9335714D01*
X14170476Y-9326190D01*
X14160952Y-9321429D01*
X14141905Y-9316667D01*
X14127619Y-9316667D01*
X14108571Y-9321429D01*
X14099048Y-9326190D01*
X14089524Y-9335714D01*
X14084762Y-9350000D01*
X14084762Y-9373810D01*
D12*
X14410952Y-9185238D02*
X14410952Y-9256667D01*
X14415714Y-9270952D01*
X14425238Y-9280476D01*
X14439524Y-9285238D01*
X14449048Y-9285238D01*
X14310952Y-9285238D02*
X14368095Y-9285238D01*
X14339524Y-9285238D02*
X14339524Y-9185238D01*
X14349048Y-9199524D01*
X14358571Y-9209048D01*
X14368095Y-9213810D01*
X14215714Y-9285238D02*
X14272857Y-9285238D01*
X14244286Y-9285238D02*
X14244286Y-9185238D01*
X14253809Y-9199524D01*
X14263333Y-9209048D01*
X14272857Y-9213810D01*
X14333333Y-8735238D02*
X14333333Y-8806667D01*
X14338095Y-8820952D01*
X14347619Y-8830476D01*
X14361905Y-8835238D01*
X14371429Y-8835238D01*
X14280952Y-8835238D02*
X14261905Y-8835238D01*
X14252381Y-8830476D01*
X14247619Y-8825714D01*
X14238095Y-8811429D01*
X14233333Y-8792381D01*
X14233333Y-8754286D01*
X14238095Y-8744762D01*
X14242857Y-8740000D01*
X14252381Y-8735238D01*
X14271429Y-8735238D01*
X14280952Y-8740000D01*
X14285714Y-8744762D01*
X14290476Y-8754286D01*
X14290476Y-8778095D01*
X14285714Y-8787619D01*
X14280952Y-8792381D01*
X14271429Y-8797143D01*
X14252381Y-8797143D01*
X14242857Y-8792381D01*
X14238095Y-8787619D01*
X14233333Y-8778095D01*
X16843333Y-7585238D02*
X16843333Y-7656667D01*
X16848095Y-7670952D01*
X16857619Y-7680476D01*
X16871905Y-7685238D01*
X16881429Y-7685238D01*
X16743333Y-7685238D02*
X16800476Y-7685238D01*
X16771905Y-7685238D02*
X16771905Y-7585238D01*
X16781429Y-7599524D01*
X16790952Y-7609048D01*
X16800476Y-7613809D01*
X15036333Y-9625238D02*
X15036333Y-9696667D01*
X15041095Y-9710952D01*
X15050619Y-9720476D01*
X15064905Y-9725238D01*
X15074429Y-9725238D01*
X14993476Y-9634762D02*
X14988714Y-9630000D01*
X14979190Y-9625238D01*
X14955381Y-9625238D01*
X14945857Y-9630000D01*
X14941095Y-9634762D01*
X14936333Y-9644286D01*
X14936333Y-9653810D01*
X14941095Y-9668095D01*
X14998238Y-9725238D01*
X14936333Y-9725238D01*
M02*
