M48
;DRILL file {KiCad 4.0.7-e2-6376~61~ubuntu18.04.1} date Thu Oct  4 13:43:16 2018
;FORMAT={-:-/ absolute / inch / decimal}
FMAT,2
INCH,TZ
T1C0.016
T2C0.028
T3C0.039
%
G90
G05
M72
T1
X5.1693Y-4.1457
X5.1969Y-4.0472
X5.2441Y-4.0551
X5.2677Y-3.4291
X5.2677Y-3.5512
X5.2677Y-3.6693
X5.2677Y-3.7913
X5.2883Y-3.9429
X5.2984Y-4.109
X5.3307Y-4.2874
X5.3543Y-3.9843
X5.4094Y-3.9252
X5.4481Y-3.7976
X5.5315Y-3.9055
X5.5394Y-4.1732
X5.563Y-3.2047
X5.594Y-3.3341
X5.6063Y-3.4646
X5.6102Y-3.4961
X5.6102Y-3.8189
X5.6142Y-3.3583
X5.6391Y-3.4032
X5.6417Y-4.0354
X5.6692Y-3.4125
X5.6732Y-3.6299
X5.689Y-3.9331
X5.6926Y-3.4336
X5.7022Y-3.4636
X5.7205Y-3.8898
X5.7283Y-4.2677
X5.7323Y-3.3346
X5.7418Y-3.6776
X5.7545Y-3.6483
X5.7594Y-3.3506
X5.7677Y-3.8307
X5.7717Y-4.2677
X5.7868Y-3.4024
X5.7913Y-3.7569
X5.795Y-3.372
X5.8272Y-3.4319
X5.8376Y-3.4022
X5.8386Y-4.2047
X5.8415Y-4.1348
X5.8754Y-3.8127
X5.8858Y-3.5709
X5.9016Y-3.7953
X5.9046Y-4.0969
X5.9606Y-3.3346
X6.0079Y-3.9449
X6.0276Y-3.3307
X6.0315Y-4.0472
X6.0354Y-4.0157
X6.0394Y-3.9843
X6.0787Y-3.3297
X6.0984Y-4.0591
X6.1024Y-3.9921
X6.1063Y-4.0276
X6.1575Y-3.4724
X6.189Y-3.7953
X6.189Y-3.8307
X6.189Y-3.8661
X6.1969Y-3.4055
X6.2047Y-4.0787
X6.2205Y-3.5591
X6.2205Y-3.6102
X6.2205Y-3.6614
X6.2205Y-3.7244
X6.2283Y-3.7953
X6.2283Y-3.8307
X6.2283Y-3.8661
X6.2323Y-2.8622
X6.2323Y-2.9724
X6.2402Y-3.0709
X6.2402Y-3.1142
X6.2638Y-3.5591
X6.2638Y-3.6102
X6.2638Y-3.6614
X6.2638Y-3.7205
X6.2677Y-3.7953
X6.2677Y-3.8307
X6.2677Y-3.8661
X6.2913Y-3.0827
X6.31Y-3.1181
X6.311Y-3.5591
X6.3209Y-3.6004
X6.3307Y-3.4488
X6.4055Y-3.937
X6.4173Y-3.8465
X6.4173Y-3.9055
X6.4252Y-3.6457
X6.4646Y-3.6339
X6.4843Y-3.9055
X6.4882Y-3.9449
X6.5Y-3.6339
X6.5236Y-3.9488
X6.5354Y-3.6339
X6.563Y-3.9528
X6.5709Y-3.6339
X6.6102Y-3.2244
X6.6142Y-3.5512
T2
X6.3425Y-4.0787
X6.4213Y-4.0787
T3
X5.9709Y-4.1654
X6.0709Y-4.1654
X6.1709Y-4.1654
T0
M30
