G04 #@! TF.FileFunction,Copper,L2,Bot,Signal*
%FSLAX45Y45*%
G04 Gerber Fmt 4.5, Leading zero omitted, Abs format (unit mm)*
G04 Created by KiCad (PCBNEW 4.0.7-e2-6376~61~ubuntu18.04.1) date Thu Oct  4 13:43:13 2018*
%MOMM*%
%LPD*%
G01*
G04 APERTURE LIST*
%ADD10C,0.100000*%
%ADD11R,1.200000X1.700000*%
%ADD12O,1.200000X1.700000*%
%ADD13R,1.700000X1.700000*%
%ADD14O,1.700000X1.700000*%
%ADD15C,0.600000*%
%ADD16C,0.250000*%
%ADD17C,0.200000*%
%ADD18C,0.254000*%
G04 APERTURE END LIST*
D10*
D11*
X16110000Y-10360000D03*
D12*
X16310000Y-10360000D03*
D13*
X15674000Y-10580000D03*
D14*
X15420000Y-10580000D03*
X15166000Y-10580000D03*
D15*
X16470000Y-9920000D03*
X16480000Y-10020000D03*
X16570000Y-10030000D03*
X16690000Y-9230000D03*
X16600000Y-9230000D03*
X16510000Y-9230000D03*
X16420000Y-9230000D03*
X16320000Y-9260000D03*
X16300000Y-9770000D03*
X16300000Y-9920000D03*
X16270000Y-10000000D03*
X15760000Y-10360000D03*
X14550000Y-10840000D03*
X14660000Y-10840000D03*
X14997771Y-10406161D03*
X14250000Y-9700000D03*
X14330000Y-10250000D03*
X15260000Y-10020000D03*
X13380000Y-8710000D03*
X13380000Y-9020000D03*
X13380000Y-9320000D03*
X13380000Y-9630000D03*
X13200000Y-10280000D03*
X13540000Y-10890000D03*
X13130000Y-10530000D03*
X14130000Y-8140000D03*
X15440000Y-8457499D03*
X16080000Y-8760000D03*
X15830000Y-7270000D03*
X15830000Y-7550000D03*
X14950000Y-9070000D03*
X14410000Y-9220000D03*
X13838103Y-9645826D03*
X14050000Y-9920000D03*
X13600000Y-10120000D03*
X14070000Y-10600000D03*
X16670000Y-10040000D03*
X16800000Y-9020000D03*
X16790000Y-8190000D03*
X15920000Y-9820000D03*
X15920000Y-9730000D03*
X15820000Y-9820000D03*
X15820000Y-9730000D03*
X15720000Y-9820000D03*
X15720000Y-9730000D03*
X15720000Y-9640000D03*
X15820000Y-9640000D03*
X15920000Y-9640000D03*
X15910000Y-9170000D03*
X15910000Y-9300000D03*
X15910000Y-9450000D03*
X15800000Y-9460000D03*
X15800000Y-9300000D03*
X15800000Y-9170000D03*
X15800000Y-9040000D03*
X15910000Y-9040000D03*
X16030000Y-9040000D03*
X16055000Y-9145000D03*
X14560000Y-8470000D03*
X14208784Y-8468541D03*
X14628986Y-8510511D03*
X14260000Y-8530000D03*
X14250000Y-8880000D03*
X15310000Y-8460000D03*
X14240000Y-8800000D03*
X15140000Y-8470000D03*
X14616379Y-9266726D03*
X14990000Y-9640000D03*
X14710000Y-9542501D03*
X14650000Y-9730002D03*
X14450000Y-9990000D03*
X14530000Y-9880000D03*
X14837500Y-10502500D03*
X14830000Y-10680000D03*
X15490000Y-10310000D03*
X15320000Y-10280000D03*
X15340000Y-10119999D03*
X15500000Y-10140000D03*
X15510000Y-10230000D03*
X15330000Y-10200000D03*
X13458014Y-10436840D03*
X13320000Y-10300000D03*
X14584238Y-9340998D03*
X14923435Y-9684377D03*
X15640000Y-8820000D03*
X15740000Y-8650000D03*
X14399873Y-8667643D03*
X14698588Y-8642132D03*
X14827382Y-8641464D03*
X14459218Y-8721293D03*
X15850000Y-7800000D03*
X15980000Y-7830000D03*
X14800985Y-8716984D03*
X14483566Y-8797499D03*
X16027499Y-7920000D03*
X15850000Y-7910000D03*
X14323373Y-8644234D03*
X14719196Y-8564830D03*
X13432282Y-10015004D03*
X13740000Y-9970000D03*
D16*
X15930000Y-9580000D02*
X15670000Y-9580000D01*
X15670000Y-9580000D02*
X15670000Y-9900000D01*
X15670000Y-9900000D02*
X16080000Y-9900000D01*
X16080000Y-9900000D02*
X16080000Y-9580000D01*
X16080000Y-9580000D02*
X15930000Y-9580000D01*
X15930000Y-9580000D02*
X15950000Y-9600000D01*
X15950000Y-9600000D02*
X15950000Y-9610000D01*
X15950000Y-9610000D02*
X15920000Y-9640000D01*
X16110000Y-9150000D02*
X16110000Y-9500000D01*
X16110000Y-9500000D02*
X15750000Y-9500000D01*
X15750000Y-9500000D02*
X15750000Y-9010000D01*
X16085000Y-9175000D02*
X16085000Y-9175000D01*
X15750000Y-9010000D02*
X15770000Y-8990000D01*
X15770000Y-8990000D02*
X16110000Y-8990000D01*
X16110000Y-8990000D02*
X16110000Y-9150000D01*
X16110000Y-9150000D02*
X16085000Y-9175000D01*
X16085000Y-9175000D02*
X16055000Y-9145000D01*
X14560000Y-8470000D02*
X14537999Y-8470000D01*
X14537999Y-8470000D02*
X14520000Y-8452001D01*
X14225325Y-8452001D02*
X14520000Y-8452001D01*
X14208784Y-8468541D02*
X14225325Y-8452001D01*
X14606997Y-8532500D02*
X14628986Y-8510511D01*
X14304926Y-8532500D02*
X14606997Y-8532500D01*
X14260000Y-8530000D02*
X14302426Y-8530000D01*
X14302426Y-8530000D02*
X14304926Y-8532500D01*
X14760000Y-8910000D02*
X14280000Y-8910000D01*
X15120000Y-8550000D02*
X14760000Y-8910000D01*
X14280000Y-8910000D02*
X14250000Y-8880000D01*
X15177574Y-8550000D02*
X15120000Y-8550000D01*
X15310000Y-8460000D02*
X15267574Y-8460000D01*
X15267574Y-8460000D02*
X15177574Y-8550000D01*
X14282426Y-8800000D02*
X14240000Y-8800000D01*
X15106359Y-8500000D02*
X14746359Y-8860000D01*
X15110000Y-8500000D02*
X15106359Y-8500000D01*
X15140000Y-8470000D02*
X15110000Y-8500000D01*
X14342426Y-8860000D02*
X14282426Y-8800000D01*
X14746359Y-8860000D02*
X14342426Y-8860000D01*
X14990000Y-9640000D02*
X14616726Y-9266726D01*
X14616726Y-9266726D02*
X14616379Y-9266726D01*
X14710000Y-9542501D02*
X14710000Y-9670002D01*
X14710000Y-9670002D02*
X14650000Y-9730002D01*
X14530000Y-9880000D02*
X14530000Y-9910000D01*
X14530000Y-9910000D02*
X14450000Y-9990000D01*
X14837500Y-10502500D02*
X14837500Y-10672500D01*
X14837500Y-10672500D02*
X14830000Y-10680000D01*
X15320000Y-10280000D02*
X15460000Y-10280000D01*
X15460000Y-10280000D02*
X15490000Y-10310000D01*
X15500000Y-10140000D02*
X15360001Y-10140000D01*
X15360001Y-10140000D02*
X15340000Y-10119999D01*
X15330000Y-10200000D02*
X15480000Y-10200000D01*
X15480000Y-10200000D02*
X15510000Y-10230000D01*
X13456840Y-10436840D02*
X13458014Y-10436840D01*
X13320000Y-10300000D02*
X13456840Y-10436840D01*
X14923435Y-9684377D02*
X14923435Y-9641950D01*
X14622483Y-9340998D02*
X14584238Y-9340998D01*
X14923435Y-9641950D02*
X14622483Y-9340998D01*
X15740000Y-8650000D02*
X15740000Y-8720000D01*
X15740000Y-8720000D02*
X15640000Y-8820000D01*
X14698588Y-8642132D02*
X14425384Y-8642132D01*
X14425384Y-8642132D02*
X14399873Y-8667643D01*
X14787646Y-8641464D02*
X14827382Y-8641464D01*
X14459218Y-8721293D02*
X14707817Y-8721293D01*
X14707817Y-8721293D02*
X14787646Y-8641464D01*
D17*
X15980000Y-7830000D02*
X15880000Y-7830000D01*
X15880000Y-7830000D02*
X15850000Y-7800000D01*
D16*
X14720470Y-8797499D02*
X14770985Y-8746984D01*
X14770985Y-8746984D02*
X14800985Y-8716984D01*
X14483566Y-8797499D02*
X14720470Y-8797499D01*
D17*
X16017499Y-7910000D02*
X16027499Y-7920000D01*
X15850000Y-7910000D02*
X16017499Y-7910000D01*
D16*
X14390106Y-8577501D02*
X14353373Y-8614234D01*
X14353373Y-8614234D02*
X14323373Y-8644234D01*
X14719196Y-8564830D02*
X14676769Y-8564830D01*
X14676769Y-8564830D02*
X14664098Y-8577501D01*
X14664098Y-8577501D02*
X14390106Y-8577501D01*
X13477286Y-9970000D02*
X13462282Y-9985004D01*
X13462282Y-9985004D02*
X13432282Y-10015004D01*
X13740000Y-9970000D02*
X13477286Y-9970000D01*
D18*
G36*
X16929000Y-10929000D02*
X13071000Y-10929000D01*
X13071000Y-10698517D01*
X14736484Y-10698517D01*
X14750688Y-10732894D01*
X14776967Y-10759219D01*
X14811320Y-10773484D01*
X14848517Y-10773516D01*
X14882894Y-10759312D01*
X14909219Y-10733033D01*
X14923484Y-10698680D01*
X14923516Y-10661483D01*
X14913500Y-10637242D01*
X14913500Y-10615689D01*
X15021851Y-10615689D01*
X15046482Y-10668136D01*
X15089308Y-10707165D01*
X15130311Y-10724148D01*
X15153300Y-10712016D01*
X15153300Y-10592700D01*
X15033918Y-10592700D01*
X15021851Y-10615689D01*
X14913500Y-10615689D01*
X14913500Y-10558746D01*
X14916719Y-10555533D01*
X14921379Y-10544311D01*
X15021851Y-10544311D01*
X15033918Y-10567300D01*
X15153300Y-10567300D01*
X15153300Y-10447985D01*
X15178700Y-10447985D01*
X15178700Y-10567300D01*
X15180700Y-10567300D01*
X15180700Y-10592700D01*
X15178700Y-10592700D01*
X15178700Y-10712016D01*
X15201689Y-10724148D01*
X15242692Y-10707165D01*
X15285518Y-10668136D01*
X15292230Y-10653845D01*
X15314995Y-10687915D01*
X15363171Y-10720105D01*
X15420000Y-10731409D01*
X15476828Y-10720105D01*
X15525005Y-10687915D01*
X15527785Y-10683755D01*
X15528684Y-10688532D01*
X15542591Y-10710144D01*
X15563811Y-10724643D01*
X15589000Y-10729744D01*
X15759000Y-10729744D01*
X15782532Y-10725316D01*
X15804144Y-10711409D01*
X15818643Y-10690189D01*
X15823744Y-10665000D01*
X15823744Y-10495000D01*
X15819316Y-10471468D01*
X15805409Y-10449856D01*
X15784189Y-10435357D01*
X15759000Y-10430256D01*
X15589000Y-10430256D01*
X15565468Y-10434684D01*
X15543856Y-10448591D01*
X15529357Y-10469811D01*
X15527991Y-10476554D01*
X15525005Y-10472085D01*
X15476828Y-10439895D01*
X15420000Y-10428591D01*
X15363171Y-10439895D01*
X15314995Y-10472085D01*
X15292230Y-10506155D01*
X15285518Y-10491864D01*
X15242692Y-10452836D01*
X15201689Y-10435852D01*
X15178700Y-10447985D01*
X15153300Y-10447985D01*
X15130311Y-10435852D01*
X15089308Y-10452836D01*
X15046482Y-10491864D01*
X15021851Y-10544311D01*
X14921379Y-10544311D01*
X14930984Y-10521180D01*
X14931016Y-10483983D01*
X14916812Y-10449606D01*
X14890533Y-10423281D01*
X14856180Y-10409016D01*
X14818983Y-10408984D01*
X14784606Y-10423188D01*
X14758281Y-10449467D01*
X14744016Y-10483820D01*
X14743984Y-10521017D01*
X14758188Y-10555394D01*
X14761500Y-10558712D01*
X14761500Y-10616267D01*
X14750781Y-10626967D01*
X14736516Y-10661320D01*
X14736484Y-10698517D01*
X13071000Y-10698517D01*
X13071000Y-10318517D01*
X13226484Y-10318517D01*
X13240688Y-10352894D01*
X13266967Y-10379219D01*
X13301320Y-10393484D01*
X13306008Y-10393488D01*
X13364501Y-10451981D01*
X13364498Y-10455357D01*
X13378702Y-10489735D01*
X13404981Y-10516059D01*
X13439334Y-10530324D01*
X13476531Y-10530356D01*
X13510908Y-10516152D01*
X13537233Y-10489873D01*
X13551498Y-10455520D01*
X13551530Y-10418324D01*
X13537326Y-10383946D01*
X13511047Y-10357621D01*
X13476694Y-10343356D01*
X13470831Y-10343351D01*
X13425997Y-10298517D01*
X15226484Y-10298517D01*
X15240688Y-10332894D01*
X15266967Y-10359219D01*
X15301320Y-10373484D01*
X15338517Y-10373516D01*
X15372894Y-10359312D01*
X15376212Y-10356000D01*
X15407840Y-10356000D01*
X15410688Y-10362894D01*
X15436967Y-10389219D01*
X15471320Y-10403484D01*
X15508517Y-10403516D01*
X15542894Y-10389312D01*
X15569219Y-10363033D01*
X15583484Y-10328680D01*
X15583516Y-10291483D01*
X15582709Y-10289531D01*
X15589219Y-10283033D01*
X15592555Y-10275000D01*
X15985256Y-10275000D01*
X15985256Y-10445000D01*
X15989684Y-10468532D01*
X16003591Y-10490144D01*
X16024811Y-10504643D01*
X16050000Y-10509744D01*
X16170000Y-10509744D01*
X16193532Y-10505316D01*
X16215144Y-10491409D01*
X16225557Y-10476169D01*
X16227087Y-10478193D01*
X16269062Y-10502829D01*
X16278239Y-10504346D01*
X16297300Y-10491873D01*
X16297300Y-10372700D01*
X16322700Y-10372700D01*
X16322700Y-10491873D01*
X16341761Y-10504346D01*
X16350938Y-10502829D01*
X16392912Y-10478193D01*
X16422265Y-10439370D01*
X16434526Y-10392270D01*
X16418255Y-10372700D01*
X16322700Y-10372700D01*
X16297300Y-10372700D01*
X16295300Y-10372700D01*
X16295300Y-10347300D01*
X16297300Y-10347300D01*
X16297300Y-10228127D01*
X16322700Y-10228127D01*
X16322700Y-10347300D01*
X16418255Y-10347300D01*
X16434526Y-10327730D01*
X16422265Y-10280630D01*
X16392912Y-10241807D01*
X16350938Y-10217171D01*
X16341761Y-10215654D01*
X16322700Y-10228127D01*
X16297300Y-10228127D01*
X16278239Y-10215654D01*
X16269062Y-10217171D01*
X16227087Y-10241807D01*
X16225473Y-10243942D01*
X16216409Y-10229856D01*
X16195189Y-10215357D01*
X16170000Y-10210256D01*
X16050000Y-10210256D01*
X16026468Y-10214684D01*
X16004856Y-10228591D01*
X15990357Y-10249811D01*
X15985256Y-10275000D01*
X15592555Y-10275000D01*
X15603484Y-10248680D01*
X15603516Y-10211483D01*
X15589312Y-10177106D01*
X15586855Y-10174644D01*
X15593484Y-10158680D01*
X15593516Y-10121483D01*
X15579312Y-10087106D01*
X15553033Y-10060781D01*
X15518680Y-10046516D01*
X15481483Y-10046484D01*
X15447106Y-10060688D01*
X15443788Y-10064000D01*
X15416213Y-10064000D01*
X15393033Y-10040780D01*
X15358680Y-10026515D01*
X15321483Y-10026483D01*
X15287106Y-10040687D01*
X15260781Y-10066966D01*
X15246516Y-10101319D01*
X15246484Y-10138515D01*
X15250377Y-10147939D01*
X15236516Y-10181320D01*
X15236484Y-10218517D01*
X15240377Y-10227939D01*
X15226516Y-10261320D01*
X15226484Y-10298517D01*
X13425997Y-10298517D01*
X13413512Y-10286032D01*
X13413516Y-10281483D01*
X13399312Y-10247106D01*
X13373033Y-10220781D01*
X13338680Y-10206516D01*
X13301483Y-10206484D01*
X13267106Y-10220688D01*
X13240781Y-10246967D01*
X13226516Y-10281320D01*
X13226484Y-10318517D01*
X13071000Y-10318517D01*
X13071000Y-10033521D01*
X13338766Y-10033521D01*
X13352970Y-10067899D01*
X13379249Y-10094224D01*
X13413602Y-10108488D01*
X13450798Y-10108521D01*
X13485176Y-10094316D01*
X13511501Y-10068037D01*
X13520652Y-10046000D01*
X13683754Y-10046000D01*
X13686967Y-10049219D01*
X13721320Y-10063484D01*
X13758517Y-10063516D01*
X13792894Y-10049312D01*
X13819219Y-10023033D01*
X13825247Y-10008517D01*
X14356484Y-10008517D01*
X14370688Y-10042894D01*
X14396967Y-10069219D01*
X14431320Y-10083484D01*
X14468517Y-10083516D01*
X14502894Y-10069312D01*
X14529219Y-10043033D01*
X14543484Y-10008680D01*
X14543488Y-10003992D01*
X14583740Y-9963740D01*
X14594320Y-9947906D01*
X14609219Y-9933033D01*
X14623484Y-9898680D01*
X14623516Y-9861483D01*
X14609312Y-9827106D01*
X14583033Y-9800781D01*
X14548680Y-9786516D01*
X14511483Y-9786484D01*
X14477106Y-9800688D01*
X14450781Y-9826967D01*
X14436516Y-9861320D01*
X14436486Y-9896034D01*
X14436032Y-9896488D01*
X14431483Y-9896484D01*
X14397106Y-9910688D01*
X14370781Y-9936967D01*
X14356516Y-9971320D01*
X14356484Y-10008517D01*
X13825247Y-10008517D01*
X13833484Y-9988680D01*
X13833516Y-9951483D01*
X13819312Y-9917106D01*
X13793033Y-9890781D01*
X13758680Y-9876516D01*
X13721483Y-9876484D01*
X13687106Y-9890688D01*
X13683788Y-9894000D01*
X13477286Y-9894000D01*
X13448202Y-9899785D01*
X13423546Y-9916260D01*
X13418314Y-9921492D01*
X13413765Y-9921488D01*
X13379387Y-9935693D01*
X13353063Y-9961972D01*
X13338798Y-9996324D01*
X13338766Y-10033521D01*
X13071000Y-10033521D01*
X13071000Y-9359515D01*
X14490722Y-9359515D01*
X14504926Y-9393893D01*
X14531205Y-9420218D01*
X14565558Y-9434482D01*
X14602755Y-9434515D01*
X14606834Y-9432829D01*
X14647141Y-9473137D01*
X14630781Y-9489468D01*
X14616516Y-9523821D01*
X14616484Y-9561018D01*
X14630688Y-9595395D01*
X14634000Y-9598713D01*
X14634000Y-9636488D01*
X14631483Y-9636486D01*
X14597106Y-9650690D01*
X14570781Y-9676969D01*
X14556516Y-9711322D01*
X14556484Y-9748519D01*
X14570688Y-9782896D01*
X14596967Y-9809221D01*
X14631320Y-9823486D01*
X14668517Y-9823518D01*
X14702894Y-9809314D01*
X14729219Y-9783035D01*
X14743484Y-9748682D01*
X14743488Y-9743994D01*
X14763740Y-9723742D01*
X14780215Y-9699086D01*
X14786000Y-9670002D01*
X14786000Y-9611995D01*
X14832812Y-9658807D01*
X14829951Y-9665697D01*
X14829919Y-9702893D01*
X14844123Y-9737271D01*
X14870402Y-9763596D01*
X14904755Y-9777860D01*
X14941952Y-9777893D01*
X14976329Y-9763688D01*
X15002654Y-9737409D01*
X15004272Y-9733513D01*
X15008517Y-9733516D01*
X15042894Y-9719312D01*
X15069219Y-9693033D01*
X15083484Y-9658680D01*
X15083516Y-9621483D01*
X15069312Y-9587106D01*
X15062218Y-9580000D01*
X15594000Y-9580000D01*
X15594000Y-9900000D01*
X15599785Y-9929084D01*
X15616260Y-9953740D01*
X15640916Y-9970215D01*
X15670000Y-9976000D01*
X16080000Y-9976000D01*
X16109084Y-9970215D01*
X16133740Y-9953740D01*
X16150215Y-9929084D01*
X16156000Y-9900000D01*
X16156000Y-9580000D01*
X16152297Y-9561386D01*
X16163740Y-9553740D01*
X16180215Y-9529084D01*
X16186000Y-9500000D01*
X16186000Y-8990000D01*
X16180215Y-8960916D01*
X16163740Y-8936260D01*
X16139084Y-8919785D01*
X16110000Y-8914000D01*
X15770000Y-8914000D01*
X15740916Y-8919785D01*
X15716260Y-8936260D01*
X15696260Y-8956260D01*
X15679785Y-8980916D01*
X15674000Y-9010000D01*
X15674000Y-9500000D01*
X15674796Y-9504000D01*
X15670000Y-9504000D01*
X15640916Y-9509785D01*
X15616260Y-9526260D01*
X15599785Y-9550916D01*
X15594000Y-9580000D01*
X15062218Y-9580000D01*
X15043033Y-9560781D01*
X15008680Y-9546516D01*
X15003992Y-9546512D01*
X14709891Y-9252411D01*
X14709895Y-9248209D01*
X14695691Y-9213832D01*
X14669412Y-9187507D01*
X14635059Y-9173242D01*
X14597862Y-9173210D01*
X14563485Y-9187414D01*
X14537160Y-9213693D01*
X14522895Y-9248046D01*
X14522876Y-9270140D01*
X14505019Y-9287966D01*
X14490754Y-9322318D01*
X14490722Y-9359515D01*
X13071000Y-9359515D01*
X13071000Y-8487058D01*
X14115268Y-8487058D01*
X14129473Y-8521436D01*
X14155752Y-8547761D01*
X14168329Y-8552983D01*
X14180688Y-8582894D01*
X14206967Y-8609219D01*
X14232304Y-8619740D01*
X14229889Y-8625554D01*
X14229857Y-8662751D01*
X14244061Y-8697128D01*
X14253428Y-8706512D01*
X14221483Y-8706484D01*
X14187106Y-8720688D01*
X14160781Y-8746967D01*
X14146516Y-8781320D01*
X14146484Y-8818517D01*
X14160352Y-8852082D01*
X14156516Y-8861320D01*
X14156484Y-8898517D01*
X14170688Y-8932894D01*
X14196967Y-8959219D01*
X14231320Y-8973484D01*
X14240855Y-8973492D01*
X14250916Y-8980215D01*
X14280000Y-8986000D01*
X14760000Y-8986000D01*
X14789084Y-8980215D01*
X14813740Y-8963740D01*
X14938963Y-8838517D01*
X15546484Y-8838517D01*
X15560688Y-8872894D01*
X15586967Y-8899219D01*
X15621320Y-8913484D01*
X15658517Y-8913516D01*
X15692894Y-8899312D01*
X15719219Y-8873033D01*
X15733484Y-8838680D01*
X15733488Y-8833992D01*
X15775993Y-8791487D01*
X16711481Y-8791487D01*
X16727965Y-8831380D01*
X16758459Y-8861928D01*
X16798323Y-8878481D01*
X16841487Y-8878519D01*
X16881380Y-8862035D01*
X16911928Y-8831541D01*
X16928481Y-8791677D01*
X16928519Y-8748513D01*
X16912035Y-8708620D01*
X16881541Y-8678072D01*
X16841677Y-8661519D01*
X16798513Y-8661481D01*
X16758620Y-8677965D01*
X16728072Y-8708460D01*
X16711519Y-8748323D01*
X16711481Y-8791487D01*
X15775993Y-8791487D01*
X15793740Y-8773740D01*
X15810215Y-8749084D01*
X15816000Y-8720000D01*
X15816000Y-8706246D01*
X15819219Y-8703033D01*
X15833484Y-8668680D01*
X15833516Y-8631483D01*
X15819312Y-8597106D01*
X15793033Y-8570781D01*
X15758680Y-8556516D01*
X15721483Y-8556484D01*
X15687106Y-8570688D01*
X15660781Y-8596967D01*
X15646516Y-8631320D01*
X15646484Y-8668517D01*
X15657454Y-8695066D01*
X15626032Y-8726488D01*
X15621483Y-8726484D01*
X15587106Y-8740688D01*
X15560781Y-8766967D01*
X15546516Y-8801320D01*
X15546484Y-8838517D01*
X14938963Y-8838517D01*
X15151480Y-8626000D01*
X15177574Y-8626000D01*
X15206657Y-8620215D01*
X15231314Y-8603740D01*
X15284431Y-8550623D01*
X15291320Y-8553484D01*
X15328517Y-8553516D01*
X15362894Y-8539312D01*
X15389219Y-8513033D01*
X15398166Y-8491487D01*
X16711481Y-8491487D01*
X16727965Y-8531380D01*
X16758459Y-8561928D01*
X16798323Y-8578481D01*
X16841487Y-8578519D01*
X16881380Y-8562035D01*
X16911928Y-8531541D01*
X16928481Y-8491677D01*
X16928519Y-8448513D01*
X16912035Y-8408620D01*
X16881541Y-8378072D01*
X16841677Y-8361519D01*
X16798513Y-8361481D01*
X16758620Y-8377965D01*
X16728072Y-8408460D01*
X16711519Y-8448323D01*
X16711481Y-8491487D01*
X15398166Y-8491487D01*
X15403484Y-8478680D01*
X15403516Y-8441483D01*
X15389312Y-8407106D01*
X15363033Y-8380781D01*
X15328680Y-8366516D01*
X15291483Y-8366484D01*
X15257106Y-8380688D01*
X15250358Y-8387424D01*
X15238490Y-8389785D01*
X15213833Y-8406260D01*
X15211157Y-8408937D01*
X15193033Y-8390781D01*
X15158680Y-8376516D01*
X15121483Y-8376484D01*
X15087106Y-8390688D01*
X15060781Y-8416967D01*
X15046516Y-8451320D01*
X15046515Y-8452364D01*
X14907751Y-8591128D01*
X14906693Y-8588569D01*
X14880414Y-8562244D01*
X14846062Y-8547980D01*
X14812711Y-8547951D01*
X14812712Y-8546313D01*
X14798507Y-8511936D01*
X14772228Y-8485611D01*
X14737876Y-8471346D01*
X14713961Y-8471326D01*
X14708297Y-8457617D01*
X14682018Y-8431292D01*
X14647665Y-8417028D01*
X14639226Y-8417020D01*
X14613033Y-8390781D01*
X14578680Y-8376516D01*
X14541483Y-8376484D01*
X14535290Y-8379043D01*
X14520000Y-8376001D01*
X14229737Y-8376001D01*
X14227464Y-8375058D01*
X14190268Y-8375025D01*
X14155890Y-8389230D01*
X14129565Y-8415509D01*
X14115301Y-8449862D01*
X14115268Y-8487058D01*
X13071000Y-8487058D01*
X13071000Y-7818517D01*
X15756484Y-7818517D01*
X15770688Y-7852894D01*
X15772771Y-7854981D01*
X15770781Y-7856967D01*
X15756516Y-7891320D01*
X15756484Y-7928517D01*
X15770688Y-7962894D01*
X15796967Y-7989219D01*
X15831320Y-8003484D01*
X15868517Y-8003516D01*
X15902894Y-7989312D01*
X15908716Y-7983500D01*
X15958774Y-7983500D01*
X15974466Y-7999219D01*
X16008819Y-8013484D01*
X16046016Y-8013516D01*
X16080393Y-7999312D01*
X16106718Y-7973033D01*
X16120983Y-7938680D01*
X16121015Y-7901483D01*
X16106811Y-7867106D01*
X16080532Y-7840781D01*
X16073493Y-7837858D01*
X16073516Y-7811483D01*
X16059312Y-7777106D01*
X16033033Y-7750781D01*
X15998680Y-7736516D01*
X15961483Y-7736484D01*
X15930254Y-7749387D01*
X15929312Y-7747106D01*
X15903033Y-7720781D01*
X15868680Y-7706516D01*
X15831483Y-7706484D01*
X15797106Y-7720688D01*
X15770781Y-7746967D01*
X15756516Y-7781320D01*
X15756484Y-7818517D01*
X13071000Y-7818517D01*
X13071000Y-7012700D01*
X16929000Y-7012700D01*
X16929000Y-10929000D01*
X16929000Y-10929000D01*
G37*
X16929000Y-10929000D02*
X13071000Y-10929000D01*
X13071000Y-10698517D01*
X14736484Y-10698517D01*
X14750688Y-10732894D01*
X14776967Y-10759219D01*
X14811320Y-10773484D01*
X14848517Y-10773516D01*
X14882894Y-10759312D01*
X14909219Y-10733033D01*
X14923484Y-10698680D01*
X14923516Y-10661483D01*
X14913500Y-10637242D01*
X14913500Y-10615689D01*
X15021851Y-10615689D01*
X15046482Y-10668136D01*
X15089308Y-10707165D01*
X15130311Y-10724148D01*
X15153300Y-10712016D01*
X15153300Y-10592700D01*
X15033918Y-10592700D01*
X15021851Y-10615689D01*
X14913500Y-10615689D01*
X14913500Y-10558746D01*
X14916719Y-10555533D01*
X14921379Y-10544311D01*
X15021851Y-10544311D01*
X15033918Y-10567300D01*
X15153300Y-10567300D01*
X15153300Y-10447985D01*
X15178700Y-10447985D01*
X15178700Y-10567300D01*
X15180700Y-10567300D01*
X15180700Y-10592700D01*
X15178700Y-10592700D01*
X15178700Y-10712016D01*
X15201689Y-10724148D01*
X15242692Y-10707165D01*
X15285518Y-10668136D01*
X15292230Y-10653845D01*
X15314995Y-10687915D01*
X15363171Y-10720105D01*
X15420000Y-10731409D01*
X15476828Y-10720105D01*
X15525005Y-10687915D01*
X15527785Y-10683755D01*
X15528684Y-10688532D01*
X15542591Y-10710144D01*
X15563811Y-10724643D01*
X15589000Y-10729744D01*
X15759000Y-10729744D01*
X15782532Y-10725316D01*
X15804144Y-10711409D01*
X15818643Y-10690189D01*
X15823744Y-10665000D01*
X15823744Y-10495000D01*
X15819316Y-10471468D01*
X15805409Y-10449856D01*
X15784189Y-10435357D01*
X15759000Y-10430256D01*
X15589000Y-10430256D01*
X15565468Y-10434684D01*
X15543856Y-10448591D01*
X15529357Y-10469811D01*
X15527991Y-10476554D01*
X15525005Y-10472085D01*
X15476828Y-10439895D01*
X15420000Y-10428591D01*
X15363171Y-10439895D01*
X15314995Y-10472085D01*
X15292230Y-10506155D01*
X15285518Y-10491864D01*
X15242692Y-10452836D01*
X15201689Y-10435852D01*
X15178700Y-10447985D01*
X15153300Y-10447985D01*
X15130311Y-10435852D01*
X15089308Y-10452836D01*
X15046482Y-10491864D01*
X15021851Y-10544311D01*
X14921379Y-10544311D01*
X14930984Y-10521180D01*
X14931016Y-10483983D01*
X14916812Y-10449606D01*
X14890533Y-10423281D01*
X14856180Y-10409016D01*
X14818983Y-10408984D01*
X14784606Y-10423188D01*
X14758281Y-10449467D01*
X14744016Y-10483820D01*
X14743984Y-10521017D01*
X14758188Y-10555394D01*
X14761500Y-10558712D01*
X14761500Y-10616267D01*
X14750781Y-10626967D01*
X14736516Y-10661320D01*
X14736484Y-10698517D01*
X13071000Y-10698517D01*
X13071000Y-10318517D01*
X13226484Y-10318517D01*
X13240688Y-10352894D01*
X13266967Y-10379219D01*
X13301320Y-10393484D01*
X13306008Y-10393488D01*
X13364501Y-10451981D01*
X13364498Y-10455357D01*
X13378702Y-10489735D01*
X13404981Y-10516059D01*
X13439334Y-10530324D01*
X13476531Y-10530356D01*
X13510908Y-10516152D01*
X13537233Y-10489873D01*
X13551498Y-10455520D01*
X13551530Y-10418324D01*
X13537326Y-10383946D01*
X13511047Y-10357621D01*
X13476694Y-10343356D01*
X13470831Y-10343351D01*
X13425997Y-10298517D01*
X15226484Y-10298517D01*
X15240688Y-10332894D01*
X15266967Y-10359219D01*
X15301320Y-10373484D01*
X15338517Y-10373516D01*
X15372894Y-10359312D01*
X15376212Y-10356000D01*
X15407840Y-10356000D01*
X15410688Y-10362894D01*
X15436967Y-10389219D01*
X15471320Y-10403484D01*
X15508517Y-10403516D01*
X15542894Y-10389312D01*
X15569219Y-10363033D01*
X15583484Y-10328680D01*
X15583516Y-10291483D01*
X15582709Y-10289531D01*
X15589219Y-10283033D01*
X15592555Y-10275000D01*
X15985256Y-10275000D01*
X15985256Y-10445000D01*
X15989684Y-10468532D01*
X16003591Y-10490144D01*
X16024811Y-10504643D01*
X16050000Y-10509744D01*
X16170000Y-10509744D01*
X16193532Y-10505316D01*
X16215144Y-10491409D01*
X16225557Y-10476169D01*
X16227087Y-10478193D01*
X16269062Y-10502829D01*
X16278239Y-10504346D01*
X16297300Y-10491873D01*
X16297300Y-10372700D01*
X16322700Y-10372700D01*
X16322700Y-10491873D01*
X16341761Y-10504346D01*
X16350938Y-10502829D01*
X16392912Y-10478193D01*
X16422265Y-10439370D01*
X16434526Y-10392270D01*
X16418255Y-10372700D01*
X16322700Y-10372700D01*
X16297300Y-10372700D01*
X16295300Y-10372700D01*
X16295300Y-10347300D01*
X16297300Y-10347300D01*
X16297300Y-10228127D01*
X16322700Y-10228127D01*
X16322700Y-10347300D01*
X16418255Y-10347300D01*
X16434526Y-10327730D01*
X16422265Y-10280630D01*
X16392912Y-10241807D01*
X16350938Y-10217171D01*
X16341761Y-10215654D01*
X16322700Y-10228127D01*
X16297300Y-10228127D01*
X16278239Y-10215654D01*
X16269062Y-10217171D01*
X16227087Y-10241807D01*
X16225473Y-10243942D01*
X16216409Y-10229856D01*
X16195189Y-10215357D01*
X16170000Y-10210256D01*
X16050000Y-10210256D01*
X16026468Y-10214684D01*
X16004856Y-10228591D01*
X15990357Y-10249811D01*
X15985256Y-10275000D01*
X15592555Y-10275000D01*
X15603484Y-10248680D01*
X15603516Y-10211483D01*
X15589312Y-10177106D01*
X15586855Y-10174644D01*
X15593484Y-10158680D01*
X15593516Y-10121483D01*
X15579312Y-10087106D01*
X15553033Y-10060781D01*
X15518680Y-10046516D01*
X15481483Y-10046484D01*
X15447106Y-10060688D01*
X15443788Y-10064000D01*
X15416213Y-10064000D01*
X15393033Y-10040780D01*
X15358680Y-10026515D01*
X15321483Y-10026483D01*
X15287106Y-10040687D01*
X15260781Y-10066966D01*
X15246516Y-10101319D01*
X15246484Y-10138515D01*
X15250377Y-10147939D01*
X15236516Y-10181320D01*
X15236484Y-10218517D01*
X15240377Y-10227939D01*
X15226516Y-10261320D01*
X15226484Y-10298517D01*
X13425997Y-10298517D01*
X13413512Y-10286032D01*
X13413516Y-10281483D01*
X13399312Y-10247106D01*
X13373033Y-10220781D01*
X13338680Y-10206516D01*
X13301483Y-10206484D01*
X13267106Y-10220688D01*
X13240781Y-10246967D01*
X13226516Y-10281320D01*
X13226484Y-10318517D01*
X13071000Y-10318517D01*
X13071000Y-10033521D01*
X13338766Y-10033521D01*
X13352970Y-10067899D01*
X13379249Y-10094224D01*
X13413602Y-10108488D01*
X13450798Y-10108521D01*
X13485176Y-10094316D01*
X13511501Y-10068037D01*
X13520652Y-10046000D01*
X13683754Y-10046000D01*
X13686967Y-10049219D01*
X13721320Y-10063484D01*
X13758517Y-10063516D01*
X13792894Y-10049312D01*
X13819219Y-10023033D01*
X13825247Y-10008517D01*
X14356484Y-10008517D01*
X14370688Y-10042894D01*
X14396967Y-10069219D01*
X14431320Y-10083484D01*
X14468517Y-10083516D01*
X14502894Y-10069312D01*
X14529219Y-10043033D01*
X14543484Y-10008680D01*
X14543488Y-10003992D01*
X14583740Y-9963740D01*
X14594320Y-9947906D01*
X14609219Y-9933033D01*
X14623484Y-9898680D01*
X14623516Y-9861483D01*
X14609312Y-9827106D01*
X14583033Y-9800781D01*
X14548680Y-9786516D01*
X14511483Y-9786484D01*
X14477106Y-9800688D01*
X14450781Y-9826967D01*
X14436516Y-9861320D01*
X14436486Y-9896034D01*
X14436032Y-9896488D01*
X14431483Y-9896484D01*
X14397106Y-9910688D01*
X14370781Y-9936967D01*
X14356516Y-9971320D01*
X14356484Y-10008517D01*
X13825247Y-10008517D01*
X13833484Y-9988680D01*
X13833516Y-9951483D01*
X13819312Y-9917106D01*
X13793033Y-9890781D01*
X13758680Y-9876516D01*
X13721483Y-9876484D01*
X13687106Y-9890688D01*
X13683788Y-9894000D01*
X13477286Y-9894000D01*
X13448202Y-9899785D01*
X13423546Y-9916260D01*
X13418314Y-9921492D01*
X13413765Y-9921488D01*
X13379387Y-9935693D01*
X13353063Y-9961972D01*
X13338798Y-9996324D01*
X13338766Y-10033521D01*
X13071000Y-10033521D01*
X13071000Y-9359515D01*
X14490722Y-9359515D01*
X14504926Y-9393893D01*
X14531205Y-9420218D01*
X14565558Y-9434482D01*
X14602755Y-9434515D01*
X14606834Y-9432829D01*
X14647141Y-9473137D01*
X14630781Y-9489468D01*
X14616516Y-9523821D01*
X14616484Y-9561018D01*
X14630688Y-9595395D01*
X14634000Y-9598713D01*
X14634000Y-9636488D01*
X14631483Y-9636486D01*
X14597106Y-9650690D01*
X14570781Y-9676969D01*
X14556516Y-9711322D01*
X14556484Y-9748519D01*
X14570688Y-9782896D01*
X14596967Y-9809221D01*
X14631320Y-9823486D01*
X14668517Y-9823518D01*
X14702894Y-9809314D01*
X14729219Y-9783035D01*
X14743484Y-9748682D01*
X14743488Y-9743994D01*
X14763740Y-9723742D01*
X14780215Y-9699086D01*
X14786000Y-9670002D01*
X14786000Y-9611995D01*
X14832812Y-9658807D01*
X14829951Y-9665697D01*
X14829919Y-9702893D01*
X14844123Y-9737271D01*
X14870402Y-9763596D01*
X14904755Y-9777860D01*
X14941952Y-9777893D01*
X14976329Y-9763688D01*
X15002654Y-9737409D01*
X15004272Y-9733513D01*
X15008517Y-9733516D01*
X15042894Y-9719312D01*
X15069219Y-9693033D01*
X15083484Y-9658680D01*
X15083516Y-9621483D01*
X15069312Y-9587106D01*
X15062218Y-9580000D01*
X15594000Y-9580000D01*
X15594000Y-9900000D01*
X15599785Y-9929084D01*
X15616260Y-9953740D01*
X15640916Y-9970215D01*
X15670000Y-9976000D01*
X16080000Y-9976000D01*
X16109084Y-9970215D01*
X16133740Y-9953740D01*
X16150215Y-9929084D01*
X16156000Y-9900000D01*
X16156000Y-9580000D01*
X16152297Y-9561386D01*
X16163740Y-9553740D01*
X16180215Y-9529084D01*
X16186000Y-9500000D01*
X16186000Y-8990000D01*
X16180215Y-8960916D01*
X16163740Y-8936260D01*
X16139084Y-8919785D01*
X16110000Y-8914000D01*
X15770000Y-8914000D01*
X15740916Y-8919785D01*
X15716260Y-8936260D01*
X15696260Y-8956260D01*
X15679785Y-8980916D01*
X15674000Y-9010000D01*
X15674000Y-9500000D01*
X15674796Y-9504000D01*
X15670000Y-9504000D01*
X15640916Y-9509785D01*
X15616260Y-9526260D01*
X15599785Y-9550916D01*
X15594000Y-9580000D01*
X15062218Y-9580000D01*
X15043033Y-9560781D01*
X15008680Y-9546516D01*
X15003992Y-9546512D01*
X14709891Y-9252411D01*
X14709895Y-9248209D01*
X14695691Y-9213832D01*
X14669412Y-9187507D01*
X14635059Y-9173242D01*
X14597862Y-9173210D01*
X14563485Y-9187414D01*
X14537160Y-9213693D01*
X14522895Y-9248046D01*
X14522876Y-9270140D01*
X14505019Y-9287966D01*
X14490754Y-9322318D01*
X14490722Y-9359515D01*
X13071000Y-9359515D01*
X13071000Y-8487058D01*
X14115268Y-8487058D01*
X14129473Y-8521436D01*
X14155752Y-8547761D01*
X14168329Y-8552983D01*
X14180688Y-8582894D01*
X14206967Y-8609219D01*
X14232304Y-8619740D01*
X14229889Y-8625554D01*
X14229857Y-8662751D01*
X14244061Y-8697128D01*
X14253428Y-8706512D01*
X14221483Y-8706484D01*
X14187106Y-8720688D01*
X14160781Y-8746967D01*
X14146516Y-8781320D01*
X14146484Y-8818517D01*
X14160352Y-8852082D01*
X14156516Y-8861320D01*
X14156484Y-8898517D01*
X14170688Y-8932894D01*
X14196967Y-8959219D01*
X14231320Y-8973484D01*
X14240855Y-8973492D01*
X14250916Y-8980215D01*
X14280000Y-8986000D01*
X14760000Y-8986000D01*
X14789084Y-8980215D01*
X14813740Y-8963740D01*
X14938963Y-8838517D01*
X15546484Y-8838517D01*
X15560688Y-8872894D01*
X15586967Y-8899219D01*
X15621320Y-8913484D01*
X15658517Y-8913516D01*
X15692894Y-8899312D01*
X15719219Y-8873033D01*
X15733484Y-8838680D01*
X15733488Y-8833992D01*
X15775993Y-8791487D01*
X16711481Y-8791487D01*
X16727965Y-8831380D01*
X16758459Y-8861928D01*
X16798323Y-8878481D01*
X16841487Y-8878519D01*
X16881380Y-8862035D01*
X16911928Y-8831541D01*
X16928481Y-8791677D01*
X16928519Y-8748513D01*
X16912035Y-8708620D01*
X16881541Y-8678072D01*
X16841677Y-8661519D01*
X16798513Y-8661481D01*
X16758620Y-8677965D01*
X16728072Y-8708460D01*
X16711519Y-8748323D01*
X16711481Y-8791487D01*
X15775993Y-8791487D01*
X15793740Y-8773740D01*
X15810215Y-8749084D01*
X15816000Y-8720000D01*
X15816000Y-8706246D01*
X15819219Y-8703033D01*
X15833484Y-8668680D01*
X15833516Y-8631483D01*
X15819312Y-8597106D01*
X15793033Y-8570781D01*
X15758680Y-8556516D01*
X15721483Y-8556484D01*
X15687106Y-8570688D01*
X15660781Y-8596967D01*
X15646516Y-8631320D01*
X15646484Y-8668517D01*
X15657454Y-8695066D01*
X15626032Y-8726488D01*
X15621483Y-8726484D01*
X15587106Y-8740688D01*
X15560781Y-8766967D01*
X15546516Y-8801320D01*
X15546484Y-8838517D01*
X14938963Y-8838517D01*
X15151480Y-8626000D01*
X15177574Y-8626000D01*
X15206657Y-8620215D01*
X15231314Y-8603740D01*
X15284431Y-8550623D01*
X15291320Y-8553484D01*
X15328517Y-8553516D01*
X15362894Y-8539312D01*
X15389219Y-8513033D01*
X15398166Y-8491487D01*
X16711481Y-8491487D01*
X16727965Y-8531380D01*
X16758459Y-8561928D01*
X16798323Y-8578481D01*
X16841487Y-8578519D01*
X16881380Y-8562035D01*
X16911928Y-8531541D01*
X16928481Y-8491677D01*
X16928519Y-8448513D01*
X16912035Y-8408620D01*
X16881541Y-8378072D01*
X16841677Y-8361519D01*
X16798513Y-8361481D01*
X16758620Y-8377965D01*
X16728072Y-8408460D01*
X16711519Y-8448323D01*
X16711481Y-8491487D01*
X15398166Y-8491487D01*
X15403484Y-8478680D01*
X15403516Y-8441483D01*
X15389312Y-8407106D01*
X15363033Y-8380781D01*
X15328680Y-8366516D01*
X15291483Y-8366484D01*
X15257106Y-8380688D01*
X15250358Y-8387424D01*
X15238490Y-8389785D01*
X15213833Y-8406260D01*
X15211157Y-8408937D01*
X15193033Y-8390781D01*
X15158680Y-8376516D01*
X15121483Y-8376484D01*
X15087106Y-8390688D01*
X15060781Y-8416967D01*
X15046516Y-8451320D01*
X15046515Y-8452364D01*
X14907751Y-8591128D01*
X14906693Y-8588569D01*
X14880414Y-8562244D01*
X14846062Y-8547980D01*
X14812711Y-8547951D01*
X14812712Y-8546313D01*
X14798507Y-8511936D01*
X14772228Y-8485611D01*
X14737876Y-8471346D01*
X14713961Y-8471326D01*
X14708297Y-8457617D01*
X14682018Y-8431292D01*
X14647665Y-8417028D01*
X14639226Y-8417020D01*
X14613033Y-8390781D01*
X14578680Y-8376516D01*
X14541483Y-8376484D01*
X14535290Y-8379043D01*
X14520000Y-8376001D01*
X14229737Y-8376001D01*
X14227464Y-8375058D01*
X14190268Y-8375025D01*
X14155890Y-8389230D01*
X14129565Y-8415509D01*
X14115301Y-8449862D01*
X14115268Y-8487058D01*
X13071000Y-8487058D01*
X13071000Y-7818517D01*
X15756484Y-7818517D01*
X15770688Y-7852894D01*
X15772771Y-7854981D01*
X15770781Y-7856967D01*
X15756516Y-7891320D01*
X15756484Y-7928517D01*
X15770688Y-7962894D01*
X15796967Y-7989219D01*
X15831320Y-8003484D01*
X15868517Y-8003516D01*
X15902894Y-7989312D01*
X15908716Y-7983500D01*
X15958774Y-7983500D01*
X15974466Y-7999219D01*
X16008819Y-8013484D01*
X16046016Y-8013516D01*
X16080393Y-7999312D01*
X16106718Y-7973033D01*
X16120983Y-7938680D01*
X16121015Y-7901483D01*
X16106811Y-7867106D01*
X16080532Y-7840781D01*
X16073493Y-7837858D01*
X16073516Y-7811483D01*
X16059312Y-7777106D01*
X16033033Y-7750781D01*
X15998680Y-7736516D01*
X15961483Y-7736484D01*
X15930254Y-7749387D01*
X15929312Y-7747106D01*
X15903033Y-7720781D01*
X15868680Y-7706516D01*
X15831483Y-7706484D01*
X15797106Y-7720688D01*
X15770781Y-7746967D01*
X15756516Y-7781320D01*
X15756484Y-7818517D01*
X13071000Y-7818517D01*
X13071000Y-7012700D01*
X16929000Y-7012700D01*
X16929000Y-10929000D01*
G36*
X16067300Y-9887300D02*
X15682700Y-9887300D01*
X15682700Y-9592700D01*
X16067300Y-9592700D01*
X16067300Y-9887300D01*
X16067300Y-9887300D01*
G37*
X16067300Y-9887300D02*
X15682700Y-9887300D01*
X15682700Y-9592700D01*
X16067300Y-9592700D01*
X16067300Y-9887300D01*
G36*
X16107300Y-9497300D02*
X15752700Y-9497300D01*
X15752700Y-8992700D01*
X16107300Y-8992700D01*
X16107300Y-9497300D01*
X16107300Y-9497300D01*
G37*
X16107300Y-9497300D02*
X15752700Y-9497300D01*
X15752700Y-8992700D01*
X16107300Y-8992700D01*
X16107300Y-9497300D01*
M02*
