G04 #@! TF.FileFunction,Soldermask,Bot*
%FSLAX45Y45*%
G04 Gerber Fmt 4.5, Leading zero omitted, Abs format (unit mm)*
G04 Created by KiCad (PCBNEW 4.0.6-e0-6349~52~ubuntu16.10.1) date Thu May  4 19:45:57 2017*
%MOMM*%
%LPD*%
G01*
G04 APERTURE LIST*
%ADD10C,0.100000*%
%ADD11C,3.400000*%
%ADD12R,3.400000X3.400000*%
%ADD13R,2.100000X2.100000*%
%ADD14O,2.100000X2.100000*%
%ADD15R,2.100000X1.600000*%
%ADD16O,2.100000X1.600000*%
G04 APERTURE END LIST*
D10*
D11*
X13251000Y-14200000D03*
D12*
X15300000Y-14200000D03*
D13*
X14875000Y-10875000D03*
D14*
X14621000Y-10875000D03*
D13*
X14667000Y-9500000D03*
D14*
X14921000Y-9500000D03*
X15175000Y-9500000D03*
D13*
X17375000Y-8629000D03*
D14*
X17375000Y-8375000D03*
D13*
X17875000Y-8629000D03*
D14*
X17875000Y-8375000D03*
D13*
X18375000Y-8629000D03*
D14*
X18375000Y-8375000D03*
D13*
X18875000Y-8629000D03*
D14*
X18875000Y-8375000D03*
D13*
X10625000Y-7371000D03*
D14*
X10625000Y-7625000D03*
X10625000Y-7879000D03*
X10625000Y-8133000D03*
D13*
X10500000Y-11867000D03*
D14*
X10754000Y-11867000D03*
X10500000Y-12121000D03*
X10754000Y-12121000D03*
X10500000Y-12375000D03*
X10754000Y-12375000D03*
X10500000Y-12629000D03*
X10754000Y-12629000D03*
X10500000Y-12883000D03*
X10754000Y-12883000D03*
X10500000Y-13137000D03*
X10754000Y-13137000D03*
X10500000Y-13391000D03*
X10754000Y-13391000D03*
X10500000Y-13645000D03*
X10754000Y-13645000D03*
D13*
X15154000Y-12325000D03*
D14*
X14900000Y-12325000D03*
D13*
X10600000Y-9121000D03*
D14*
X10600000Y-9375000D03*
X10600000Y-9629000D03*
D13*
X17000000Y-10525000D03*
D14*
X16746000Y-10525000D03*
D13*
X17780000Y-13462000D03*
D14*
X17526000Y-13462000D03*
D13*
X17018000Y-11938000D03*
D14*
X17018000Y-11684000D03*
X17018000Y-11430000D03*
D13*
X17145000Y-14605000D03*
D14*
X17145000Y-14859000D03*
D13*
X19750000Y-14396000D03*
D14*
X19750000Y-14650000D03*
D13*
X17526000Y-11938000D03*
D14*
X17526000Y-11684000D03*
X17526000Y-11430000D03*
D13*
X17399000Y-14605000D03*
D14*
X17399000Y-14859000D03*
D15*
X19375000Y-13100000D03*
D16*
X19375000Y-12900000D03*
D13*
X18034000Y-11938000D03*
D14*
X18034000Y-11684000D03*
X18034000Y-11430000D03*
D13*
X17653000Y-14605000D03*
D14*
X17653000Y-14859000D03*
D13*
X18542000Y-11938000D03*
D14*
X18542000Y-11684000D03*
X18542000Y-11430000D03*
D13*
X17907000Y-14605000D03*
D14*
X17907000Y-14859000D03*
D13*
X18125000Y-10425000D03*
D14*
X18379000Y-10425000D03*
M02*
