G04 #@! TF.FileFunction,Legend,Top*
%FSLAX45Y45*%
G04 Gerber Fmt 4.5, Leading zero omitted, Abs format (unit mm)*
G04 Created by KiCad (PCBNEW 4.0.6-e0-6349~52~ubuntu16.10.1) date Thu May  4 19:45:57 2017*
%MOMM*%
%LPD*%
G01*
G04 APERTURE LIST*
%ADD10C,0.100000*%
%ADD11C,0.300000*%
%ADD12C,0.120000*%
%ADD13C,0.150000*%
%ADD14C,0.010000*%
%ADD15C,0.222250*%
%ADD16C,0.304800*%
%ADD17C,0.075000*%
G04 APERTURE END LIST*
D10*
D11*
X11492857Y-14367857D02*
X11528571Y-14467857D01*
X11564286Y-14367857D01*
X11700000Y-14467857D02*
X11614286Y-14467857D01*
X11657143Y-14467857D02*
X11657143Y-14317857D01*
X11642857Y-14339286D01*
X11628571Y-14353571D01*
X11614286Y-14360714D01*
X14246429Y-11242857D02*
X14196429Y-11171429D01*
X14160714Y-11242857D02*
X14160714Y-11092857D01*
X14217857Y-11092857D01*
X14232143Y-11100000D01*
X14239286Y-11107143D01*
X14246429Y-11121429D01*
X14246429Y-11142857D01*
X14239286Y-11157143D01*
X14232143Y-11164286D01*
X14217857Y-11171429D01*
X14160714Y-11171429D01*
X14303571Y-11200000D02*
X14375000Y-11200000D01*
X14289286Y-11242857D02*
X14339286Y-11092857D01*
X14389286Y-11242857D01*
X14439286Y-11242857D02*
X14439286Y-11092857D01*
X14475000Y-11092857D01*
X14496428Y-11100000D01*
X14510714Y-11114286D01*
X14517857Y-11128571D01*
X14525000Y-11157143D01*
X14525000Y-11178571D01*
X14517857Y-11207143D01*
X14510714Y-11221429D01*
X14496428Y-11235714D01*
X14475000Y-11242857D01*
X14439286Y-11242857D01*
X14589286Y-11242857D02*
X14589286Y-11092857D01*
X14689286Y-11092857D02*
X14717857Y-11092857D01*
X14732143Y-11100000D01*
X14746429Y-11114286D01*
X14753571Y-11142857D01*
X14753571Y-11192857D01*
X14746429Y-11221429D01*
X14732143Y-11235714D01*
X14717857Y-11242857D01*
X14689286Y-11242857D01*
X14675000Y-11235714D01*
X14660714Y-11221429D01*
X14653571Y-11192857D01*
X14653571Y-11142857D01*
X14660714Y-11114286D01*
X14675000Y-11100000D01*
X14689286Y-11092857D01*
X14782143Y-11257143D02*
X14896429Y-11257143D01*
X15017857Y-11242857D02*
X14967857Y-11171429D01*
X14932143Y-11242857D02*
X14932143Y-11092857D01*
X14989286Y-11092857D01*
X15003571Y-11100000D01*
X15010714Y-11107143D01*
X15017857Y-11121429D01*
X15017857Y-11142857D01*
X15010714Y-11157143D01*
X15003571Y-11164286D01*
X14989286Y-11171429D01*
X14932143Y-11171429D01*
X15082143Y-11164286D02*
X15132143Y-11164286D01*
X15153571Y-11242857D02*
X15082143Y-11242857D01*
X15082143Y-11092857D01*
X15153571Y-11092857D01*
X15210714Y-11235714D02*
X15232143Y-11242857D01*
X15267857Y-11242857D01*
X15282143Y-11235714D01*
X15289286Y-11228571D01*
X15296429Y-11214286D01*
X15296429Y-11200000D01*
X15289286Y-11185714D01*
X15282143Y-11178571D01*
X15267857Y-11171429D01*
X15239286Y-11164286D01*
X15225000Y-11157143D01*
X15217857Y-11150000D01*
X15210714Y-11135714D01*
X15210714Y-11121429D01*
X15217857Y-11107143D01*
X15225000Y-11100000D01*
X15239286Y-11092857D01*
X15275000Y-11092857D01*
X15296429Y-11100000D01*
X15360714Y-11164286D02*
X15410714Y-11164286D01*
X15432143Y-11242857D02*
X15360714Y-11242857D01*
X15360714Y-11092857D01*
X15432143Y-11092857D01*
X15475000Y-11092857D02*
X15560714Y-11092857D01*
X15517857Y-11242857D02*
X15517857Y-11092857D01*
X14532143Y-9092857D02*
X14532143Y-8942857D01*
X14589286Y-8942857D01*
X14603571Y-8950000D01*
X14610714Y-8957143D01*
X14617857Y-8971429D01*
X14617857Y-8992857D01*
X14610714Y-9007143D01*
X14603571Y-9014286D01*
X14589286Y-9021429D01*
X14532143Y-9021429D01*
X14682143Y-8942857D02*
X14682143Y-9064286D01*
X14689286Y-9078571D01*
X14696428Y-9085714D01*
X14710714Y-9092857D01*
X14739286Y-9092857D01*
X14753571Y-9085714D01*
X14760714Y-9078571D01*
X14767857Y-9064286D01*
X14767857Y-8942857D01*
X14910714Y-9092857D02*
X14839286Y-9092857D01*
X14839286Y-8942857D01*
X15032143Y-9092857D02*
X14960714Y-9092857D01*
X14960714Y-8942857D01*
X15082143Y-8942857D02*
X15082143Y-9064286D01*
X15089286Y-9078571D01*
X15096429Y-9085714D01*
X15110714Y-9092857D01*
X15139286Y-9092857D01*
X15153571Y-9085714D01*
X15160714Y-9078571D01*
X15167857Y-9064286D01*
X15167857Y-8942857D01*
X15239286Y-9092857D02*
X15239286Y-8942857D01*
X15296429Y-8942857D01*
X15310714Y-8950000D01*
X15317857Y-8957143D01*
X15325000Y-8971429D01*
X15325000Y-8992857D01*
X15317857Y-9007143D01*
X15310714Y-9014286D01*
X15296429Y-9021429D01*
X15239286Y-9021429D01*
X15242857Y-10282143D02*
X15171429Y-10332143D01*
X15242857Y-10367857D02*
X15092857Y-10367857D01*
X15092857Y-10310714D01*
X15100000Y-10296429D01*
X15107143Y-10289286D01*
X15121429Y-10282143D01*
X15142857Y-10282143D01*
X15157143Y-10289286D01*
X15164286Y-10296429D01*
X15171429Y-10310714D01*
X15171429Y-10367857D01*
X15200000Y-10225000D02*
X15200000Y-10153571D01*
X15242857Y-10239286D02*
X15092857Y-10189286D01*
X15242857Y-10139286D01*
X15242857Y-10089286D02*
X15092857Y-10089286D01*
X15092857Y-10053571D01*
X15100000Y-10032143D01*
X15114286Y-10017857D01*
X15128571Y-10010714D01*
X15157143Y-10003571D01*
X15178571Y-10003571D01*
X15207143Y-10010714D01*
X15221429Y-10017857D01*
X15235714Y-10032143D01*
X15242857Y-10053571D01*
X15242857Y-10089286D01*
X15242857Y-9939286D02*
X15092857Y-9939286D01*
X15092857Y-9839286D02*
X15092857Y-9810714D01*
X15100000Y-9796429D01*
X15114286Y-9782143D01*
X15142857Y-9775000D01*
X15192857Y-9775000D01*
X15221429Y-9782143D01*
X15235714Y-9796429D01*
X15242857Y-9810714D01*
X15242857Y-9839286D01*
X15235714Y-9853571D01*
X15221429Y-9867857D01*
X15192857Y-9875000D01*
X15142857Y-9875000D01*
X15114286Y-9867857D01*
X15100000Y-9853571D01*
X15092857Y-9839286D01*
X14675000Y-10167857D02*
X14675000Y-10096429D01*
X14717857Y-10182143D02*
X14567857Y-10132143D01*
X14717857Y-10082143D01*
X14567857Y-10003572D02*
X14567857Y-9975000D01*
X14575000Y-9960714D01*
X14589286Y-9946429D01*
X14617857Y-9939286D01*
X14667857Y-9939286D01*
X14696429Y-9946429D01*
X14710714Y-9960714D01*
X14717857Y-9975000D01*
X14717857Y-10003572D01*
X14710714Y-10017857D01*
X14696429Y-10032143D01*
X14667857Y-10039286D01*
X14617857Y-10039286D01*
X14589286Y-10032143D01*
X14575000Y-10017857D01*
X14567857Y-10003572D01*
X14717857Y-9875000D02*
X14567857Y-9875000D01*
X14717857Y-9789286D01*
X14567857Y-9789286D01*
X17178000Y-13885457D02*
X17178000Y-13735457D01*
X17228000Y-13842600D01*
X17278000Y-13735457D01*
X17278000Y-13885457D01*
X17349429Y-13806886D02*
X17399429Y-13806886D01*
X17420857Y-13885457D02*
X17349429Y-13885457D01*
X17349429Y-13735457D01*
X17420857Y-13735457D01*
X17478000Y-13842600D02*
X17549429Y-13842600D01*
X17463714Y-13885457D02*
X17513714Y-13735457D01*
X17563714Y-13885457D01*
X17606571Y-13878314D02*
X17628000Y-13885457D01*
X17663714Y-13885457D01*
X17678000Y-13878314D01*
X17685143Y-13871171D01*
X17692286Y-13856886D01*
X17692286Y-13842600D01*
X17685143Y-13828314D01*
X17678000Y-13821171D01*
X17663714Y-13814029D01*
X17635143Y-13806886D01*
X17620857Y-13799743D01*
X17613714Y-13792600D01*
X17606571Y-13778314D01*
X17606571Y-13764029D01*
X17613714Y-13749743D01*
X17620857Y-13742600D01*
X17635143Y-13735457D01*
X17670857Y-13735457D01*
X17692286Y-13742600D01*
X17756571Y-13735457D02*
X17756571Y-13856886D01*
X17763714Y-13871171D01*
X17770857Y-13878314D01*
X17785143Y-13885457D01*
X17813714Y-13885457D01*
X17828000Y-13878314D01*
X17835143Y-13871171D01*
X17842286Y-13856886D01*
X17842286Y-13735457D01*
X17999429Y-13885457D02*
X17949429Y-13814029D01*
X17913714Y-13885457D02*
X17913714Y-13735457D01*
X17970857Y-13735457D01*
X17985143Y-13742600D01*
X17992286Y-13749743D01*
X17999429Y-13764029D01*
X17999429Y-13785457D01*
X17992286Y-13799743D01*
X17985143Y-13806886D01*
X17970857Y-13814029D01*
X17913714Y-13814029D01*
X18063714Y-13806886D02*
X18113714Y-13806886D01*
X18135143Y-13885457D02*
X18063714Y-13885457D01*
X18063714Y-13735457D01*
X18135143Y-13735457D01*
X18567000Y-12785686D02*
X18567000Y-12714257D01*
X18609857Y-12799971D02*
X18459857Y-12749971D01*
X18609857Y-12699971D01*
X18595571Y-12564257D02*
X18602714Y-12571400D01*
X18609857Y-12592829D01*
X18609857Y-12607114D01*
X18602714Y-12628543D01*
X18588429Y-12642829D01*
X18574143Y-12649971D01*
X18545571Y-12657114D01*
X18524143Y-12657114D01*
X18495571Y-12649971D01*
X18481286Y-12642829D01*
X18467000Y-12628543D01*
X18459857Y-12607114D01*
X18459857Y-12592829D01*
X18467000Y-12571400D01*
X18474143Y-12564257D01*
X18595571Y-12414257D02*
X18602714Y-12421400D01*
X18609857Y-12442829D01*
X18609857Y-12457114D01*
X18602714Y-12478543D01*
X18588429Y-12492829D01*
X18574143Y-12499971D01*
X18545571Y-12507114D01*
X18524143Y-12507114D01*
X18495571Y-12499971D01*
X18481286Y-12492829D01*
X18467000Y-12478543D01*
X18459857Y-12457114D01*
X18459857Y-12442829D01*
X18467000Y-12421400D01*
X18474143Y-12414257D01*
X18531286Y-12349971D02*
X18531286Y-12299971D01*
X18609857Y-12278543D02*
X18609857Y-12349971D01*
X18459857Y-12349971D01*
X18459857Y-12278543D01*
X18609857Y-12142828D02*
X18609857Y-12214257D01*
X18459857Y-12214257D01*
X18101857Y-13103171D02*
X18030429Y-13153171D01*
X18101857Y-13188886D02*
X17951857Y-13188886D01*
X17951857Y-13131743D01*
X17959000Y-13117457D01*
X17966143Y-13110314D01*
X17980429Y-13103171D01*
X18001857Y-13103171D01*
X18016143Y-13110314D01*
X18023286Y-13117457D01*
X18030429Y-13131743D01*
X18030429Y-13188886D01*
X18059000Y-13046029D02*
X18059000Y-12974600D01*
X18101857Y-13060314D02*
X17951857Y-13010314D01*
X18101857Y-12960314D01*
X18101857Y-12910314D02*
X17951857Y-12910314D01*
X17951857Y-12874600D01*
X17959000Y-12853171D01*
X17973286Y-12838886D01*
X17987571Y-12831743D01*
X18016143Y-12824600D01*
X18037571Y-12824600D01*
X18066143Y-12831743D01*
X18080429Y-12838886D01*
X18094714Y-12853171D01*
X18101857Y-12874600D01*
X18101857Y-12910314D01*
X18101857Y-12760314D02*
X17951857Y-12760314D01*
X17951857Y-12660314D02*
X17951857Y-12631743D01*
X17959000Y-12617457D01*
X17973286Y-12603171D01*
X18001857Y-12596029D01*
X18051857Y-12596029D01*
X18080429Y-12603171D01*
X18094714Y-12617457D01*
X18101857Y-12631743D01*
X18101857Y-12660314D01*
X18094714Y-12674600D01*
X18080429Y-12688886D01*
X18051857Y-12696029D01*
X18001857Y-12696029D01*
X17973286Y-12688886D01*
X17959000Y-12674600D01*
X17951857Y-12660314D01*
X18059000Y-12538886D02*
X18059000Y-12467457D01*
X18101857Y-12553171D02*
X17951857Y-12503171D01*
X18101857Y-12453171D01*
X17951857Y-12374600D02*
X17951857Y-12346029D01*
X17959000Y-12331743D01*
X17973286Y-12317457D01*
X18001857Y-12310314D01*
X18051857Y-12310314D01*
X18080429Y-12317457D01*
X18094714Y-12331743D01*
X18101857Y-12346029D01*
X18101857Y-12374600D01*
X18094714Y-12388886D01*
X18080429Y-12403171D01*
X18051857Y-12410314D01*
X18001857Y-12410314D01*
X17973286Y-12403171D01*
X17959000Y-12388886D01*
X17951857Y-12374600D01*
X18101857Y-12246028D02*
X17951857Y-12246028D01*
X18101857Y-12160314D01*
X17951857Y-12160314D01*
X17593857Y-12653143D02*
X17522429Y-12703143D01*
X17593857Y-12738857D02*
X17443857Y-12738857D01*
X17443857Y-12681714D01*
X17451000Y-12667428D01*
X17458143Y-12660286D01*
X17472429Y-12653143D01*
X17493857Y-12653143D01*
X17508143Y-12660286D01*
X17515286Y-12667428D01*
X17522429Y-12681714D01*
X17522429Y-12738857D01*
X17551000Y-12596000D02*
X17551000Y-12524571D01*
X17593857Y-12610286D02*
X17443857Y-12560286D01*
X17593857Y-12510286D01*
X17593857Y-12460286D02*
X17443857Y-12460286D01*
X17443857Y-12424571D01*
X17451000Y-12403143D01*
X17465286Y-12388857D01*
X17479571Y-12381714D01*
X17508143Y-12374571D01*
X17529571Y-12374571D01*
X17558143Y-12381714D01*
X17572429Y-12388857D01*
X17586714Y-12403143D01*
X17593857Y-12424571D01*
X17593857Y-12460286D01*
X17593857Y-12310286D02*
X17443857Y-12310286D01*
X17443857Y-12210286D02*
X17443857Y-12181714D01*
X17451000Y-12167428D01*
X17465286Y-12153143D01*
X17493857Y-12146000D01*
X17543857Y-12146000D01*
X17572429Y-12153143D01*
X17586714Y-12167428D01*
X17593857Y-12181714D01*
X17593857Y-12210286D01*
X17586714Y-12224571D01*
X17572429Y-12238857D01*
X17543857Y-12246000D01*
X17493857Y-12246000D01*
X17465286Y-12238857D01*
X17451000Y-12224571D01*
X17443857Y-12210286D01*
X17085857Y-12566571D02*
X16935857Y-12566571D01*
X17043000Y-12516571D01*
X16935857Y-12466571D01*
X17085857Y-12466571D01*
X17071571Y-12309428D02*
X17078714Y-12316571D01*
X17085857Y-12338000D01*
X17085857Y-12352286D01*
X17078714Y-12373714D01*
X17064429Y-12388000D01*
X17050143Y-12395143D01*
X17021571Y-12402286D01*
X17000143Y-12402286D01*
X16971571Y-12395143D01*
X16957286Y-12388000D01*
X16943000Y-12373714D01*
X16935857Y-12352286D01*
X16935857Y-12338000D01*
X16943000Y-12316571D01*
X16950143Y-12309428D01*
X16935857Y-12245143D02*
X17057286Y-12245143D01*
X17071571Y-12238000D01*
X17078714Y-12230857D01*
X17085857Y-12216571D01*
X17085857Y-12188000D01*
X17078714Y-12173714D01*
X17071571Y-12166571D01*
X17057286Y-12159428D01*
X16935857Y-12159428D01*
X16515171Y-11523257D02*
X16465171Y-11451829D01*
X16429457Y-11523257D02*
X16429457Y-11373257D01*
X16486600Y-11373257D01*
X16500886Y-11380400D01*
X16508029Y-11387543D01*
X16515171Y-11401829D01*
X16515171Y-11423257D01*
X16508029Y-11437543D01*
X16500886Y-11444686D01*
X16486600Y-11451829D01*
X16429457Y-11451829D01*
X16579457Y-11444686D02*
X16629457Y-11444686D01*
X16650886Y-11523257D02*
X16579457Y-11523257D01*
X16579457Y-11373257D01*
X16650886Y-11373257D01*
X16793743Y-11380400D02*
X16779457Y-11373257D01*
X16758029Y-11373257D01*
X16736600Y-11380400D01*
X16722314Y-11394686D01*
X16715171Y-11408971D01*
X16708029Y-11437543D01*
X16708029Y-11458971D01*
X16715171Y-11487543D01*
X16722314Y-11501829D01*
X16736600Y-11516114D01*
X16758029Y-11523257D01*
X16772314Y-11523257D01*
X16793743Y-11516114D01*
X16800886Y-11508971D01*
X16800886Y-11458971D01*
X16772314Y-11458971D01*
X16392943Y-11952686D02*
X16414371Y-11959829D01*
X16421514Y-11966971D01*
X16428657Y-11981257D01*
X16428657Y-12002686D01*
X16421514Y-12016971D01*
X16414371Y-12024114D01*
X16400086Y-12031257D01*
X16342943Y-12031257D01*
X16342943Y-11881257D01*
X16392943Y-11881257D01*
X16407229Y-11888400D01*
X16414371Y-11895543D01*
X16421514Y-11909829D01*
X16421514Y-11924114D01*
X16414371Y-11938400D01*
X16407229Y-11945543D01*
X16392943Y-11952686D01*
X16342943Y-11952686D01*
X16485800Y-11988400D02*
X16557229Y-11988400D01*
X16471514Y-12031257D02*
X16521514Y-11881257D01*
X16571514Y-12031257D01*
X16600086Y-11881257D02*
X16685800Y-11881257D01*
X16642943Y-12031257D02*
X16642943Y-11881257D01*
X16714371Y-11881257D02*
X16800086Y-11881257D01*
X16757229Y-12031257D02*
X16757229Y-11881257D01*
X17885714Y-10778571D02*
X17878571Y-10785714D01*
X17857143Y-10792857D01*
X17842857Y-10792857D01*
X17821429Y-10785714D01*
X17807143Y-10771429D01*
X17800000Y-10757143D01*
X17792857Y-10728571D01*
X17792857Y-10707143D01*
X17800000Y-10678571D01*
X17807143Y-10664286D01*
X17821429Y-10650000D01*
X17842857Y-10642857D01*
X17857143Y-10642857D01*
X17878571Y-10650000D01*
X17885714Y-10657143D01*
X17950000Y-10792857D02*
X17950000Y-10642857D01*
X17950000Y-10714286D02*
X18035714Y-10714286D01*
X18035714Y-10792857D02*
X18035714Y-10642857D01*
X18100000Y-10750000D02*
X18171429Y-10750000D01*
X18085714Y-10792857D02*
X18135714Y-10642857D01*
X18185714Y-10792857D01*
X18321429Y-10792857D02*
X18271429Y-10721429D01*
X18235714Y-10792857D02*
X18235714Y-10642857D01*
X18292857Y-10642857D01*
X18307143Y-10650000D01*
X18314286Y-10657143D01*
X18321429Y-10671429D01*
X18321429Y-10692857D01*
X18314286Y-10707143D01*
X18307143Y-10714286D01*
X18292857Y-10721429D01*
X18235714Y-10721429D01*
X18464286Y-10650000D02*
X18450000Y-10642857D01*
X18428571Y-10642857D01*
X18407143Y-10650000D01*
X18392857Y-10664286D01*
X18385714Y-10678571D01*
X18378571Y-10707143D01*
X18378571Y-10728571D01*
X18385714Y-10757143D01*
X18392857Y-10771429D01*
X18407143Y-10785714D01*
X18428571Y-10792857D01*
X18442857Y-10792857D01*
X18464286Y-10785714D01*
X18471429Y-10778571D01*
X18471429Y-10728571D01*
X18442857Y-10728571D01*
X18535714Y-10714286D02*
X18585714Y-10714286D01*
X18607143Y-10792857D02*
X18535714Y-10792857D01*
X18535714Y-10642857D01*
X18607143Y-10642857D01*
X18757143Y-10792857D02*
X18707143Y-10721429D01*
X18671429Y-10792857D02*
X18671429Y-10642857D01*
X18728571Y-10642857D01*
X18742857Y-10650000D01*
X18750000Y-10657143D01*
X18757143Y-10671429D01*
X18757143Y-10692857D01*
X18750000Y-10707143D01*
X18742857Y-10714286D01*
X18728571Y-10721429D01*
X18671429Y-10721429D01*
X16607143Y-10767857D02*
X16657143Y-10917857D01*
X16707143Y-10767857D01*
X16842857Y-10917857D02*
X16792857Y-10846429D01*
X16757143Y-10917857D02*
X16757143Y-10767857D01*
X16814286Y-10767857D01*
X16828572Y-10775000D01*
X16835714Y-10782143D01*
X16842857Y-10796429D01*
X16842857Y-10817857D01*
X16835714Y-10832143D01*
X16828572Y-10839286D01*
X16814286Y-10846429D01*
X16757143Y-10846429D01*
X16907143Y-10839286D02*
X16957143Y-10839286D01*
X16978572Y-10917857D02*
X16907143Y-10917857D01*
X16907143Y-10767857D01*
X16978572Y-10767857D01*
X17121429Y-10775000D02*
X17107143Y-10767857D01*
X17085714Y-10767857D01*
X17064286Y-10775000D01*
X17050000Y-10789286D01*
X17042857Y-10803571D01*
X17035714Y-10832143D01*
X17035714Y-10853571D01*
X17042857Y-10882143D01*
X17050000Y-10896429D01*
X17064286Y-10910714D01*
X17085714Y-10917857D01*
X17100000Y-10917857D01*
X17121429Y-10910714D01*
X17128572Y-10903571D01*
X17128572Y-10853571D01*
X17100000Y-10853571D01*
X14557143Y-12689286D02*
X14578571Y-12696429D01*
X14585714Y-12703571D01*
X14592857Y-12717857D01*
X14592857Y-12739286D01*
X14585714Y-12753571D01*
X14578571Y-12760714D01*
X14564286Y-12767857D01*
X14507143Y-12767857D01*
X14507143Y-12617857D01*
X14557143Y-12617857D01*
X14571429Y-12625000D01*
X14578571Y-12632143D01*
X14585714Y-12646429D01*
X14585714Y-12660714D01*
X14578571Y-12675000D01*
X14571429Y-12682143D01*
X14557143Y-12689286D01*
X14507143Y-12689286D01*
X14650000Y-12725000D02*
X14721429Y-12725000D01*
X14635714Y-12767857D02*
X14685714Y-12617857D01*
X14735714Y-12767857D01*
X14764286Y-12617857D02*
X14850000Y-12617857D01*
X14807143Y-12767857D02*
X14807143Y-12617857D01*
X14878571Y-12617857D02*
X14964286Y-12617857D01*
X14921429Y-12767857D02*
X14921429Y-12617857D01*
X14978571Y-12782143D02*
X15092857Y-12782143D01*
X15128571Y-12767857D02*
X15128571Y-12617857D01*
X15178571Y-12725000D01*
X15228571Y-12617857D01*
X15228571Y-12767857D01*
X15328571Y-12617857D02*
X15357143Y-12617857D01*
X15371429Y-12625000D01*
X15385714Y-12639286D01*
X15392857Y-12667857D01*
X15392857Y-12717857D01*
X15385714Y-12746429D01*
X15371429Y-12760714D01*
X15357143Y-12767857D01*
X15328571Y-12767857D01*
X15314286Y-12760714D01*
X15300000Y-12746429D01*
X15292857Y-12717857D01*
X15292857Y-12667857D01*
X15300000Y-12639286D01*
X15314286Y-12625000D01*
X15328571Y-12617857D01*
X15457143Y-12767857D02*
X15457143Y-12617857D01*
X15542857Y-12767857D01*
X15542857Y-12617857D01*
X18942857Y-13092857D02*
X18942857Y-13164286D01*
X18792857Y-13164286D01*
X18942857Y-13042857D02*
X18792857Y-13042857D01*
X18942857Y-12971428D02*
X18792857Y-12971428D01*
X18792857Y-12914286D01*
X18800000Y-12900000D01*
X18807143Y-12892857D01*
X18821429Y-12885714D01*
X18842857Y-12885714D01*
X18857143Y-12892857D01*
X18864286Y-12900000D01*
X18871429Y-12914286D01*
X18871429Y-12971428D01*
X18792857Y-12792857D02*
X18792857Y-12764286D01*
X18800000Y-12750000D01*
X18814286Y-12735714D01*
X18842857Y-12728571D01*
X18892857Y-12728571D01*
X18921429Y-12735714D01*
X18935714Y-12750000D01*
X18942857Y-12764286D01*
X18942857Y-12792857D01*
X18935714Y-12807143D01*
X18921429Y-12821428D01*
X18892857Y-12828571D01*
X18842857Y-12828571D01*
X18814286Y-12821428D01*
X18800000Y-12807143D01*
X18792857Y-12792857D01*
X18987986Y-15061343D02*
X18987986Y-15011343D01*
X19066557Y-14989914D02*
X19066557Y-15061343D01*
X18916557Y-15061343D01*
X18916557Y-14989914D01*
X18916557Y-14939914D02*
X19066557Y-14839914D01*
X18916557Y-14839914D02*
X19066557Y-14939914D01*
X18916557Y-14804200D02*
X18916557Y-14718486D01*
X19066557Y-14761343D02*
X18916557Y-14761343D01*
X18987986Y-14668486D02*
X18987986Y-14618486D01*
X19066557Y-14597057D02*
X19066557Y-14668486D01*
X18916557Y-14668486D01*
X18916557Y-14597057D01*
X19066557Y-14447057D02*
X18995129Y-14497057D01*
X19066557Y-14532771D02*
X18916557Y-14532771D01*
X18916557Y-14475629D01*
X18923700Y-14461343D01*
X18930843Y-14454200D01*
X18945129Y-14447057D01*
X18966557Y-14447057D01*
X18980843Y-14454200D01*
X18987986Y-14461343D01*
X18995129Y-14475629D01*
X18995129Y-14532771D01*
X19066557Y-14382771D02*
X18916557Y-14382771D01*
X19066557Y-14297057D01*
X18916557Y-14297057D01*
X19023700Y-14232771D02*
X19023700Y-14161343D01*
X19066557Y-14247057D02*
X18916557Y-14197057D01*
X19066557Y-14147057D01*
X19066557Y-14025628D02*
X19066557Y-14097057D01*
X18916557Y-14097057D01*
X19321557Y-14900629D02*
X19171557Y-14900629D01*
X19171557Y-14843486D01*
X19178700Y-14829200D01*
X19185843Y-14822057D01*
X19200129Y-14814914D01*
X19221557Y-14814914D01*
X19235843Y-14822057D01*
X19242986Y-14829200D01*
X19250129Y-14843486D01*
X19250129Y-14900629D01*
X19171557Y-14722057D02*
X19171557Y-14693486D01*
X19178700Y-14679200D01*
X19192986Y-14664914D01*
X19221557Y-14657771D01*
X19271557Y-14657771D01*
X19300129Y-14664914D01*
X19314414Y-14679200D01*
X19321557Y-14693486D01*
X19321557Y-14722057D01*
X19314414Y-14736343D01*
X19300129Y-14750629D01*
X19271557Y-14757771D01*
X19221557Y-14757771D01*
X19192986Y-14750629D01*
X19178700Y-14736343D01*
X19171557Y-14722057D01*
X19171557Y-14607771D02*
X19321557Y-14572057D01*
X19214414Y-14543486D01*
X19321557Y-14514914D01*
X19171557Y-14479200D01*
X19242986Y-14422057D02*
X19242986Y-14372057D01*
X19321557Y-14350628D02*
X19321557Y-14422057D01*
X19171557Y-14422057D01*
X19171557Y-14350628D01*
X19321557Y-14200628D02*
X19250129Y-14250628D01*
X19321557Y-14286343D02*
X19171557Y-14286343D01*
X19171557Y-14229200D01*
X19178700Y-14214914D01*
X19185843Y-14207771D01*
X19200129Y-14200628D01*
X19221557Y-14200628D01*
X19235843Y-14207771D01*
X19242986Y-14214914D01*
X19250129Y-14229200D01*
X19250129Y-14286343D01*
X19399257Y-14641114D02*
X19513543Y-14641114D01*
X19399257Y-14361714D02*
X19513543Y-14361714D01*
X19456400Y-14418857D02*
X19456400Y-14304571D01*
X16822829Y-15892057D02*
X16822829Y-15742057D01*
X16879971Y-15742057D01*
X16894257Y-15749200D01*
X16901400Y-15756343D01*
X16908543Y-15770629D01*
X16908543Y-15792057D01*
X16901400Y-15806343D01*
X16894257Y-15813486D01*
X16879971Y-15820629D01*
X16822829Y-15820629D01*
X17001400Y-15742057D02*
X17029971Y-15742057D01*
X17044257Y-15749200D01*
X17058543Y-15763486D01*
X17065686Y-15792057D01*
X17065686Y-15842057D01*
X17058543Y-15870629D01*
X17044257Y-15884914D01*
X17029971Y-15892057D01*
X17001400Y-15892057D01*
X16987114Y-15884914D01*
X16972829Y-15870629D01*
X16965686Y-15842057D01*
X16965686Y-15792057D01*
X16972829Y-15763486D01*
X16987114Y-15749200D01*
X17001400Y-15742057D01*
X17115686Y-15742057D02*
X17151400Y-15892057D01*
X17179971Y-15784914D01*
X17208543Y-15892057D01*
X17244257Y-15742057D01*
X17301400Y-15813486D02*
X17351400Y-15813486D01*
X17372829Y-15892057D02*
X17301400Y-15892057D01*
X17301400Y-15742057D01*
X17372829Y-15742057D01*
X17522829Y-15892057D02*
X17472829Y-15820629D01*
X17437114Y-15892057D02*
X17437114Y-15742057D01*
X17494257Y-15742057D01*
X17508543Y-15749200D01*
X17515686Y-15756343D01*
X17522829Y-15770629D01*
X17522829Y-15792057D01*
X17515686Y-15806343D01*
X17508543Y-15813486D01*
X17494257Y-15820629D01*
X17437114Y-15820629D01*
X17701400Y-15892057D02*
X17701400Y-15742057D01*
X17772829Y-15892057D02*
X17772829Y-15742057D01*
X17858543Y-15892057D01*
X17858543Y-15742057D01*
X17929972Y-15892057D02*
X17929972Y-15742057D01*
X17987114Y-15742057D01*
X18001400Y-15749200D01*
X18008543Y-15756343D01*
X18015686Y-15770629D01*
X18015686Y-15792057D01*
X18008543Y-15806343D01*
X18001400Y-15813486D01*
X17987114Y-15820629D01*
X17929972Y-15820629D01*
X18079972Y-15742057D02*
X18079972Y-15863486D01*
X18087114Y-15877771D01*
X18094257Y-15884914D01*
X18108543Y-15892057D01*
X18137114Y-15892057D01*
X18151400Y-15884914D01*
X18158543Y-15877771D01*
X18165686Y-15863486D01*
X18165686Y-15742057D01*
X18215686Y-15742057D02*
X18301400Y-15742057D01*
X18258543Y-15892057D02*
X18258543Y-15742057D01*
X17824857Y-15505486D02*
X17946286Y-15505486D01*
X17960571Y-15498343D01*
X17967714Y-15491200D01*
X17974857Y-15476914D01*
X17974857Y-15448343D01*
X17967714Y-15434057D01*
X17960571Y-15426914D01*
X17946286Y-15419771D01*
X17824857Y-15419771D01*
X17967714Y-15355486D02*
X17974857Y-15334057D01*
X17974857Y-15298343D01*
X17967714Y-15284057D01*
X17960571Y-15276914D01*
X17946286Y-15269771D01*
X17932000Y-15269771D01*
X17917714Y-15276914D01*
X17910571Y-15284057D01*
X17903429Y-15298343D01*
X17896286Y-15326914D01*
X17889143Y-15341200D01*
X17882000Y-15348343D01*
X17867714Y-15355486D01*
X17853429Y-15355486D01*
X17839143Y-15348343D01*
X17832000Y-15341200D01*
X17824857Y-15326914D01*
X17824857Y-15291200D01*
X17832000Y-15269771D01*
X17896286Y-15155486D02*
X17903429Y-15134057D01*
X17910571Y-15126914D01*
X17924857Y-15119771D01*
X17946286Y-15119771D01*
X17960571Y-15126914D01*
X17967714Y-15134057D01*
X17974857Y-15148343D01*
X17974857Y-15205486D01*
X17824857Y-15205486D01*
X17824857Y-15155486D01*
X17832000Y-15141200D01*
X17839143Y-15134057D01*
X17853429Y-15126914D01*
X17867714Y-15126914D01*
X17882000Y-15134057D01*
X17889143Y-15141200D01*
X17896286Y-15155486D01*
X17896286Y-15205486D01*
X17706571Y-15513429D02*
X17713714Y-15520571D01*
X17720857Y-15542000D01*
X17720857Y-15556286D01*
X17713714Y-15577714D01*
X17699429Y-15592000D01*
X17685143Y-15599143D01*
X17656571Y-15606286D01*
X17635143Y-15606286D01*
X17606571Y-15599143D01*
X17592286Y-15592000D01*
X17578000Y-15577714D01*
X17570857Y-15556286D01*
X17570857Y-15542000D01*
X17578000Y-15520571D01*
X17585143Y-15513429D01*
X17570857Y-15420571D02*
X17570857Y-15392000D01*
X17578000Y-15377714D01*
X17592286Y-15363429D01*
X17620857Y-15356286D01*
X17670857Y-15356286D01*
X17699429Y-15363429D01*
X17713714Y-15377714D01*
X17720857Y-15392000D01*
X17720857Y-15420571D01*
X17713714Y-15434857D01*
X17699429Y-15449143D01*
X17670857Y-15456286D01*
X17620857Y-15456286D01*
X17592286Y-15449143D01*
X17578000Y-15434857D01*
X17570857Y-15420571D01*
X17720857Y-15292000D02*
X17570857Y-15292000D01*
X17720857Y-15220571D02*
X17570857Y-15220571D01*
X17720857Y-15134857D01*
X17570857Y-15134857D01*
X17466857Y-15509857D02*
X17466857Y-15581286D01*
X17316857Y-15581286D01*
X17466857Y-15459857D02*
X17316857Y-15459857D01*
X17466857Y-15388428D02*
X17316857Y-15388428D01*
X17316857Y-15331286D01*
X17324000Y-15317000D01*
X17331143Y-15309857D01*
X17345429Y-15302714D01*
X17366857Y-15302714D01*
X17381143Y-15309857D01*
X17388286Y-15317000D01*
X17395429Y-15331286D01*
X17395429Y-15388428D01*
X17316857Y-15209857D02*
X17316857Y-15181286D01*
X17324000Y-15167000D01*
X17338286Y-15152714D01*
X17366857Y-15145571D01*
X17416857Y-15145571D01*
X17445429Y-15152714D01*
X17459714Y-15167000D01*
X17466857Y-15181286D01*
X17466857Y-15209857D01*
X17459714Y-15224143D01*
X17445429Y-15238428D01*
X17416857Y-15245571D01*
X17366857Y-15245571D01*
X17338286Y-15238428D01*
X17324000Y-15224143D01*
X17316857Y-15209857D01*
X17134286Y-15476914D02*
X17134286Y-15426914D01*
X17212857Y-15405486D02*
X17212857Y-15476914D01*
X17062857Y-15476914D01*
X17062857Y-15405486D01*
X17062857Y-15355486D02*
X17212857Y-15255486D01*
X17062857Y-15255486D02*
X17212857Y-15355486D01*
X17062857Y-15219771D02*
X17062857Y-15134057D01*
X17212857Y-15176914D02*
X17062857Y-15176914D01*
X10925000Y-9692857D02*
X10875000Y-9621429D01*
X10839286Y-9692857D02*
X10839286Y-9542857D01*
X10896429Y-9542857D01*
X10910714Y-9550000D01*
X10917857Y-9557143D01*
X10925000Y-9571429D01*
X10925000Y-9592857D01*
X10917857Y-9607143D01*
X10910714Y-9614286D01*
X10896429Y-9621429D01*
X10839286Y-9621429D01*
X10975000Y-9542857D02*
X11075000Y-9692857D01*
X11075000Y-9542857D02*
X10975000Y-9692857D01*
X10835714Y-9292857D02*
X10921429Y-9292857D01*
X10878572Y-9442857D02*
X10878572Y-9292857D01*
X10957143Y-9292857D02*
X11057143Y-9442857D01*
X11057143Y-9292857D02*
X10957143Y-9442857D01*
X10910714Y-9050000D02*
X10896429Y-9042857D01*
X10875000Y-9042857D01*
X10853572Y-9050000D01*
X10839286Y-9064286D01*
X10832143Y-9078571D01*
X10825000Y-9107143D01*
X10825000Y-9128571D01*
X10832143Y-9157143D01*
X10839286Y-9171429D01*
X10853572Y-9185714D01*
X10875000Y-9192857D01*
X10889286Y-9192857D01*
X10910714Y-9185714D01*
X10917857Y-9178571D01*
X10917857Y-9128571D01*
X10889286Y-9128571D01*
X10982143Y-9192857D02*
X10982143Y-9042857D01*
X11067857Y-9192857D01*
X11067857Y-9042857D01*
X11139286Y-9192857D02*
X11139286Y-9042857D01*
X11175000Y-9042857D01*
X11196429Y-9050000D01*
X11210714Y-9064286D01*
X11217857Y-9078571D01*
X11225000Y-9107143D01*
X11225000Y-9128571D01*
X11217857Y-9157143D01*
X11210714Y-9171429D01*
X11196429Y-9185714D01*
X11175000Y-9192857D01*
X11139286Y-9192857D01*
X10250000Y-12575000D02*
X10257143Y-12560714D01*
X10257143Y-12539286D01*
X10250000Y-12517857D01*
X10235714Y-12503571D01*
X10221429Y-12496429D01*
X10192857Y-12489286D01*
X10171429Y-12489286D01*
X10142857Y-12496429D01*
X10128571Y-12503571D01*
X10114286Y-12517857D01*
X10107143Y-12539286D01*
X10107143Y-12553571D01*
X10114286Y-12575000D01*
X10121429Y-12582143D01*
X10171429Y-12582143D01*
X10171429Y-12553571D01*
X10107143Y-12646429D02*
X10257143Y-12646429D01*
X10257143Y-12703571D01*
X10250000Y-12717857D01*
X10242857Y-12725000D01*
X10228571Y-12732143D01*
X10207143Y-12732143D01*
X10192857Y-12725000D01*
X10185714Y-12717857D01*
X10178571Y-12703571D01*
X10178571Y-12646429D01*
X10107143Y-12796429D02*
X10257143Y-12796429D01*
X10257143Y-12896429D02*
X10257143Y-12925000D01*
X10250000Y-12939286D01*
X10235714Y-12953571D01*
X10207143Y-12960714D01*
X10157143Y-12960714D01*
X10128571Y-12953571D01*
X10114286Y-12939286D01*
X10107143Y-12925000D01*
X10107143Y-12896429D01*
X10114286Y-12882143D01*
X10128571Y-12867857D01*
X10157143Y-12860714D01*
X10207143Y-12860714D01*
X10235714Y-12867857D01*
X10250000Y-12882143D01*
X10257143Y-12896429D01*
X10057143Y-10489286D02*
X10207143Y-10489286D01*
X10207143Y-10525000D01*
X10200000Y-10546429D01*
X10185714Y-10560714D01*
X10171429Y-10567857D01*
X10142857Y-10575000D01*
X10121429Y-10575000D01*
X10092857Y-10567857D01*
X10078571Y-10560714D01*
X10064286Y-10546429D01*
X10057143Y-10525000D01*
X10057143Y-10489286D01*
X10135714Y-10639286D02*
X10135714Y-10689286D01*
X10057143Y-10710714D02*
X10057143Y-10639286D01*
X10207143Y-10639286D01*
X10207143Y-10710714D01*
X10135714Y-10825000D02*
X10128571Y-10846429D01*
X10121429Y-10853571D01*
X10107143Y-10860714D01*
X10085714Y-10860714D01*
X10071429Y-10853571D01*
X10064286Y-10846429D01*
X10057143Y-10832143D01*
X10057143Y-10775000D01*
X10207143Y-10775000D01*
X10207143Y-10825000D01*
X10200000Y-10839286D01*
X10192857Y-10846429D01*
X10178571Y-10853571D01*
X10164286Y-10853571D01*
X10150000Y-10846429D01*
X10142857Y-10839286D01*
X10135714Y-10825000D01*
X10135714Y-10775000D01*
X10207143Y-10925000D02*
X10085714Y-10925000D01*
X10071429Y-10932143D01*
X10064286Y-10939286D01*
X10057143Y-10953571D01*
X10057143Y-10982143D01*
X10064286Y-10996429D01*
X10071429Y-11003571D01*
X10085714Y-11010714D01*
X10207143Y-11010714D01*
X10200000Y-11160714D02*
X10207143Y-11146429D01*
X10207143Y-11125000D01*
X10200000Y-11103572D01*
X10185714Y-11089286D01*
X10171429Y-11082143D01*
X10142857Y-11075000D01*
X10121429Y-11075000D01*
X10092857Y-11082143D01*
X10078571Y-11089286D01*
X10064286Y-11103572D01*
X10057143Y-11125000D01*
X10057143Y-11139286D01*
X10064286Y-11160714D01*
X10071429Y-11167857D01*
X10121429Y-11167857D01*
X10121429Y-11139286D01*
X10357143Y-9135714D02*
X10235714Y-9135714D01*
X10221429Y-9142857D01*
X10214286Y-9150000D01*
X10207143Y-9164286D01*
X10207143Y-9192857D01*
X10214286Y-9207143D01*
X10221429Y-9214286D01*
X10235714Y-9221429D01*
X10357143Y-9221429D01*
X10250000Y-9285714D02*
X10250000Y-9357143D01*
X10207143Y-9271429D02*
X10357143Y-9321429D01*
X10207143Y-9371429D01*
X10207143Y-9507143D02*
X10278571Y-9457143D01*
X10207143Y-9421429D02*
X10357143Y-9421429D01*
X10357143Y-9478571D01*
X10350000Y-9492857D01*
X10342857Y-9500000D01*
X10328571Y-9507143D01*
X10307143Y-9507143D01*
X10292857Y-9500000D01*
X10285714Y-9492857D01*
X10278571Y-9478571D01*
X10278571Y-9421429D01*
X10357143Y-9550000D02*
X10357143Y-9635714D01*
X10207143Y-9592857D02*
X10357143Y-9592857D01*
X10207143Y-7246429D02*
X10278571Y-7196429D01*
X10207143Y-7160714D02*
X10357143Y-7160714D01*
X10357143Y-7217857D01*
X10350000Y-7232143D01*
X10342857Y-7239286D01*
X10328571Y-7246429D01*
X10307143Y-7246429D01*
X10292857Y-7239286D01*
X10285714Y-7232143D01*
X10278571Y-7217857D01*
X10278571Y-7160714D01*
X10250000Y-7303571D02*
X10250000Y-7375000D01*
X10207143Y-7289286D02*
X10357143Y-7339286D01*
X10207143Y-7389286D01*
X10207143Y-7439286D02*
X10357143Y-7439286D01*
X10357143Y-7475000D01*
X10350000Y-7496428D01*
X10335714Y-7510714D01*
X10321429Y-7517857D01*
X10292857Y-7525000D01*
X10271429Y-7525000D01*
X10242857Y-7517857D01*
X10228571Y-7510714D01*
X10214286Y-7496428D01*
X10207143Y-7475000D01*
X10207143Y-7439286D01*
X10207143Y-7589286D02*
X10357143Y-7589286D01*
X10357143Y-7689286D02*
X10357143Y-7717857D01*
X10350000Y-7732143D01*
X10335714Y-7746429D01*
X10307143Y-7753571D01*
X10257143Y-7753571D01*
X10228571Y-7746429D01*
X10214286Y-7732143D01*
X10207143Y-7717857D01*
X10207143Y-7689286D01*
X10214286Y-7675000D01*
X10228571Y-7660714D01*
X10257143Y-7653571D01*
X10307143Y-7653571D01*
X10335714Y-7660714D01*
X10350000Y-7675000D01*
X10357143Y-7689286D01*
X10350000Y-8010714D02*
X10357143Y-7996429D01*
X10357143Y-7975000D01*
X10350000Y-7953571D01*
X10335714Y-7939286D01*
X10321429Y-7932143D01*
X10292857Y-7925000D01*
X10271429Y-7925000D01*
X10242857Y-7932143D01*
X10228571Y-7939286D01*
X10214286Y-7953571D01*
X10207143Y-7975000D01*
X10207143Y-7989286D01*
X10214286Y-8010714D01*
X10221429Y-8017857D01*
X10271429Y-8017857D01*
X10271429Y-7989286D01*
X10207143Y-8082143D02*
X10357143Y-8082143D01*
X10357143Y-8139286D01*
X10350000Y-8153571D01*
X10342857Y-8160714D01*
X10328571Y-8167857D01*
X10307143Y-8167857D01*
X10292857Y-8160714D01*
X10285714Y-8153571D01*
X10278571Y-8139286D01*
X10278571Y-8082143D01*
X10207143Y-8232143D02*
X10357143Y-8232143D01*
X10357143Y-8332143D02*
X10357143Y-8360714D01*
X10350000Y-8375000D01*
X10335714Y-8389286D01*
X10307143Y-8396429D01*
X10257143Y-8396429D01*
X10228571Y-8389286D01*
X10214286Y-8375000D01*
X10207143Y-8360714D01*
X10207143Y-8332143D01*
X10214286Y-8317857D01*
X10228571Y-8303571D01*
X10257143Y-8296429D01*
X10307143Y-8296429D01*
X10335714Y-8303571D01*
X10350000Y-8317857D01*
X10357143Y-8332143D01*
X18692857Y-7810714D02*
X18714286Y-7817857D01*
X18750000Y-7817857D01*
X18764286Y-7810714D01*
X18771429Y-7803571D01*
X18778572Y-7789286D01*
X18778572Y-7775000D01*
X18771429Y-7760714D01*
X18764286Y-7753571D01*
X18750000Y-7746429D01*
X18721429Y-7739286D01*
X18707143Y-7732143D01*
X18700000Y-7725000D01*
X18692857Y-7710714D01*
X18692857Y-7696429D01*
X18700000Y-7682143D01*
X18707143Y-7675000D01*
X18721429Y-7667857D01*
X18757143Y-7667857D01*
X18778572Y-7675000D01*
X18892857Y-7739286D02*
X18842857Y-7739286D01*
X18842857Y-7817857D02*
X18842857Y-7667857D01*
X18914286Y-7667857D01*
X18971429Y-7817857D02*
X18971429Y-7667857D01*
X19007143Y-7667857D01*
X19028571Y-7675000D01*
X19042857Y-7689286D01*
X19050000Y-7703571D01*
X19057143Y-7732143D01*
X19057143Y-7753571D01*
X19050000Y-7782143D01*
X19042857Y-7796429D01*
X19028571Y-7810714D01*
X19007143Y-7817857D01*
X18971429Y-7817857D01*
X18350000Y-7715357D02*
X18300000Y-7643929D01*
X18264286Y-7715357D02*
X18264286Y-7565357D01*
X18321429Y-7565357D01*
X18335714Y-7572500D01*
X18342857Y-7579643D01*
X18350000Y-7593929D01*
X18350000Y-7615357D01*
X18342857Y-7629643D01*
X18335714Y-7636786D01*
X18321429Y-7643929D01*
X18264286Y-7643929D01*
X18400000Y-7565357D02*
X18500000Y-7715357D01*
X18500000Y-7565357D02*
X18400000Y-7715357D01*
X18285714Y-7820357D02*
X18314286Y-7820357D01*
X18328572Y-7827500D01*
X18342857Y-7841786D01*
X18350000Y-7870357D01*
X18350000Y-7920357D01*
X18342857Y-7948929D01*
X18328572Y-7963214D01*
X18314286Y-7970357D01*
X18285714Y-7970357D01*
X18271429Y-7963214D01*
X18257143Y-7948929D01*
X18250000Y-7920357D01*
X18250000Y-7870357D01*
X18257143Y-7841786D01*
X18271429Y-7827500D01*
X18285714Y-7820357D01*
X18414286Y-7970357D02*
X18414286Y-7820357D01*
X18500000Y-7970357D02*
X18435714Y-7884643D01*
X18500000Y-7820357D02*
X18414286Y-7906071D01*
X17850000Y-7817857D02*
X17800000Y-7746429D01*
X17764286Y-7817857D02*
X17764286Y-7667857D01*
X17821429Y-7667857D01*
X17835714Y-7675000D01*
X17842857Y-7682143D01*
X17850000Y-7696429D01*
X17850000Y-7717857D01*
X17842857Y-7732143D01*
X17835714Y-7739286D01*
X17821429Y-7746429D01*
X17764286Y-7746429D01*
X17900000Y-7667857D02*
X18000000Y-7817857D01*
X18000000Y-7667857D02*
X17900000Y-7817857D01*
X17260714Y-7667857D02*
X17346429Y-7667857D01*
X17303572Y-7817857D02*
X17303572Y-7667857D01*
X17382143Y-7667857D02*
X17482143Y-7817857D01*
X17482143Y-7667857D02*
X17382143Y-7817857D01*
D12*
X12380026Y-14201523D02*
G75*
G02X15135000Y-13848000I1399974J1523D01*
G01*
X12380026Y-14198477D02*
G75*
G03X15135000Y-14552000I1399974J-1523D01*
G01*
X15134523Y-13845651D02*
G75*
G03X15205000Y-13895000I70477J25652D01*
G01*
X15134523Y-14554348D02*
G75*
G02X15205000Y-14505000I70477J-25652D01*
G01*
X15205000Y-14505000D02*
X15450000Y-14505000D01*
X15450000Y-13895000D02*
X15205000Y-13895000D01*
X15450000Y-14505000D02*
G75*
G03X15505000Y-14450000I0J55000D01*
G01*
X15450000Y-13895000D02*
G75*
G02X15505000Y-13950000I0J-55000D01*
G01*
X15505000Y-14450000D02*
X15505000Y-13950000D01*
X11860000Y-11010000D02*
X11790000Y-11010000D01*
X11790000Y-10890000D02*
X11860000Y-10890000D01*
X14135000Y-7940000D02*
X14135000Y-8010000D01*
X14015000Y-8010000D02*
X14015000Y-7940000D01*
X12140000Y-11340000D02*
X12210000Y-11340000D01*
X12210000Y-11460000D02*
X12140000Y-11460000D01*
X12110000Y-10785000D02*
X12040000Y-10785000D01*
X12040000Y-10665000D02*
X12110000Y-10665000D01*
X12585000Y-11610000D02*
X12515000Y-11610000D01*
X12515000Y-11490000D02*
X12585000Y-11490000D01*
X13340000Y-11465000D02*
X13410000Y-11465000D01*
X13410000Y-11585000D02*
X13340000Y-11585000D01*
X13490000Y-11240000D02*
X13560000Y-11240000D01*
X13560000Y-11360000D02*
X13490000Y-11360000D01*
X13565000Y-10965000D02*
X13635000Y-10965000D01*
X13635000Y-11085000D02*
X13565000Y-11085000D01*
X12615000Y-11860000D02*
X12615000Y-11790000D01*
X12735000Y-11790000D02*
X12735000Y-11860000D01*
X12790000Y-10160000D02*
X12790000Y-10090000D01*
X12910000Y-10090000D02*
X12910000Y-10160000D01*
X13335000Y-11790000D02*
X13335000Y-11860000D01*
X13215000Y-11860000D02*
X13215000Y-11790000D01*
X13640000Y-11585000D02*
X13640000Y-11515000D01*
X13760000Y-11515000D02*
X13760000Y-11585000D01*
X13565000Y-10765000D02*
X13635000Y-10765000D01*
X13635000Y-10885000D02*
X13565000Y-10885000D01*
X12210000Y-8840000D02*
X12210000Y-8910000D01*
X12090000Y-8910000D02*
X12090000Y-8840000D01*
X16785000Y-9815000D02*
X16785000Y-9885000D01*
X16665000Y-9885000D02*
X16665000Y-9815000D01*
X18665000Y-9935000D02*
X18665000Y-9865000D01*
X18785000Y-9865000D02*
X18785000Y-9935000D01*
X17010000Y-10135000D02*
X16940000Y-10135000D01*
X16940000Y-10015000D02*
X17010000Y-10015000D01*
X18040000Y-9935000D02*
X18040000Y-9865000D01*
X18160000Y-9865000D02*
X18160000Y-9935000D01*
X17425000Y-7245000D02*
X17325000Y-7245000D01*
X17325000Y-7245000D02*
X17325000Y-7455000D01*
X17425000Y-7245000D02*
X17425000Y-7455000D01*
X17925000Y-7245000D02*
X17825000Y-7245000D01*
X17825000Y-7245000D02*
X17825000Y-7455000D01*
X17925000Y-7245000D02*
X17925000Y-7455000D01*
X18425000Y-7245000D02*
X18325000Y-7245000D01*
X18325000Y-7245000D02*
X18325000Y-7455000D01*
X18425000Y-7245000D02*
X18425000Y-7455000D01*
X18925000Y-7240000D02*
X18825000Y-7240000D01*
X18825000Y-7240000D02*
X18825000Y-7450000D01*
X18925000Y-7240000D02*
X18925000Y-7450000D01*
X18975000Y-9775000D02*
X18875000Y-9775000D01*
X18875000Y-9775000D02*
X18875000Y-9985000D01*
X18975000Y-9775000D02*
X18975000Y-9985000D01*
X14748000Y-10736000D02*
X14482000Y-10736000D01*
X14482000Y-10736000D02*
X14482000Y-11014000D01*
X14482000Y-11014000D02*
X14748000Y-11014000D01*
X14748000Y-11014000D02*
X14748000Y-10736000D01*
X14875000Y-10736000D02*
X15014000Y-10736000D01*
X15014000Y-10736000D02*
X15014000Y-10875000D01*
X14794000Y-9639000D02*
X15314000Y-9639000D01*
X15314000Y-9639000D02*
X15314000Y-9361000D01*
X15314000Y-9361000D02*
X14794000Y-9361000D01*
X14794000Y-9361000D02*
X14794000Y-9639000D01*
X14667000Y-9639000D02*
X14528000Y-9639000D01*
X14528000Y-9639000D02*
X14528000Y-9500000D01*
X17514000Y-8502000D02*
X17514000Y-8236000D01*
X17514000Y-8236000D02*
X17236000Y-8236000D01*
X17236000Y-8236000D02*
X17236000Y-8502000D01*
X17236000Y-8502000D02*
X17514000Y-8502000D01*
X17514000Y-8629000D02*
X17514000Y-8768000D01*
X17514000Y-8768000D02*
X17375000Y-8768000D01*
X18014000Y-8502000D02*
X18014000Y-8236000D01*
X18014000Y-8236000D02*
X17736000Y-8236000D01*
X17736000Y-8236000D02*
X17736000Y-8502000D01*
X17736000Y-8502000D02*
X18014000Y-8502000D01*
X18014000Y-8629000D02*
X18014000Y-8768000D01*
X18014000Y-8768000D02*
X17875000Y-8768000D01*
X18514000Y-8502000D02*
X18514000Y-8236000D01*
X18514000Y-8236000D02*
X18236000Y-8236000D01*
X18236000Y-8236000D02*
X18236000Y-8502000D01*
X18236000Y-8502000D02*
X18514000Y-8502000D01*
X18514000Y-8629000D02*
X18514000Y-8768000D01*
X18514000Y-8768000D02*
X18375000Y-8768000D01*
X19014000Y-8502000D02*
X19014000Y-8236000D01*
X19014000Y-8236000D02*
X18736000Y-8236000D01*
X18736000Y-8236000D02*
X18736000Y-8502000D01*
X18736000Y-8502000D02*
X19014000Y-8502000D01*
X19014000Y-8629000D02*
X19014000Y-8768000D01*
X19014000Y-8768000D02*
X18875000Y-8768000D01*
X10486000Y-7498000D02*
X10486000Y-8272000D01*
X10486000Y-8272000D02*
X10764000Y-8272000D01*
X10764000Y-8272000D02*
X10764000Y-7498000D01*
X10764000Y-7498000D02*
X10486000Y-7498000D01*
X10486000Y-7371000D02*
X10486000Y-7232000D01*
X10486000Y-7232000D02*
X10625000Y-7232000D01*
X10361000Y-11994000D02*
X10361000Y-13784000D01*
X10361000Y-13784000D02*
X10893000Y-13784000D01*
X10893000Y-13784000D02*
X10893000Y-11728000D01*
X10893000Y-11728000D02*
X10627000Y-11728000D01*
X10627000Y-11728000D02*
X10627000Y-11994000D01*
X10627000Y-11994000D02*
X10361000Y-11994000D01*
X10361000Y-11867000D02*
X10361000Y-11728000D01*
X10361000Y-11728000D02*
X10500000Y-11728000D01*
X10500500Y-10503500D02*
X10500500Y-10501500D01*
X10500500Y-10501500D02*
X10766500Y-10501500D01*
X10766500Y-10501500D02*
X10766500Y-10503500D01*
X10500500Y-11146500D02*
X10500500Y-11148500D01*
X10500500Y-11148500D02*
X10766500Y-11148500D01*
X10766500Y-11148500D02*
X10766500Y-11146500D01*
X10270000Y-10503500D02*
X10500500Y-10503500D01*
X15027000Y-12186000D02*
X14761000Y-12186000D01*
X14761000Y-12186000D02*
X14761000Y-12464000D01*
X14761000Y-12464000D02*
X15027000Y-12464000D01*
X15027000Y-12464000D02*
X15027000Y-12186000D01*
X15154000Y-12186000D02*
X15293000Y-12186000D01*
X15293000Y-12186000D02*
X15293000Y-12325000D01*
X10461000Y-9248000D02*
X10461000Y-9768000D01*
X10461000Y-9768000D02*
X10739000Y-9768000D01*
X10739000Y-9768000D02*
X10739000Y-9248000D01*
X10739000Y-9248000D02*
X10461000Y-9248000D01*
X10461000Y-9121000D02*
X10461000Y-8982000D01*
X10461000Y-8982000D02*
X10600000Y-8982000D01*
X16873000Y-10386000D02*
X16607000Y-10386000D01*
X16607000Y-10386000D02*
X16607000Y-10664000D01*
X16607000Y-10664000D02*
X16873000Y-10664000D01*
X16873000Y-10664000D02*
X16873000Y-10386000D01*
X17000000Y-10386000D02*
X17139000Y-10386000D01*
X17139000Y-10386000D02*
X17139000Y-10525000D01*
X17653000Y-13323000D02*
X17387000Y-13323000D01*
X17387000Y-13323000D02*
X17387000Y-13601000D01*
X17387000Y-13601000D02*
X17653000Y-13601000D01*
X17653000Y-13601000D02*
X17653000Y-13323000D01*
X17780000Y-13323000D02*
X17919000Y-13323000D01*
X17919000Y-13323000D02*
X17919000Y-13462000D01*
X17157000Y-11811000D02*
X17157000Y-11291000D01*
X17157000Y-11291000D02*
X16879000Y-11291000D01*
X16879000Y-11291000D02*
X16879000Y-11811000D01*
X16879000Y-11811000D02*
X17157000Y-11811000D01*
X17157000Y-11938000D02*
X17157000Y-12077000D01*
X17157000Y-12077000D02*
X17018000Y-12077000D01*
X17006000Y-14732000D02*
X17006000Y-14998000D01*
X17006000Y-14998000D02*
X17284000Y-14998000D01*
X17284000Y-14998000D02*
X17284000Y-14732000D01*
X17284000Y-14732000D02*
X17006000Y-14732000D01*
X17006000Y-14605000D02*
X17006000Y-14466000D01*
X17006000Y-14466000D02*
X17145000Y-14466000D01*
X19611000Y-14523000D02*
X19611000Y-14789000D01*
X19611000Y-14789000D02*
X19889000Y-14789000D01*
X19889000Y-14789000D02*
X19889000Y-14523000D01*
X19889000Y-14523000D02*
X19611000Y-14523000D01*
X19611000Y-14396000D02*
X19611000Y-14257000D01*
X19611000Y-14257000D02*
X19750000Y-14257000D01*
X17665000Y-11811000D02*
X17665000Y-11291000D01*
X17665000Y-11291000D02*
X17387000Y-11291000D01*
X17387000Y-11291000D02*
X17387000Y-11811000D01*
X17387000Y-11811000D02*
X17665000Y-11811000D01*
X17665000Y-11938000D02*
X17665000Y-12077000D01*
X17665000Y-12077000D02*
X17526000Y-12077000D01*
X17260000Y-14732000D02*
X17260000Y-14998000D01*
X17260000Y-14998000D02*
X17538000Y-14998000D01*
X17538000Y-14998000D02*
X17538000Y-14732000D01*
X17538000Y-14732000D02*
X17260000Y-14732000D01*
X17260000Y-14605000D02*
X17260000Y-14466000D01*
X17260000Y-14466000D02*
X17399000Y-14466000D01*
X20010000Y-13050000D02*
X19575000Y-13050000D01*
X19575000Y-13050000D02*
X19575000Y-12950000D01*
X19575000Y-12950000D02*
X20010000Y-12950000D01*
X19390000Y-13180000D02*
X19390000Y-13215000D01*
X19390000Y-13215000D02*
X19230000Y-13215000D01*
X19230000Y-13215000D02*
X19230000Y-13305000D01*
X19230000Y-13305000D02*
X20010000Y-13305000D01*
X20010000Y-13305000D02*
X20010000Y-12695000D01*
X20010000Y-12695000D02*
X19230000Y-12695000D01*
X19230000Y-12695000D02*
X19230000Y-12785000D01*
X19230000Y-12785000D02*
X19390000Y-12785000D01*
X19390000Y-12785000D02*
X19390000Y-12820000D01*
X19390000Y-13305000D02*
X19390000Y-13215000D01*
X19390000Y-12695000D02*
X19390000Y-12785000D01*
X19625000Y-13230000D02*
X19785000Y-13230000D01*
X19785000Y-13230000D02*
X19785000Y-13130000D01*
X19785000Y-13130000D02*
X19625000Y-13130000D01*
X19625000Y-13130000D02*
X19625000Y-13230000D01*
X19625000Y-12770000D02*
X19785000Y-12770000D01*
X19785000Y-12770000D02*
X19785000Y-12870000D01*
X19785000Y-12870000D02*
X19625000Y-12870000D01*
X19625000Y-12870000D02*
X19625000Y-12770000D01*
X19785000Y-13130000D02*
X20010000Y-13130000D01*
X19785000Y-13180000D02*
X20010000Y-13180000D01*
X19390000Y-13180000D02*
X19270000Y-13180000D01*
X18173000Y-11811000D02*
X18173000Y-11291000D01*
X18173000Y-11291000D02*
X17895000Y-11291000D01*
X17895000Y-11291000D02*
X17895000Y-11811000D01*
X17895000Y-11811000D02*
X18173000Y-11811000D01*
X18173000Y-11938000D02*
X18173000Y-12077000D01*
X18173000Y-12077000D02*
X18034000Y-12077000D01*
X17514000Y-14732000D02*
X17514000Y-14998000D01*
X17514000Y-14998000D02*
X17792000Y-14998000D01*
X17792000Y-14998000D02*
X17792000Y-14732000D01*
X17792000Y-14732000D02*
X17514000Y-14732000D01*
X17514000Y-14605000D02*
X17514000Y-14466000D01*
X17514000Y-14466000D02*
X17653000Y-14466000D01*
X18681000Y-11811000D02*
X18681000Y-11291000D01*
X18681000Y-11291000D02*
X18403000Y-11291000D01*
X18403000Y-11291000D02*
X18403000Y-11811000D01*
X18403000Y-11811000D02*
X18681000Y-11811000D01*
X18681000Y-11938000D02*
X18681000Y-12077000D01*
X18681000Y-12077000D02*
X18542000Y-12077000D01*
X17768000Y-14732000D02*
X17768000Y-14998000D01*
X17768000Y-14998000D02*
X18046000Y-14998000D01*
X18046000Y-14998000D02*
X18046000Y-14732000D01*
X18046000Y-14732000D02*
X17768000Y-14732000D01*
X17768000Y-14605000D02*
X17768000Y-14466000D01*
X17768000Y-14466000D02*
X17907000Y-14466000D01*
X18252000Y-10564000D02*
X18518000Y-10564000D01*
X18518000Y-10564000D02*
X18518000Y-10286000D01*
X18518000Y-10286000D02*
X18252000Y-10286000D01*
X18252000Y-10286000D02*
X18252000Y-10564000D01*
X18125000Y-10564000D02*
X17986000Y-10564000D01*
X17986000Y-10564000D02*
X17986000Y-10425000D01*
D13*
X19570000Y-11808750D02*
X19570000Y-11058750D01*
X20070000Y-11058750D02*
X19570000Y-11058750D01*
X20070000Y-11808750D02*
X19570000Y-11808750D01*
X20070000Y-11808750D02*
X20070000Y-11058750D01*
X20000000Y-11808750D02*
X20000000Y-11058750D01*
D12*
X14977000Y-11600000D02*
X14977000Y-11534000D01*
X14977000Y-11766000D02*
X14977000Y-11700000D01*
X14977000Y-11766000D02*
X15180000Y-11766000D01*
X15118000Y-11534000D02*
X14977000Y-11534000D01*
X14325000Y-8743000D02*
X14225000Y-8743000D01*
X14225000Y-8607000D02*
X14325000Y-8607000D01*
X14525000Y-8607000D02*
X14625000Y-8607000D01*
X14625000Y-8743000D02*
X14525000Y-8743000D01*
X19550000Y-7332400D02*
X19450000Y-7332400D01*
X19450000Y-7196400D02*
X19550000Y-7196400D01*
X19550000Y-7518000D02*
X19450000Y-7518000D01*
X19450000Y-7382000D02*
X19550000Y-7382000D01*
X19550000Y-7693000D02*
X19450000Y-7693000D01*
X19450000Y-7557000D02*
X19550000Y-7557000D01*
X19550000Y-7865800D02*
X19450000Y-7865800D01*
X19450000Y-7729800D02*
X19550000Y-7729800D01*
X11850000Y-9357000D02*
X11950000Y-9357000D01*
X11950000Y-9493000D02*
X11850000Y-9493000D01*
X15150000Y-11832000D02*
X15250000Y-11832000D01*
X15250000Y-11968000D02*
X15150000Y-11968000D01*
X14875000Y-11968000D02*
X14775000Y-11968000D01*
X14775000Y-11832000D02*
X14875000Y-11832000D01*
X18650000Y-9618000D02*
X18550000Y-9618000D01*
X18550000Y-9482000D02*
X18650000Y-9482000D01*
X18850000Y-10243000D02*
X18750000Y-10243000D01*
X18750000Y-10107000D02*
X18850000Y-10107000D01*
D13*
X14340000Y-8320000D02*
X15660000Y-8320000D01*
X15660000Y-5980000D02*
X14340000Y-5980000D01*
X14680000Y-6000000D02*
X14690000Y-6000000D01*
X12550000Y-10425000D02*
X12500000Y-10425000D01*
X12500000Y-10425000D02*
X12450000Y-10475000D01*
X12450000Y-10475000D02*
X12450000Y-10525000D01*
X13300000Y-10525000D02*
X13300000Y-10425000D01*
X13300000Y-10425000D02*
X13200000Y-10425000D01*
X12550000Y-11275000D02*
X12450000Y-11275000D01*
X12450000Y-11275000D02*
X12450000Y-11175000D01*
X13200000Y-11275000D02*
X13300000Y-11275000D01*
X13300000Y-11275000D02*
X13300000Y-11175000D01*
X11616250Y-8925000D02*
X11636250Y-8945000D01*
X11616250Y-8925000D02*
X11636250Y-8905000D01*
X11716250Y-8925000D02*
X11616250Y-8925000D01*
X11716250Y-8825000D02*
X11736250Y-8845000D01*
X11716250Y-8825000D02*
X11696250Y-8845000D01*
X11716250Y-8925000D02*
X11716250Y-8825000D01*
X11966250Y-8985000D02*
X11786250Y-8985000D01*
X11966250Y-8765000D02*
X11766250Y-8765000D01*
X17045000Y-9960000D02*
X16905000Y-9960000D01*
X17045000Y-9740000D02*
X16845000Y-9740000D01*
D12*
X18325000Y-10016000D02*
X18505000Y-10016000D01*
X18505000Y-9694000D02*
X18260000Y-9694000D01*
X12187500Y-11142500D02*
X12187500Y-11007500D01*
X12012500Y-11142500D02*
X12012500Y-11007500D01*
X12775000Y-11460000D02*
X12775000Y-11790000D01*
X12775000Y-11790000D02*
X13175000Y-11790000D01*
D14*
G36*
X11758136Y-15135238D02*
X11767937Y-15136862D01*
X11776808Y-15139715D01*
X11785156Y-15143920D01*
X11791690Y-15148309D01*
X11794852Y-15150919D01*
X11798271Y-15154159D01*
X11801647Y-15157691D01*
X11804678Y-15161172D01*
X11807064Y-15164260D01*
X11808505Y-15166615D01*
X11808779Y-15167728D01*
X11807901Y-15168685D01*
X11805639Y-15170555D01*
X11802264Y-15173130D01*
X11798048Y-15176200D01*
X11794000Y-15179050D01*
X11779500Y-15189105D01*
X11778000Y-15186802D01*
X11773800Y-15181516D01*
X11768664Y-15176815D01*
X11763317Y-15173358D01*
X11763141Y-15173270D01*
X11760343Y-15171994D01*
X11757834Y-15171180D01*
X11755019Y-15170728D01*
X11751304Y-15170536D01*
X11747000Y-15170500D01*
X11742010Y-15170556D01*
X11738411Y-15170794D01*
X11735593Y-15171314D01*
X11732948Y-15172219D01*
X11730664Y-15173234D01*
X11722924Y-15177734D01*
X11716691Y-15183360D01*
X11711779Y-15190321D01*
X11708004Y-15198829D01*
X11707925Y-15199054D01*
X11706312Y-15205640D01*
X11705581Y-15213037D01*
X11705730Y-15220539D01*
X11706759Y-15227435D01*
X11707961Y-15231419D01*
X11711726Y-15238523D01*
X11716829Y-15244291D01*
X11723045Y-15248633D01*
X11730145Y-15251458D01*
X11737904Y-15252675D01*
X11746094Y-15252192D01*
X11754270Y-15250000D01*
X11759719Y-15247033D01*
X11764842Y-15242485D01*
X11768351Y-15238027D01*
X11769472Y-15236232D01*
X11769937Y-15234925D01*
X11769524Y-15234028D01*
X11768013Y-15233464D01*
X11765184Y-15233156D01*
X11760817Y-15233027D01*
X11754691Y-15233000D01*
X11754000Y-15233000D01*
X11748598Y-15232949D01*
X11743975Y-15232809D01*
X11740465Y-15232597D01*
X11738404Y-15232331D01*
X11738000Y-15232139D01*
X11738145Y-15230877D01*
X11738542Y-15228038D01*
X11739133Y-15224022D01*
X11739860Y-15219229D01*
X11739989Y-15218389D01*
X11740733Y-15213518D01*
X11741353Y-15209371D01*
X11741789Y-15206343D01*
X11741984Y-15204828D01*
X11741989Y-15204750D01*
X11742955Y-15204579D01*
X11745699Y-15204422D01*
X11749999Y-15204283D01*
X11755634Y-15204166D01*
X11762383Y-15204077D01*
X11770023Y-15204020D01*
X11778333Y-15204000D01*
X11778500Y-15204000D01*
X11786820Y-15204014D01*
X11794475Y-15204055D01*
X11801241Y-15204118D01*
X11806899Y-15204201D01*
X11811225Y-15204301D01*
X11813999Y-15204414D01*
X11815000Y-15204537D01*
X11815000Y-15204539D01*
X11814788Y-15207958D01*
X11814218Y-15212713D01*
X11813390Y-15218196D01*
X11812403Y-15223796D01*
X11811358Y-15228903D01*
X11810377Y-15232827D01*
X11806776Y-15243150D01*
X11802269Y-15252066D01*
X11796572Y-15260065D01*
X11791456Y-15265653D01*
X11783540Y-15272546D01*
X11775090Y-15277859D01*
X11765836Y-15281700D01*
X11755511Y-15284177D01*
X11743846Y-15285398D01*
X11742000Y-15285478D01*
X11736712Y-15285570D01*
X11731514Y-15285487D01*
X11727106Y-15285249D01*
X11724814Y-15284992D01*
X11712883Y-15282420D01*
X11702433Y-15278693D01*
X11693246Y-15273714D01*
X11685106Y-15267385D01*
X11684833Y-15267134D01*
X11677621Y-15259132D01*
X11671938Y-15249985D01*
X11667822Y-15239885D01*
X11665311Y-15229021D01*
X11664444Y-15217583D01*
X11665259Y-15205762D01*
X11667796Y-15193748D01*
X11669092Y-15189551D01*
X11674107Y-15177384D01*
X11680504Y-15166644D01*
X11688217Y-15157377D01*
X11697180Y-15149629D01*
X11707328Y-15143447D01*
X11718595Y-15138875D01*
X11730914Y-15135962D01*
X11744222Y-15134753D01*
X11747000Y-15134719D01*
X11758136Y-15135238D01*
X11758136Y-15135238D01*
G37*
X11758136Y-15135238D02*
X11767937Y-15136862D01*
X11776808Y-15139715D01*
X11785156Y-15143920D01*
X11791690Y-15148309D01*
X11794852Y-15150919D01*
X11798271Y-15154159D01*
X11801647Y-15157691D01*
X11804678Y-15161172D01*
X11807064Y-15164260D01*
X11808505Y-15166615D01*
X11808779Y-15167728D01*
X11807901Y-15168685D01*
X11805639Y-15170555D01*
X11802264Y-15173130D01*
X11798048Y-15176200D01*
X11794000Y-15179050D01*
X11779500Y-15189105D01*
X11778000Y-15186802D01*
X11773800Y-15181516D01*
X11768664Y-15176815D01*
X11763317Y-15173358D01*
X11763141Y-15173270D01*
X11760343Y-15171994D01*
X11757834Y-15171180D01*
X11755019Y-15170728D01*
X11751304Y-15170536D01*
X11747000Y-15170500D01*
X11742010Y-15170556D01*
X11738411Y-15170794D01*
X11735593Y-15171314D01*
X11732948Y-15172219D01*
X11730664Y-15173234D01*
X11722924Y-15177734D01*
X11716691Y-15183360D01*
X11711779Y-15190321D01*
X11708004Y-15198829D01*
X11707925Y-15199054D01*
X11706312Y-15205640D01*
X11705581Y-15213037D01*
X11705730Y-15220539D01*
X11706759Y-15227435D01*
X11707961Y-15231419D01*
X11711726Y-15238523D01*
X11716829Y-15244291D01*
X11723045Y-15248633D01*
X11730145Y-15251458D01*
X11737904Y-15252675D01*
X11746094Y-15252192D01*
X11754270Y-15250000D01*
X11759719Y-15247033D01*
X11764842Y-15242485D01*
X11768351Y-15238027D01*
X11769472Y-15236232D01*
X11769937Y-15234925D01*
X11769524Y-15234028D01*
X11768013Y-15233464D01*
X11765184Y-15233156D01*
X11760817Y-15233027D01*
X11754691Y-15233000D01*
X11754000Y-15233000D01*
X11748598Y-15232949D01*
X11743975Y-15232809D01*
X11740465Y-15232597D01*
X11738404Y-15232331D01*
X11738000Y-15232139D01*
X11738145Y-15230877D01*
X11738542Y-15228038D01*
X11739133Y-15224022D01*
X11739860Y-15219229D01*
X11739989Y-15218389D01*
X11740733Y-15213518D01*
X11741353Y-15209371D01*
X11741789Y-15206343D01*
X11741984Y-15204828D01*
X11741989Y-15204750D01*
X11742955Y-15204579D01*
X11745699Y-15204422D01*
X11749999Y-15204283D01*
X11755634Y-15204166D01*
X11762383Y-15204077D01*
X11770023Y-15204020D01*
X11778333Y-15204000D01*
X11778500Y-15204000D01*
X11786820Y-15204014D01*
X11794475Y-15204055D01*
X11801241Y-15204118D01*
X11806899Y-15204201D01*
X11811225Y-15204301D01*
X11813999Y-15204414D01*
X11815000Y-15204537D01*
X11815000Y-15204539D01*
X11814788Y-15207958D01*
X11814218Y-15212713D01*
X11813390Y-15218196D01*
X11812403Y-15223796D01*
X11811358Y-15228903D01*
X11810377Y-15232827D01*
X11806776Y-15243150D01*
X11802269Y-15252066D01*
X11796572Y-15260065D01*
X11791456Y-15265653D01*
X11783540Y-15272546D01*
X11775090Y-15277859D01*
X11765836Y-15281700D01*
X11755511Y-15284177D01*
X11743846Y-15285398D01*
X11742000Y-15285478D01*
X11736712Y-15285570D01*
X11731514Y-15285487D01*
X11727106Y-15285249D01*
X11724814Y-15284992D01*
X11712883Y-15282420D01*
X11702433Y-15278693D01*
X11693246Y-15273714D01*
X11685106Y-15267385D01*
X11684833Y-15267134D01*
X11677621Y-15259132D01*
X11671938Y-15249985D01*
X11667822Y-15239885D01*
X11665311Y-15229021D01*
X11664444Y-15217583D01*
X11665259Y-15205762D01*
X11667796Y-15193748D01*
X11669092Y-15189551D01*
X11674107Y-15177384D01*
X11680504Y-15166644D01*
X11688217Y-15157377D01*
X11697180Y-15149629D01*
X11707328Y-15143447D01*
X11718595Y-15138875D01*
X11730914Y-15135962D01*
X11744222Y-15134753D01*
X11747000Y-15134719D01*
X11758136Y-15135238D01*
G36*
X11645367Y-15138010D02*
X11650292Y-15138057D01*
X11653740Y-15138167D01*
X11655973Y-15138366D01*
X11657252Y-15138679D01*
X11657840Y-15139133D01*
X11657997Y-15139752D01*
X11658000Y-15139903D01*
X11657847Y-15141186D01*
X11657406Y-15144281D01*
X11656702Y-15149026D01*
X11655759Y-15155256D01*
X11654603Y-15162809D01*
X11653259Y-15171521D01*
X11651752Y-15181230D01*
X11650106Y-15191772D01*
X11648348Y-15202985D01*
X11647000Y-15211545D01*
X11645177Y-15223113D01*
X11643449Y-15234105D01*
X11641840Y-15244361D01*
X11640375Y-15253722D01*
X11639079Y-15262026D01*
X11637977Y-15269115D01*
X11637095Y-15274829D01*
X11636456Y-15279007D01*
X11636086Y-15281489D01*
X11636000Y-15282142D01*
X11635050Y-15282406D01*
X11632404Y-15282637D01*
X11628365Y-15282822D01*
X11623234Y-15282947D01*
X11617317Y-15282999D01*
X11616500Y-15283000D01*
X11609432Y-15282969D01*
X11604164Y-15282870D01*
X11600493Y-15282688D01*
X11598220Y-15282410D01*
X11597145Y-15282025D01*
X11596991Y-15281750D01*
X11597142Y-15280579D01*
X11597580Y-15277593D01*
X11598280Y-15272949D01*
X11599220Y-15266808D01*
X11600372Y-15259329D01*
X11601714Y-15250672D01*
X11603221Y-15240995D01*
X11604867Y-15230458D01*
X11606628Y-15219221D01*
X11608195Y-15209250D01*
X11619407Y-15138000D01*
X11638704Y-15138000D01*
X11645367Y-15138010D01*
X11645367Y-15138010D01*
G37*
X11645367Y-15138010D02*
X11650292Y-15138057D01*
X11653740Y-15138167D01*
X11655973Y-15138366D01*
X11657252Y-15138679D01*
X11657840Y-15139133D01*
X11657997Y-15139752D01*
X11658000Y-15139903D01*
X11657847Y-15141186D01*
X11657406Y-15144281D01*
X11656702Y-15149026D01*
X11655759Y-15155256D01*
X11654603Y-15162809D01*
X11653259Y-15171521D01*
X11651752Y-15181230D01*
X11650106Y-15191772D01*
X11648348Y-15202985D01*
X11647000Y-15211545D01*
X11645177Y-15223113D01*
X11643449Y-15234105D01*
X11641840Y-15244361D01*
X11640375Y-15253722D01*
X11639079Y-15262026D01*
X11637977Y-15269115D01*
X11637095Y-15274829D01*
X11636456Y-15279007D01*
X11636086Y-15281489D01*
X11636000Y-15282142D01*
X11635050Y-15282406D01*
X11632404Y-15282637D01*
X11628365Y-15282822D01*
X11623234Y-15282947D01*
X11617317Y-15282999D01*
X11616500Y-15283000D01*
X11609432Y-15282969D01*
X11604164Y-15282870D01*
X11600493Y-15282688D01*
X11598220Y-15282410D01*
X11597145Y-15282025D01*
X11596991Y-15281750D01*
X11597142Y-15280579D01*
X11597580Y-15277593D01*
X11598280Y-15272949D01*
X11599220Y-15266808D01*
X11600372Y-15259329D01*
X11601714Y-15250672D01*
X11603221Y-15240995D01*
X11604867Y-15230458D01*
X11606628Y-15219221D01*
X11608195Y-15209250D01*
X11619407Y-15138000D01*
X11638704Y-15138000D01*
X11645367Y-15138010D01*
G36*
X11865387Y-15138007D02*
X11870297Y-15138047D01*
X11873732Y-15138149D01*
X11875957Y-15138342D01*
X11877233Y-15138652D01*
X11877824Y-15139110D01*
X11877992Y-15139743D01*
X11878000Y-15140085D01*
X11877848Y-15141398D01*
X11877407Y-15144524D01*
X11876704Y-15149297D01*
X11875762Y-15155556D01*
X11874608Y-15163136D01*
X11873265Y-15171873D01*
X11871759Y-15181605D01*
X11870116Y-15192167D01*
X11868359Y-15203397D01*
X11867000Y-15212045D01*
X11865180Y-15223615D01*
X11863454Y-15234601D01*
X11861846Y-15244845D01*
X11860383Y-15254188D01*
X11859088Y-15262471D01*
X11857986Y-15269535D01*
X11857103Y-15275221D01*
X11856462Y-15279371D01*
X11856089Y-15281826D01*
X11856000Y-15282460D01*
X11855062Y-15282667D01*
X11852494Y-15282822D01*
X11848666Y-15282928D01*
X11843946Y-15282985D01*
X11838705Y-15282996D01*
X11833312Y-15282963D01*
X11828136Y-15282888D01*
X11823547Y-15282773D01*
X11819914Y-15282619D01*
X11817606Y-15282430D01*
X11816962Y-15282250D01*
X11817108Y-15281163D01*
X11817540Y-15278258D01*
X11818236Y-15273692D01*
X11819169Y-15267623D01*
X11820316Y-15260207D01*
X11821653Y-15251603D01*
X11823155Y-15241967D01*
X11824798Y-15231456D01*
X11826557Y-15220229D01*
X11828203Y-15209750D01*
X11839480Y-15138000D01*
X11858740Y-15138000D01*
X11865387Y-15138007D01*
X11865387Y-15138007D01*
G37*
X11865387Y-15138007D02*
X11870297Y-15138047D01*
X11873732Y-15138149D01*
X11875957Y-15138342D01*
X11877233Y-15138652D01*
X11877824Y-15139110D01*
X11877992Y-15139743D01*
X11878000Y-15140085D01*
X11877848Y-15141398D01*
X11877407Y-15144524D01*
X11876704Y-15149297D01*
X11875762Y-15155556D01*
X11874608Y-15163136D01*
X11873265Y-15171873D01*
X11871759Y-15181605D01*
X11870116Y-15192167D01*
X11868359Y-15203397D01*
X11867000Y-15212045D01*
X11865180Y-15223615D01*
X11863454Y-15234601D01*
X11861846Y-15244845D01*
X11860383Y-15254188D01*
X11859088Y-15262471D01*
X11857986Y-15269535D01*
X11857103Y-15275221D01*
X11856462Y-15279371D01*
X11856089Y-15281826D01*
X11856000Y-15282460D01*
X11855062Y-15282667D01*
X11852494Y-15282822D01*
X11848666Y-15282928D01*
X11843946Y-15282985D01*
X11838705Y-15282996D01*
X11833312Y-15282963D01*
X11828136Y-15282888D01*
X11823547Y-15282773D01*
X11819914Y-15282619D01*
X11817606Y-15282430D01*
X11816962Y-15282250D01*
X11817108Y-15281163D01*
X11817540Y-15278258D01*
X11818236Y-15273692D01*
X11819169Y-15267623D01*
X11820316Y-15260207D01*
X11821653Y-15251603D01*
X11823155Y-15241967D01*
X11824798Y-15231456D01*
X11826557Y-15220229D01*
X11828203Y-15209750D01*
X11839480Y-15138000D01*
X11858740Y-15138000D01*
X11865387Y-15138007D01*
G36*
X11992000Y-15140130D02*
X11991840Y-15141824D01*
X11991412Y-15145016D01*
X11990788Y-15149233D01*
X11990046Y-15154003D01*
X11989258Y-15158852D01*
X11988501Y-15163307D01*
X11987848Y-15166897D01*
X11987470Y-15168750D01*
X11987211Y-15169604D01*
X11986682Y-15170209D01*
X11985577Y-15170608D01*
X11983592Y-15170844D01*
X11980425Y-15170959D01*
X11975770Y-15170996D01*
X11971560Y-15171000D01*
X11956159Y-15171000D01*
X11955585Y-15173750D01*
X11955320Y-15175254D01*
X11954775Y-15178535D01*
X11953981Y-15183394D01*
X11952972Y-15189634D01*
X11951779Y-15197054D01*
X11950434Y-15205456D01*
X11948968Y-15214642D01*
X11947415Y-15224414D01*
X11947005Y-15227000D01*
X11945434Y-15236890D01*
X11943943Y-15246246D01*
X11942563Y-15254869D01*
X11941327Y-15262561D01*
X11940267Y-15269123D01*
X11939414Y-15274357D01*
X11938801Y-15278063D01*
X11938460Y-15280044D01*
X11938420Y-15280250D01*
X11937841Y-15283000D01*
X11918920Y-15283000D01*
X11912316Y-15282987D01*
X11907450Y-15282933D01*
X11904059Y-15282812D01*
X11901881Y-15282600D01*
X11900653Y-15282273D01*
X11900114Y-15281805D01*
X11900000Y-15281223D01*
X11900154Y-15279922D01*
X11900597Y-15276834D01*
X11901300Y-15272149D01*
X11902234Y-15266054D01*
X11903370Y-15258737D01*
X11904677Y-15250387D01*
X11906129Y-15241192D01*
X11907694Y-15231340D01*
X11908500Y-15226292D01*
X11910109Y-15216213D01*
X11911618Y-15206719D01*
X11912999Y-15197997D01*
X11914222Y-15190230D01*
X11915259Y-15183604D01*
X11916080Y-15178305D01*
X11916657Y-15174516D01*
X11916960Y-15172423D01*
X11917000Y-15172069D01*
X11916015Y-15171603D01*
X11913057Y-15171269D01*
X11908118Y-15171069D01*
X11901190Y-15171000D01*
X11885050Y-15171000D01*
X11885579Y-15168250D01*
X11885935Y-15166259D01*
X11886537Y-15162756D01*
X11887306Y-15158201D01*
X11888164Y-15153055D01*
X11888338Y-15152000D01*
X11890569Y-15138500D01*
X11992000Y-15137982D01*
X11992000Y-15140130D01*
X11992000Y-15140130D01*
G37*
X11992000Y-15140130D02*
X11991840Y-15141824D01*
X11991412Y-15145016D01*
X11990788Y-15149233D01*
X11990046Y-15154003D01*
X11989258Y-15158852D01*
X11988501Y-15163307D01*
X11987848Y-15166897D01*
X11987470Y-15168750D01*
X11987211Y-15169604D01*
X11986682Y-15170209D01*
X11985577Y-15170608D01*
X11983592Y-15170844D01*
X11980425Y-15170959D01*
X11975770Y-15170996D01*
X11971560Y-15171000D01*
X11956159Y-15171000D01*
X11955585Y-15173750D01*
X11955320Y-15175254D01*
X11954775Y-15178535D01*
X11953981Y-15183394D01*
X11952972Y-15189634D01*
X11951779Y-15197054D01*
X11950434Y-15205456D01*
X11948968Y-15214642D01*
X11947415Y-15224414D01*
X11947005Y-15227000D01*
X11945434Y-15236890D01*
X11943943Y-15246246D01*
X11942563Y-15254869D01*
X11941327Y-15262561D01*
X11940267Y-15269123D01*
X11939414Y-15274357D01*
X11938801Y-15278063D01*
X11938460Y-15280044D01*
X11938420Y-15280250D01*
X11937841Y-15283000D01*
X11918920Y-15283000D01*
X11912316Y-15282987D01*
X11907450Y-15282933D01*
X11904059Y-15282812D01*
X11901881Y-15282600D01*
X11900653Y-15282273D01*
X11900114Y-15281805D01*
X11900000Y-15281223D01*
X11900154Y-15279922D01*
X11900597Y-15276834D01*
X11901300Y-15272149D01*
X11902234Y-15266054D01*
X11903370Y-15258737D01*
X11904677Y-15250387D01*
X11906129Y-15241192D01*
X11907694Y-15231340D01*
X11908500Y-15226292D01*
X11910109Y-15216213D01*
X11911618Y-15206719D01*
X11912999Y-15197997D01*
X11914222Y-15190230D01*
X11915259Y-15183604D01*
X11916080Y-15178305D01*
X11916657Y-15174516D01*
X11916960Y-15172423D01*
X11917000Y-15172069D01*
X11916015Y-15171603D01*
X11913057Y-15171269D01*
X11908118Y-15171069D01*
X11901190Y-15171000D01*
X11885050Y-15171000D01*
X11885579Y-15168250D01*
X11885935Y-15166259D01*
X11886537Y-15162756D01*
X11887306Y-15158201D01*
X11888164Y-15153055D01*
X11888338Y-15152000D01*
X11890569Y-15138500D01*
X11992000Y-15137982D01*
X11992000Y-15140130D01*
G36*
X12087494Y-15140250D02*
X12088036Y-15142652D01*
X12088916Y-15146687D01*
X12090093Y-15152164D01*
X12091528Y-15158894D01*
X12093181Y-15166685D01*
X12095011Y-15175347D01*
X12096980Y-15184689D01*
X12099047Y-15194520D01*
X12101172Y-15204649D01*
X12103315Y-15214887D01*
X12105437Y-15225042D01*
X12107498Y-15234923D01*
X12109457Y-15244341D01*
X12111275Y-15253104D01*
X12112912Y-15261022D01*
X12114328Y-15267903D01*
X12115483Y-15273558D01*
X12116338Y-15277796D01*
X12116852Y-15280425D01*
X12116991Y-15281250D01*
X12116852Y-15281860D01*
X12116252Y-15282310D01*
X12114932Y-15282624D01*
X12112629Y-15282826D01*
X12109083Y-15282940D01*
X12104032Y-15282990D01*
X12098019Y-15283000D01*
X12091427Y-15282994D01*
X12086562Y-15282955D01*
X12083152Y-15282852D01*
X12080925Y-15282653D01*
X12079608Y-15282326D01*
X12078929Y-15281841D01*
X12078614Y-15281166D01*
X12078509Y-15280750D01*
X12077769Y-15277534D01*
X12076854Y-15273468D01*
X12075862Y-15268993D01*
X12074887Y-15264547D01*
X12074026Y-15260569D01*
X12073376Y-15257497D01*
X12073031Y-15255771D01*
X12073000Y-15255559D01*
X12072044Y-15255408D01*
X12069353Y-15255272D01*
X12065193Y-15255157D01*
X12059828Y-15255070D01*
X12053524Y-15255016D01*
X12047507Y-15255000D01*
X12022013Y-15255000D01*
X12015000Y-15269000D01*
X12007987Y-15283000D01*
X11987493Y-15283000D01*
X11979762Y-15282957D01*
X11973938Y-15282826D01*
X11969932Y-15282602D01*
X11967651Y-15282280D01*
X11967000Y-15281898D01*
X11967441Y-15280854D01*
X11968718Y-15278162D01*
X11970764Y-15273958D01*
X11973512Y-15268380D01*
X11976892Y-15261562D01*
X11980838Y-15253642D01*
X11985282Y-15244755D01*
X11990155Y-15235038D01*
X11995391Y-15224627D01*
X11996048Y-15223323D01*
X12037000Y-15223323D01*
X12037943Y-15223554D01*
X12040548Y-15223751D01*
X12044475Y-15223900D01*
X12049385Y-15223985D01*
X12052608Y-15224000D01*
X12068217Y-15224000D01*
X12067671Y-15221750D01*
X12067347Y-15220201D01*
X12066719Y-15217031D01*
X12065854Y-15212585D01*
X12064817Y-15207207D01*
X12063675Y-15201241D01*
X12062493Y-15195033D01*
X12061338Y-15188925D01*
X12060275Y-15183265D01*
X12059370Y-15178395D01*
X12059206Y-15177500D01*
X12058471Y-15173500D01*
X12056125Y-15180000D01*
X12054951Y-15182986D01*
X12053103Y-15187364D01*
X12050765Y-15192715D01*
X12048117Y-15198624D01*
X12045389Y-15204573D01*
X12042827Y-15210126D01*
X12040580Y-15215057D01*
X12038777Y-15219080D01*
X12037545Y-15221909D01*
X12037012Y-15223261D01*
X12037000Y-15223323D01*
X11996048Y-15223323D01*
X12000921Y-15213658D01*
X12003072Y-15209398D01*
X12039145Y-15138000D01*
X12086962Y-15138000D01*
X12087494Y-15140250D01*
X12087494Y-15140250D01*
G37*
X12087494Y-15140250D02*
X12088036Y-15142652D01*
X12088916Y-15146687D01*
X12090093Y-15152164D01*
X12091528Y-15158894D01*
X12093181Y-15166685D01*
X12095011Y-15175347D01*
X12096980Y-15184689D01*
X12099047Y-15194520D01*
X12101172Y-15204649D01*
X12103315Y-15214887D01*
X12105437Y-15225042D01*
X12107498Y-15234923D01*
X12109457Y-15244341D01*
X12111275Y-15253104D01*
X12112912Y-15261022D01*
X12114328Y-15267903D01*
X12115483Y-15273558D01*
X12116338Y-15277796D01*
X12116852Y-15280425D01*
X12116991Y-15281250D01*
X12116852Y-15281860D01*
X12116252Y-15282310D01*
X12114932Y-15282624D01*
X12112629Y-15282826D01*
X12109083Y-15282940D01*
X12104032Y-15282990D01*
X12098019Y-15283000D01*
X12091427Y-15282994D01*
X12086562Y-15282955D01*
X12083152Y-15282852D01*
X12080925Y-15282653D01*
X12079608Y-15282326D01*
X12078929Y-15281841D01*
X12078614Y-15281166D01*
X12078509Y-15280750D01*
X12077769Y-15277534D01*
X12076854Y-15273468D01*
X12075862Y-15268993D01*
X12074887Y-15264547D01*
X12074026Y-15260569D01*
X12073376Y-15257497D01*
X12073031Y-15255771D01*
X12073000Y-15255559D01*
X12072044Y-15255408D01*
X12069353Y-15255272D01*
X12065193Y-15255157D01*
X12059828Y-15255070D01*
X12053524Y-15255016D01*
X12047507Y-15255000D01*
X12022013Y-15255000D01*
X12015000Y-15269000D01*
X12007987Y-15283000D01*
X11987493Y-15283000D01*
X11979762Y-15282957D01*
X11973938Y-15282826D01*
X11969932Y-15282602D01*
X11967651Y-15282280D01*
X11967000Y-15281898D01*
X11967441Y-15280854D01*
X11968718Y-15278162D01*
X11970764Y-15273958D01*
X11973512Y-15268380D01*
X11976892Y-15261562D01*
X11980838Y-15253642D01*
X11985282Y-15244755D01*
X11990155Y-15235038D01*
X11995391Y-15224627D01*
X11996048Y-15223323D01*
X12037000Y-15223323D01*
X12037943Y-15223554D01*
X12040548Y-15223751D01*
X12044475Y-15223900D01*
X12049385Y-15223985D01*
X12052608Y-15224000D01*
X12068217Y-15224000D01*
X12067671Y-15221750D01*
X12067347Y-15220201D01*
X12066719Y-15217031D01*
X12065854Y-15212585D01*
X12064817Y-15207207D01*
X12063675Y-15201241D01*
X12062493Y-15195033D01*
X12061338Y-15188925D01*
X12060275Y-15183265D01*
X12059370Y-15178395D01*
X12059206Y-15177500D01*
X12058471Y-15173500D01*
X12056125Y-15180000D01*
X12054951Y-15182986D01*
X12053103Y-15187364D01*
X12050765Y-15192715D01*
X12048117Y-15198624D01*
X12045389Y-15204573D01*
X12042827Y-15210126D01*
X12040580Y-15215057D01*
X12038777Y-15219080D01*
X12037545Y-15221909D01*
X12037012Y-15223261D01*
X12037000Y-15223323D01*
X11996048Y-15223323D01*
X12000921Y-15213658D01*
X12003072Y-15209398D01*
X12039145Y-15138000D01*
X12086962Y-15138000D01*
X12087494Y-15140250D01*
G36*
X12182953Y-15138235D02*
X12186699Y-15138429D01*
X12188656Y-15138754D01*
X12189000Y-15139030D01*
X12188850Y-15140212D01*
X12188422Y-15143145D01*
X12187751Y-15147605D01*
X12186874Y-15153368D01*
X12185823Y-15160209D01*
X12184636Y-15167905D01*
X12183345Y-15176231D01*
X12181988Y-15184963D01*
X12180598Y-15193877D01*
X12179210Y-15202748D01*
X12177859Y-15211353D01*
X12176582Y-15219467D01*
X12175411Y-15226866D01*
X12174383Y-15233326D01*
X12173533Y-15238622D01*
X12172894Y-15242531D01*
X12172504Y-15244827D01*
X12172423Y-15245250D01*
X12171841Y-15248000D01*
X12219950Y-15248000D01*
X12219471Y-15250750D01*
X12219130Y-15252781D01*
X12218554Y-15256299D01*
X12217821Y-15260814D01*
X12217011Y-15265838D01*
X12216985Y-15266000D01*
X12216175Y-15270972D01*
X12215435Y-15275390D01*
X12214843Y-15278789D01*
X12214480Y-15280702D01*
X12214470Y-15280750D01*
X12213962Y-15283000D01*
X12127877Y-15283000D01*
X12128533Y-15278631D01*
X12128797Y-15276918D01*
X12129347Y-15273404D01*
X12130154Y-15268261D01*
X12131191Y-15261662D01*
X12132431Y-15253783D01*
X12133847Y-15244795D01*
X12135411Y-15234873D01*
X12137097Y-15224190D01*
X12138876Y-15212919D01*
X12139908Y-15206381D01*
X12150628Y-15138500D01*
X12169814Y-15138228D01*
X12177347Y-15138169D01*
X12182953Y-15138235D01*
X12182953Y-15138235D01*
G37*
X12182953Y-15138235D02*
X12186699Y-15138429D01*
X12188656Y-15138754D01*
X12189000Y-15139030D01*
X12188850Y-15140212D01*
X12188422Y-15143145D01*
X12187751Y-15147605D01*
X12186874Y-15153368D01*
X12185823Y-15160209D01*
X12184636Y-15167905D01*
X12183345Y-15176231D01*
X12181988Y-15184963D01*
X12180598Y-15193877D01*
X12179210Y-15202748D01*
X12177859Y-15211353D01*
X12176582Y-15219467D01*
X12175411Y-15226866D01*
X12174383Y-15233326D01*
X12173533Y-15238622D01*
X12172894Y-15242531D01*
X12172504Y-15244827D01*
X12172423Y-15245250D01*
X12171841Y-15248000D01*
X12219950Y-15248000D01*
X12219471Y-15250750D01*
X12219130Y-15252781D01*
X12218554Y-15256299D01*
X12217821Y-15260814D01*
X12217011Y-15265838D01*
X12216985Y-15266000D01*
X12216175Y-15270972D01*
X12215435Y-15275390D01*
X12214843Y-15278789D01*
X12214480Y-15280702D01*
X12214470Y-15280750D01*
X12213962Y-15283000D01*
X12127877Y-15283000D01*
X12128533Y-15278631D01*
X12128797Y-15276918D01*
X12129347Y-15273404D01*
X12130154Y-15268261D01*
X12131191Y-15261662D01*
X12132431Y-15253783D01*
X12133847Y-15244795D01*
X12135411Y-15234873D01*
X12137097Y-15224190D01*
X12138876Y-15212919D01*
X12139908Y-15206381D01*
X12150628Y-15138500D01*
X12169814Y-15138228D01*
X12177347Y-15138169D01*
X12182953Y-15138235D01*
G36*
X11165227Y-15222001D02*
X11192905Y-15222006D01*
X11218698Y-15222014D01*
X11242665Y-15222026D01*
X11264862Y-15222041D01*
X11285349Y-15222061D01*
X11304181Y-15222085D01*
X11321418Y-15222113D01*
X11337117Y-15222147D01*
X11351336Y-15222185D01*
X11364133Y-15222229D01*
X11375564Y-15222279D01*
X11385689Y-15222334D01*
X11394564Y-15222395D01*
X11402248Y-15222463D01*
X11408798Y-15222537D01*
X11414272Y-15222619D01*
X11418728Y-15222707D01*
X11422223Y-15222802D01*
X11424816Y-15222906D01*
X11426563Y-15223017D01*
X11427524Y-15223136D01*
X11427763Y-15223250D01*
X11427501Y-15224526D01*
X11426984Y-15227520D01*
X11426253Y-15231972D01*
X11425351Y-15237622D01*
X11424318Y-15244210D01*
X11423197Y-15251475D01*
X11422925Y-15253250D01*
X11418539Y-15282000D01*
X10843000Y-15282000D01*
X10843000Y-15222000D01*
X11135607Y-15222000D01*
X11165227Y-15222001D01*
X11165227Y-15222001D01*
G37*
X11165227Y-15222001D02*
X11192905Y-15222006D01*
X11218698Y-15222014D01*
X11242665Y-15222026D01*
X11264862Y-15222041D01*
X11285349Y-15222061D01*
X11304181Y-15222085D01*
X11321418Y-15222113D01*
X11337117Y-15222147D01*
X11351336Y-15222185D01*
X11364133Y-15222229D01*
X11375564Y-15222279D01*
X11385689Y-15222334D01*
X11394564Y-15222395D01*
X11402248Y-15222463D01*
X11408798Y-15222537D01*
X11414272Y-15222619D01*
X11418728Y-15222707D01*
X11422223Y-15222802D01*
X11424816Y-15222906D01*
X11426563Y-15223017D01*
X11427524Y-15223136D01*
X11427763Y-15223250D01*
X11427501Y-15224526D01*
X11426984Y-15227520D01*
X11426253Y-15231972D01*
X11425351Y-15237622D01*
X11424318Y-15244210D01*
X11423197Y-15251475D01*
X11422925Y-15253250D01*
X11418539Y-15282000D01*
X10843000Y-15282000D01*
X10843000Y-15222000D01*
X11135607Y-15222000D01*
X11165227Y-15222001D01*
G36*
X11498389Y-15138075D02*
X11505155Y-15138180D01*
X11511861Y-15138346D01*
X11518212Y-15138573D01*
X11523915Y-15138857D01*
X11526500Y-15139026D01*
X11532274Y-15139526D01*
X11537971Y-15140166D01*
X11542976Y-15140868D01*
X11546674Y-15141553D01*
X11547000Y-15141631D01*
X11556422Y-15144945D01*
X11564936Y-15149965D01*
X11572413Y-15156555D01*
X11578721Y-15164578D01*
X11583731Y-15173898D01*
X11587136Y-15183699D01*
X11588428Y-15190440D01*
X11589163Y-15198429D01*
X11589342Y-15206994D01*
X11588964Y-15215463D01*
X11588030Y-15223163D01*
X11587109Y-15227500D01*
X11584342Y-15236356D01*
X11580930Y-15243869D01*
X11576506Y-15250672D01*
X11570705Y-15257398D01*
X11568608Y-15259529D01*
X11563565Y-15264212D01*
X11558465Y-15268225D01*
X11553115Y-15271613D01*
X11547322Y-15274426D01*
X11540894Y-15276710D01*
X11533638Y-15278514D01*
X11525361Y-15279884D01*
X11515870Y-15280870D01*
X11504972Y-15281518D01*
X11492475Y-15281875D01*
X11478185Y-15281991D01*
X11477750Y-15281991D01*
X11469693Y-15281984D01*
X11463418Y-15281946D01*
X11458708Y-15281866D01*
X11455344Y-15281730D01*
X11453109Y-15281525D01*
X11451785Y-15281239D01*
X11451155Y-15280857D01*
X11451000Y-15280388D01*
X11451153Y-15279155D01*
X11451594Y-15276108D01*
X11452299Y-15271411D01*
X11453243Y-15265226D01*
X11454400Y-15257715D01*
X11455670Y-15249527D01*
X11495000Y-15249527D01*
X11495387Y-15250271D01*
X11496778Y-15250724D01*
X11499515Y-15250947D01*
X11503363Y-15251000D01*
X11508037Y-15250882D01*
X11512646Y-15250572D01*
X11516284Y-15250132D01*
X11516647Y-15250067D01*
X11525964Y-15247478D01*
X11533841Y-15243509D01*
X11540304Y-15238138D01*
X11545378Y-15231347D01*
X11548278Y-15225334D01*
X11550132Y-15218881D01*
X11551147Y-15211489D01*
X11551333Y-15203738D01*
X11550700Y-15196208D01*
X11549259Y-15189478D01*
X11547561Y-15185121D01*
X11544288Y-15180015D01*
X11540133Y-15176106D01*
X11534863Y-15173278D01*
X11528244Y-15171413D01*
X11520042Y-15170396D01*
X11517801Y-15170264D01*
X11513075Y-15170050D01*
X11509976Y-15169997D01*
X11508135Y-15170166D01*
X11507182Y-15170618D01*
X11506746Y-15171414D01*
X11506570Y-15172124D01*
X11506276Y-15173758D01*
X11505741Y-15177053D01*
X11505005Y-15181742D01*
X11504108Y-15187558D01*
X11503090Y-15194233D01*
X11501991Y-15201501D01*
X11500850Y-15209094D01*
X11499707Y-15216746D01*
X11498603Y-15224190D01*
X11497578Y-15231157D01*
X11496670Y-15237383D01*
X11495921Y-15242599D01*
X11495370Y-15246538D01*
X11495057Y-15248933D01*
X11495000Y-15249527D01*
X11455670Y-15249527D01*
X11455745Y-15249041D01*
X11457254Y-15239367D01*
X11458901Y-15228854D01*
X11460661Y-15217665D01*
X11462000Y-15209183D01*
X11463824Y-15197630D01*
X11465554Y-15186654D01*
X11467164Y-15176416D01*
X11468630Y-15167075D01*
X11469926Y-15158791D01*
X11471028Y-15151724D01*
X11471910Y-15146034D01*
X11472548Y-15141881D01*
X11472916Y-15139426D01*
X11473000Y-15138795D01*
X11473950Y-15138507D01*
X11476605Y-15138289D01*
X11480671Y-15138137D01*
X11485853Y-15138052D01*
X11491857Y-15138032D01*
X11498389Y-15138075D01*
X11498389Y-15138075D01*
G37*
X11498389Y-15138075D02*
X11505155Y-15138180D01*
X11511861Y-15138346D01*
X11518212Y-15138573D01*
X11523915Y-15138857D01*
X11526500Y-15139026D01*
X11532274Y-15139526D01*
X11537971Y-15140166D01*
X11542976Y-15140868D01*
X11546674Y-15141553D01*
X11547000Y-15141631D01*
X11556422Y-15144945D01*
X11564936Y-15149965D01*
X11572413Y-15156555D01*
X11578721Y-15164578D01*
X11583731Y-15173898D01*
X11587136Y-15183699D01*
X11588428Y-15190440D01*
X11589163Y-15198429D01*
X11589342Y-15206994D01*
X11588964Y-15215463D01*
X11588030Y-15223163D01*
X11587109Y-15227500D01*
X11584342Y-15236356D01*
X11580930Y-15243869D01*
X11576506Y-15250672D01*
X11570705Y-15257398D01*
X11568608Y-15259529D01*
X11563565Y-15264212D01*
X11558465Y-15268225D01*
X11553115Y-15271613D01*
X11547322Y-15274426D01*
X11540894Y-15276710D01*
X11533638Y-15278514D01*
X11525361Y-15279884D01*
X11515870Y-15280870D01*
X11504972Y-15281518D01*
X11492475Y-15281875D01*
X11478185Y-15281991D01*
X11477750Y-15281991D01*
X11469693Y-15281984D01*
X11463418Y-15281946D01*
X11458708Y-15281866D01*
X11455344Y-15281730D01*
X11453109Y-15281525D01*
X11451785Y-15281239D01*
X11451155Y-15280857D01*
X11451000Y-15280388D01*
X11451153Y-15279155D01*
X11451594Y-15276108D01*
X11452299Y-15271411D01*
X11453243Y-15265226D01*
X11454400Y-15257715D01*
X11455670Y-15249527D01*
X11495000Y-15249527D01*
X11495387Y-15250271D01*
X11496778Y-15250724D01*
X11499515Y-15250947D01*
X11503363Y-15251000D01*
X11508037Y-15250882D01*
X11512646Y-15250572D01*
X11516284Y-15250132D01*
X11516647Y-15250067D01*
X11525964Y-15247478D01*
X11533841Y-15243509D01*
X11540304Y-15238138D01*
X11545378Y-15231347D01*
X11548278Y-15225334D01*
X11550132Y-15218881D01*
X11551147Y-15211489D01*
X11551333Y-15203738D01*
X11550700Y-15196208D01*
X11549259Y-15189478D01*
X11547561Y-15185121D01*
X11544288Y-15180015D01*
X11540133Y-15176106D01*
X11534863Y-15173278D01*
X11528244Y-15171413D01*
X11520042Y-15170396D01*
X11517801Y-15170264D01*
X11513075Y-15170050D01*
X11509976Y-15169997D01*
X11508135Y-15170166D01*
X11507182Y-15170618D01*
X11506746Y-15171414D01*
X11506570Y-15172124D01*
X11506276Y-15173758D01*
X11505741Y-15177053D01*
X11505005Y-15181742D01*
X11504108Y-15187558D01*
X11503090Y-15194233D01*
X11501991Y-15201501D01*
X11500850Y-15209094D01*
X11499707Y-15216746D01*
X11498603Y-15224190D01*
X11497578Y-15231157D01*
X11496670Y-15237383D01*
X11495921Y-15242599D01*
X11495370Y-15246538D01*
X11495057Y-15248933D01*
X11495000Y-15249527D01*
X11455670Y-15249527D01*
X11455745Y-15249041D01*
X11457254Y-15239367D01*
X11458901Y-15228854D01*
X11460661Y-15217665D01*
X11462000Y-15209183D01*
X11463824Y-15197630D01*
X11465554Y-15186654D01*
X11467164Y-15176416D01*
X11468630Y-15167075D01*
X11469926Y-15158791D01*
X11471028Y-15151724D01*
X11471910Y-15146034D01*
X11472548Y-15141881D01*
X11472916Y-15139426D01*
X11473000Y-15138795D01*
X11473950Y-15138507D01*
X11476605Y-15138289D01*
X11480671Y-15138137D01*
X11485853Y-15138052D01*
X11491857Y-15138032D01*
X11498389Y-15138075D01*
G36*
X11170902Y-15139000D02*
X11197964Y-15139002D01*
X11223159Y-15139005D01*
X11246553Y-15139009D01*
X11268213Y-15139016D01*
X11288205Y-15139025D01*
X11306595Y-15139038D01*
X11323450Y-15139054D01*
X11338837Y-15139073D01*
X11352821Y-15139097D01*
X11365469Y-15139125D01*
X11376847Y-15139158D01*
X11387023Y-15139197D01*
X11396061Y-15139241D01*
X11404030Y-15139291D01*
X11410994Y-15139348D01*
X11417021Y-15139411D01*
X11422177Y-15139482D01*
X11426528Y-15139561D01*
X11430141Y-15139647D01*
X11433082Y-15139742D01*
X11435417Y-15139846D01*
X11437214Y-15139959D01*
X11438538Y-15140081D01*
X11439455Y-15140214D01*
X11440033Y-15140357D01*
X11440337Y-15140511D01*
X11440434Y-15140676D01*
X11440429Y-15140750D01*
X11440179Y-15142175D01*
X11439670Y-15145299D01*
X11438946Y-15149843D01*
X11438051Y-15155528D01*
X11437030Y-15162075D01*
X11435959Y-15169000D01*
X11434852Y-15176119D01*
X11433822Y-15182647D01*
X11432912Y-15188303D01*
X11432170Y-15192811D01*
X11431639Y-15195890D01*
X11431368Y-15197250D01*
X11431252Y-15197421D01*
X11430959Y-15197581D01*
X11430423Y-15197729D01*
X11429576Y-15197867D01*
X11428352Y-15197995D01*
X11426682Y-15198112D01*
X11424501Y-15198220D01*
X11421740Y-15198319D01*
X11418334Y-15198410D01*
X11414213Y-15198492D01*
X11409312Y-15198566D01*
X11403563Y-15198632D01*
X11396899Y-15198692D01*
X11389253Y-15198744D01*
X11380557Y-15198791D01*
X11370745Y-15198831D01*
X11359749Y-15198866D01*
X11347502Y-15198896D01*
X11333937Y-15198921D01*
X11318987Y-15198942D01*
X11302585Y-15198958D01*
X11284663Y-15198972D01*
X11265154Y-15198982D01*
X11243991Y-15198989D01*
X11221108Y-15198994D01*
X11196436Y-15198998D01*
X11169909Y-15198999D01*
X11141459Y-15199000D01*
X11136933Y-15199000D01*
X10843000Y-15199000D01*
X10843000Y-15139000D01*
X11141906Y-15139000D01*
X11170902Y-15139000D01*
X11170902Y-15139000D01*
G37*
X11170902Y-15139000D02*
X11197964Y-15139002D01*
X11223159Y-15139005D01*
X11246553Y-15139009D01*
X11268213Y-15139016D01*
X11288205Y-15139025D01*
X11306595Y-15139038D01*
X11323450Y-15139054D01*
X11338837Y-15139073D01*
X11352821Y-15139097D01*
X11365469Y-15139125D01*
X11376847Y-15139158D01*
X11387023Y-15139197D01*
X11396061Y-15139241D01*
X11404030Y-15139291D01*
X11410994Y-15139348D01*
X11417021Y-15139411D01*
X11422177Y-15139482D01*
X11426528Y-15139561D01*
X11430141Y-15139647D01*
X11433082Y-15139742D01*
X11435417Y-15139846D01*
X11437214Y-15139959D01*
X11438538Y-15140081D01*
X11439455Y-15140214D01*
X11440033Y-15140357D01*
X11440337Y-15140511D01*
X11440434Y-15140676D01*
X11440429Y-15140750D01*
X11440179Y-15142175D01*
X11439670Y-15145299D01*
X11438946Y-15149843D01*
X11438051Y-15155528D01*
X11437030Y-15162075D01*
X11435959Y-15169000D01*
X11434852Y-15176119D01*
X11433822Y-15182647D01*
X11432912Y-15188303D01*
X11432170Y-15192811D01*
X11431639Y-15195890D01*
X11431368Y-15197250D01*
X11431252Y-15197421D01*
X11430959Y-15197581D01*
X11430423Y-15197729D01*
X11429576Y-15197867D01*
X11428352Y-15197995D01*
X11426682Y-15198112D01*
X11424501Y-15198220D01*
X11421740Y-15198319D01*
X11418334Y-15198410D01*
X11414213Y-15198492D01*
X11409312Y-15198566D01*
X11403563Y-15198632D01*
X11396899Y-15198692D01*
X11389253Y-15198744D01*
X11380557Y-15198791D01*
X11370745Y-15198831D01*
X11359749Y-15198866D01*
X11347502Y-15198896D01*
X11333937Y-15198921D01*
X11318987Y-15198942D01*
X11302585Y-15198958D01*
X11284663Y-15198972D01*
X11265154Y-15198982D01*
X11243991Y-15198989D01*
X11221108Y-15198994D01*
X11196436Y-15198998D01*
X11169909Y-15198999D01*
X11141459Y-15199000D01*
X11136933Y-15199000D01*
X10843000Y-15199000D01*
X10843000Y-15139000D01*
X11141906Y-15139000D01*
X11170902Y-15139000D01*
G36*
X10530046Y-14916628D02*
X10533645Y-14917994D01*
X10534132Y-14918216D01*
X10540408Y-14922062D01*
X10545353Y-14927104D01*
X10547704Y-14930892D01*
X10548087Y-14931774D01*
X10548412Y-14932863D01*
X10548684Y-14934320D01*
X10548906Y-14936309D01*
X10549084Y-14938992D01*
X10549223Y-14942530D01*
X10549328Y-14947086D01*
X10549402Y-14952823D01*
X10549452Y-14959902D01*
X10549482Y-14968486D01*
X10549496Y-14978737D01*
X10549500Y-14990817D01*
X10549500Y-14991500D01*
X10549499Y-15003606D01*
X10549492Y-15013885D01*
X10549472Y-15022510D01*
X10549433Y-15029654D01*
X10549369Y-15035491D01*
X10549273Y-15040193D01*
X10549140Y-15043933D01*
X10548963Y-15046885D01*
X10548735Y-15049222D01*
X10548451Y-15051116D01*
X10548104Y-15052741D01*
X10547687Y-15054271D01*
X10547195Y-15055877D01*
X10547157Y-15056000D01*
X10542378Y-15068092D01*
X10536008Y-15079122D01*
X10528204Y-15088969D01*
X10519122Y-15097512D01*
X10508919Y-15104628D01*
X10497752Y-15110198D01*
X10485778Y-15114098D01*
X10473154Y-15116209D01*
X10469000Y-15116487D01*
X10463959Y-15116568D01*
X10458853Y-15116429D01*
X10454568Y-15116101D01*
X10453500Y-15115959D01*
X10441109Y-15113086D01*
X10429343Y-15108501D01*
X10418401Y-15102359D01*
X10408484Y-15094814D01*
X10399792Y-15086022D01*
X10392526Y-15076136D01*
X10386885Y-15065312D01*
X10386408Y-15064158D01*
X10385160Y-15061054D01*
X10384102Y-15058289D01*
X10383217Y-15055672D01*
X10382491Y-15053012D01*
X10381907Y-15050120D01*
X10381450Y-15046805D01*
X10381105Y-15042877D01*
X10380855Y-15038147D01*
X10380686Y-15032423D01*
X10380581Y-15025517D01*
X10380526Y-15017237D01*
X10380504Y-15007394D01*
X10380500Y-14995797D01*
X10380500Y-14992000D01*
X10380501Y-14979665D01*
X10380518Y-14969160D01*
X10380568Y-14960314D01*
X10380671Y-14952958D01*
X10380844Y-14946921D01*
X10381107Y-14942032D01*
X10381477Y-14938122D01*
X10381974Y-14935021D01*
X10382616Y-14932557D01*
X10383422Y-14930562D01*
X10384409Y-14928864D01*
X10385597Y-14927293D01*
X10387005Y-14925680D01*
X10387823Y-14924774D01*
X10393111Y-14920282D01*
X10399119Y-14917444D01*
X10405521Y-14916215D01*
X10411990Y-14916550D01*
X10418199Y-14918404D01*
X10423821Y-14921731D01*
X10428530Y-14926487D01*
X10431162Y-14930753D01*
X10433500Y-14935500D01*
X10434000Y-14988500D01*
X10434111Y-15000140D01*
X10434212Y-15009953D01*
X10434311Y-15018112D01*
X10434417Y-15024788D01*
X10434538Y-15030155D01*
X10434682Y-15034386D01*
X10434858Y-15037653D01*
X10435074Y-15040128D01*
X10435339Y-15041985D01*
X10435660Y-15043395D01*
X10436047Y-15044532D01*
X10436507Y-15045569D01*
X10436800Y-15046168D01*
X10440057Y-15051103D01*
X10444626Y-15055819D01*
X10449859Y-15059704D01*
X10452824Y-15061283D01*
X10458492Y-15062960D01*
X10465009Y-15063513D01*
X10471575Y-15062945D01*
X10477387Y-15061260D01*
X10477592Y-15061170D01*
X10482565Y-15058169D01*
X10487501Y-15053853D01*
X10491784Y-15048822D01*
X10494167Y-15045000D01*
X10496500Y-15040500D01*
X10497000Y-14989000D01*
X10497113Y-14977536D01*
X10497216Y-14967895D01*
X10497317Y-14959901D01*
X10497426Y-14953377D01*
X10497552Y-14948146D01*
X10497702Y-14944031D01*
X10497886Y-14940856D01*
X10498113Y-14938444D01*
X10498391Y-14936618D01*
X10498730Y-14935202D01*
X10499137Y-14934019D01*
X10499621Y-14932893D01*
X10499801Y-14932500D01*
X10503768Y-14925961D01*
X10508876Y-14921053D01*
X10515080Y-14917809D01*
X10522331Y-14916263D01*
X10522602Y-14916240D01*
X10526738Y-14916107D01*
X10530046Y-14916628D01*
X10530046Y-14916628D01*
G37*
X10530046Y-14916628D02*
X10533645Y-14917994D01*
X10534132Y-14918216D01*
X10540408Y-14922062D01*
X10545353Y-14927104D01*
X10547704Y-14930892D01*
X10548087Y-14931774D01*
X10548412Y-14932863D01*
X10548684Y-14934320D01*
X10548906Y-14936309D01*
X10549084Y-14938992D01*
X10549223Y-14942530D01*
X10549328Y-14947086D01*
X10549402Y-14952823D01*
X10549452Y-14959902D01*
X10549482Y-14968486D01*
X10549496Y-14978737D01*
X10549500Y-14990817D01*
X10549500Y-14991500D01*
X10549499Y-15003606D01*
X10549492Y-15013885D01*
X10549472Y-15022510D01*
X10549433Y-15029654D01*
X10549369Y-15035491D01*
X10549273Y-15040193D01*
X10549140Y-15043933D01*
X10548963Y-15046885D01*
X10548735Y-15049222D01*
X10548451Y-15051116D01*
X10548104Y-15052741D01*
X10547687Y-15054271D01*
X10547195Y-15055877D01*
X10547157Y-15056000D01*
X10542378Y-15068092D01*
X10536008Y-15079122D01*
X10528204Y-15088969D01*
X10519122Y-15097512D01*
X10508919Y-15104628D01*
X10497752Y-15110198D01*
X10485778Y-15114098D01*
X10473154Y-15116209D01*
X10469000Y-15116487D01*
X10463959Y-15116568D01*
X10458853Y-15116429D01*
X10454568Y-15116101D01*
X10453500Y-15115959D01*
X10441109Y-15113086D01*
X10429343Y-15108501D01*
X10418401Y-15102359D01*
X10408484Y-15094814D01*
X10399792Y-15086022D01*
X10392526Y-15076136D01*
X10386885Y-15065312D01*
X10386408Y-15064158D01*
X10385160Y-15061054D01*
X10384102Y-15058289D01*
X10383217Y-15055672D01*
X10382491Y-15053012D01*
X10381907Y-15050120D01*
X10381450Y-15046805D01*
X10381105Y-15042877D01*
X10380855Y-15038147D01*
X10380686Y-15032423D01*
X10380581Y-15025517D01*
X10380526Y-15017237D01*
X10380504Y-15007394D01*
X10380500Y-14995797D01*
X10380500Y-14992000D01*
X10380501Y-14979665D01*
X10380518Y-14969160D01*
X10380568Y-14960314D01*
X10380671Y-14952958D01*
X10380844Y-14946921D01*
X10381107Y-14942032D01*
X10381477Y-14938122D01*
X10381974Y-14935021D01*
X10382616Y-14932557D01*
X10383422Y-14930562D01*
X10384409Y-14928864D01*
X10385597Y-14927293D01*
X10387005Y-14925680D01*
X10387823Y-14924774D01*
X10393111Y-14920282D01*
X10399119Y-14917444D01*
X10405521Y-14916215D01*
X10411990Y-14916550D01*
X10418199Y-14918404D01*
X10423821Y-14921731D01*
X10428530Y-14926487D01*
X10431162Y-14930753D01*
X10433500Y-14935500D01*
X10434000Y-14988500D01*
X10434111Y-15000140D01*
X10434212Y-15009953D01*
X10434311Y-15018112D01*
X10434417Y-15024788D01*
X10434538Y-15030155D01*
X10434682Y-15034386D01*
X10434858Y-15037653D01*
X10435074Y-15040128D01*
X10435339Y-15041985D01*
X10435660Y-15043395D01*
X10436047Y-15044532D01*
X10436507Y-15045569D01*
X10436800Y-15046168D01*
X10440057Y-15051103D01*
X10444626Y-15055819D01*
X10449859Y-15059704D01*
X10452824Y-15061283D01*
X10458492Y-15062960D01*
X10465009Y-15063513D01*
X10471575Y-15062945D01*
X10477387Y-15061260D01*
X10477592Y-15061170D01*
X10482565Y-15058169D01*
X10487501Y-15053853D01*
X10491784Y-15048822D01*
X10494167Y-15045000D01*
X10496500Y-15040500D01*
X10497000Y-14989000D01*
X10497113Y-14977536D01*
X10497216Y-14967895D01*
X10497317Y-14959901D01*
X10497426Y-14953377D01*
X10497552Y-14948146D01*
X10497702Y-14944031D01*
X10497886Y-14940856D01*
X10498113Y-14938444D01*
X10498391Y-14936618D01*
X10498730Y-14935202D01*
X10499137Y-14934019D01*
X10499621Y-14932893D01*
X10499801Y-14932500D01*
X10503768Y-14925961D01*
X10508876Y-14921053D01*
X10515080Y-14917809D01*
X10522331Y-14916263D01*
X10522602Y-14916240D01*
X10526738Y-14916107D01*
X10530046Y-14916628D01*
G36*
X10914362Y-14915148D02*
X10922764Y-14915254D01*
X10930067Y-14915432D01*
X10935965Y-14915676D01*
X10939882Y-14915955D01*
X10952428Y-14917964D01*
X10963599Y-14921422D01*
X10973413Y-14926343D01*
X10981891Y-14932742D01*
X10989051Y-14940635D01*
X10994913Y-14950037D01*
X10999496Y-14960963D01*
X11000158Y-14963000D01*
X11001108Y-14966306D01*
X11001765Y-14969417D01*
X11002179Y-14972826D01*
X11002401Y-14977028D01*
X11002483Y-14982515D01*
X11002487Y-14985500D01*
X11002455Y-14991478D01*
X11002329Y-14995941D01*
X11002051Y-14999378D01*
X11001560Y-15002272D01*
X11000797Y-15005110D01*
X10999703Y-15008379D01*
X10999664Y-15008490D01*
X10995084Y-15019023D01*
X10989228Y-15028121D01*
X10984579Y-15033463D01*
X10976585Y-15040380D01*
X10967794Y-15045702D01*
X10958447Y-15049377D01*
X10948785Y-15051353D01*
X10939051Y-15051579D01*
X10929484Y-15050002D01*
X10921320Y-15047047D01*
X10915957Y-15044022D01*
X10911033Y-15040279D01*
X10907050Y-15036252D01*
X10904595Y-15032559D01*
X10903201Y-15027553D01*
X10903248Y-15022040D01*
X10904599Y-15016607D01*
X10907114Y-15011841D01*
X10910282Y-15008589D01*
X10913468Y-15007149D01*
X10917818Y-15006286D01*
X10922566Y-15006046D01*
X10926948Y-15006475D01*
X10929798Y-15007396D01*
X10934606Y-15008836D01*
X10939953Y-15008747D01*
X10945249Y-15007254D01*
X10949907Y-15004478D01*
X10951633Y-15002847D01*
X10955071Y-14997656D01*
X10956962Y-14991663D01*
X10957311Y-14985325D01*
X10956125Y-14979098D01*
X10953410Y-14973439D01*
X10951197Y-14970661D01*
X10949518Y-14968963D01*
X10947913Y-14967644D01*
X10946114Y-14966656D01*
X10943849Y-14965950D01*
X10940849Y-14965480D01*
X10936843Y-14965197D01*
X10931561Y-14965055D01*
X10924732Y-14965005D01*
X10919077Y-14965000D01*
X10895055Y-14965000D01*
X10894777Y-15031250D01*
X10894720Y-15044410D01*
X10894664Y-15055721D01*
X10894603Y-15065332D01*
X10894534Y-15073394D01*
X10894451Y-15080058D01*
X10894349Y-15085473D01*
X10894225Y-15089791D01*
X10894073Y-15093161D01*
X10893888Y-15095733D01*
X10893667Y-15097659D01*
X10893403Y-15099088D01*
X10893092Y-15100170D01*
X10892730Y-15101057D01*
X10892563Y-15101403D01*
X10888809Y-15106915D01*
X10883738Y-15111399D01*
X10877767Y-15114658D01*
X10871311Y-15116495D01*
X10864786Y-15116712D01*
X10861500Y-15116119D01*
X10854712Y-15113364D01*
X10849056Y-15109075D01*
X10844763Y-15103461D01*
X10842801Y-15099171D01*
X10842552Y-15098078D01*
X10842335Y-15096220D01*
X10842148Y-15093480D01*
X10841988Y-15089741D01*
X10841855Y-15084888D01*
X10841746Y-15078804D01*
X10841659Y-15071371D01*
X10841594Y-15062475D01*
X10841547Y-15051998D01*
X10841517Y-15039824D01*
X10841502Y-15025837D01*
X10841500Y-15016500D01*
X10841500Y-14937500D01*
X10844093Y-14932000D01*
X10848219Y-14925354D01*
X10853581Y-14920238D01*
X10858000Y-14917624D01*
X10859328Y-14917042D01*
X10860734Y-14916573D01*
X10862450Y-14916202D01*
X10864705Y-14915915D01*
X10867730Y-14915697D01*
X10871753Y-14915532D01*
X10877006Y-14915405D01*
X10883718Y-14915302D01*
X10892120Y-14915207D01*
X10895500Y-14915173D01*
X10905171Y-14915119D01*
X10914362Y-14915148D01*
X10914362Y-14915148D01*
G37*
X10914362Y-14915148D02*
X10922764Y-14915254D01*
X10930067Y-14915432D01*
X10935965Y-14915676D01*
X10939882Y-14915955D01*
X10952428Y-14917964D01*
X10963599Y-14921422D01*
X10973413Y-14926343D01*
X10981891Y-14932742D01*
X10989051Y-14940635D01*
X10994913Y-14950037D01*
X10999496Y-14960963D01*
X11000158Y-14963000D01*
X11001108Y-14966306D01*
X11001765Y-14969417D01*
X11002179Y-14972826D01*
X11002401Y-14977028D01*
X11002483Y-14982515D01*
X11002487Y-14985500D01*
X11002455Y-14991478D01*
X11002329Y-14995941D01*
X11002051Y-14999378D01*
X11001560Y-15002272D01*
X11000797Y-15005110D01*
X10999703Y-15008379D01*
X10999664Y-15008490D01*
X10995084Y-15019023D01*
X10989228Y-15028121D01*
X10984579Y-15033463D01*
X10976585Y-15040380D01*
X10967794Y-15045702D01*
X10958447Y-15049377D01*
X10948785Y-15051353D01*
X10939051Y-15051579D01*
X10929484Y-15050002D01*
X10921320Y-15047047D01*
X10915957Y-15044022D01*
X10911033Y-15040279D01*
X10907050Y-15036252D01*
X10904595Y-15032559D01*
X10903201Y-15027553D01*
X10903248Y-15022040D01*
X10904599Y-15016607D01*
X10907114Y-15011841D01*
X10910282Y-15008589D01*
X10913468Y-15007149D01*
X10917818Y-15006286D01*
X10922566Y-15006046D01*
X10926948Y-15006475D01*
X10929798Y-15007396D01*
X10934606Y-15008836D01*
X10939953Y-15008747D01*
X10945249Y-15007254D01*
X10949907Y-15004478D01*
X10951633Y-15002847D01*
X10955071Y-14997656D01*
X10956962Y-14991663D01*
X10957311Y-14985325D01*
X10956125Y-14979098D01*
X10953410Y-14973439D01*
X10951197Y-14970661D01*
X10949518Y-14968963D01*
X10947913Y-14967644D01*
X10946114Y-14966656D01*
X10943849Y-14965950D01*
X10940849Y-14965480D01*
X10936843Y-14965197D01*
X10931561Y-14965055D01*
X10924732Y-14965005D01*
X10919077Y-14965000D01*
X10895055Y-14965000D01*
X10894777Y-15031250D01*
X10894720Y-15044410D01*
X10894664Y-15055721D01*
X10894603Y-15065332D01*
X10894534Y-15073394D01*
X10894451Y-15080058D01*
X10894349Y-15085473D01*
X10894225Y-15089791D01*
X10894073Y-15093161D01*
X10893888Y-15095733D01*
X10893667Y-15097659D01*
X10893403Y-15099088D01*
X10893092Y-15100170D01*
X10892730Y-15101057D01*
X10892563Y-15101403D01*
X10888809Y-15106915D01*
X10883738Y-15111399D01*
X10877767Y-15114658D01*
X10871311Y-15116495D01*
X10864786Y-15116712D01*
X10861500Y-15116119D01*
X10854712Y-15113364D01*
X10849056Y-15109075D01*
X10844763Y-15103461D01*
X10842801Y-15099171D01*
X10842552Y-15098078D01*
X10842335Y-15096220D01*
X10842148Y-15093480D01*
X10841988Y-15089741D01*
X10841855Y-15084888D01*
X10841746Y-15078804D01*
X10841659Y-15071371D01*
X10841594Y-15062475D01*
X10841547Y-15051998D01*
X10841517Y-15039824D01*
X10841502Y-15025837D01*
X10841500Y-15016500D01*
X10841500Y-14937500D01*
X10844093Y-14932000D01*
X10848219Y-14925354D01*
X10853581Y-14920238D01*
X10858000Y-14917624D01*
X10859328Y-14917042D01*
X10860734Y-14916573D01*
X10862450Y-14916202D01*
X10864705Y-14915915D01*
X10867730Y-14915697D01*
X10871753Y-14915532D01*
X10877006Y-14915405D01*
X10883718Y-14915302D01*
X10892120Y-14915207D01*
X10895500Y-14915173D01*
X10905171Y-14915119D01*
X10914362Y-14915148D01*
G36*
X10608310Y-14916529D02*
X10614193Y-14918963D01*
X10619564Y-14923201D01*
X10621228Y-14924964D01*
X10622658Y-14926685D01*
X10625166Y-14929828D01*
X10628619Y-14934223D01*
X10632887Y-14939700D01*
X10637836Y-14946088D01*
X10643335Y-14953218D01*
X10649252Y-14960919D01*
X10655454Y-14969021D01*
X10657500Y-14971701D01*
X10689500Y-15013630D01*
X10690000Y-14975065D01*
X10690130Y-14965259D01*
X10690250Y-14957241D01*
X10690374Y-14950799D01*
X10690516Y-14945722D01*
X10690690Y-14941797D01*
X10690909Y-14938812D01*
X10691188Y-14936556D01*
X10691540Y-14934817D01*
X10691979Y-14933383D01*
X10692520Y-14932042D01*
X10692870Y-14931258D01*
X10696095Y-14925994D01*
X10700512Y-14921343D01*
X10705511Y-14917914D01*
X10706844Y-14917292D01*
X10711033Y-14916229D01*
X10716193Y-14915879D01*
X10721433Y-14916236D01*
X10725858Y-14917292D01*
X10726272Y-14917457D01*
X10731638Y-14920670D01*
X10736377Y-14925307D01*
X10739913Y-14930791D01*
X10740130Y-14931258D01*
X10742500Y-14936500D01*
X10742500Y-15095500D01*
X10739500Y-15100964D01*
X10735345Y-15106648D01*
X10729970Y-15111122D01*
X10723764Y-15114180D01*
X10717117Y-15115618D01*
X10711912Y-15115488D01*
X10709634Y-15115110D01*
X10707534Y-15114552D01*
X10705487Y-15113684D01*
X10703367Y-15112374D01*
X10701050Y-15110493D01*
X10698410Y-15107910D01*
X10695323Y-15104494D01*
X10691663Y-15100115D01*
X10687305Y-15094642D01*
X10682125Y-15087946D01*
X10675997Y-15079894D01*
X10669279Y-15071000D01*
X10663308Y-15063069D01*
X10657504Y-15055344D01*
X10652022Y-15048032D01*
X10647015Y-15041336D01*
X10642635Y-15035463D01*
X10639037Y-15030618D01*
X10636374Y-15027005D01*
X10635060Y-15025197D01*
X10629107Y-15016895D01*
X10628804Y-15056197D01*
X10628721Y-15066549D01*
X10628629Y-15075107D01*
X10628501Y-15082078D01*
X10628307Y-15087669D01*
X10628019Y-15092085D01*
X10627610Y-15095533D01*
X10627051Y-15098221D01*
X10626314Y-15100353D01*
X10625372Y-15102137D01*
X10624195Y-15103779D01*
X10622756Y-15105485D01*
X10621965Y-15106387D01*
X10617373Y-15110366D01*
X10611714Y-15113368D01*
X10605566Y-15115203D01*
X10599506Y-15115684D01*
X10595500Y-15115078D01*
X10588370Y-15112279D01*
X10582734Y-15108186D01*
X10578505Y-15102729D01*
X10577351Y-15100507D01*
X10575020Y-15095500D01*
X10575020Y-14935500D01*
X10577383Y-14930500D01*
X10581251Y-14924490D01*
X10586393Y-14919975D01*
X10592663Y-14917046D01*
X10599912Y-14915792D01*
X10601603Y-14915750D01*
X10608310Y-14916529D01*
X10608310Y-14916529D01*
G37*
X10608310Y-14916529D02*
X10614193Y-14918963D01*
X10619564Y-14923201D01*
X10621228Y-14924964D01*
X10622658Y-14926685D01*
X10625166Y-14929828D01*
X10628619Y-14934223D01*
X10632887Y-14939700D01*
X10637836Y-14946088D01*
X10643335Y-14953218D01*
X10649252Y-14960919D01*
X10655454Y-14969021D01*
X10657500Y-14971701D01*
X10689500Y-15013630D01*
X10690000Y-14975065D01*
X10690130Y-14965259D01*
X10690250Y-14957241D01*
X10690374Y-14950799D01*
X10690516Y-14945722D01*
X10690690Y-14941797D01*
X10690909Y-14938812D01*
X10691188Y-14936556D01*
X10691540Y-14934817D01*
X10691979Y-14933383D01*
X10692520Y-14932042D01*
X10692870Y-14931258D01*
X10696095Y-14925994D01*
X10700512Y-14921343D01*
X10705511Y-14917914D01*
X10706844Y-14917292D01*
X10711033Y-14916229D01*
X10716193Y-14915879D01*
X10721433Y-14916236D01*
X10725858Y-14917292D01*
X10726272Y-14917457D01*
X10731638Y-14920670D01*
X10736377Y-14925307D01*
X10739913Y-14930791D01*
X10740130Y-14931258D01*
X10742500Y-14936500D01*
X10742500Y-15095500D01*
X10739500Y-15100964D01*
X10735345Y-15106648D01*
X10729970Y-15111122D01*
X10723764Y-15114180D01*
X10717117Y-15115618D01*
X10711912Y-15115488D01*
X10709634Y-15115110D01*
X10707534Y-15114552D01*
X10705487Y-15113684D01*
X10703367Y-15112374D01*
X10701050Y-15110493D01*
X10698410Y-15107910D01*
X10695323Y-15104494D01*
X10691663Y-15100115D01*
X10687305Y-15094642D01*
X10682125Y-15087946D01*
X10675997Y-15079894D01*
X10669279Y-15071000D01*
X10663308Y-15063069D01*
X10657504Y-15055344D01*
X10652022Y-15048032D01*
X10647015Y-15041336D01*
X10642635Y-15035463D01*
X10639037Y-15030618D01*
X10636374Y-15027005D01*
X10635060Y-15025197D01*
X10629107Y-15016895D01*
X10628804Y-15056197D01*
X10628721Y-15066549D01*
X10628629Y-15075107D01*
X10628501Y-15082078D01*
X10628307Y-15087669D01*
X10628019Y-15092085D01*
X10627610Y-15095533D01*
X10627051Y-15098221D01*
X10626314Y-15100353D01*
X10625372Y-15102137D01*
X10624195Y-15103779D01*
X10622756Y-15105485D01*
X10621965Y-15106387D01*
X10617373Y-15110366D01*
X10611714Y-15113368D01*
X10605566Y-15115203D01*
X10599506Y-15115684D01*
X10595500Y-15115078D01*
X10588370Y-15112279D01*
X10582734Y-15108186D01*
X10578505Y-15102729D01*
X10577351Y-15100507D01*
X10575020Y-15095500D01*
X10575020Y-14935500D01*
X10577383Y-14930500D01*
X10581251Y-14924490D01*
X10586393Y-14919975D01*
X10592663Y-14917046D01*
X10599912Y-14915792D01*
X10601603Y-14915750D01*
X10608310Y-14916529D01*
G36*
X10798875Y-14917159D02*
X10804937Y-14919208D01*
X10809952Y-14922755D01*
X10812732Y-14925871D01*
X10813853Y-14927341D01*
X10814833Y-14928712D01*
X10815681Y-14930121D01*
X10816406Y-14931706D01*
X10817017Y-14933605D01*
X10817524Y-14935954D01*
X10817934Y-14938893D01*
X10818257Y-14942557D01*
X10818503Y-14947085D01*
X10818679Y-14952615D01*
X10818795Y-14959283D01*
X10818860Y-14967228D01*
X10818883Y-14976587D01*
X10818873Y-14987497D01*
X10818838Y-15000097D01*
X10818788Y-15014523D01*
X10818774Y-15018588D01*
X10818500Y-15096500D01*
X10815534Y-15101855D01*
X10813266Y-15105357D01*
X10810643Y-15108576D01*
X10809090Y-15110078D01*
X10803342Y-15113587D01*
X10796774Y-15115560D01*
X10789899Y-15115938D01*
X10783236Y-15114662D01*
X10780195Y-15113410D01*
X10776650Y-15111252D01*
X10773375Y-15108622D01*
X10772026Y-15107216D01*
X10770960Y-15105929D01*
X10770027Y-15104734D01*
X10769219Y-15103496D01*
X10768527Y-15102079D01*
X10767943Y-15100346D01*
X10767456Y-15098161D01*
X10767059Y-15095389D01*
X10766742Y-15091893D01*
X10766497Y-15087538D01*
X10766315Y-15082187D01*
X10766186Y-15075705D01*
X10766103Y-15067955D01*
X10766055Y-15058802D01*
X10766035Y-15048110D01*
X10766033Y-15035742D01*
X10766040Y-15021562D01*
X10766044Y-15015572D01*
X10766058Y-15000535D01*
X10766085Y-14987378D01*
X10766125Y-14975979D01*
X10766182Y-14966219D01*
X10766257Y-14957977D01*
X10766352Y-14951133D01*
X10766469Y-14945565D01*
X10766611Y-14941154D01*
X10766778Y-14937778D01*
X10766974Y-14935318D01*
X10767201Y-14933653D01*
X10767427Y-14932748D01*
X10770628Y-14926676D01*
X10775433Y-14921596D01*
X10778784Y-14919272D01*
X10781530Y-14917820D01*
X10784093Y-14916980D01*
X10787202Y-14916593D01*
X10791521Y-14916500D01*
X10798875Y-14917159D01*
X10798875Y-14917159D01*
G37*
X10798875Y-14917159D02*
X10804937Y-14919208D01*
X10809952Y-14922755D01*
X10812732Y-14925871D01*
X10813853Y-14927341D01*
X10814833Y-14928712D01*
X10815681Y-14930121D01*
X10816406Y-14931706D01*
X10817017Y-14933605D01*
X10817524Y-14935954D01*
X10817934Y-14938893D01*
X10818257Y-14942557D01*
X10818503Y-14947085D01*
X10818679Y-14952615D01*
X10818795Y-14959283D01*
X10818860Y-14967228D01*
X10818883Y-14976587D01*
X10818873Y-14987497D01*
X10818838Y-15000097D01*
X10818788Y-15014523D01*
X10818774Y-15018588D01*
X10818500Y-15096500D01*
X10815534Y-15101855D01*
X10813266Y-15105357D01*
X10810643Y-15108576D01*
X10809090Y-15110078D01*
X10803342Y-15113587D01*
X10796774Y-15115560D01*
X10789899Y-15115938D01*
X10783236Y-15114662D01*
X10780195Y-15113410D01*
X10776650Y-15111252D01*
X10773375Y-15108622D01*
X10772026Y-15107216D01*
X10770960Y-15105929D01*
X10770027Y-15104734D01*
X10769219Y-15103496D01*
X10768527Y-15102079D01*
X10767943Y-15100346D01*
X10767456Y-15098161D01*
X10767059Y-15095389D01*
X10766742Y-15091893D01*
X10766497Y-15087538D01*
X10766315Y-15082187D01*
X10766186Y-15075705D01*
X10766103Y-15067955D01*
X10766055Y-15058802D01*
X10766035Y-15048110D01*
X10766033Y-15035742D01*
X10766040Y-15021562D01*
X10766044Y-15015572D01*
X10766058Y-15000535D01*
X10766085Y-14987378D01*
X10766125Y-14975979D01*
X10766182Y-14966219D01*
X10766257Y-14957977D01*
X10766352Y-14951133D01*
X10766469Y-14945565D01*
X10766611Y-14941154D01*
X10766778Y-14937778D01*
X10766974Y-14935318D01*
X10767201Y-14933653D01*
X10767427Y-14932748D01*
X10770628Y-14926676D01*
X10775433Y-14921596D01*
X10778784Y-14919272D01*
X10781530Y-14917820D01*
X10784093Y-14916980D01*
X10787202Y-14916593D01*
X10791521Y-14916500D01*
X10798875Y-14917159D01*
G36*
X11071077Y-14915986D02*
X11074538Y-14916541D01*
X11077881Y-14917708D01*
X11080599Y-14918974D01*
X11084425Y-14921195D01*
X11088006Y-14923835D01*
X11090208Y-14925938D01*
X11091124Y-14927478D01*
X11092725Y-14930703D01*
X11094942Y-14935443D01*
X11097702Y-14941532D01*
X11100937Y-14948802D01*
X11104574Y-14957085D01*
X11108543Y-14966214D01*
X11112773Y-14976021D01*
X11117193Y-14986339D01*
X11121733Y-14996999D01*
X11126322Y-15007835D01*
X11130889Y-15018679D01*
X11135363Y-15029362D01*
X11139673Y-15039718D01*
X11143749Y-15049580D01*
X11147520Y-15058778D01*
X11150914Y-15067146D01*
X11153862Y-15074516D01*
X11156293Y-15080721D01*
X11158135Y-15085593D01*
X11159318Y-15088964D01*
X11159767Y-15090627D01*
X11159471Y-15096531D01*
X11157409Y-15102285D01*
X11153806Y-15107517D01*
X11148885Y-15111856D01*
X11146000Y-15113573D01*
X11141956Y-15114861D01*
X11136915Y-15115379D01*
X11131727Y-15115128D01*
X11127241Y-15114107D01*
X11126000Y-15113571D01*
X11122883Y-15111760D01*
X11120267Y-15109648D01*
X11117931Y-15106925D01*
X11115657Y-15103281D01*
X11113225Y-15098406D01*
X11110415Y-15091989D01*
X11109953Y-15090888D01*
X11103732Y-15076000D01*
X11028898Y-15076000D01*
X11027344Y-15079750D01*
X11023882Y-15088059D01*
X11021041Y-15094722D01*
X11018696Y-15099948D01*
X11016723Y-15103945D01*
X11014996Y-15106924D01*
X11013392Y-15109095D01*
X11011787Y-15110665D01*
X11010055Y-15111845D01*
X11008073Y-15112844D01*
X11007533Y-15113086D01*
X11001395Y-15114967D01*
X10995015Y-15115480D01*
X10989170Y-15114566D01*
X10989000Y-15114512D01*
X10982961Y-15111591D01*
X10978173Y-15107251D01*
X10974839Y-15101770D01*
X10973161Y-15095427D01*
X10973000Y-15092638D01*
X10973060Y-15091534D01*
X10973273Y-15090187D01*
X10973686Y-15088475D01*
X10974347Y-15086277D01*
X10975304Y-15083469D01*
X10976605Y-15079932D01*
X10978298Y-15075542D01*
X10980429Y-15070178D01*
X10983049Y-15063718D01*
X10986203Y-15056041D01*
X10989940Y-15047025D01*
X10994308Y-15036548D01*
X10994415Y-15036294D01*
X11047000Y-15036294D01*
X11047950Y-15036508D01*
X11050601Y-15036697D01*
X11054653Y-15036848D01*
X11059806Y-15036952D01*
X11065763Y-15036999D01*
X11067000Y-15037000D01*
X11073079Y-15036981D01*
X11078414Y-15036929D01*
X11082705Y-15036850D01*
X11085655Y-15036749D01*
X11086962Y-15036633D01*
X11087000Y-15036608D01*
X11086625Y-15035523D01*
X11085587Y-15032907D01*
X11084014Y-15029066D01*
X11082037Y-15024306D01*
X11079784Y-15018932D01*
X11077386Y-15013249D01*
X11074971Y-15007564D01*
X11072669Y-15002182D01*
X11070609Y-14997408D01*
X11068921Y-14993548D01*
X11067734Y-14990907D01*
X11067178Y-14989791D01*
X11067169Y-14989782D01*
X11066659Y-14990506D01*
X11065511Y-14992783D01*
X11063852Y-14996318D01*
X11061811Y-15000817D01*
X11059513Y-15005986D01*
X11057089Y-15011529D01*
X11054664Y-15017153D01*
X11052368Y-15022563D01*
X11050327Y-15027464D01*
X11048669Y-15031562D01*
X11047522Y-15034563D01*
X11047014Y-15036171D01*
X11047000Y-15036294D01*
X10994415Y-15036294D01*
X10999355Y-15024488D01*
X11005128Y-15010724D01*
X11005904Y-15008877D01*
X11012022Y-14994324D01*
X11017426Y-14981516D01*
X11022163Y-14970348D01*
X11026279Y-14960715D01*
X11029821Y-14952511D01*
X11032835Y-14945632D01*
X11035367Y-14939973D01*
X11037465Y-14935428D01*
X11039174Y-14931893D01*
X11040541Y-14929262D01*
X11041613Y-14927431D01*
X11042430Y-14926299D01*
X11045746Y-14923221D01*
X11050062Y-14920253D01*
X11052447Y-14918951D01*
X11056224Y-14917242D01*
X11059415Y-14916291D01*
X11062944Y-14915892D01*
X11066562Y-14915834D01*
X11071077Y-14915986D01*
X11071077Y-14915986D01*
G37*
X11071077Y-14915986D02*
X11074538Y-14916541D01*
X11077881Y-14917708D01*
X11080599Y-14918974D01*
X11084425Y-14921195D01*
X11088006Y-14923835D01*
X11090208Y-14925938D01*
X11091124Y-14927478D01*
X11092725Y-14930703D01*
X11094942Y-14935443D01*
X11097702Y-14941532D01*
X11100937Y-14948802D01*
X11104574Y-14957085D01*
X11108543Y-14966214D01*
X11112773Y-14976021D01*
X11117193Y-14986339D01*
X11121733Y-14996999D01*
X11126322Y-15007835D01*
X11130889Y-15018679D01*
X11135363Y-15029362D01*
X11139673Y-15039718D01*
X11143749Y-15049580D01*
X11147520Y-15058778D01*
X11150914Y-15067146D01*
X11153862Y-15074516D01*
X11156293Y-15080721D01*
X11158135Y-15085593D01*
X11159318Y-15088964D01*
X11159767Y-15090627D01*
X11159471Y-15096531D01*
X11157409Y-15102285D01*
X11153806Y-15107517D01*
X11148885Y-15111856D01*
X11146000Y-15113573D01*
X11141956Y-15114861D01*
X11136915Y-15115379D01*
X11131727Y-15115128D01*
X11127241Y-15114107D01*
X11126000Y-15113571D01*
X11122883Y-15111760D01*
X11120267Y-15109648D01*
X11117931Y-15106925D01*
X11115657Y-15103281D01*
X11113225Y-15098406D01*
X11110415Y-15091989D01*
X11109953Y-15090888D01*
X11103732Y-15076000D01*
X11028898Y-15076000D01*
X11027344Y-15079750D01*
X11023882Y-15088059D01*
X11021041Y-15094722D01*
X11018696Y-15099948D01*
X11016723Y-15103945D01*
X11014996Y-15106924D01*
X11013392Y-15109095D01*
X11011787Y-15110665D01*
X11010055Y-15111845D01*
X11008073Y-15112844D01*
X11007533Y-15113086D01*
X11001395Y-15114967D01*
X10995015Y-15115480D01*
X10989170Y-15114566D01*
X10989000Y-15114512D01*
X10982961Y-15111591D01*
X10978173Y-15107251D01*
X10974839Y-15101770D01*
X10973161Y-15095427D01*
X10973000Y-15092638D01*
X10973060Y-15091534D01*
X10973273Y-15090187D01*
X10973686Y-15088475D01*
X10974347Y-15086277D01*
X10975304Y-15083469D01*
X10976605Y-15079932D01*
X10978298Y-15075542D01*
X10980429Y-15070178D01*
X10983049Y-15063718D01*
X10986203Y-15056041D01*
X10989940Y-15047025D01*
X10994308Y-15036548D01*
X10994415Y-15036294D01*
X11047000Y-15036294D01*
X11047950Y-15036508D01*
X11050601Y-15036697D01*
X11054653Y-15036848D01*
X11059806Y-15036952D01*
X11065763Y-15036999D01*
X11067000Y-15037000D01*
X11073079Y-15036981D01*
X11078414Y-15036929D01*
X11082705Y-15036850D01*
X11085655Y-15036749D01*
X11086962Y-15036633D01*
X11087000Y-15036608D01*
X11086625Y-15035523D01*
X11085587Y-15032907D01*
X11084014Y-15029066D01*
X11082037Y-15024306D01*
X11079784Y-15018932D01*
X11077386Y-15013249D01*
X11074971Y-15007564D01*
X11072669Y-15002182D01*
X11070609Y-14997408D01*
X11068921Y-14993548D01*
X11067734Y-14990907D01*
X11067178Y-14989791D01*
X11067169Y-14989782D01*
X11066659Y-14990506D01*
X11065511Y-14992783D01*
X11063852Y-14996318D01*
X11061811Y-15000817D01*
X11059513Y-15005986D01*
X11057089Y-15011529D01*
X11054664Y-15017153D01*
X11052368Y-15022563D01*
X11050327Y-15027464D01*
X11048669Y-15031562D01*
X11047522Y-15034563D01*
X11047014Y-15036171D01*
X11047000Y-15036294D01*
X10994415Y-15036294D01*
X10999355Y-15024488D01*
X11005128Y-15010724D01*
X11005904Y-15008877D01*
X11012022Y-14994324D01*
X11017426Y-14981516D01*
X11022163Y-14970348D01*
X11026279Y-14960715D01*
X11029821Y-14952511D01*
X11032835Y-14945632D01*
X11035367Y-14939973D01*
X11037465Y-14935428D01*
X11039174Y-14931893D01*
X11040541Y-14929262D01*
X11041613Y-14927431D01*
X11042430Y-14926299D01*
X11045746Y-14923221D01*
X11050062Y-14920253D01*
X11052447Y-14918951D01*
X11056224Y-14917242D01*
X11059415Y-14916291D01*
X11062944Y-14915892D01*
X11066562Y-14915834D01*
X11071077Y-14915986D01*
G36*
X11250939Y-14915141D02*
X11260010Y-14915279D01*
X11267700Y-14915540D01*
X11274214Y-14915940D01*
X11279759Y-14916491D01*
X11284539Y-14917206D01*
X11288761Y-14918101D01*
X11292631Y-14919188D01*
X11293771Y-14919559D01*
X11304036Y-14924011D01*
X11313227Y-14930041D01*
X11321175Y-14937478D01*
X11327710Y-14946153D01*
X11332662Y-14955894D01*
X11334145Y-14960000D01*
X11335948Y-14967753D01*
X11336809Y-14976395D01*
X11336707Y-14985139D01*
X11335622Y-14993196D01*
X11335066Y-14995490D01*
X11331609Y-15005172D01*
X11326847Y-15014113D01*
X11321006Y-15022015D01*
X11314307Y-15028579D01*
X11306976Y-15033506D01*
X11306284Y-15033864D01*
X11300067Y-15036995D01*
X11315284Y-15058821D01*
X11319343Y-15064666D01*
X11323012Y-15069990D01*
X11326137Y-15074568D01*
X11328565Y-15078175D01*
X11330146Y-15080587D01*
X11330724Y-15081574D01*
X11331189Y-15083028D01*
X11332080Y-15085546D01*
X11332430Y-15086500D01*
X11333715Y-15092696D01*
X11333195Y-15098945D01*
X11331005Y-15104816D01*
X11327280Y-15109880D01*
X11324255Y-15112430D01*
X11319173Y-15114882D01*
X11313432Y-15115923D01*
X11307565Y-15115595D01*
X11302100Y-15113942D01*
X11297569Y-15111004D01*
X11296789Y-15110232D01*
X11295601Y-15108772D01*
X11293415Y-15105897D01*
X11290375Y-15101808D01*
X11286623Y-15096704D01*
X11282303Y-15090784D01*
X11277558Y-15084247D01*
X11272533Y-15077294D01*
X11267369Y-15070124D01*
X11262210Y-15062935D01*
X11257200Y-15055928D01*
X11252483Y-15049302D01*
X11248200Y-15043256D01*
X11244496Y-15037991D01*
X11241515Y-15033704D01*
X11239398Y-15030597D01*
X11238291Y-15028867D01*
X11238206Y-15028712D01*
X11237094Y-15024639D01*
X11237179Y-15019961D01*
X11238351Y-15015480D01*
X11240499Y-15012001D01*
X11242534Y-15010162D01*
X11244834Y-15008818D01*
X11247783Y-15007860D01*
X11251769Y-15007182D01*
X11257178Y-15006677D01*
X11260500Y-15006458D01*
X11268432Y-15005665D01*
X11274705Y-15004263D01*
X11279602Y-15002116D01*
X11283408Y-14999087D01*
X11286407Y-14995039D01*
X11287203Y-14993582D01*
X11288436Y-14990479D01*
X11288902Y-14987059D01*
X11288816Y-14983449D01*
X11287700Y-14977230D01*
X11285134Y-14972300D01*
X11280968Y-14968424D01*
X11277871Y-14966623D01*
X11276204Y-14965812D01*
X11274677Y-14965189D01*
X11273008Y-14964727D01*
X11270918Y-14964404D01*
X11268124Y-14964195D01*
X11264345Y-14964074D01*
X11259300Y-14964017D01*
X11252708Y-14964001D01*
X11247804Y-14964000D01*
X11223000Y-14964000D01*
X11223000Y-15028318D01*
X11223000Y-15042002D01*
X11222991Y-15053837D01*
X11222958Y-15063972D01*
X11222885Y-15072559D01*
X11222759Y-15079747D01*
X11222564Y-15085688D01*
X11222285Y-15090531D01*
X11221908Y-15094428D01*
X11221418Y-15097528D01*
X11220799Y-15099983D01*
X11220037Y-15101942D01*
X11219118Y-15103556D01*
X11218026Y-15104975D01*
X11216746Y-15106350D01*
X11215263Y-15107832D01*
X11215139Y-15107956D01*
X11209503Y-15112236D01*
X11202940Y-15114965D01*
X11195896Y-15116045D01*
X11188817Y-15115377D01*
X11185591Y-15114427D01*
X11179915Y-15111529D01*
X11175408Y-15107292D01*
X11172474Y-15102870D01*
X11169500Y-15097500D01*
X11169500Y-15017000D01*
X11169501Y-15002432D01*
X11169506Y-14989728D01*
X11169517Y-14978752D01*
X11169540Y-14969368D01*
X11169576Y-14961439D01*
X11169630Y-14954830D01*
X11169705Y-14949405D01*
X11169804Y-14945027D01*
X11169930Y-14941561D01*
X11170087Y-14938870D01*
X11170278Y-14936819D01*
X11170506Y-14935270D01*
X11170776Y-14934089D01*
X11171090Y-14933140D01*
X11171452Y-14932285D01*
X11171606Y-14931949D01*
X11175604Y-14925407D01*
X11180797Y-14920443D01*
X11185243Y-14917876D01*
X11186643Y-14917263D01*
X11188006Y-14916764D01*
X11189546Y-14916365D01*
X11191480Y-14916052D01*
X11194024Y-14915811D01*
X11197395Y-14915630D01*
X11201808Y-14915494D01*
X11207480Y-14915390D01*
X11214627Y-14915303D01*
X11223465Y-14915221D01*
X11227831Y-14915184D01*
X11240281Y-14915114D01*
X11250939Y-14915141D01*
X11250939Y-14915141D01*
G37*
X11250939Y-14915141D02*
X11260010Y-14915279D01*
X11267700Y-14915540D01*
X11274214Y-14915940D01*
X11279759Y-14916491D01*
X11284539Y-14917206D01*
X11288761Y-14918101D01*
X11292631Y-14919188D01*
X11293771Y-14919559D01*
X11304036Y-14924011D01*
X11313227Y-14930041D01*
X11321175Y-14937478D01*
X11327710Y-14946153D01*
X11332662Y-14955894D01*
X11334145Y-14960000D01*
X11335948Y-14967753D01*
X11336809Y-14976395D01*
X11336707Y-14985139D01*
X11335622Y-14993196D01*
X11335066Y-14995490D01*
X11331609Y-15005172D01*
X11326847Y-15014113D01*
X11321006Y-15022015D01*
X11314307Y-15028579D01*
X11306976Y-15033506D01*
X11306284Y-15033864D01*
X11300067Y-15036995D01*
X11315284Y-15058821D01*
X11319343Y-15064666D01*
X11323012Y-15069990D01*
X11326137Y-15074568D01*
X11328565Y-15078175D01*
X11330146Y-15080587D01*
X11330724Y-15081574D01*
X11331189Y-15083028D01*
X11332080Y-15085546D01*
X11332430Y-15086500D01*
X11333715Y-15092696D01*
X11333195Y-15098945D01*
X11331005Y-15104816D01*
X11327280Y-15109880D01*
X11324255Y-15112430D01*
X11319173Y-15114882D01*
X11313432Y-15115923D01*
X11307565Y-15115595D01*
X11302100Y-15113942D01*
X11297569Y-15111004D01*
X11296789Y-15110232D01*
X11295601Y-15108772D01*
X11293415Y-15105897D01*
X11290375Y-15101808D01*
X11286623Y-15096704D01*
X11282303Y-15090784D01*
X11277558Y-15084247D01*
X11272533Y-15077294D01*
X11267369Y-15070124D01*
X11262210Y-15062935D01*
X11257200Y-15055928D01*
X11252483Y-15049302D01*
X11248200Y-15043256D01*
X11244496Y-15037991D01*
X11241515Y-15033704D01*
X11239398Y-15030597D01*
X11238291Y-15028867D01*
X11238206Y-15028712D01*
X11237094Y-15024639D01*
X11237179Y-15019961D01*
X11238351Y-15015480D01*
X11240499Y-15012001D01*
X11242534Y-15010162D01*
X11244834Y-15008818D01*
X11247783Y-15007860D01*
X11251769Y-15007182D01*
X11257178Y-15006677D01*
X11260500Y-15006458D01*
X11268432Y-15005665D01*
X11274705Y-15004263D01*
X11279602Y-15002116D01*
X11283408Y-14999087D01*
X11286407Y-14995039D01*
X11287203Y-14993582D01*
X11288436Y-14990479D01*
X11288902Y-14987059D01*
X11288816Y-14983449D01*
X11287700Y-14977230D01*
X11285134Y-14972300D01*
X11280968Y-14968424D01*
X11277871Y-14966623D01*
X11276204Y-14965812D01*
X11274677Y-14965189D01*
X11273008Y-14964727D01*
X11270918Y-14964404D01*
X11268124Y-14964195D01*
X11264345Y-14964074D01*
X11259300Y-14964017D01*
X11252708Y-14964001D01*
X11247804Y-14964000D01*
X11223000Y-14964000D01*
X11223000Y-15028318D01*
X11223000Y-15042002D01*
X11222991Y-15053837D01*
X11222958Y-15063972D01*
X11222885Y-15072559D01*
X11222759Y-15079747D01*
X11222564Y-15085688D01*
X11222285Y-15090531D01*
X11221908Y-15094428D01*
X11221418Y-15097528D01*
X11220799Y-15099983D01*
X11220037Y-15101942D01*
X11219118Y-15103556D01*
X11218026Y-15104975D01*
X11216746Y-15106350D01*
X11215263Y-15107832D01*
X11215139Y-15107956D01*
X11209503Y-15112236D01*
X11202940Y-15114965D01*
X11195896Y-15116045D01*
X11188817Y-15115377D01*
X11185591Y-15114427D01*
X11179915Y-15111529D01*
X11175408Y-15107292D01*
X11172474Y-15102870D01*
X11169500Y-15097500D01*
X11169500Y-15017000D01*
X11169501Y-15002432D01*
X11169506Y-14989728D01*
X11169517Y-14978752D01*
X11169540Y-14969368D01*
X11169576Y-14961439D01*
X11169630Y-14954830D01*
X11169705Y-14949405D01*
X11169804Y-14945027D01*
X11169930Y-14941561D01*
X11170087Y-14938870D01*
X11170278Y-14936819D01*
X11170506Y-14935270D01*
X11170776Y-14934089D01*
X11171090Y-14933140D01*
X11171452Y-14932285D01*
X11171606Y-14931949D01*
X11175604Y-14925407D01*
X11180797Y-14920443D01*
X11185243Y-14917876D01*
X11186643Y-14917263D01*
X11188006Y-14916764D01*
X11189546Y-14916365D01*
X11191480Y-14916052D01*
X11194024Y-14915811D01*
X11197395Y-14915630D01*
X11201808Y-14915494D01*
X11207480Y-14915390D01*
X11214627Y-14915303D01*
X11223465Y-14915221D01*
X11227831Y-14915184D01*
X11240281Y-14915114D01*
X11250939Y-14915141D01*
G36*
X11402407Y-14915130D02*
X11412382Y-14915179D01*
X11413000Y-14915183D01*
X11462500Y-14915500D01*
X11468208Y-14918303D01*
X11473955Y-14922063D01*
X11478284Y-14926806D01*
X11481191Y-14932235D01*
X11482667Y-14938053D01*
X11482708Y-14943962D01*
X11481306Y-14949666D01*
X11478456Y-14954867D01*
X11474151Y-14959268D01*
X11469132Y-14962254D01*
X11466655Y-14963138D01*
X11463530Y-14963791D01*
X11459363Y-14964268D01*
X11453758Y-14964622D01*
X11450903Y-14964746D01*
X11437042Y-14965295D01*
X11436771Y-15030897D01*
X11436714Y-15044022D01*
X11436656Y-15055296D01*
X11436593Y-15064870D01*
X11436520Y-15072895D01*
X11436433Y-15079521D01*
X11436328Y-15084897D01*
X11436198Y-15089173D01*
X11436042Y-15092501D01*
X11435852Y-15095029D01*
X11435626Y-15096909D01*
X11435359Y-15098289D01*
X11435045Y-15099321D01*
X11434684Y-15100150D01*
X11430796Y-15105901D01*
X11425647Y-15110457D01*
X11419606Y-15113661D01*
X11413043Y-15115359D01*
X11406327Y-15115393D01*
X11401332Y-15114205D01*
X11395158Y-15111323D01*
X11390418Y-15107443D01*
X11386644Y-15102174D01*
X11386474Y-15101870D01*
X11383500Y-15096500D01*
X11383216Y-15030227D01*
X11382932Y-14963955D01*
X11367584Y-14964083D01*
X11361638Y-14964113D01*
X11357293Y-14964057D01*
X11354150Y-14963870D01*
X11351809Y-14963506D01*
X11349873Y-14962921D01*
X11347942Y-14962068D01*
X11347368Y-14961786D01*
X11342379Y-14958325D01*
X11338208Y-14953570D01*
X11335376Y-14948154D01*
X11334923Y-14946716D01*
X11334030Y-14939897D01*
X11334953Y-14933439D01*
X11337512Y-14927592D01*
X11341528Y-14922608D01*
X11346821Y-14918738D01*
X11353209Y-14916232D01*
X11357338Y-14915503D01*
X11359562Y-14915382D01*
X11363563Y-14915282D01*
X11369117Y-14915203D01*
X11376002Y-14915147D01*
X11383994Y-14915116D01*
X11392870Y-14915110D01*
X11402407Y-14915130D01*
X11402407Y-14915130D01*
G37*
X11402407Y-14915130D02*
X11412382Y-14915179D01*
X11413000Y-14915183D01*
X11462500Y-14915500D01*
X11468208Y-14918303D01*
X11473955Y-14922063D01*
X11478284Y-14926806D01*
X11481191Y-14932235D01*
X11482667Y-14938053D01*
X11482708Y-14943962D01*
X11481306Y-14949666D01*
X11478456Y-14954867D01*
X11474151Y-14959268D01*
X11469132Y-14962254D01*
X11466655Y-14963138D01*
X11463530Y-14963791D01*
X11459363Y-14964268D01*
X11453758Y-14964622D01*
X11450903Y-14964746D01*
X11437042Y-14965295D01*
X11436771Y-15030897D01*
X11436714Y-15044022D01*
X11436656Y-15055296D01*
X11436593Y-15064870D01*
X11436520Y-15072895D01*
X11436433Y-15079521D01*
X11436328Y-15084897D01*
X11436198Y-15089173D01*
X11436042Y-15092501D01*
X11435852Y-15095029D01*
X11435626Y-15096909D01*
X11435359Y-15098289D01*
X11435045Y-15099321D01*
X11434684Y-15100150D01*
X11430796Y-15105901D01*
X11425647Y-15110457D01*
X11419606Y-15113661D01*
X11413043Y-15115359D01*
X11406327Y-15115393D01*
X11401332Y-15114205D01*
X11395158Y-15111323D01*
X11390418Y-15107443D01*
X11386644Y-15102174D01*
X11386474Y-15101870D01*
X11383500Y-15096500D01*
X11383216Y-15030227D01*
X11382932Y-14963955D01*
X11367584Y-14964083D01*
X11361638Y-14964113D01*
X11357293Y-14964057D01*
X11354150Y-14963870D01*
X11351809Y-14963506D01*
X11349873Y-14962921D01*
X11347942Y-14962068D01*
X11347368Y-14961786D01*
X11342379Y-14958325D01*
X11338208Y-14953570D01*
X11335376Y-14948154D01*
X11334923Y-14946716D01*
X11334030Y-14939897D01*
X11334953Y-14933439D01*
X11337512Y-14927592D01*
X11341528Y-14922608D01*
X11346821Y-14918738D01*
X11353209Y-14916232D01*
X11357338Y-14915503D01*
X11359562Y-14915382D01*
X11363563Y-14915282D01*
X11369117Y-14915203D01*
X11376002Y-14915147D01*
X11383994Y-14915116D01*
X11392870Y-14915110D01*
X11402407Y-14915130D01*
G36*
X10645104Y-14133084D02*
X10657802Y-14134188D01*
X10675389Y-14135676D01*
X10697126Y-14137488D01*
X10722275Y-14139565D01*
X10750098Y-14141844D01*
X10779857Y-14144266D01*
X10810813Y-14146770D01*
X10842229Y-14149296D01*
X10855689Y-14150372D01*
X10914051Y-14155055D01*
X10967133Y-14159362D01*
X11015283Y-14163327D01*
X11058852Y-14166985D01*
X11098187Y-14170371D01*
X11133639Y-14173518D01*
X11165555Y-14176462D01*
X11194287Y-14179238D01*
X11220182Y-14181879D01*
X11243589Y-14184421D01*
X11264858Y-14186898D01*
X11284339Y-14189345D01*
X11302379Y-14191796D01*
X11319329Y-14194286D01*
X11335536Y-14196849D01*
X11350989Y-14199457D01*
X11377279Y-14204260D01*
X11398381Y-14208671D01*
X11414727Y-14212821D01*
X11426748Y-14216841D01*
X11434877Y-14220861D01*
X11439546Y-14225014D01*
X11440483Y-14226611D01*
X11441999Y-14232772D01*
X11440626Y-14239082D01*
X11435973Y-14245917D01*
X11427650Y-14253654D01*
X11415268Y-14262670D01*
X11398435Y-14273340D01*
X11382033Y-14283015D01*
X11368165Y-14290791D01*
X11353564Y-14298600D01*
X11340343Y-14305329D01*
X11333596Y-14308548D01*
X11312880Y-14317390D01*
X11286694Y-14327481D01*
X11255072Y-14338808D01*
X11218047Y-14351361D01*
X11175652Y-14365131D01*
X11127921Y-14380105D01*
X11074886Y-14396274D01*
X11016582Y-14413626D01*
X10953040Y-14432151D01*
X10917778Y-14442290D01*
X10886471Y-14451287D01*
X10854266Y-14460607D01*
X10821866Y-14470041D01*
X10789976Y-14479381D01*
X10759300Y-14488419D01*
X10730543Y-14496946D01*
X10704408Y-14504756D01*
X10681600Y-14511639D01*
X10662823Y-14517388D01*
X10648961Y-14521736D01*
X10642257Y-14524315D01*
X10638603Y-14526559D01*
X10638378Y-14527020D01*
X10641145Y-14530200D01*
X10649234Y-14533517D01*
X10662326Y-14536920D01*
X10680099Y-14540361D01*
X10702235Y-14543790D01*
X10728415Y-14547158D01*
X10758318Y-14550415D01*
X10791624Y-14553513D01*
X10828015Y-14556401D01*
X10828878Y-14556464D01*
X11001553Y-14567497D01*
X11170583Y-14575135D01*
X11336823Y-14579390D01*
X11501127Y-14580276D01*
X11664348Y-14577807D01*
X11823522Y-14572169D01*
X11841370Y-14571401D01*
X11857215Y-14570798D01*
X11870223Y-14570386D01*
X11879566Y-14570189D01*
X11884413Y-14570232D01*
X11884901Y-14570315D01*
X11883302Y-14572281D01*
X11878249Y-14576465D01*
X11872503Y-14580748D01*
X11859216Y-14590290D01*
X11767380Y-14592287D01*
X11752173Y-14592553D01*
X11732353Y-14592798D01*
X11708463Y-14593020D01*
X11681044Y-14593219D01*
X11650636Y-14593394D01*
X11617781Y-14593546D01*
X11583020Y-14593673D01*
X11546893Y-14593775D01*
X11509943Y-14593852D01*
X11472710Y-14593902D01*
X11435736Y-14593926D01*
X11399561Y-14593922D01*
X11364726Y-14593891D01*
X11331773Y-14593831D01*
X11301243Y-14593742D01*
X11273677Y-14593624D01*
X11249616Y-14593476D01*
X11229602Y-14593298D01*
X11214174Y-14593088D01*
X11204233Y-14592858D01*
X11167131Y-14591575D01*
X11125678Y-14590020D01*
X11081157Y-14588246D01*
X11034853Y-14586307D01*
X10988050Y-14584257D01*
X10942030Y-14582148D01*
X10907900Y-14580516D01*
X10858548Y-14578036D01*
X10814553Y-14575660D01*
X10775630Y-14573358D01*
X10741492Y-14571101D01*
X10711854Y-14568860D01*
X10686430Y-14566606D01*
X10664934Y-14564308D01*
X10647080Y-14561939D01*
X10632583Y-14559469D01*
X10621157Y-14556868D01*
X10612516Y-14554106D01*
X10606375Y-14551156D01*
X10603838Y-14549340D01*
X10597456Y-14543912D01*
X10605922Y-14536723D01*
X10611296Y-14532268D01*
X10616668Y-14528146D01*
X10622383Y-14524238D01*
X10628791Y-14520424D01*
X10636240Y-14516583D01*
X10645076Y-14512596D01*
X10655648Y-14508342D01*
X10668303Y-14503702D01*
X10683389Y-14498556D01*
X10701254Y-14492782D01*
X10722245Y-14486262D01*
X10746711Y-14478874D01*
X10774999Y-14470500D01*
X10807457Y-14461019D01*
X10844432Y-14450310D01*
X10886273Y-14438255D01*
X10914956Y-14430009D01*
X10979428Y-14411369D01*
X11038590Y-14394016D01*
X11092612Y-14377891D01*
X11141665Y-14362931D01*
X11185919Y-14349076D01*
X11225544Y-14336266D01*
X11260711Y-14324439D01*
X11291591Y-14313534D01*
X11318354Y-14303492D01*
X11341170Y-14294250D01*
X11360211Y-14285749D01*
X11375646Y-14277926D01*
X11387646Y-14270722D01*
X11396382Y-14264076D01*
X11402024Y-14257927D01*
X11403358Y-14255772D01*
X11404550Y-14249258D01*
X11400523Y-14243479D01*
X11391068Y-14238143D01*
X11390591Y-14237942D01*
X11379236Y-14234049D01*
X11363047Y-14229721D01*
X11342804Y-14225103D01*
X11319288Y-14220342D01*
X11293280Y-14215586D01*
X11265559Y-14210981D01*
X11236906Y-14206673D01*
X11208102Y-14202810D01*
X11195767Y-14201311D01*
X11168054Y-14198234D01*
X11135374Y-14194916D01*
X11098396Y-14191408D01*
X11057791Y-14187763D01*
X11014228Y-14184035D01*
X10968376Y-14180274D01*
X10920906Y-14176534D01*
X10872486Y-14172868D01*
X10823787Y-14169327D01*
X10775479Y-14165966D01*
X10728230Y-14162835D01*
X10682711Y-14159987D01*
X10639592Y-14157476D01*
X10631322Y-14157019D01*
X10613125Y-14155941D01*
X10596825Y-14154820D01*
X10583267Y-14153725D01*
X10573295Y-14152728D01*
X10567753Y-14151899D01*
X10566942Y-14151612D01*
X10567844Y-14149097D01*
X10572435Y-14144480D01*
X10579313Y-14139069D01*
X10593975Y-14128535D01*
X10645104Y-14133084D01*
X10645104Y-14133084D01*
G37*
X10645104Y-14133084D02*
X10657802Y-14134188D01*
X10675389Y-14135676D01*
X10697126Y-14137488D01*
X10722275Y-14139565D01*
X10750098Y-14141844D01*
X10779857Y-14144266D01*
X10810813Y-14146770D01*
X10842229Y-14149296D01*
X10855689Y-14150372D01*
X10914051Y-14155055D01*
X10967133Y-14159362D01*
X11015283Y-14163327D01*
X11058852Y-14166985D01*
X11098187Y-14170371D01*
X11133639Y-14173518D01*
X11165555Y-14176462D01*
X11194287Y-14179238D01*
X11220182Y-14181879D01*
X11243589Y-14184421D01*
X11264858Y-14186898D01*
X11284339Y-14189345D01*
X11302379Y-14191796D01*
X11319329Y-14194286D01*
X11335536Y-14196849D01*
X11350989Y-14199457D01*
X11377279Y-14204260D01*
X11398381Y-14208671D01*
X11414727Y-14212821D01*
X11426748Y-14216841D01*
X11434877Y-14220861D01*
X11439546Y-14225014D01*
X11440483Y-14226611D01*
X11441999Y-14232772D01*
X11440626Y-14239082D01*
X11435973Y-14245917D01*
X11427650Y-14253654D01*
X11415268Y-14262670D01*
X11398435Y-14273340D01*
X11382033Y-14283015D01*
X11368165Y-14290791D01*
X11353564Y-14298600D01*
X11340343Y-14305329D01*
X11333596Y-14308548D01*
X11312880Y-14317390D01*
X11286694Y-14327481D01*
X11255072Y-14338808D01*
X11218047Y-14351361D01*
X11175652Y-14365131D01*
X11127921Y-14380105D01*
X11074886Y-14396274D01*
X11016582Y-14413626D01*
X10953040Y-14432151D01*
X10917778Y-14442290D01*
X10886471Y-14451287D01*
X10854266Y-14460607D01*
X10821866Y-14470041D01*
X10789976Y-14479381D01*
X10759300Y-14488419D01*
X10730543Y-14496946D01*
X10704408Y-14504756D01*
X10681600Y-14511639D01*
X10662823Y-14517388D01*
X10648961Y-14521736D01*
X10642257Y-14524315D01*
X10638603Y-14526559D01*
X10638378Y-14527020D01*
X10641145Y-14530200D01*
X10649234Y-14533517D01*
X10662326Y-14536920D01*
X10680099Y-14540361D01*
X10702235Y-14543790D01*
X10728415Y-14547158D01*
X10758318Y-14550415D01*
X10791624Y-14553513D01*
X10828015Y-14556401D01*
X10828878Y-14556464D01*
X11001553Y-14567497D01*
X11170583Y-14575135D01*
X11336823Y-14579390D01*
X11501127Y-14580276D01*
X11664348Y-14577807D01*
X11823522Y-14572169D01*
X11841370Y-14571401D01*
X11857215Y-14570798D01*
X11870223Y-14570386D01*
X11879566Y-14570189D01*
X11884413Y-14570232D01*
X11884901Y-14570315D01*
X11883302Y-14572281D01*
X11878249Y-14576465D01*
X11872503Y-14580748D01*
X11859216Y-14590290D01*
X11767380Y-14592287D01*
X11752173Y-14592553D01*
X11732353Y-14592798D01*
X11708463Y-14593020D01*
X11681044Y-14593219D01*
X11650636Y-14593394D01*
X11617781Y-14593546D01*
X11583020Y-14593673D01*
X11546893Y-14593775D01*
X11509943Y-14593852D01*
X11472710Y-14593902D01*
X11435736Y-14593926D01*
X11399561Y-14593922D01*
X11364726Y-14593891D01*
X11331773Y-14593831D01*
X11301243Y-14593742D01*
X11273677Y-14593624D01*
X11249616Y-14593476D01*
X11229602Y-14593298D01*
X11214174Y-14593088D01*
X11204233Y-14592858D01*
X11167131Y-14591575D01*
X11125678Y-14590020D01*
X11081157Y-14588246D01*
X11034853Y-14586307D01*
X10988050Y-14584257D01*
X10942030Y-14582148D01*
X10907900Y-14580516D01*
X10858548Y-14578036D01*
X10814553Y-14575660D01*
X10775630Y-14573358D01*
X10741492Y-14571101D01*
X10711854Y-14568860D01*
X10686430Y-14566606D01*
X10664934Y-14564308D01*
X10647080Y-14561939D01*
X10632583Y-14559469D01*
X10621157Y-14556868D01*
X10612516Y-14554106D01*
X10606375Y-14551156D01*
X10603838Y-14549340D01*
X10597456Y-14543912D01*
X10605922Y-14536723D01*
X10611296Y-14532268D01*
X10616668Y-14528146D01*
X10622383Y-14524238D01*
X10628791Y-14520424D01*
X10636240Y-14516583D01*
X10645076Y-14512596D01*
X10655648Y-14508342D01*
X10668303Y-14503702D01*
X10683389Y-14498556D01*
X10701254Y-14492782D01*
X10722245Y-14486262D01*
X10746711Y-14478874D01*
X10774999Y-14470500D01*
X10807457Y-14461019D01*
X10844432Y-14450310D01*
X10886273Y-14438255D01*
X10914956Y-14430009D01*
X10979428Y-14411369D01*
X11038590Y-14394016D01*
X11092612Y-14377891D01*
X11141665Y-14362931D01*
X11185919Y-14349076D01*
X11225544Y-14336266D01*
X11260711Y-14324439D01*
X11291591Y-14313534D01*
X11318354Y-14303492D01*
X11341170Y-14294250D01*
X11360211Y-14285749D01*
X11375646Y-14277926D01*
X11387646Y-14270722D01*
X11396382Y-14264076D01*
X11402024Y-14257927D01*
X11403358Y-14255772D01*
X11404550Y-14249258D01*
X11400523Y-14243479D01*
X11391068Y-14238143D01*
X11390591Y-14237942D01*
X11379236Y-14234049D01*
X11363047Y-14229721D01*
X11342804Y-14225103D01*
X11319288Y-14220342D01*
X11293280Y-14215586D01*
X11265559Y-14210981D01*
X11236906Y-14206673D01*
X11208102Y-14202810D01*
X11195767Y-14201311D01*
X11168054Y-14198234D01*
X11135374Y-14194916D01*
X11098396Y-14191408D01*
X11057791Y-14187763D01*
X11014228Y-14184035D01*
X10968376Y-14180274D01*
X10920906Y-14176534D01*
X10872486Y-14172868D01*
X10823787Y-14169327D01*
X10775479Y-14165966D01*
X10728230Y-14162835D01*
X10682711Y-14159987D01*
X10639592Y-14157476D01*
X10631322Y-14157019D01*
X10613125Y-14155941D01*
X10596825Y-14154820D01*
X10583267Y-14153725D01*
X10573295Y-14152728D01*
X10567753Y-14151899D01*
X10566942Y-14151612D01*
X10567844Y-14149097D01*
X10572435Y-14144480D01*
X10579313Y-14139069D01*
X10593975Y-14128535D01*
X10645104Y-14133084D01*
D13*
X15346429Y-14642857D02*
X15360714Y-14647619D01*
X15365476Y-14652381D01*
X15370238Y-14661905D01*
X15370238Y-14676190D01*
X15365476Y-14685714D01*
X15360714Y-14690476D01*
X15351190Y-14695238D01*
X15313095Y-14695238D01*
X15313095Y-14595238D01*
X15346429Y-14595238D01*
X15355952Y-14600000D01*
X15360714Y-14604762D01*
X15365476Y-14614286D01*
X15365476Y-14623809D01*
X15360714Y-14633333D01*
X15355952Y-14638095D01*
X15346429Y-14642857D01*
X15313095Y-14642857D01*
X15398809Y-14595238D02*
X15455952Y-14595238D01*
X15427381Y-14695238D02*
X15427381Y-14595238D01*
X15541667Y-14695238D02*
X15484524Y-14695238D01*
X15513095Y-14695238D02*
X15513095Y-14595238D01*
X15503571Y-14609524D01*
X15494048Y-14619048D01*
X15484524Y-14623809D01*
X14967857Y-14210714D02*
X15082143Y-14210714D01*
X15025000Y-14267857D02*
X15025000Y-14153571D01*
X11558333Y-10985714D02*
X11553571Y-10990476D01*
X11539286Y-10995238D01*
X11529762Y-10995238D01*
X11515476Y-10990476D01*
X11505952Y-10980952D01*
X11501190Y-10971429D01*
X11496429Y-10952381D01*
X11496429Y-10938095D01*
X11501190Y-10919048D01*
X11505952Y-10909524D01*
X11515476Y-10900000D01*
X11529762Y-10895238D01*
X11539286Y-10895238D01*
X11553571Y-10900000D01*
X11558333Y-10904762D01*
X11653571Y-10995238D02*
X11596429Y-10995238D01*
X11625000Y-10995238D02*
X11625000Y-10895238D01*
X11615476Y-10909524D01*
X11605952Y-10919048D01*
X11596429Y-10923810D01*
X14033333Y-7785714D02*
X14028571Y-7790476D01*
X14014286Y-7795238D01*
X14004762Y-7795238D01*
X13990476Y-7790476D01*
X13980952Y-7780952D01*
X13976190Y-7771429D01*
X13971429Y-7752381D01*
X13971429Y-7738095D01*
X13976190Y-7719048D01*
X13980952Y-7709524D01*
X13990476Y-7700000D01*
X14004762Y-7695238D01*
X14014286Y-7695238D01*
X14028571Y-7700000D01*
X14033333Y-7704762D01*
X14071429Y-7704762D02*
X14076190Y-7700000D01*
X14085714Y-7695238D01*
X14109524Y-7695238D01*
X14119048Y-7700000D01*
X14123810Y-7704762D01*
X14128571Y-7714286D01*
X14128571Y-7723809D01*
X14123810Y-7738095D01*
X14066667Y-7795238D01*
X14128571Y-7795238D01*
X11908333Y-11435714D02*
X11903571Y-11440476D01*
X11889286Y-11445238D01*
X11879762Y-11445238D01*
X11865476Y-11440476D01*
X11855952Y-11430952D01*
X11851190Y-11421429D01*
X11846429Y-11402381D01*
X11846429Y-11388095D01*
X11851190Y-11369048D01*
X11855952Y-11359524D01*
X11865476Y-11350000D01*
X11879762Y-11345238D01*
X11889286Y-11345238D01*
X11903571Y-11350000D01*
X11908333Y-11354762D01*
X11941667Y-11345238D02*
X12003571Y-11345238D01*
X11970238Y-11383333D01*
X11984524Y-11383333D01*
X11994048Y-11388095D01*
X11998810Y-11392857D01*
X12003571Y-11402381D01*
X12003571Y-11426190D01*
X11998810Y-11435714D01*
X11994048Y-11440476D01*
X11984524Y-11445238D01*
X11955952Y-11445238D01*
X11946429Y-11440476D01*
X11941667Y-11435714D01*
X11758333Y-10760714D02*
X11753571Y-10765476D01*
X11739286Y-10770238D01*
X11729762Y-10770238D01*
X11715476Y-10765476D01*
X11705952Y-10755952D01*
X11701190Y-10746429D01*
X11696429Y-10727381D01*
X11696429Y-10713095D01*
X11701190Y-10694048D01*
X11705952Y-10684524D01*
X11715476Y-10675000D01*
X11729762Y-10670238D01*
X11739286Y-10670238D01*
X11753571Y-10675000D01*
X11758333Y-10679762D01*
X11844048Y-10703571D02*
X11844048Y-10770238D01*
X11820238Y-10665476D02*
X11796429Y-10736905D01*
X11858333Y-10736905D01*
X12458333Y-11735714D02*
X12453571Y-11740476D01*
X12439286Y-11745238D01*
X12429762Y-11745238D01*
X12415476Y-11740476D01*
X12405952Y-11730952D01*
X12401190Y-11721429D01*
X12396429Y-11702381D01*
X12396429Y-11688095D01*
X12401190Y-11669048D01*
X12405952Y-11659524D01*
X12415476Y-11650000D01*
X12429762Y-11645238D01*
X12439286Y-11645238D01*
X12453571Y-11650000D01*
X12458333Y-11654762D01*
X12548810Y-11645238D02*
X12501190Y-11645238D01*
X12496429Y-11692857D01*
X12501190Y-11688095D01*
X12510714Y-11683333D01*
X12534524Y-11683333D01*
X12544048Y-11688095D01*
X12548810Y-11692857D01*
X12553571Y-11702381D01*
X12553571Y-11726190D01*
X12548810Y-11735714D01*
X12544048Y-11740476D01*
X12534524Y-11745238D01*
X12510714Y-11745238D01*
X12501190Y-11740476D01*
X12496429Y-11735714D01*
X13458333Y-11710714D02*
X13453571Y-11715476D01*
X13439286Y-11720238D01*
X13429762Y-11720238D01*
X13415476Y-11715476D01*
X13405952Y-11705952D01*
X13401190Y-11696429D01*
X13396429Y-11677381D01*
X13396429Y-11663095D01*
X13401190Y-11644048D01*
X13405952Y-11634524D01*
X13415476Y-11625000D01*
X13429762Y-11620238D01*
X13439286Y-11620238D01*
X13453571Y-11625000D01*
X13458333Y-11629762D01*
X13544048Y-11620238D02*
X13525000Y-11620238D01*
X13515476Y-11625000D01*
X13510714Y-11629762D01*
X13501190Y-11644048D01*
X13496429Y-11663095D01*
X13496429Y-11701190D01*
X13501190Y-11710714D01*
X13505952Y-11715476D01*
X13515476Y-11720238D01*
X13534524Y-11720238D01*
X13544048Y-11715476D01*
X13548810Y-11710714D01*
X13553571Y-11701190D01*
X13553571Y-11677381D01*
X13548810Y-11667857D01*
X13544048Y-11663095D01*
X13534524Y-11658333D01*
X13515476Y-11658333D01*
X13505952Y-11663095D01*
X13501190Y-11667857D01*
X13496429Y-11677381D01*
X13758333Y-11335714D02*
X13753571Y-11340476D01*
X13739286Y-11345238D01*
X13729762Y-11345238D01*
X13715476Y-11340476D01*
X13705952Y-11330952D01*
X13701190Y-11321429D01*
X13696429Y-11302381D01*
X13696429Y-11288095D01*
X13701190Y-11269048D01*
X13705952Y-11259524D01*
X13715476Y-11250000D01*
X13729762Y-11245238D01*
X13739286Y-11245238D01*
X13753571Y-11250000D01*
X13758333Y-11254762D01*
X13791667Y-11245238D02*
X13858333Y-11245238D01*
X13815476Y-11345238D01*
X13858333Y-11060714D02*
X13853571Y-11065476D01*
X13839286Y-11070238D01*
X13829762Y-11070238D01*
X13815476Y-11065476D01*
X13805952Y-11055952D01*
X13801190Y-11046429D01*
X13796429Y-11027381D01*
X13796429Y-11013095D01*
X13801190Y-10994048D01*
X13805952Y-10984524D01*
X13815476Y-10975000D01*
X13829762Y-10970238D01*
X13839286Y-10970238D01*
X13853571Y-10975000D01*
X13858333Y-10979762D01*
X13915476Y-11013095D02*
X13905952Y-11008333D01*
X13901190Y-11003571D01*
X13896429Y-10994048D01*
X13896429Y-10989286D01*
X13901190Y-10979762D01*
X13905952Y-10975000D01*
X13915476Y-10970238D01*
X13934524Y-10970238D01*
X13944048Y-10975000D01*
X13948810Y-10979762D01*
X13953571Y-10989286D01*
X13953571Y-10994048D01*
X13948810Y-11003571D01*
X13944048Y-11008333D01*
X13934524Y-11013095D01*
X13915476Y-11013095D01*
X13905952Y-11017857D01*
X13901190Y-11022619D01*
X13896429Y-11032143D01*
X13896429Y-11051191D01*
X13901190Y-11060714D01*
X13905952Y-11065476D01*
X13915476Y-11070238D01*
X13934524Y-11070238D01*
X13944048Y-11065476D01*
X13948810Y-11060714D01*
X13953571Y-11051191D01*
X13953571Y-11032143D01*
X13948810Y-11022619D01*
X13944048Y-11017857D01*
X13934524Y-11013095D01*
X12658333Y-12110714D02*
X12653571Y-12115476D01*
X12639286Y-12120238D01*
X12629762Y-12120238D01*
X12615476Y-12115476D01*
X12605952Y-12105952D01*
X12601190Y-12096429D01*
X12596429Y-12077381D01*
X12596429Y-12063095D01*
X12601190Y-12044048D01*
X12605952Y-12034524D01*
X12615476Y-12025000D01*
X12629762Y-12020238D01*
X12639286Y-12020238D01*
X12653571Y-12025000D01*
X12658333Y-12029762D01*
X12705952Y-12120238D02*
X12725000Y-12120238D01*
X12734524Y-12115476D01*
X12739286Y-12110714D01*
X12748810Y-12096429D01*
X12753571Y-12077381D01*
X12753571Y-12039286D01*
X12748810Y-12029762D01*
X12744048Y-12025000D01*
X12734524Y-12020238D01*
X12715476Y-12020238D01*
X12705952Y-12025000D01*
X12701190Y-12029762D01*
X12696429Y-12039286D01*
X12696429Y-12063095D01*
X12701190Y-12072619D01*
X12705952Y-12077381D01*
X12715476Y-12082143D01*
X12734524Y-12082143D01*
X12744048Y-12077381D01*
X12748810Y-12072619D01*
X12753571Y-12063095D01*
X12785714Y-9910714D02*
X12780952Y-9915476D01*
X12766667Y-9920238D01*
X12757143Y-9920238D01*
X12742857Y-9915476D01*
X12733333Y-9905952D01*
X12728571Y-9896429D01*
X12723809Y-9877381D01*
X12723809Y-9863095D01*
X12728571Y-9844048D01*
X12733333Y-9834524D01*
X12742857Y-9825000D01*
X12757143Y-9820238D01*
X12766667Y-9820238D01*
X12780952Y-9825000D01*
X12785714Y-9829762D01*
X12880952Y-9920238D02*
X12823809Y-9920238D01*
X12852381Y-9920238D02*
X12852381Y-9820238D01*
X12842857Y-9834524D01*
X12833333Y-9844048D01*
X12823809Y-9848810D01*
X12942857Y-9820238D02*
X12952381Y-9820238D01*
X12961905Y-9825000D01*
X12966667Y-9829762D01*
X12971429Y-9839286D01*
X12976190Y-9858333D01*
X12976190Y-9882143D01*
X12971429Y-9901191D01*
X12966667Y-9910714D01*
X12961905Y-9915476D01*
X12952381Y-9920238D01*
X12942857Y-9920238D01*
X12933333Y-9915476D01*
X12928571Y-9910714D01*
X12923809Y-9901191D01*
X12919048Y-9882143D01*
X12919048Y-9858333D01*
X12923809Y-9839286D01*
X12928571Y-9829762D01*
X12933333Y-9825000D01*
X12942857Y-9820238D01*
X13235714Y-12085714D02*
X13230952Y-12090476D01*
X13216667Y-12095238D01*
X13207143Y-12095238D01*
X13192857Y-12090476D01*
X13183333Y-12080952D01*
X13178571Y-12071429D01*
X13173809Y-12052381D01*
X13173809Y-12038095D01*
X13178571Y-12019048D01*
X13183333Y-12009524D01*
X13192857Y-12000000D01*
X13207143Y-11995238D01*
X13216667Y-11995238D01*
X13230952Y-12000000D01*
X13235714Y-12004762D01*
X13330952Y-12095238D02*
X13273809Y-12095238D01*
X13302381Y-12095238D02*
X13302381Y-11995238D01*
X13292857Y-12009524D01*
X13283333Y-12019048D01*
X13273809Y-12023809D01*
X13426190Y-12095238D02*
X13369048Y-12095238D01*
X13397619Y-12095238D02*
X13397619Y-11995238D01*
X13388095Y-12009524D01*
X13378571Y-12019048D01*
X13369048Y-12023809D01*
X13610714Y-11810714D02*
X13605952Y-11815476D01*
X13591667Y-11820238D01*
X13582143Y-11820238D01*
X13567857Y-11815476D01*
X13558333Y-11805952D01*
X13553571Y-11796429D01*
X13548809Y-11777381D01*
X13548809Y-11763095D01*
X13553571Y-11744048D01*
X13558333Y-11734524D01*
X13567857Y-11725000D01*
X13582143Y-11720238D01*
X13591667Y-11720238D01*
X13605952Y-11725000D01*
X13610714Y-11729762D01*
X13705952Y-11820238D02*
X13648809Y-11820238D01*
X13677381Y-11820238D02*
X13677381Y-11720238D01*
X13667857Y-11734524D01*
X13658333Y-11744048D01*
X13648809Y-11748809D01*
X13744048Y-11729762D02*
X13748809Y-11725000D01*
X13758333Y-11720238D01*
X13782143Y-11720238D01*
X13791667Y-11725000D01*
X13796429Y-11729762D01*
X13801190Y-11739286D01*
X13801190Y-11748809D01*
X13796429Y-11763095D01*
X13739286Y-11820238D01*
X13801190Y-11820238D01*
X13835714Y-10860714D02*
X13830952Y-10865476D01*
X13816667Y-10870238D01*
X13807143Y-10870238D01*
X13792857Y-10865476D01*
X13783333Y-10855952D01*
X13778571Y-10846429D01*
X13773809Y-10827381D01*
X13773809Y-10813095D01*
X13778571Y-10794048D01*
X13783333Y-10784524D01*
X13792857Y-10775000D01*
X13807143Y-10770238D01*
X13816667Y-10770238D01*
X13830952Y-10775000D01*
X13835714Y-10779762D01*
X13930952Y-10870238D02*
X13873809Y-10870238D01*
X13902381Y-10870238D02*
X13902381Y-10770238D01*
X13892857Y-10784524D01*
X13883333Y-10794048D01*
X13873809Y-10798810D01*
X13964286Y-10770238D02*
X14026190Y-10770238D01*
X13992857Y-10808333D01*
X14007143Y-10808333D01*
X14016667Y-10813095D01*
X14021429Y-10817857D01*
X14026190Y-10827381D01*
X14026190Y-10851191D01*
X14021429Y-10860714D01*
X14016667Y-10865476D01*
X14007143Y-10870238D01*
X13978571Y-10870238D01*
X13969048Y-10865476D01*
X13964286Y-10860714D01*
X12335714Y-8939286D02*
X12340476Y-8944048D01*
X12345238Y-8958333D01*
X12345238Y-8967857D01*
X12340476Y-8982143D01*
X12330952Y-8991667D01*
X12321429Y-8996429D01*
X12302381Y-9001191D01*
X12288095Y-9001191D01*
X12269048Y-8996429D01*
X12259524Y-8991667D01*
X12250000Y-8982143D01*
X12245238Y-8967857D01*
X12245238Y-8958333D01*
X12250000Y-8944048D01*
X12254762Y-8939286D01*
X12345238Y-8844048D02*
X12345238Y-8901191D01*
X12345238Y-8872619D02*
X12245238Y-8872619D01*
X12259524Y-8882143D01*
X12269048Y-8891667D01*
X12273809Y-8901191D01*
X12278571Y-8758333D02*
X12345238Y-8758333D01*
X12240476Y-8782143D02*
X12311905Y-8805952D01*
X12311905Y-8744048D01*
X16610714Y-9914286D02*
X16615476Y-9919048D01*
X16620238Y-9933333D01*
X16620238Y-9942857D01*
X16615476Y-9957143D01*
X16605952Y-9966667D01*
X16596429Y-9971429D01*
X16577381Y-9976191D01*
X16563095Y-9976191D01*
X16544048Y-9971429D01*
X16534524Y-9966667D01*
X16525000Y-9957143D01*
X16520238Y-9942857D01*
X16520238Y-9933333D01*
X16525000Y-9919048D01*
X16529762Y-9914286D01*
X16620238Y-9819048D02*
X16620238Y-9876191D01*
X16620238Y-9847619D02*
X16520238Y-9847619D01*
X16534524Y-9857143D01*
X16544048Y-9866667D01*
X16548809Y-9876191D01*
X16520238Y-9728571D02*
X16520238Y-9776191D01*
X16567857Y-9780952D01*
X16563095Y-9776191D01*
X16558333Y-9766667D01*
X16558333Y-9742857D01*
X16563095Y-9733333D01*
X16567857Y-9728571D01*
X16577381Y-9723810D01*
X16601190Y-9723810D01*
X16610714Y-9728571D01*
X16615476Y-9733333D01*
X16620238Y-9742857D01*
X16620238Y-9766667D01*
X16615476Y-9776191D01*
X16610714Y-9780952D01*
X18735714Y-9710714D02*
X18730952Y-9715476D01*
X18716667Y-9720238D01*
X18707143Y-9720238D01*
X18692857Y-9715476D01*
X18683333Y-9705952D01*
X18678571Y-9696429D01*
X18673810Y-9677381D01*
X18673810Y-9663095D01*
X18678571Y-9644048D01*
X18683333Y-9634524D01*
X18692857Y-9625000D01*
X18707143Y-9620238D01*
X18716667Y-9620238D01*
X18730952Y-9625000D01*
X18735714Y-9629762D01*
X18830952Y-9720238D02*
X18773810Y-9720238D01*
X18802381Y-9720238D02*
X18802381Y-9620238D01*
X18792857Y-9634524D01*
X18783333Y-9644048D01*
X18773810Y-9648810D01*
X18916667Y-9620238D02*
X18897619Y-9620238D01*
X18888095Y-9625000D01*
X18883333Y-9629762D01*
X18873810Y-9644048D01*
X18869048Y-9663095D01*
X18869048Y-9701191D01*
X18873810Y-9710714D01*
X18878571Y-9715476D01*
X18888095Y-9720238D01*
X18907143Y-9720238D01*
X18916667Y-9715476D01*
X18921429Y-9710714D01*
X18926191Y-9701191D01*
X18926191Y-9677381D01*
X18921429Y-9667857D01*
X18916667Y-9663095D01*
X18907143Y-9658333D01*
X18888095Y-9658333D01*
X18878571Y-9663095D01*
X18873810Y-9667857D01*
X18869048Y-9677381D01*
X16910714Y-10260714D02*
X16905952Y-10265476D01*
X16891667Y-10270238D01*
X16882143Y-10270238D01*
X16867857Y-10265476D01*
X16858333Y-10255952D01*
X16853571Y-10246429D01*
X16848810Y-10227381D01*
X16848810Y-10213095D01*
X16853571Y-10194048D01*
X16858333Y-10184524D01*
X16867857Y-10175000D01*
X16882143Y-10170238D01*
X16891667Y-10170238D01*
X16905952Y-10175000D01*
X16910714Y-10179762D01*
X17005952Y-10270238D02*
X16948810Y-10270238D01*
X16977381Y-10270238D02*
X16977381Y-10170238D01*
X16967857Y-10184524D01*
X16958333Y-10194048D01*
X16948810Y-10198810D01*
X17039286Y-10170238D02*
X17105952Y-10170238D01*
X17063095Y-10270238D01*
X17985714Y-9964286D02*
X17990476Y-9969048D01*
X17995238Y-9983333D01*
X17995238Y-9992857D01*
X17990476Y-10007143D01*
X17980952Y-10016667D01*
X17971429Y-10021429D01*
X17952381Y-10026191D01*
X17938095Y-10026191D01*
X17919048Y-10021429D01*
X17909524Y-10016667D01*
X17900000Y-10007143D01*
X17895238Y-9992857D01*
X17895238Y-9983333D01*
X17900000Y-9969048D01*
X17904762Y-9964286D01*
X17995238Y-9869048D02*
X17995238Y-9926191D01*
X17995238Y-9897619D02*
X17895238Y-9897619D01*
X17909524Y-9907143D01*
X17919048Y-9916667D01*
X17923810Y-9926191D01*
X17938095Y-9811905D02*
X17933333Y-9821429D01*
X17928571Y-9826191D01*
X17919048Y-9830952D01*
X17914286Y-9830952D01*
X17904762Y-9826191D01*
X17900000Y-9821429D01*
X17895238Y-9811905D01*
X17895238Y-9792857D01*
X17900000Y-9783333D01*
X17904762Y-9778571D01*
X17914286Y-9773810D01*
X17919048Y-9773810D01*
X17928571Y-9778571D01*
X17933333Y-9783333D01*
X17938095Y-9792857D01*
X17938095Y-9811905D01*
X17942857Y-9821429D01*
X17947619Y-9826191D01*
X17957143Y-9830952D01*
X17976191Y-9830952D01*
X17985714Y-9826191D01*
X17990476Y-9821429D01*
X17995238Y-9811905D01*
X17995238Y-9792857D01*
X17990476Y-9783333D01*
X17985714Y-9778571D01*
X17976191Y-9773810D01*
X17957143Y-9773810D01*
X17947619Y-9778571D01*
X17942857Y-9783333D01*
X17938095Y-9792857D01*
X17545238Y-7448809D02*
X17445238Y-7448809D01*
X17445238Y-7425000D01*
X17450000Y-7410714D01*
X17459524Y-7401190D01*
X17469048Y-7396428D01*
X17488095Y-7391667D01*
X17502381Y-7391667D01*
X17521429Y-7396428D01*
X17530952Y-7401190D01*
X17540476Y-7410714D01*
X17545238Y-7425000D01*
X17545238Y-7448809D01*
X17545238Y-7296428D02*
X17545238Y-7353571D01*
X17545238Y-7325000D02*
X17445238Y-7325000D01*
X17459524Y-7334524D01*
X17469048Y-7344048D01*
X17473810Y-7353571D01*
X18045238Y-7448809D02*
X17945238Y-7448809D01*
X17945238Y-7425000D01*
X17950000Y-7410714D01*
X17959524Y-7401190D01*
X17969048Y-7396428D01*
X17988095Y-7391667D01*
X18002381Y-7391667D01*
X18021429Y-7396428D01*
X18030952Y-7401190D01*
X18040476Y-7410714D01*
X18045238Y-7425000D01*
X18045238Y-7448809D01*
X17954762Y-7353571D02*
X17950000Y-7348809D01*
X17945238Y-7339286D01*
X17945238Y-7315476D01*
X17950000Y-7305952D01*
X17954762Y-7301190D01*
X17964286Y-7296428D01*
X17973810Y-7296428D01*
X17988095Y-7301190D01*
X18045238Y-7358333D01*
X18045238Y-7296428D01*
X18545238Y-7448809D02*
X18445238Y-7448809D01*
X18445238Y-7425000D01*
X18450000Y-7410714D01*
X18459524Y-7401190D01*
X18469048Y-7396428D01*
X18488095Y-7391667D01*
X18502381Y-7391667D01*
X18521429Y-7396428D01*
X18530952Y-7401190D01*
X18540476Y-7410714D01*
X18545238Y-7425000D01*
X18545238Y-7448809D01*
X18445238Y-7358333D02*
X18445238Y-7296428D01*
X18483333Y-7329762D01*
X18483333Y-7315476D01*
X18488095Y-7305952D01*
X18492857Y-7301190D01*
X18502381Y-7296428D01*
X18526191Y-7296428D01*
X18535714Y-7301190D01*
X18540476Y-7305952D01*
X18545238Y-7315476D01*
X18545238Y-7344048D01*
X18540476Y-7353571D01*
X18535714Y-7358333D01*
X19045238Y-7443809D02*
X18945238Y-7443809D01*
X18945238Y-7420000D01*
X18950000Y-7405714D01*
X18959524Y-7396190D01*
X18969048Y-7391428D01*
X18988095Y-7386667D01*
X19002381Y-7386667D01*
X19021429Y-7391428D01*
X19030952Y-7396190D01*
X19040476Y-7405714D01*
X19045238Y-7420000D01*
X19045238Y-7443809D01*
X18978571Y-7300952D02*
X19045238Y-7300952D01*
X18940476Y-7324762D02*
X19011905Y-7348571D01*
X19011905Y-7286667D01*
X19095238Y-9978810D02*
X18995238Y-9978810D01*
X18995238Y-9955000D01*
X19000000Y-9940714D01*
X19009524Y-9931190D01*
X19019048Y-9926429D01*
X19038095Y-9921667D01*
X19052381Y-9921667D01*
X19071429Y-9926429D01*
X19080952Y-9931190D01*
X19090476Y-9940714D01*
X19095238Y-9955000D01*
X19095238Y-9978810D01*
X18995238Y-9831190D02*
X18995238Y-9878810D01*
X19042857Y-9883571D01*
X19038095Y-9878810D01*
X19033333Y-9869286D01*
X19033333Y-9845476D01*
X19038095Y-9835952D01*
X19042857Y-9831190D01*
X19052381Y-9826429D01*
X19076191Y-9826429D01*
X19085714Y-9831190D01*
X19090476Y-9835952D01*
X19095238Y-9845476D01*
X19095238Y-9869286D01*
X19090476Y-9878810D01*
X19085714Y-9883571D01*
X15121067Y-10820238D02*
X15121067Y-10891667D01*
X15116305Y-10905952D01*
X15106781Y-10915476D01*
X15092495Y-10920238D01*
X15082971Y-10920238D01*
X15221067Y-10920238D02*
X15163924Y-10920238D01*
X15192495Y-10920238D02*
X15192495Y-10820238D01*
X15182971Y-10834524D01*
X15173448Y-10844048D01*
X15163924Y-10848810D01*
X14373238Y-9533333D02*
X14444667Y-9533333D01*
X14458952Y-9538095D01*
X14468476Y-9547619D01*
X14473238Y-9561905D01*
X14473238Y-9571429D01*
X14382762Y-9490476D02*
X14378000Y-9485714D01*
X14373238Y-9476191D01*
X14373238Y-9452381D01*
X14378000Y-9442857D01*
X14382762Y-9438095D01*
X14392286Y-9433333D01*
X14401809Y-9433333D01*
X14416095Y-9438095D01*
X14473238Y-9495238D01*
X14473238Y-9433333D01*
X17341667Y-8813238D02*
X17341667Y-8884667D01*
X17336905Y-8898952D01*
X17327381Y-8908476D01*
X17313095Y-8913238D01*
X17303571Y-8913238D01*
X17379762Y-8813238D02*
X17441667Y-8813238D01*
X17408333Y-8851333D01*
X17422619Y-8851333D01*
X17432143Y-8856095D01*
X17436905Y-8860857D01*
X17441667Y-8870381D01*
X17441667Y-8894191D01*
X17436905Y-8903714D01*
X17432143Y-8908476D01*
X17422619Y-8913238D01*
X17394048Y-8913238D01*
X17384524Y-8908476D01*
X17379762Y-8903714D01*
X17841667Y-8813238D02*
X17841667Y-8884667D01*
X17836905Y-8898952D01*
X17827381Y-8908476D01*
X17813095Y-8913238D01*
X17803571Y-8913238D01*
X17932143Y-8846571D02*
X17932143Y-8913238D01*
X17908333Y-8808476D02*
X17884524Y-8879905D01*
X17946429Y-8879905D01*
X18341667Y-8813238D02*
X18341667Y-8884667D01*
X18336905Y-8898952D01*
X18327381Y-8908476D01*
X18313095Y-8913238D01*
X18303571Y-8913238D01*
X18436905Y-8813238D02*
X18389286Y-8813238D01*
X18384524Y-8860857D01*
X18389286Y-8856095D01*
X18398810Y-8851333D01*
X18422619Y-8851333D01*
X18432143Y-8856095D01*
X18436905Y-8860857D01*
X18441667Y-8870381D01*
X18441667Y-8894191D01*
X18436905Y-8903714D01*
X18432143Y-8908476D01*
X18422619Y-8913238D01*
X18398810Y-8913238D01*
X18389286Y-8908476D01*
X18384524Y-8903714D01*
X18841667Y-8813238D02*
X18841667Y-8884667D01*
X18836905Y-8898952D01*
X18827381Y-8908476D01*
X18813095Y-8913238D01*
X18803571Y-8913238D01*
X18932143Y-8813238D02*
X18913095Y-8813238D01*
X18903571Y-8818000D01*
X18898810Y-8822762D01*
X18889286Y-8837048D01*
X18884524Y-8856095D01*
X18884524Y-8894191D01*
X18889286Y-8903714D01*
X18894048Y-8908476D01*
X18903571Y-8913238D01*
X18922619Y-8913238D01*
X18932143Y-8908476D01*
X18936905Y-8903714D01*
X18941667Y-8894191D01*
X18941667Y-8870381D01*
X18936905Y-8860857D01*
X18932143Y-8856095D01*
X18922619Y-8851333D01*
X18903571Y-8851333D01*
X18894048Y-8856095D01*
X18889286Y-8860857D01*
X18884524Y-8870381D01*
X10591667Y-7077238D02*
X10591667Y-7148667D01*
X10586905Y-7162952D01*
X10577381Y-7172476D01*
X10563095Y-7177238D01*
X10553571Y-7177238D01*
X10629762Y-7077238D02*
X10696429Y-7077238D01*
X10653571Y-7177238D01*
X10593667Y-11573238D02*
X10593667Y-11644667D01*
X10588905Y-11658952D01*
X10579381Y-11668476D01*
X10565095Y-11673238D01*
X10555571Y-11673238D01*
X10655571Y-11616095D02*
X10646048Y-11611333D01*
X10641286Y-11606571D01*
X10636524Y-11597048D01*
X10636524Y-11592286D01*
X10641286Y-11582762D01*
X10646048Y-11578000D01*
X10655571Y-11573238D01*
X10674619Y-11573238D01*
X10684143Y-11578000D01*
X10688905Y-11582762D01*
X10693667Y-11592286D01*
X10693667Y-11597048D01*
X10688905Y-11606571D01*
X10684143Y-11611333D01*
X10674619Y-11616095D01*
X10655571Y-11616095D01*
X10646048Y-11620857D01*
X10641286Y-11625619D01*
X10636524Y-11635143D01*
X10636524Y-11654190D01*
X10641286Y-11663714D01*
X10646048Y-11668476D01*
X10655571Y-11673238D01*
X10674619Y-11673238D01*
X10684143Y-11668476D01*
X10688905Y-11663714D01*
X10693667Y-11654190D01*
X10693667Y-11635143D01*
X10688905Y-11625619D01*
X10684143Y-11620857D01*
X10674619Y-11616095D01*
X10600167Y-10346738D02*
X10600167Y-10418167D01*
X10595405Y-10432452D01*
X10585881Y-10441976D01*
X10571595Y-10446738D01*
X10562071Y-10446738D01*
X10652548Y-10446738D02*
X10671595Y-10446738D01*
X10681119Y-10441976D01*
X10685881Y-10437214D01*
X10695405Y-10422929D01*
X10700167Y-10403881D01*
X10700167Y-10365786D01*
X10695405Y-10356262D01*
X10690643Y-10351500D01*
X10681119Y-10346738D01*
X10662071Y-10346738D01*
X10652548Y-10351500D01*
X10647786Y-10356262D01*
X10643024Y-10365786D01*
X10643024Y-10389595D01*
X10647786Y-10399119D01*
X10652548Y-10403881D01*
X10662071Y-10408643D01*
X10681119Y-10408643D01*
X10690643Y-10403881D01*
X10695405Y-10399119D01*
X10700167Y-10389595D01*
X15403248Y-12270238D02*
X15403248Y-12341667D01*
X15398486Y-12355952D01*
X15388962Y-12365476D01*
X15374676Y-12370238D01*
X15365152Y-12370238D01*
X15503248Y-12370238D02*
X15446105Y-12370238D01*
X15474676Y-12370238D02*
X15474676Y-12270238D01*
X15465152Y-12284524D01*
X15455629Y-12294048D01*
X15446105Y-12298809D01*
X15565152Y-12270238D02*
X15574676Y-12270238D01*
X15584200Y-12275000D01*
X15588962Y-12279762D01*
X15593724Y-12289286D01*
X15598486Y-12308333D01*
X15598486Y-12332143D01*
X15593724Y-12351190D01*
X15588962Y-12360714D01*
X15584200Y-12365476D01*
X15574676Y-12370238D01*
X15565152Y-12370238D01*
X15555629Y-12365476D01*
X15550867Y-12360714D01*
X15546105Y-12351190D01*
X15541343Y-12332143D01*
X15541343Y-12308333D01*
X15546105Y-12289286D01*
X15550867Y-12279762D01*
X15555629Y-12275000D01*
X15565152Y-12270238D01*
X10519048Y-8827238D02*
X10519048Y-8898667D01*
X10514286Y-8912952D01*
X10504762Y-8922476D01*
X10490476Y-8927238D01*
X10480952Y-8927238D01*
X10619048Y-8927238D02*
X10561905Y-8927238D01*
X10590476Y-8927238D02*
X10590476Y-8827238D01*
X10580952Y-8841524D01*
X10571429Y-8851048D01*
X10561905Y-8855810D01*
X10714286Y-8927238D02*
X10657143Y-8927238D01*
X10685714Y-8927238D02*
X10685714Y-8827238D01*
X10676191Y-8841524D01*
X10666667Y-8851048D01*
X10657143Y-8855810D01*
X17249248Y-10470238D02*
X17249248Y-10541667D01*
X17244486Y-10555952D01*
X17234962Y-10565476D01*
X17220676Y-10570238D01*
X17211152Y-10570238D01*
X17349248Y-10570238D02*
X17292105Y-10570238D01*
X17320676Y-10570238D02*
X17320676Y-10470238D01*
X17311152Y-10484524D01*
X17301629Y-10494048D01*
X17292105Y-10498810D01*
X17387343Y-10479762D02*
X17392105Y-10475000D01*
X17401629Y-10470238D01*
X17425438Y-10470238D01*
X17434962Y-10475000D01*
X17439724Y-10479762D01*
X17444486Y-10489286D01*
X17444486Y-10498810D01*
X17439724Y-10513095D01*
X17382581Y-10570238D01*
X17444486Y-10570238D01*
X17521248Y-13127838D02*
X17521248Y-13199267D01*
X17516486Y-13213552D01*
X17506962Y-13223076D01*
X17492676Y-13227838D01*
X17483152Y-13227838D01*
X17621248Y-13227838D02*
X17564105Y-13227838D01*
X17592676Y-13227838D02*
X17592676Y-13127838D01*
X17583152Y-13142124D01*
X17573629Y-13151648D01*
X17564105Y-13156409D01*
X17654581Y-13127838D02*
X17716486Y-13127838D01*
X17683152Y-13165933D01*
X17697438Y-13165933D01*
X17706962Y-13170695D01*
X17711724Y-13175457D01*
X17716486Y-13184981D01*
X17716486Y-13208790D01*
X17711724Y-13218314D01*
X17706962Y-13223076D01*
X17697438Y-13227838D01*
X17668867Y-13227838D01*
X17659343Y-13223076D01*
X17654581Y-13218314D01*
X16963238Y-11180752D02*
X17034667Y-11180752D01*
X17048952Y-11185514D01*
X17058476Y-11195038D01*
X17063238Y-11209324D01*
X17063238Y-11218848D01*
X17063238Y-11080752D02*
X17063238Y-11137895D01*
X17063238Y-11109324D02*
X16963238Y-11109324D01*
X16977524Y-11118848D01*
X16987048Y-11128371D01*
X16991810Y-11137895D01*
X16996571Y-10995038D02*
X17063238Y-10995038D01*
X16958476Y-11018848D02*
X17029905Y-11042657D01*
X17029905Y-10980752D01*
X17090238Y-14370752D02*
X17161667Y-14370752D01*
X17175952Y-14375514D01*
X17185476Y-14385038D01*
X17190238Y-14399324D01*
X17190238Y-14408848D01*
X17190238Y-14270752D02*
X17190238Y-14327895D01*
X17190238Y-14299324D02*
X17090238Y-14299324D01*
X17104524Y-14308848D01*
X17114048Y-14318371D01*
X17118810Y-14327895D01*
X17090238Y-14180276D02*
X17090238Y-14227895D01*
X17137857Y-14232657D01*
X17133095Y-14227895D01*
X17128333Y-14218371D01*
X17128333Y-14194562D01*
X17133095Y-14185038D01*
X17137857Y-14180276D01*
X17147381Y-14175514D01*
X17171191Y-14175514D01*
X17180714Y-14180276D01*
X17185476Y-14185038D01*
X17190238Y-14194562D01*
X17190238Y-14218371D01*
X17185476Y-14227895D01*
X17180714Y-14232657D01*
X19669048Y-14102238D02*
X19669048Y-14173667D01*
X19664286Y-14187952D01*
X19654762Y-14197476D01*
X19640476Y-14202238D01*
X19630952Y-14202238D01*
X19769048Y-14202238D02*
X19711905Y-14202238D01*
X19740476Y-14202238D02*
X19740476Y-14102238D01*
X19730952Y-14116524D01*
X19721429Y-14126048D01*
X19711905Y-14130809D01*
X19854762Y-14102238D02*
X19835714Y-14102238D01*
X19826191Y-14107000D01*
X19821429Y-14111762D01*
X19811905Y-14126048D01*
X19807143Y-14145095D01*
X19807143Y-14183190D01*
X19811905Y-14192714D01*
X19816667Y-14197476D01*
X19826191Y-14202238D01*
X19845238Y-14202238D01*
X19854762Y-14197476D01*
X19859524Y-14192714D01*
X19864286Y-14183190D01*
X19864286Y-14159381D01*
X19859524Y-14149857D01*
X19854762Y-14145095D01*
X19845238Y-14140333D01*
X19826191Y-14140333D01*
X19816667Y-14145095D01*
X19811905Y-14149857D01*
X19807143Y-14159381D01*
X17468438Y-11180752D02*
X17539867Y-11180752D01*
X17554152Y-11185514D01*
X17563676Y-11195038D01*
X17568438Y-11209324D01*
X17568438Y-11218848D01*
X17568438Y-11080752D02*
X17568438Y-11137895D01*
X17568438Y-11109324D02*
X17468438Y-11109324D01*
X17482724Y-11118848D01*
X17492248Y-11128371D01*
X17497010Y-11137895D01*
X17468438Y-11047419D02*
X17468438Y-10980752D01*
X17568438Y-11023610D01*
X17344238Y-14370752D02*
X17415667Y-14370752D01*
X17429952Y-14375514D01*
X17439476Y-14385038D01*
X17444238Y-14399324D01*
X17444238Y-14408848D01*
X17444238Y-14270752D02*
X17444238Y-14327895D01*
X17444238Y-14299324D02*
X17344238Y-14299324D01*
X17358524Y-14308848D01*
X17368048Y-14318371D01*
X17372810Y-14327895D01*
X17387095Y-14213609D02*
X17382333Y-14223133D01*
X17377571Y-14227895D01*
X17368048Y-14232657D01*
X17363286Y-14232657D01*
X17353762Y-14227895D01*
X17349000Y-14223133D01*
X17344238Y-14213609D01*
X17344238Y-14194562D01*
X17349000Y-14185038D01*
X17353762Y-14180276D01*
X17363286Y-14175514D01*
X17368048Y-14175514D01*
X17377571Y-14180276D01*
X17382333Y-14185038D01*
X17387095Y-14194562D01*
X17387095Y-14213609D01*
X17391857Y-14223133D01*
X17396619Y-14227895D01*
X17406143Y-14232657D01*
X17425191Y-14232657D01*
X17434714Y-14227895D01*
X17439476Y-14223133D01*
X17444238Y-14213609D01*
X17444238Y-14194562D01*
X17439476Y-14185038D01*
X17434714Y-14180276D01*
X17425191Y-14175514D01*
X17406143Y-14175514D01*
X17396619Y-14180276D01*
X17391857Y-14185038D01*
X17387095Y-14194562D01*
X19075238Y-13030952D02*
X19146667Y-13030952D01*
X19160952Y-13035714D01*
X19170476Y-13045238D01*
X19175238Y-13059524D01*
X19175238Y-13069048D01*
X19175238Y-12930952D02*
X19175238Y-12988095D01*
X19175238Y-12959524D02*
X19075238Y-12959524D01*
X19089524Y-12969048D01*
X19099048Y-12978571D01*
X19103810Y-12988095D01*
X19175238Y-12883333D02*
X19175238Y-12864286D01*
X19170476Y-12854762D01*
X19165714Y-12850000D01*
X19151429Y-12840476D01*
X19132381Y-12835714D01*
X19094286Y-12835714D01*
X19084762Y-12840476D01*
X19080000Y-12845238D01*
X19075238Y-12854762D01*
X19075238Y-12873809D01*
X19080000Y-12883333D01*
X19084762Y-12888095D01*
X19094286Y-12892857D01*
X19118095Y-12892857D01*
X19127619Y-12888095D01*
X19132381Y-12883333D01*
X19137143Y-12873809D01*
X19137143Y-12854762D01*
X19132381Y-12845238D01*
X19127619Y-12840476D01*
X19118095Y-12835714D01*
X17979238Y-11180752D02*
X18050667Y-11180752D01*
X18064952Y-11185514D01*
X18074476Y-11195038D01*
X18079238Y-11209324D01*
X18079238Y-11218848D01*
X17988762Y-11137895D02*
X17984000Y-11133133D01*
X17979238Y-11123610D01*
X17979238Y-11099800D01*
X17984000Y-11090276D01*
X17988762Y-11085514D01*
X17998286Y-11080752D01*
X18007810Y-11080752D01*
X18022095Y-11085514D01*
X18079238Y-11142657D01*
X18079238Y-11080752D01*
X17979238Y-11018848D02*
X17979238Y-11009324D01*
X17984000Y-10999800D01*
X17988762Y-10995038D01*
X17998286Y-10990276D01*
X18017333Y-10985514D01*
X18041143Y-10985514D01*
X18060191Y-10990276D01*
X18069714Y-10995038D01*
X18074476Y-10999800D01*
X18079238Y-11009324D01*
X18079238Y-11018848D01*
X18074476Y-11028371D01*
X18069714Y-11033133D01*
X18060191Y-11037895D01*
X18041143Y-11042657D01*
X18017333Y-11042657D01*
X17998286Y-11037895D01*
X17988762Y-11033133D01*
X17984000Y-11028371D01*
X17979238Y-11018848D01*
X17598238Y-14370752D02*
X17669667Y-14370752D01*
X17683952Y-14375514D01*
X17693476Y-14385038D01*
X17698238Y-14399324D01*
X17698238Y-14408848D01*
X17607762Y-14327895D02*
X17603000Y-14323133D01*
X17598238Y-14313609D01*
X17598238Y-14289800D01*
X17603000Y-14280276D01*
X17607762Y-14275514D01*
X17617286Y-14270752D01*
X17626810Y-14270752D01*
X17641095Y-14275514D01*
X17698238Y-14332657D01*
X17698238Y-14270752D01*
X17698238Y-14175514D02*
X17698238Y-14232657D01*
X17698238Y-14204086D02*
X17598238Y-14204086D01*
X17612524Y-14213609D01*
X17622048Y-14223133D01*
X17626810Y-14232657D01*
X18487238Y-11180752D02*
X18558667Y-11180752D01*
X18572952Y-11185514D01*
X18582476Y-11195038D01*
X18587238Y-11209324D01*
X18587238Y-11218848D01*
X18496762Y-11137895D02*
X18492000Y-11133133D01*
X18487238Y-11123610D01*
X18487238Y-11099800D01*
X18492000Y-11090276D01*
X18496762Y-11085514D01*
X18506286Y-11080752D01*
X18515810Y-11080752D01*
X18530095Y-11085514D01*
X18587238Y-11142657D01*
X18587238Y-11080752D01*
X18496762Y-11042657D02*
X18492000Y-11037895D01*
X18487238Y-11028371D01*
X18487238Y-11004562D01*
X18492000Y-10995038D01*
X18496762Y-10990276D01*
X18506286Y-10985514D01*
X18515810Y-10985514D01*
X18530095Y-10990276D01*
X18587238Y-11047419D01*
X18587238Y-10985514D01*
X17852238Y-14370752D02*
X17923667Y-14370752D01*
X17937952Y-14375514D01*
X17947476Y-14385038D01*
X17952238Y-14399324D01*
X17952238Y-14408848D01*
X17861762Y-14327895D02*
X17857000Y-14323133D01*
X17852238Y-14313609D01*
X17852238Y-14289800D01*
X17857000Y-14280276D01*
X17861762Y-14275514D01*
X17871286Y-14270752D01*
X17880810Y-14270752D01*
X17895095Y-14275514D01*
X17952238Y-14332657D01*
X17952238Y-14270752D01*
X17852238Y-14237419D02*
X17852238Y-14175514D01*
X17890333Y-14208848D01*
X17890333Y-14194562D01*
X17895095Y-14185038D01*
X17899857Y-14180276D01*
X17909381Y-14175514D01*
X17933191Y-14175514D01*
X17942714Y-14180276D01*
X17947476Y-14185038D01*
X17952238Y-14194562D01*
X17952238Y-14223133D01*
X17947476Y-14232657D01*
X17942714Y-14237419D01*
X17713848Y-10370238D02*
X17713848Y-10441667D01*
X17709086Y-10455952D01*
X17699562Y-10465476D01*
X17685276Y-10470238D01*
X17675752Y-10470238D01*
X17756705Y-10379762D02*
X17761467Y-10375000D01*
X17770991Y-10370238D01*
X17794800Y-10370238D01*
X17804324Y-10375000D01*
X17809086Y-10379762D01*
X17813848Y-10389286D01*
X17813848Y-10398810D01*
X17809086Y-10413095D01*
X17751943Y-10470238D01*
X17813848Y-10470238D01*
X17899562Y-10403571D02*
X17899562Y-10470238D01*
X17875752Y-10365476D02*
X17851943Y-10436905D01*
X17913848Y-10436905D01*
X19754048Y-11888988D02*
X19754048Y-11960417D01*
X19749286Y-11974702D01*
X19739762Y-11984226D01*
X19725476Y-11988988D01*
X19715952Y-11988988D01*
X19796905Y-11898512D02*
X19801667Y-11893750D01*
X19811191Y-11888988D01*
X19835000Y-11888988D01*
X19844524Y-11893750D01*
X19849286Y-11898512D01*
X19854048Y-11908036D01*
X19854048Y-11917559D01*
X19849286Y-11931845D01*
X19792143Y-11988988D01*
X19854048Y-11988988D01*
X19944524Y-11888988D02*
X19896905Y-11888988D01*
X19892143Y-11936607D01*
X19896905Y-11931845D01*
X19906429Y-11927083D01*
X19930238Y-11927083D01*
X19939762Y-11931845D01*
X19944524Y-11936607D01*
X19949286Y-11946131D01*
X19949286Y-11969940D01*
X19944524Y-11979464D01*
X19939762Y-11984226D01*
X19930238Y-11988988D01*
X19906429Y-11988988D01*
X19896905Y-11984226D01*
X19892143Y-11979464D01*
X14746676Y-11697562D02*
X14737152Y-11692800D01*
X14727629Y-11683276D01*
X14713343Y-11668990D01*
X14703819Y-11664229D01*
X14694295Y-11664229D01*
X14699057Y-11688038D02*
X14689533Y-11683276D01*
X14680009Y-11673752D01*
X14675248Y-11654705D01*
X14675248Y-11621371D01*
X14680009Y-11602324D01*
X14689533Y-11592800D01*
X14699057Y-11588038D01*
X14718105Y-11588038D01*
X14727629Y-11592800D01*
X14737152Y-11602324D01*
X14741914Y-11621371D01*
X14741914Y-11654705D01*
X14737152Y-11673752D01*
X14727629Y-11683276D01*
X14718105Y-11688038D01*
X14699057Y-11688038D01*
X14837152Y-11688038D02*
X14780009Y-11688038D01*
X14808581Y-11688038D02*
X14808581Y-11588038D01*
X14799057Y-11602324D01*
X14789533Y-11611848D01*
X14780009Y-11616609D01*
X14258333Y-8870238D02*
X14225000Y-8822619D01*
X14201190Y-8870238D02*
X14201190Y-8770238D01*
X14239286Y-8770238D01*
X14248810Y-8775000D01*
X14253571Y-8779762D01*
X14258333Y-8789286D01*
X14258333Y-8803571D01*
X14253571Y-8813095D01*
X14248810Y-8817857D01*
X14239286Y-8822619D01*
X14201190Y-8822619D01*
X14353571Y-8870238D02*
X14296429Y-8870238D01*
X14325000Y-8870238D02*
X14325000Y-8770238D01*
X14315476Y-8784524D01*
X14305952Y-8794048D01*
X14296429Y-8798810D01*
X14558333Y-8865238D02*
X14525000Y-8817619D01*
X14501190Y-8865238D02*
X14501190Y-8765238D01*
X14539286Y-8765238D01*
X14548810Y-8770000D01*
X14553571Y-8774762D01*
X14558333Y-8784286D01*
X14558333Y-8798571D01*
X14553571Y-8808095D01*
X14548810Y-8812857D01*
X14539286Y-8817619D01*
X14501190Y-8817619D01*
X14596429Y-8774762D02*
X14601190Y-8770000D01*
X14610714Y-8765238D01*
X14634524Y-8765238D01*
X14644048Y-8770000D01*
X14648810Y-8774762D01*
X14653571Y-8784286D01*
X14653571Y-8793810D01*
X14648810Y-8808095D01*
X14591667Y-8865238D01*
X14653571Y-8865238D01*
X19733333Y-7309638D02*
X19700000Y-7262019D01*
X19676191Y-7309638D02*
X19676191Y-7209638D01*
X19714286Y-7209638D01*
X19723810Y-7214400D01*
X19728572Y-7219162D01*
X19733333Y-7228686D01*
X19733333Y-7242971D01*
X19728572Y-7252495D01*
X19723810Y-7257257D01*
X19714286Y-7262019D01*
X19676191Y-7262019D01*
X19766667Y-7209638D02*
X19828572Y-7209638D01*
X19795238Y-7247733D01*
X19809524Y-7247733D01*
X19819048Y-7252495D01*
X19823810Y-7257257D01*
X19828572Y-7266781D01*
X19828572Y-7290590D01*
X19823810Y-7300114D01*
X19819048Y-7304876D01*
X19809524Y-7309638D01*
X19780952Y-7309638D01*
X19771429Y-7304876D01*
X19766667Y-7300114D01*
X19733333Y-7495238D02*
X19700000Y-7447619D01*
X19676191Y-7495238D02*
X19676191Y-7395238D01*
X19714286Y-7395238D01*
X19723810Y-7400000D01*
X19728572Y-7404762D01*
X19733333Y-7414286D01*
X19733333Y-7428571D01*
X19728572Y-7438095D01*
X19723810Y-7442857D01*
X19714286Y-7447619D01*
X19676191Y-7447619D01*
X19819048Y-7428571D02*
X19819048Y-7495238D01*
X19795238Y-7390476D02*
X19771429Y-7461905D01*
X19833333Y-7461905D01*
X19733333Y-7670238D02*
X19700000Y-7622619D01*
X19676191Y-7670238D02*
X19676191Y-7570238D01*
X19714286Y-7570238D01*
X19723810Y-7575000D01*
X19728572Y-7579762D01*
X19733333Y-7589286D01*
X19733333Y-7603571D01*
X19728572Y-7613095D01*
X19723810Y-7617857D01*
X19714286Y-7622619D01*
X19676191Y-7622619D01*
X19823810Y-7570238D02*
X19776191Y-7570238D01*
X19771429Y-7617857D01*
X19776191Y-7613095D01*
X19785714Y-7608333D01*
X19809524Y-7608333D01*
X19819048Y-7613095D01*
X19823810Y-7617857D01*
X19828572Y-7627381D01*
X19828572Y-7651190D01*
X19823810Y-7660714D01*
X19819048Y-7665476D01*
X19809524Y-7670238D01*
X19785714Y-7670238D01*
X19776191Y-7665476D01*
X19771429Y-7660714D01*
X19733333Y-7845238D02*
X19700000Y-7797619D01*
X19676191Y-7845238D02*
X19676191Y-7745238D01*
X19714286Y-7745238D01*
X19723810Y-7750000D01*
X19728572Y-7754762D01*
X19733333Y-7764286D01*
X19733333Y-7778571D01*
X19728572Y-7788095D01*
X19723810Y-7792857D01*
X19714286Y-7797619D01*
X19676191Y-7797619D01*
X19819048Y-7745238D02*
X19800000Y-7745238D01*
X19790476Y-7750000D01*
X19785714Y-7754762D01*
X19776191Y-7769048D01*
X19771429Y-7788095D01*
X19771429Y-7826190D01*
X19776191Y-7835714D01*
X19780952Y-7840476D01*
X19790476Y-7845238D01*
X19809524Y-7845238D01*
X19819048Y-7840476D01*
X19823810Y-7835714D01*
X19828572Y-7826190D01*
X19828572Y-7802381D01*
X19823810Y-7792857D01*
X19819048Y-7788095D01*
X19809524Y-7783333D01*
X19790476Y-7783333D01*
X19780952Y-7788095D01*
X19776191Y-7792857D01*
X19771429Y-7802381D01*
X11883333Y-9615238D02*
X11850000Y-9567619D01*
X11826190Y-9615238D02*
X11826190Y-9515238D01*
X11864286Y-9515238D01*
X11873810Y-9520000D01*
X11878571Y-9524762D01*
X11883333Y-9534286D01*
X11883333Y-9548571D01*
X11878571Y-9558095D01*
X11873810Y-9562857D01*
X11864286Y-9567619D01*
X11826190Y-9567619D01*
X11916667Y-9515238D02*
X11983333Y-9515238D01*
X11940476Y-9615238D01*
X15183333Y-12090238D02*
X15150000Y-12042619D01*
X15126190Y-12090238D02*
X15126190Y-11990238D01*
X15164286Y-11990238D01*
X15173810Y-11995000D01*
X15178571Y-11999762D01*
X15183333Y-12009286D01*
X15183333Y-12023571D01*
X15178571Y-12033095D01*
X15173810Y-12037857D01*
X15164286Y-12042619D01*
X15126190Y-12042619D01*
X15240476Y-12033095D02*
X15230952Y-12028333D01*
X15226190Y-12023571D01*
X15221429Y-12014048D01*
X15221429Y-12009286D01*
X15226190Y-11999762D01*
X15230952Y-11995000D01*
X15240476Y-11990238D01*
X15259524Y-11990238D01*
X15269048Y-11995000D01*
X15273810Y-11999762D01*
X15278571Y-12009286D01*
X15278571Y-12014048D01*
X15273810Y-12023571D01*
X15269048Y-12028333D01*
X15259524Y-12033095D01*
X15240476Y-12033095D01*
X15230952Y-12037857D01*
X15226190Y-12042619D01*
X15221429Y-12052143D01*
X15221429Y-12071190D01*
X15226190Y-12080714D01*
X15230952Y-12085476D01*
X15240476Y-12090238D01*
X15259524Y-12090238D01*
X15269048Y-12085476D01*
X15273810Y-12080714D01*
X15278571Y-12071190D01*
X15278571Y-12052143D01*
X15273810Y-12042619D01*
X15269048Y-12037857D01*
X15259524Y-12033095D01*
X14790333Y-12096038D02*
X14757000Y-12048419D01*
X14733190Y-12096038D02*
X14733190Y-11996038D01*
X14771286Y-11996038D01*
X14780810Y-12000800D01*
X14785571Y-12005562D01*
X14790333Y-12015086D01*
X14790333Y-12029371D01*
X14785571Y-12038895D01*
X14780810Y-12043657D01*
X14771286Y-12048419D01*
X14733190Y-12048419D01*
X14837952Y-12096038D02*
X14857000Y-12096038D01*
X14866524Y-12091276D01*
X14871286Y-12086514D01*
X14880810Y-12072229D01*
X14885571Y-12053181D01*
X14885571Y-12015086D01*
X14880810Y-12005562D01*
X14876048Y-12000800D01*
X14866524Y-11996038D01*
X14847476Y-11996038D01*
X14837952Y-12000800D01*
X14833190Y-12005562D01*
X14828429Y-12015086D01*
X14828429Y-12038895D01*
X14833190Y-12048419D01*
X14837952Y-12053181D01*
X14847476Y-12057943D01*
X14866524Y-12057943D01*
X14876048Y-12053181D01*
X14880810Y-12048419D01*
X14885571Y-12038895D01*
X18535714Y-9450238D02*
X18502381Y-9402619D01*
X18478571Y-9450238D02*
X18478571Y-9350238D01*
X18516667Y-9350238D01*
X18526191Y-9355000D01*
X18530952Y-9359762D01*
X18535714Y-9369286D01*
X18535714Y-9383571D01*
X18530952Y-9393095D01*
X18526191Y-9397857D01*
X18516667Y-9402619D01*
X18478571Y-9402619D01*
X18630952Y-9450238D02*
X18573810Y-9450238D01*
X18602381Y-9450238D02*
X18602381Y-9350238D01*
X18592857Y-9364524D01*
X18583333Y-9374048D01*
X18573810Y-9378810D01*
X18692857Y-9350238D02*
X18702381Y-9350238D01*
X18711905Y-9355000D01*
X18716667Y-9359762D01*
X18721429Y-9369286D01*
X18726191Y-9388333D01*
X18726191Y-9412143D01*
X18721429Y-9431191D01*
X18716667Y-9440714D01*
X18711905Y-9445476D01*
X18702381Y-9450238D01*
X18692857Y-9450238D01*
X18683333Y-9445476D01*
X18678571Y-9440714D01*
X18673810Y-9431191D01*
X18669048Y-9412143D01*
X18669048Y-9388333D01*
X18673810Y-9369286D01*
X18678571Y-9359762D01*
X18683333Y-9355000D01*
X18692857Y-9350238D01*
X18735714Y-10370238D02*
X18702381Y-10322619D01*
X18678571Y-10370238D02*
X18678571Y-10270238D01*
X18716667Y-10270238D01*
X18726191Y-10275000D01*
X18730952Y-10279762D01*
X18735714Y-10289286D01*
X18735714Y-10303571D01*
X18730952Y-10313095D01*
X18726191Y-10317857D01*
X18716667Y-10322619D01*
X18678571Y-10322619D01*
X18830952Y-10370238D02*
X18773810Y-10370238D01*
X18802381Y-10370238D02*
X18802381Y-10270238D01*
X18792857Y-10284524D01*
X18783333Y-10294048D01*
X18773810Y-10298810D01*
X18926191Y-10370238D02*
X18869048Y-10370238D01*
X18897619Y-10370238D02*
X18897619Y-10270238D01*
X18888095Y-10284524D01*
X18878571Y-10294048D01*
X18869048Y-10298810D01*
X15748809Y-8220238D02*
X15748809Y-8301190D01*
X15753571Y-8310714D01*
X15758333Y-8315476D01*
X15767857Y-8320238D01*
X15786905Y-8320238D01*
X15796429Y-8315476D01*
X15801190Y-8310714D01*
X15805952Y-8301190D01*
X15805952Y-8220238D01*
X15905952Y-8320238D02*
X15848809Y-8320238D01*
X15877381Y-8320238D02*
X15877381Y-8220238D01*
X15867857Y-8234524D01*
X15858333Y-8244048D01*
X15848809Y-8248809D01*
D15*
X12332267Y-10251317D02*
X12332267Y-10323283D01*
X12336500Y-10331750D01*
X12340733Y-10335983D01*
X12349200Y-10340217D01*
X12366133Y-10340217D01*
X12374600Y-10335983D01*
X12378833Y-10331750D01*
X12383067Y-10323283D01*
X12383067Y-10251317D01*
X12421167Y-10259783D02*
X12425400Y-10255550D01*
X12433867Y-10251317D01*
X12455033Y-10251317D01*
X12463500Y-10255550D01*
X12467733Y-10259783D01*
X12471967Y-10268250D01*
X12471967Y-10276717D01*
X12467733Y-10289417D01*
X12416933Y-10340217D01*
X12471967Y-10340217D01*
D16*
D13*
X11810059Y-8620238D02*
X11810059Y-8701191D01*
X11814821Y-8710714D01*
X11819583Y-8715476D01*
X11829107Y-8720238D01*
X11848155Y-8720238D01*
X11857679Y-8715476D01*
X11862440Y-8710714D01*
X11867202Y-8701191D01*
X11867202Y-8620238D01*
X11905298Y-8620238D02*
X11967202Y-8620238D01*
X11933869Y-8658333D01*
X11948155Y-8658333D01*
X11957679Y-8663095D01*
X11962440Y-8667857D01*
X11967202Y-8677381D01*
X11967202Y-8701191D01*
X11962440Y-8710714D01*
X11957679Y-8715476D01*
X11948155Y-8720238D01*
X11919583Y-8720238D01*
X11910059Y-8715476D01*
X11905298Y-8710714D01*
D17*
X11616250Y-8884286D02*
X11616250Y-8898571D01*
X11606250Y-8868571D02*
X11616250Y-8884286D01*
X11626250Y-8868571D01*
X11656250Y-8818571D02*
X11676250Y-8848571D01*
X11676250Y-8818571D02*
X11656250Y-8848571D01*
D13*
X16898810Y-9605238D02*
X16898810Y-9686191D01*
X16903571Y-9695714D01*
X16908333Y-9700476D01*
X16917857Y-9705238D01*
X16936905Y-9705238D01*
X16946429Y-9700476D01*
X16951191Y-9695714D01*
X16955952Y-9686191D01*
X16955952Y-9605238D01*
X17046429Y-9638571D02*
X17046429Y-9705238D01*
X17022619Y-9600476D02*
X16998810Y-9671905D01*
X17060714Y-9671905D01*
X18198810Y-9545238D02*
X18198810Y-9626191D01*
X18203571Y-9635714D01*
X18208333Y-9640476D01*
X18217857Y-9645238D01*
X18236905Y-9645238D01*
X18246429Y-9640476D01*
X18251191Y-9635714D01*
X18255952Y-9626191D01*
X18255952Y-9545238D01*
X18351191Y-9545238D02*
X18303571Y-9545238D01*
X18298810Y-9592857D01*
X18303571Y-9588095D01*
X18313095Y-9583333D01*
X18336905Y-9583333D01*
X18346429Y-9588095D01*
X18351191Y-9592857D01*
X18355952Y-9602381D01*
X18355952Y-9626191D01*
X18351191Y-9635714D01*
X18346429Y-9640476D01*
X18336905Y-9645238D01*
X18313095Y-9645238D01*
X18303571Y-9640476D01*
X18298810Y-9635714D01*
X11897619Y-11197619D02*
X11945238Y-11197619D01*
X11845238Y-11230952D02*
X11897619Y-11197619D01*
X11845238Y-11164286D01*
X11945238Y-11078571D02*
X11945238Y-11135714D01*
X11945238Y-11107143D02*
X11845238Y-11107143D01*
X11859524Y-11116667D01*
X11869048Y-11126191D01*
X11873809Y-11135714D01*
X12902381Y-11872619D02*
X12902381Y-11920238D01*
X12869048Y-11820238D02*
X12902381Y-11872619D01*
X12935714Y-11820238D01*
X12964286Y-11829762D02*
X12969048Y-11825000D01*
X12978571Y-11820238D01*
X13002381Y-11820238D01*
X13011905Y-11825000D01*
X13016667Y-11829762D01*
X13021429Y-11839286D01*
X13021429Y-11848809D01*
X13016667Y-11863095D01*
X12959524Y-11920238D01*
X13021429Y-11920238D01*
X10592857Y-15762857D02*
X10559524Y-15762857D01*
X10559524Y-15815238D02*
X10559524Y-15715238D01*
X10607143Y-15715238D01*
X10645238Y-15815238D02*
X10645238Y-15715238D01*
X10692857Y-15815238D02*
X10692857Y-15715238D01*
X10716667Y-15715238D01*
X10730952Y-15720000D01*
X10740476Y-15729524D01*
X10745238Y-15739048D01*
X10750000Y-15758095D01*
X10750000Y-15772381D01*
X10745238Y-15791429D01*
X10740476Y-15800952D01*
X10730952Y-15810476D01*
X10716667Y-15815238D01*
X10692857Y-15815238D01*
X10845238Y-15815238D02*
X10788095Y-15815238D01*
X10816667Y-15815238D02*
X10816667Y-15715238D01*
X10807143Y-15729524D01*
X10797619Y-15739048D01*
X10788095Y-15743809D01*
X19192857Y-15762857D02*
X19159524Y-15762857D01*
X19159524Y-15815238D02*
X19159524Y-15715238D01*
X19207143Y-15715238D01*
X19245238Y-15815238D02*
X19245238Y-15715238D01*
X19292857Y-15815238D02*
X19292857Y-15715238D01*
X19316667Y-15715238D01*
X19330952Y-15720000D01*
X19340476Y-15729524D01*
X19345238Y-15739048D01*
X19350000Y-15758095D01*
X19350000Y-15772381D01*
X19345238Y-15791429D01*
X19340476Y-15800952D01*
X19330952Y-15810476D01*
X19316667Y-15815238D01*
X19292857Y-15815238D01*
X19388095Y-15724762D02*
X19392857Y-15720000D01*
X19402381Y-15715238D01*
X19426191Y-15715238D01*
X19435714Y-15720000D01*
X19440476Y-15724762D01*
X19445238Y-15734286D01*
X19445238Y-15743809D01*
X19440476Y-15758095D01*
X19383333Y-15815238D01*
X19445238Y-15815238D01*
X19592857Y-8892857D02*
X19559524Y-8892857D01*
X19559524Y-8945238D02*
X19559524Y-8845238D01*
X19607143Y-8845238D01*
X19645238Y-8945238D02*
X19645238Y-8845238D01*
X19692857Y-8945238D02*
X19692857Y-8845238D01*
X19716667Y-8845238D01*
X19730952Y-8850000D01*
X19740476Y-8859524D01*
X19745238Y-8869048D01*
X19750000Y-8888095D01*
X19750000Y-8902381D01*
X19745238Y-8921429D01*
X19740476Y-8930952D01*
X19730952Y-8940476D01*
X19716667Y-8945238D01*
X19692857Y-8945238D01*
X19783333Y-8845238D02*
X19845238Y-8845238D01*
X19811905Y-8883333D01*
X19826191Y-8883333D01*
X19835714Y-8888095D01*
X19840476Y-8892857D01*
X19845238Y-8902381D01*
X19845238Y-8926191D01*
X19840476Y-8935714D01*
X19835714Y-8940476D01*
X19826191Y-8945238D01*
X19797619Y-8945238D01*
X19788095Y-8940476D01*
X19783333Y-8935714D01*
M02*
