M48
;DRILL file {KiCad 4.0.6-e0-6349~52~ubuntu16.10.1} date Thu May  4 19:46:02 2017
;FORMAT={-:-/ absolute / inch / decimal}
FMAT,2
INCH,TZ
T1C0.016
T2C0.028
T3C0.039
T4C0.059
%
G90
G05
M72
T1
X4.0961Y-4.4176
X4.1437Y-4.4882
X4.1448Y-4.4563
X4.1831Y-3.102
X4.1929Y-3.5138
X4.2913Y-5.0098
X4.3307Y-5.4232
X4.3406Y-4.3996
X4.3701Y-4.9262
X4.375Y-4.5008
X4.3996Y-4.9016
X4.4094Y-4.7835
X4.4242Y-4.574
X4.4361Y-4.5448
X4.439Y-4.8524
X4.4488Y-4.3996
X4.4891Y-4.2725
X4.5321Y-4.2851
X4.5768Y-4.2723
X4.6174Y-4.1191
X4.626Y-4.3602
X4.6358Y-3.5531
X4.6371Y-4.0945
X4.6407Y-4.0632
X4.6555Y-4.1634
X4.6752Y-3.5531
X4.6752Y-3.6024
X4.685Y-4.2323
X4.743Y-4.0799
X4.7528Y-4.1663
X4.7579Y-4.0521
X4.7982Y-3.4606
X4.802Y-4.1609
X4.8071Y-4.0574
X4.8327Y-4.1142
X4.8327Y-4.4488
X4.8359Y-4.2218
X4.8396Y-4.0551
X4.8419Y-4.3064
X4.8622Y-4.5472
X4.8989Y-4.9929
X4.9016Y-4.4587
X4.9481Y-4.8702
X4.9528Y-4.2815
X4.953Y-4.7805
X4.9557Y-4.4783
X4.9705Y-4.2421
X4.9705Y-4.3898
X4.9857Y-4.7559
X4.9961Y-4.1663
X5.Y-3.8287
X5.0023Y-4.3886
X5.0197Y-3.937
X5.025Y-4.7687
X5.0338Y-4.3899
X5.0398Y-4.0507
X5.0558Y-4.7624
X5.0598Y-3.8051
X5.0787Y-3.7598
X5.087Y-4.5001
X5.0886Y-3.9075
X5.0886Y-4.3602
X5.0921Y-4.1675
X5.0935Y-4.0256
X5.0984Y-4.6555
X5.122Y-3.9605
X5.1278Y-4.0348
X5.128Y-4.1535
X5.1378Y-4.7638
X5.1519Y-4.1995
X5.1575Y-4.0453
X5.1641Y-4.7116
X5.187Y-4.2815
X5.192Y-4.0579
X5.1969Y-4.7244
X5.1994Y-3.9813
X5.2116Y-4.4549
X5.2362Y-4.7244
X5.2428Y-4.3976
X5.2657Y-3.8386
X5.2996Y-4.1866
X5.3346Y-4.5374
X5.3937Y-3.3366
X5.3937Y-4.4587
X5.4232Y-4.2913
X5.4232Y-4.3307
X5.4429Y-2.9429
X5.4429Y-4.5177
X5.5807Y-2.9626
X5.59Y-3.22
X5.6988Y-3.8386
X5.748Y-4.0157
X5.8169Y-3.3563
X5.8169Y-3.7992
X5.8646Y-3.8504
X5.9055Y-4.6909
X5.9547Y-3.376
X6.0236Y-3.4055
X6.0926Y-3.9959
X6.1024Y-3.376
X6.1024Y-4.124
X6.1093Y-4.0377
X6.119Y-3.4214
X6.1321Y-4.0595
X6.147Y-3.9066
X6.16Y-3.32
X6.1614Y-4.0846
X6.1778Y-3.9132
X6.1811Y-3.9532
X6.2185Y-3.9506
X6.24Y-2.84
X6.24Y-2.95
X6.2402Y-3.9961
X6.2598Y-3.1693
X6.2867Y-3.231
X6.2894Y-3.4941
X6.2943Y-3.3071
X6.3287Y-3.4941
X6.3406Y-3.3099
X6.3681Y-3.4941
X6.4075Y-3.4941
X6.437Y-3.3169
X6.4469Y-3.4941
X6.4764Y-4.3898
X6.5846Y-3.9446
X6.6065Y-3.9665
X6.6339Y-4.4291
X6.6634Y-4.3701
X6.6732Y-5.935
X6.7803Y-4.5783
X6.9488Y-5.935
X7.08Y-3.88
X7.39Y-3.83
X7.5Y-5.0886
X7.5Y-5.1969
X7.7067Y-4.3307
X7.7067Y-4.6654
X7.7165Y-3.1201
X7.7264Y-2.815
T2
X7.628Y-5.0787
X7.628Y-5.1575
T3
X4.1339Y-4.672
X4.1339Y-4.772
X4.1339Y-4.872
X4.1339Y-4.972
X4.1339Y-5.072
X4.1339Y-5.172
X4.1339Y-5.272
X4.1339Y-5.372
X4.1732Y-3.5909
X4.1732Y-3.6909
X4.1732Y-3.7909
X4.1831Y-2.902
X4.1831Y-3.002
X4.1831Y-3.102
X4.1831Y-3.202
X4.2339Y-4.672
X4.2339Y-4.772
X4.2339Y-4.872
X4.2339Y-4.972
X4.2339Y-5.072
X4.2339Y-5.172
X4.2339Y-5.272
X4.2339Y-5.372
X5.7563Y-4.2815
X5.7744Y-3.7402
X5.8563Y-4.2815
X5.8661Y-4.8524
X5.8744Y-3.7402
X5.9661Y-4.8524
X5.9744Y-3.7402
X6.5929Y-4.1437
X6.6929Y-4.1437
X6.7Y-4.5
X6.7Y-4.6
X6.7Y-4.7
X6.75Y-5.75
X6.75Y-5.85
X6.8406Y-3.2972
X6.8406Y-3.3972
X6.85Y-5.75
X6.85Y-5.85
X6.9Y-4.5
X6.9Y-4.6
X6.9Y-4.7
X6.9Y-5.3
X6.95Y-5.75
X6.95Y-5.85
X7.Y-5.3
X7.0374Y-3.2972
X7.0374Y-3.3972
X7.05Y-5.75
X7.05Y-5.85
X7.1Y-4.5
X7.1Y-4.6
X7.1Y-4.7
X7.1358Y-4.1043
X7.2343Y-3.2972
X7.2343Y-3.3972
X7.2358Y-4.1043
X7.3Y-4.5
X7.3Y-4.6
X7.3Y-4.7
X7.4311Y-3.2972
X7.4311Y-3.3972
X7.7756Y-5.6677
X7.7756Y-5.7677
T4
X5.2169Y-5.5906
X6.0236Y-5.5906
T0
M30
