G04 #@! TF.FileFunction,Copper,L1,Top,Signal*
%FSLAX45Y45*%
G04 Gerber Fmt 4.5, Leading zero omitted, Abs format (unit mm)*
G04 Created by KiCad (PCBNEW 4.0.7-e2-6376~61~ubuntu18.04.1) date Fri May  3 18:21:01 2019*
%MOMM*%
%LPD*%
G01*
G04 APERTURE LIST*
%ADD10C,0.100000*%
%ADD11R,0.750000X0.500000*%
%ADD12R,0.750000X0.600000*%
%ADD13R,0.750000X0.800000*%
%ADD14R,0.800000X0.750000*%
%ADD15R,0.800000X0.800000*%
%ADD16R,0.450000X1.380000*%
%ADD17R,1.475000X2.100000*%
%ADD18R,1.175000X1.900000*%
%ADD19R,2.375000X1.900000*%
%ADD20R,0.450000X0.700000*%
%ADD21R,0.900000X0.500000*%
%ADD22R,0.500000X0.900000*%
%ADD23R,2.450000X1.000000*%
%ADD24R,1.000000X2.450000*%
%ADD25O,1.600000X0.300000*%
%ADD26O,0.300000X1.600000*%
%ADD27R,0.275000X0.250000*%
%ADD28R,0.250000X0.275000*%
%ADD29R,1.060000X0.650000*%
%ADD30R,1.800000X1.000000*%
%ADD31C,1.000000*%
%ADD32R,0.700000X1.500000*%
%ADD33R,1.000000X0.800000*%
%ADD34R,1.550000X0.600000*%
%ADD35R,1.800000X1.200000*%
%ADD36R,5.000000X2.000000*%
%ADD37R,0.700000X0.450000*%
%ADD38C,0.600000*%
%ADD39C,0.500000*%
%ADD40C,0.250000*%
%ADD41C,0.200000*%
%ADD42C,0.025400*%
G04 APERTURE END LIST*
D10*
D11*
X14887500Y-9455000D03*
X14702500Y-9455000D03*
D12*
X14887500Y-9330000D03*
D11*
X14702500Y-9325000D03*
D13*
X13090000Y-8755000D03*
X13090000Y-8605000D03*
X14075000Y-7900000D03*
X14075000Y-8050000D03*
D14*
X13245000Y-9330000D03*
X13095000Y-9330000D03*
D13*
X13240000Y-8755000D03*
X13240000Y-8605000D03*
D14*
X13925000Y-9580000D03*
X13775000Y-9580000D03*
X14155000Y-9580000D03*
X14305000Y-9580000D03*
X14205000Y-9420000D03*
X14355000Y-9420000D03*
X14435000Y-9080000D03*
X14585000Y-9080000D03*
X13870000Y-8350000D03*
X14020000Y-8350000D03*
D13*
X14490000Y-9355000D03*
X14490000Y-9505000D03*
D14*
X14475000Y-8940000D03*
X14625000Y-8940000D03*
D13*
X13880000Y-7550000D03*
X13880000Y-7700000D03*
X15030000Y-9450000D03*
X15030000Y-9300000D03*
X15540000Y-8965000D03*
X15540000Y-9115000D03*
D14*
X14720000Y-9165000D03*
X14870000Y-9165000D03*
D13*
X16140000Y-8985000D03*
X16140000Y-9135000D03*
D15*
X16080000Y-7740000D03*
X16080000Y-7580000D03*
X16220000Y-7740000D03*
X16220000Y-7580000D03*
X16500000Y-7740000D03*
X16500000Y-7580000D03*
X16360000Y-7740000D03*
X16360000Y-7580000D03*
X15840000Y-9320000D03*
X16000000Y-9320000D03*
D16*
X15776250Y-9589000D03*
X15841250Y-9589000D03*
X15906250Y-9589000D03*
X15971250Y-9589000D03*
X16036250Y-9589000D03*
D17*
X15660000Y-9625000D03*
X16152500Y-9625000D03*
D18*
X15822500Y-9855000D03*
X15990000Y-9855000D03*
D19*
X15615000Y-9855000D03*
X16197500Y-9855000D03*
D20*
X14815000Y-9020000D03*
X14945000Y-9020000D03*
X14880000Y-8820000D03*
D21*
X16080000Y-7425000D03*
X16080000Y-7275000D03*
X16230000Y-7425000D03*
X16230000Y-7275000D03*
X16660000Y-7570000D03*
X16660000Y-7720000D03*
X16810000Y-7570000D03*
X16810000Y-7720000D03*
X15090000Y-9115000D03*
X15090000Y-8965000D03*
D22*
X14395000Y-9220000D03*
X14545000Y-9220000D03*
D21*
X15350000Y-8965000D03*
X15350000Y-9115000D03*
D22*
X15545000Y-9320000D03*
X15695000Y-9320000D03*
D23*
X14370500Y-7070000D03*
X14370500Y-7210000D03*
X14370500Y-7350000D03*
X14370500Y-7490000D03*
X14370500Y-7630000D03*
X14370500Y-7770000D03*
X14370500Y-7910000D03*
X14370500Y-8050000D03*
X15629500Y-7070000D03*
X15629500Y-7210000D03*
X15629500Y-7350000D03*
X15629500Y-7490000D03*
X15629500Y-7630000D03*
X15629500Y-7770000D03*
X15629500Y-7910000D03*
X15629500Y-8050000D03*
D24*
X14510000Y-8279500D03*
X14650000Y-8279500D03*
X14790000Y-8279500D03*
X14930000Y-8279500D03*
X15070000Y-8279500D03*
X15210000Y-8279500D03*
X15350000Y-8279500D03*
X15490000Y-8279500D03*
D25*
X13405000Y-8665000D03*
X13405000Y-8715000D03*
X13405000Y-8765000D03*
X13405000Y-8815000D03*
X13405000Y-8865000D03*
X13405000Y-8915000D03*
X13405000Y-8965000D03*
X13405000Y-9015000D03*
X13405000Y-9065000D03*
X13405000Y-9115000D03*
X13405000Y-9165000D03*
X13405000Y-9215000D03*
D26*
X13555000Y-9365000D03*
X13605000Y-9365000D03*
X13655000Y-9365000D03*
X13705000Y-9365000D03*
X13755000Y-9365000D03*
X13805000Y-9365000D03*
X13855000Y-9365000D03*
X13905000Y-9365000D03*
X13955000Y-9365000D03*
X14005000Y-9365000D03*
X14055000Y-9365000D03*
X14105000Y-9365000D03*
D25*
X14255000Y-9215000D03*
X14255000Y-9165000D03*
X14255000Y-9115000D03*
X14255000Y-9065000D03*
X14255000Y-9015000D03*
X14255000Y-8965000D03*
X14255000Y-8915000D03*
X14255000Y-8865000D03*
X14255000Y-8815000D03*
X14255000Y-8765000D03*
X14255000Y-8715000D03*
X14255000Y-8665000D03*
D26*
X14105000Y-8515000D03*
X14055000Y-8515000D03*
X14005000Y-8515000D03*
X13955000Y-8515000D03*
X13905000Y-8515000D03*
X13855000Y-8515000D03*
X13805000Y-8515000D03*
X13755000Y-8515000D03*
X13705000Y-8515000D03*
X13655000Y-8515000D03*
X13605000Y-8515000D03*
X13555000Y-8515000D03*
D27*
X13610000Y-7550000D03*
X13610000Y-7600000D03*
X13610000Y-7650000D03*
X13610000Y-7700000D03*
D28*
X13661250Y-7701250D03*
X13711250Y-7701250D03*
D27*
X13762500Y-7550000D03*
X13762500Y-7700000D03*
X13762500Y-7600000D03*
X13762500Y-7650000D03*
D28*
X13661250Y-7548750D03*
X13711250Y-7548750D03*
D29*
X15950000Y-9145000D03*
X15950000Y-9050000D03*
X15950000Y-8955000D03*
X15730000Y-8955000D03*
X15730000Y-9145000D03*
D30*
X13150000Y-8925000D03*
X13150000Y-9175000D03*
D31*
X16210000Y-8460000D03*
X16610000Y-7310000D03*
X13380000Y-7330000D03*
D32*
X14515000Y-9665000D03*
X14815000Y-9665000D03*
X14965000Y-9665000D03*
D33*
X14375000Y-9730000D03*
X14375000Y-9950000D03*
X15105000Y-9730000D03*
X15105000Y-9950000D03*
D34*
X16506250Y-8680000D03*
X16506250Y-8580000D03*
D35*
X16893750Y-8810000D03*
X16893750Y-8450000D03*
D36*
X16690000Y-9010000D03*
X16690000Y-9300000D03*
D37*
X13860000Y-9875000D03*
X13860000Y-9745000D03*
X13660000Y-9810000D03*
X14210000Y-9875000D03*
X14210000Y-9745000D03*
X14010000Y-9810000D03*
D38*
X15220000Y-9740000D03*
X13813838Y-9495155D03*
X14403849Y-9509139D03*
X14630000Y-9210000D03*
X14420000Y-9620000D03*
X16440000Y-8490000D03*
X15590244Y-8151366D03*
X15840000Y-9140000D03*
X15840000Y-9220000D03*
X15520000Y-9500000D03*
X15510000Y-9590000D03*
X16130000Y-9320000D03*
X16220000Y-9230000D03*
X16310000Y-9670000D03*
X15860000Y-9450000D03*
X15950000Y-9450000D03*
X16040000Y-9450000D03*
X16130000Y-9410000D03*
X16220000Y-9410000D03*
X16220000Y-9320000D03*
X16310000Y-9320000D03*
X16310000Y-9410000D03*
X16310000Y-9500000D03*
X16890000Y-7810000D03*
X16587434Y-7795811D03*
X14330000Y-8440000D03*
X13170000Y-8490000D03*
X13290000Y-8870000D03*
X13763397Y-8386037D03*
X16260000Y-7200000D03*
X16130000Y-7200000D03*
X14080000Y-8260000D03*
X14108738Y-8104999D03*
X14620000Y-8850000D03*
X15799999Y-7550000D03*
X13960000Y-7550000D03*
X13080000Y-9440000D03*
X13090000Y-8510000D03*
X13620004Y-7776900D03*
X16310000Y-9230000D03*
X16310000Y-9591250D03*
X16120000Y-9250000D03*
X15610000Y-9230000D03*
X15460000Y-9230000D03*
X15380000Y-9200000D03*
X14990000Y-9210000D03*
X15830000Y-7270000D03*
X15510000Y-9670000D03*
X14635000Y-9380000D03*
X13860000Y-8700005D03*
X15270000Y-9380000D03*
X15400000Y-8770000D03*
X15470000Y-8750000D03*
X15560000Y-8850000D03*
X15650000Y-8850000D03*
X15560000Y-8750000D03*
X15650000Y-8750000D03*
X15740000Y-8750000D03*
X15740000Y-8850000D03*
X15060000Y-9630000D03*
X16240000Y-8840000D03*
X16140000Y-8840000D03*
X16040000Y-8840000D03*
X16040000Y-8730000D03*
X16140000Y-8730000D03*
X16240000Y-8730000D03*
X15940000Y-8840000D03*
X15940000Y-8730000D03*
X16340000Y-8730000D03*
X16340000Y-8840000D03*
X16340000Y-8960000D03*
X16235000Y-8985000D03*
X16080000Y-7840000D03*
X15904261Y-8251659D03*
X14950000Y-8460000D03*
X16220000Y-7833430D03*
X15847905Y-8308440D03*
X15029982Y-8461737D03*
X16460000Y-7820000D03*
X15920000Y-8410000D03*
X15205142Y-8461693D03*
X16327872Y-7827274D03*
X15987192Y-8341031D03*
X15109999Y-8452000D03*
X14249999Y-8440000D03*
X14140000Y-7750000D03*
X13856725Y-8993023D03*
X13949447Y-8987966D03*
X14061714Y-9002186D03*
X13940000Y-8720000D03*
X14800000Y-9400000D03*
X14020000Y-9610000D03*
X14110000Y-9480000D03*
X13763202Y-9716847D03*
X14110000Y-9800000D03*
X13765001Y-9235222D03*
X13700178Y-9494822D03*
X14126941Y-9049235D03*
X14810000Y-8919999D03*
X14069829Y-9144997D03*
X14910000Y-8930000D03*
X13730001Y-7900703D03*
X13710000Y-8240000D03*
X13740000Y-8810000D03*
X13699139Y-7765158D03*
X14172749Y-8419201D03*
X14044770Y-7740375D03*
X14465002Y-8724930D03*
X14730000Y-8740000D03*
X14659942Y-8654209D03*
X13660000Y-8680000D03*
X14562431Y-8530651D03*
X13736322Y-8642259D03*
X14642424Y-8529506D03*
X13642124Y-8386287D03*
X14693352Y-8467809D03*
X13711652Y-8321652D03*
X13309997Y-8460003D03*
X13275502Y-9023062D03*
X13384960Y-7683992D03*
X13534677Y-8971468D03*
X13360000Y-7760000D03*
X13534972Y-8860153D03*
X13509625Y-7515230D03*
X13504961Y-7709695D03*
X13666383Y-8849479D03*
X13451757Y-8548467D03*
X13614960Y-9494233D03*
X14071269Y-9870001D03*
X15392231Y-9809999D03*
X15430000Y-9930000D03*
X15900000Y-9710000D03*
X13760060Y-9841364D03*
X15810000Y-9707500D03*
X13630000Y-9190000D03*
D39*
X14420000Y-9620000D02*
X14420000Y-9575000D01*
X14420000Y-9575000D02*
X14490000Y-9505000D01*
X14375000Y-9730000D02*
X14375000Y-9665000D01*
X14375000Y-9665000D02*
X14420000Y-9620000D01*
X15105000Y-9730000D02*
X15210000Y-9730000D01*
X15210000Y-9730000D02*
X15220000Y-9740000D01*
X14305000Y-9580000D02*
X14332989Y-9580000D01*
X14332989Y-9580000D02*
X14403849Y-9509139D01*
X13775000Y-9580000D02*
X13813838Y-9541162D01*
X13813838Y-9541162D02*
X13813838Y-9537581D01*
X13813838Y-9537581D02*
X13813838Y-9495155D01*
D40*
X13805000Y-9486317D02*
X13813838Y-9495155D01*
X13805000Y-9365000D02*
X13805000Y-9486317D01*
D39*
X14403849Y-9466713D02*
X14403849Y-9509139D01*
X14357136Y-9420000D02*
X14403849Y-9466713D01*
X14355000Y-9420000D02*
X14357136Y-9420000D01*
X14585000Y-9150000D02*
X14585000Y-9180000D01*
X14585000Y-9080000D02*
X14585000Y-9150000D01*
X14585000Y-9165000D02*
X14630000Y-9210000D01*
X14585000Y-9150000D02*
X14585000Y-9165000D01*
X14585000Y-9180000D02*
X14545000Y-9220000D01*
X16506250Y-8580000D02*
X16506250Y-8556250D01*
X16506250Y-8556250D02*
X16440000Y-8490000D01*
X16690000Y-9300000D02*
X16620000Y-9230000D01*
X16620000Y-9230000D02*
X16310000Y-9230000D01*
X15460000Y-9230000D02*
X15500000Y-9190000D01*
X15500000Y-9190000D02*
X15570000Y-9190000D01*
X15570000Y-9190000D02*
X15610000Y-9230000D01*
X15560244Y-8181366D02*
X15590244Y-8151366D01*
X15490000Y-8251610D02*
X15560244Y-8181366D01*
X15490000Y-8279500D02*
X15490000Y-8251610D01*
D40*
X15840000Y-9140000D02*
X15840000Y-9082000D01*
X15840000Y-9082000D02*
X15872000Y-9050000D01*
X15872000Y-9050000D02*
X15950000Y-9050000D01*
X15840000Y-9220000D02*
X15840000Y-9140000D01*
X15510000Y-9590000D02*
X15510000Y-9510000D01*
X15510000Y-9510000D02*
X15520000Y-9500000D01*
X15510000Y-9670000D02*
X15510000Y-9590000D01*
X16220000Y-9320000D02*
X16310000Y-9320000D01*
X16220000Y-9230000D02*
X16310000Y-9230000D01*
X16120000Y-9250000D02*
X16200000Y-9250000D01*
X16200000Y-9250000D02*
X16220000Y-9230000D01*
X16130000Y-9320000D02*
X16220000Y-9320000D01*
X15860000Y-9450000D02*
X15950000Y-9450000D01*
X16040000Y-9450000D02*
X15950000Y-9450000D01*
X16130000Y-9410000D02*
X16080000Y-9410000D01*
X16080000Y-9410000D02*
X16040000Y-9450000D01*
X16220000Y-9410000D02*
X16130000Y-9410000D01*
X16310000Y-9410000D02*
X16220000Y-9410000D01*
X16310000Y-9591250D02*
X16310000Y-9670000D01*
X16310000Y-9500000D02*
X16310000Y-9591250D01*
X16310000Y-9410000D02*
X16310000Y-9500000D01*
X16310000Y-9320000D02*
X16310000Y-9410000D01*
X16310000Y-9230000D02*
X16310000Y-9320000D01*
D41*
X16810000Y-7720000D02*
X16810000Y-7730000D01*
X16810000Y-7730000D02*
X16890000Y-7810000D01*
X16660000Y-7720000D02*
X16660000Y-7723246D01*
X16660000Y-7723246D02*
X16587434Y-7795811D01*
X14330000Y-8480000D02*
X14330000Y-8440000D01*
X14445003Y-8595003D02*
X14330000Y-8480000D01*
X14445003Y-8655003D02*
X14445003Y-8595003D01*
X14530000Y-8802426D02*
X14530000Y-8701125D01*
X14530000Y-8701125D02*
X14493803Y-8664929D01*
X14493803Y-8664929D02*
X14454929Y-8664929D01*
X14454929Y-8664929D02*
X14445003Y-8655003D01*
X14620000Y-8850000D02*
X14577574Y-8850000D01*
X14577574Y-8850000D02*
X14530000Y-8802426D01*
D39*
X13240000Y-8605000D02*
X13240000Y-8560000D01*
X13240000Y-8560000D02*
X13170000Y-8490000D01*
X13240000Y-8605000D02*
X13249996Y-8595004D01*
X13249996Y-8595004D02*
X13249996Y-8591980D01*
D41*
X13405000Y-8865000D02*
X13295000Y-8865000D01*
X13295000Y-8865000D02*
X13290000Y-8870000D01*
D40*
X13755000Y-8515000D02*
X13755000Y-8394434D01*
X13755000Y-8394434D02*
X13763397Y-8386037D01*
D41*
X16080000Y-7275000D02*
X16080000Y-7250000D01*
X16080000Y-7250000D02*
X16130000Y-7200000D01*
X16660000Y-7720000D02*
X16660000Y-7730000D01*
X16080000Y-7280000D02*
X16225000Y-7280000D01*
X16225000Y-7280000D02*
X16230000Y-7275000D01*
X16810000Y-7720000D02*
X16810000Y-7740000D01*
X16660000Y-7720000D02*
X16810000Y-7720000D01*
X16230000Y-7275000D02*
X16230000Y-7230000D01*
X16230000Y-7230000D02*
X16260000Y-7200000D01*
D39*
X15490000Y-8279500D02*
X15490000Y-8260000D01*
X15490000Y-8279500D02*
X15490000Y-8266967D01*
X14020000Y-8350000D02*
X14020000Y-8320000D01*
X14020000Y-8320000D02*
X14080000Y-8260000D01*
X14078738Y-8074999D02*
X14108738Y-8104999D01*
X14075000Y-8071261D02*
X14078738Y-8074999D01*
X14075000Y-8050000D02*
X14075000Y-8071261D01*
X14585000Y-9080000D02*
X14585000Y-8980000D01*
X14585000Y-8980000D02*
X14625000Y-8940000D01*
X14625000Y-8940000D02*
X14625000Y-8855000D01*
X14625000Y-8855000D02*
X14620000Y-8850000D01*
X14375000Y-9730000D02*
X14375000Y-9785000D01*
X14870000Y-9165000D02*
X14945000Y-9165000D01*
X14945000Y-9165000D02*
X14990000Y-9210000D01*
X15629500Y-7490000D02*
X15739999Y-7490000D01*
X15739999Y-7490000D02*
X15769999Y-7520000D01*
X15769999Y-7520000D02*
X15799999Y-7550000D01*
X13880000Y-7550000D02*
X13960000Y-7550000D01*
X13095000Y-9330000D02*
X13095000Y-9425000D01*
X13095000Y-9425000D02*
X13080000Y-9440000D01*
X13090000Y-8605000D02*
X13090000Y-8510000D01*
D41*
X13610000Y-7700000D02*
X13610000Y-7766896D01*
X13610000Y-7766896D02*
X13620004Y-7776900D01*
D39*
X14990000Y-9210000D02*
X14990000Y-9260000D01*
X14990000Y-9260000D02*
X15030000Y-9300000D01*
X15977500Y-9067500D02*
X16037500Y-9067500D01*
X15960000Y-9050000D02*
X15977500Y-9067500D01*
X15950000Y-9050000D02*
X15960000Y-9050000D01*
X16152500Y-9625000D02*
X16276250Y-9625000D01*
X16276250Y-9625000D02*
X16310000Y-9591250D01*
X16140000Y-9135000D02*
X16140000Y-9230000D01*
X16140000Y-9230000D02*
X16120000Y-9250000D01*
X15380000Y-9200000D02*
X15430000Y-9200000D01*
X15430000Y-9200000D02*
X15460000Y-9230000D01*
X15350000Y-9115000D02*
X15350000Y-9170000D01*
X15350000Y-9170000D02*
X15380000Y-9200000D01*
X15350000Y-9115000D02*
X15540000Y-9115000D01*
X15950000Y-9050000D02*
X16055000Y-9050000D01*
X16055000Y-9050000D02*
X16140000Y-9135000D01*
X14075000Y-8050000D02*
X14162500Y-8050000D01*
X15045000Y-9315000D02*
X14897500Y-9315000D01*
X14897500Y-9315000D02*
X14887500Y-9325000D01*
X14870000Y-9165000D02*
X14870000Y-9307500D01*
X14870000Y-9307500D02*
X14887500Y-9325000D01*
X14370500Y-8050000D02*
X14075000Y-8050000D01*
X15629500Y-7210000D02*
X15629500Y-7070000D01*
X15629500Y-7210000D02*
X15770000Y-7210000D01*
X15770000Y-7210000D02*
X15830000Y-7270000D01*
X13880000Y-7550000D02*
X13920000Y-7550000D01*
X15660000Y-9625000D02*
X15555000Y-9625000D01*
X15555000Y-9625000D02*
X15510000Y-9670000D01*
X14375000Y-9730000D02*
X14375000Y-9950000D01*
X15105000Y-9730000D02*
X15105000Y-9950000D01*
X15105000Y-9730000D02*
X15105000Y-9745000D01*
D41*
X13762500Y-7600000D02*
X13830000Y-7600000D01*
X13830000Y-7600000D02*
X13880000Y-7550000D01*
D40*
X14370500Y-8050000D02*
X14327400Y-8050000D01*
D39*
X15615000Y-9855000D02*
X15615000Y-9670000D01*
X15615000Y-9670000D02*
X15660000Y-9625000D01*
X15822500Y-9855000D02*
X15615000Y-9855000D01*
X15990000Y-9855000D02*
X15822500Y-9855000D01*
X16197500Y-9855000D02*
X15990000Y-9855000D01*
X16152500Y-9625000D02*
X16152500Y-9810000D01*
X16152500Y-9810000D02*
X16197500Y-9855000D01*
X16152500Y-9625000D02*
X16072250Y-9625000D01*
X16072250Y-9625000D02*
X16038750Y-9591500D01*
X16038750Y-9591500D02*
X16038750Y-9589000D01*
D40*
X14335110Y-9951700D02*
X14384611Y-9951700D01*
X13322823Y-9165000D02*
X13405000Y-9165000D01*
X13292499Y-9134676D02*
X13322823Y-9165000D01*
X13292499Y-9130173D02*
X13292499Y-9134676D01*
X13254826Y-9092500D02*
X13292499Y-9130173D01*
X13242500Y-9092500D02*
X13254826Y-9092500D01*
X13150000Y-9000000D02*
X13242500Y-9092500D01*
X13150000Y-8925000D02*
X13150000Y-9000000D01*
X13150000Y-8925000D02*
X13150000Y-8815000D01*
X13150000Y-8815000D02*
X13090000Y-8755000D01*
X13245000Y-9330000D02*
X13245000Y-9270000D01*
X13245000Y-9270000D02*
X13150000Y-9175000D01*
X13150000Y-9175000D02*
X13265000Y-9175000D01*
X13265000Y-9175000D02*
X13305000Y-9215000D01*
X13305000Y-9215000D02*
X13405000Y-9215000D01*
X14255000Y-9015000D02*
X14360000Y-9015000D01*
X14360000Y-9015000D02*
X14372500Y-9002500D01*
X14372500Y-9002500D02*
X14410000Y-9002500D01*
X14410000Y-9002500D02*
X14472500Y-8940000D01*
X14472500Y-8940000D02*
X14475000Y-8940000D01*
D41*
X14099999Y-9930001D02*
X14155000Y-9875000D01*
X13970001Y-9930001D02*
X14099999Y-9930001D01*
X13915000Y-9875000D02*
X13970001Y-9930001D01*
X13860000Y-9875000D02*
X13915000Y-9875000D01*
X14155000Y-9875000D02*
X14210000Y-9875000D01*
D40*
X14205000Y-9332824D02*
X14205000Y-9357500D01*
X14124675Y-9252499D02*
X14205000Y-9332824D01*
X14205000Y-9357500D02*
X14205000Y-9420000D01*
X14062501Y-9252499D02*
X14124675Y-9252499D01*
X14055000Y-9260000D02*
X14062501Y-9252499D01*
X14055000Y-9365000D02*
X14055000Y-9260000D01*
D41*
X14155000Y-9580000D02*
X14157500Y-9580000D01*
X14157500Y-9580000D02*
X14275000Y-9697500D01*
X14275000Y-9697500D02*
X14275000Y-9822500D01*
X14275000Y-9822500D02*
X14222500Y-9875000D01*
X14222500Y-9875000D02*
X14210000Y-9875000D01*
D39*
X14056000Y-9535000D02*
X13970000Y-9535000D01*
X14101000Y-9580000D02*
X14056000Y-9535000D01*
X14155000Y-9580000D02*
X14101000Y-9580000D01*
X13970000Y-9535000D02*
X13925000Y-9580000D01*
D40*
X14155000Y-9580000D02*
X14115000Y-9580000D01*
X14115000Y-9580000D02*
X14005000Y-9470000D01*
X14005000Y-9470000D02*
X14005000Y-9365000D01*
X14152500Y-9580000D02*
X14155000Y-9580000D01*
D39*
X14205000Y-9420000D02*
X14205000Y-9530000D01*
X14205000Y-9530000D02*
X14155000Y-9580000D01*
D40*
X13857499Y-9449676D02*
X13925000Y-9517177D01*
X13857499Y-9367499D02*
X13857499Y-9449676D01*
X13855000Y-9365000D02*
X13857499Y-9367499D01*
X13925000Y-9517500D02*
X13925000Y-9580000D01*
X13925000Y-9517177D02*
X13925000Y-9517500D01*
D39*
X14490000Y-9355000D02*
X14472500Y-9337500D01*
X14472500Y-9337500D02*
X14287500Y-9337500D01*
X14287500Y-9337500D02*
X14205000Y-9420000D01*
X13945000Y-9560000D02*
X13925000Y-9580000D01*
X14205000Y-9420000D02*
X14205000Y-9440000D01*
X14490000Y-9355000D02*
X14475000Y-9340000D01*
X14475000Y-9340000D02*
X14475000Y-9120000D01*
X14475000Y-9120000D02*
X14435000Y-9080000D01*
X14702500Y-9325000D02*
X14520000Y-9325000D01*
X14520000Y-9325000D02*
X14490000Y-9355000D01*
X14435000Y-9080000D02*
X14470000Y-9115000D01*
X14702500Y-9325000D02*
X14690000Y-9325000D01*
X14690000Y-9325000D02*
X14635000Y-9380000D01*
D40*
X13805000Y-8667745D02*
X13805000Y-8625000D01*
X13556371Y-8747500D02*
X13725245Y-8747500D01*
X13725245Y-8747500D02*
X13805000Y-8667745D01*
X13405000Y-8815000D02*
X13488871Y-8815000D01*
X13488871Y-8815000D02*
X13556371Y-8747500D01*
D39*
X14181000Y-8180000D02*
X14046500Y-8180000D01*
X14405000Y-8477217D02*
X14405000Y-8404000D01*
X14405000Y-8404000D02*
X14181000Y-8180000D01*
X14500004Y-8592221D02*
X14500004Y-8572221D01*
X14585001Y-8677218D02*
X14500004Y-8592221D01*
X14585001Y-8707218D02*
X14585001Y-8677218D01*
X14720000Y-9165000D02*
X14720000Y-8842217D01*
X14720000Y-8842217D02*
X14585001Y-8707218D01*
X14500004Y-8572221D02*
X14405000Y-8477217D01*
D41*
X13560004Y-7810294D02*
X13560004Y-7742746D01*
X13586611Y-7836901D02*
X13560004Y-7810294D01*
X13566250Y-7736500D02*
X13566250Y-7660000D01*
X13566250Y-7660000D02*
X13576250Y-7650000D01*
X13576250Y-7650000D02*
X13610000Y-7650000D01*
X13560004Y-7742746D02*
X13566250Y-7736500D01*
X13762500Y-7790595D02*
X13716194Y-7836901D01*
X13762500Y-7700000D02*
X13762500Y-7790595D01*
X13716194Y-7836901D02*
X13586611Y-7836901D01*
D40*
X13322823Y-8815000D02*
X13405000Y-8815000D01*
X13262823Y-8755000D02*
X13322823Y-8815000D01*
X13240000Y-8755000D02*
X13262823Y-8755000D01*
X13805000Y-8432824D02*
X13870000Y-8367823D01*
X13805000Y-8515000D02*
X13805000Y-8432824D01*
X13870000Y-8367823D02*
X13870000Y-8350000D01*
X13805000Y-8620000D02*
X13805000Y-8645005D01*
X13830000Y-8670006D02*
X13860000Y-8700005D01*
X13805000Y-8645005D02*
X13830000Y-8670006D01*
D39*
X13960000Y-8262500D02*
X13964000Y-8262500D01*
X13964000Y-8262500D02*
X14046500Y-8180000D01*
X13987500Y-8100000D02*
X13987500Y-7987500D01*
X14046500Y-8180000D02*
X13987500Y-8121000D01*
X13987500Y-8121000D02*
X13987500Y-8100000D01*
D41*
X13880000Y-7700000D02*
X13762500Y-7700000D01*
D40*
X13855000Y-9365000D02*
X13855000Y-9435000D01*
X13855000Y-9435000D02*
X13852501Y-9437499D01*
X13805000Y-8600000D02*
X13805000Y-8625000D01*
D39*
X13960000Y-8262500D02*
X13872500Y-8350000D01*
X13872500Y-8350000D02*
X13870000Y-8350000D01*
D40*
X13805000Y-8620000D02*
X13805000Y-8625000D01*
X13805000Y-8620000D02*
X13805000Y-8515000D01*
X13805000Y-8515000D02*
X13805000Y-8600000D01*
D41*
X13880000Y-7700000D02*
X13880000Y-7880000D01*
X13880000Y-7880000D02*
X13987500Y-7987500D01*
D39*
X13987500Y-7987500D02*
X14075000Y-7900000D01*
X14075000Y-7902500D02*
X14075000Y-7900000D01*
D40*
X14435000Y-9080000D02*
X14420000Y-9065000D01*
X14420000Y-9065000D02*
X14255000Y-9065000D01*
D39*
X14370500Y-7770000D02*
X14370500Y-7630000D01*
X14370500Y-7910000D02*
X14370500Y-7770000D01*
X14075000Y-7900000D02*
X14360500Y-7900000D01*
X14360500Y-7900000D02*
X14370500Y-7910000D01*
X14720000Y-9165000D02*
X14720000Y-9307500D01*
X14720000Y-9307500D02*
X14702500Y-9325000D01*
D41*
X13880000Y-7700000D02*
X13880000Y-7760000D01*
D39*
X14720000Y-9165000D02*
X14722500Y-9165000D01*
X15340000Y-9320000D02*
X15330000Y-9320000D01*
X15330000Y-9320000D02*
X15270000Y-9380000D01*
D40*
X15470000Y-8750000D02*
X15420000Y-8750000D01*
X15420000Y-8750000D02*
X15400000Y-8770000D01*
X15560000Y-8750000D02*
X15470000Y-8750000D01*
D39*
X15540000Y-8962500D02*
X15540000Y-8965000D01*
X15452500Y-8875000D02*
X15540000Y-8962500D01*
X15260000Y-9240000D02*
X15260000Y-8908997D01*
X15340000Y-9320000D02*
X15260000Y-9240000D01*
X15293996Y-8875000D02*
X15452500Y-8875000D01*
X15260000Y-8908997D02*
X15293996Y-8875000D01*
X15545000Y-9320000D02*
X15340000Y-9320000D01*
X15715000Y-9435000D02*
X15615000Y-9435000D01*
X15615000Y-9435000D02*
X15545000Y-9365000D01*
D40*
X15650000Y-8850000D02*
X15560000Y-8850000D01*
X15740000Y-8850000D02*
X15650000Y-8850000D01*
X15650000Y-8750000D02*
X15560000Y-8750000D01*
X15740000Y-8750000D02*
X15650000Y-8750000D01*
X15740000Y-8850000D02*
X15740000Y-8750000D01*
X15730000Y-8955000D02*
X15730000Y-8860000D01*
X15730000Y-8860000D02*
X15740000Y-8850000D01*
X15730000Y-8955000D02*
X15652000Y-8955000D01*
X15652000Y-8955000D02*
X15640000Y-8943000D01*
D39*
X15715000Y-9435000D02*
X15776250Y-9496250D01*
X15730000Y-8955000D02*
X15550000Y-8955000D01*
X15550000Y-8955000D02*
X15540000Y-8965000D01*
D41*
X15776250Y-9589000D02*
X15776250Y-9496250D01*
X15776250Y-9496250D02*
X15773750Y-9493750D01*
D39*
X16340000Y-8960000D02*
X16640000Y-8960000D01*
X16640000Y-8960000D02*
X16690000Y-9010000D01*
X16340000Y-8730000D02*
X16456250Y-8730000D01*
X16456250Y-8730000D02*
X16506250Y-8680000D01*
X15060000Y-9630000D02*
X15060000Y-9569000D01*
X15060000Y-9569000D02*
X15031000Y-9540000D01*
X15000000Y-9540000D02*
X15130000Y-9540000D01*
X14900000Y-9540000D02*
X15000000Y-9540000D01*
X15000000Y-9540000D02*
X15031000Y-9540000D01*
D40*
X16040000Y-8840000D02*
X15940000Y-8840000D01*
X16140000Y-8840000D02*
X16040000Y-8840000D01*
X16240000Y-8840000D02*
X16140000Y-8840000D01*
X16340000Y-8840000D02*
X16240000Y-8840000D01*
X16040000Y-8730000D02*
X15940000Y-8730000D01*
X16140000Y-8730000D02*
X16040000Y-8730000D01*
X16240000Y-8730000D02*
X16140000Y-8730000D01*
X16340000Y-8730000D02*
X16240000Y-8730000D01*
X16340000Y-8840000D02*
X16302500Y-8840000D01*
X16340000Y-8730000D02*
X16340000Y-8840000D01*
D39*
X15389627Y-8687007D02*
X15411632Y-8665001D01*
X15189999Y-8871479D02*
X15374471Y-8687007D01*
X15875001Y-8665001D02*
X15910000Y-8700000D01*
X15189999Y-9480001D02*
X15189999Y-8871479D01*
X15411632Y-8665001D02*
X15875001Y-8665001D01*
X15374471Y-8687007D02*
X15389627Y-8687007D01*
X14815000Y-9625000D02*
X14900000Y-9540000D01*
X14815000Y-9665000D02*
X14815000Y-9625000D01*
X15130000Y-9540000D02*
X15189999Y-9480001D01*
X15910000Y-8700000D02*
X15940000Y-8730000D01*
D40*
X16340000Y-8860000D02*
X16340000Y-8740000D01*
X16340000Y-8990000D02*
X16340000Y-8860000D01*
X16235000Y-8985000D02*
X16335000Y-8985000D01*
X16335000Y-8985000D02*
X16340000Y-8990000D01*
D39*
X16227500Y-8985000D02*
X16250000Y-9007500D01*
X16250000Y-9000000D02*
X16235000Y-8985000D01*
D40*
X16140000Y-8985000D02*
X16235000Y-8985000D01*
D39*
X16140000Y-8985000D02*
X16227500Y-8985000D01*
D41*
X16080000Y-7840000D02*
X16080000Y-7740000D01*
X15942004Y-8213915D02*
X15942004Y-8054855D01*
X15942004Y-8054855D02*
X16080000Y-7916860D01*
X16080000Y-7916860D02*
X16080000Y-7840000D01*
X15904261Y-8251659D02*
X15942004Y-8213915D01*
X14930000Y-8279500D02*
X14930000Y-8440000D01*
X14930000Y-8440000D02*
X14950000Y-8460000D01*
D40*
X14930000Y-8279500D02*
X14930000Y-8362000D01*
X14930000Y-8279500D02*
X14930000Y-8363858D01*
D41*
X16080000Y-7580000D02*
X16080000Y-7425000D01*
X16193430Y-7860000D02*
X16220000Y-7833430D01*
X15982006Y-8071424D02*
X16193430Y-7860000D01*
X16220000Y-7833430D02*
X16220000Y-7740000D01*
X15903520Y-8338440D02*
X15982006Y-8259955D01*
X15847905Y-8308440D02*
X15877905Y-8338440D01*
X15877905Y-8338440D02*
X15903520Y-8338440D01*
X15982006Y-8259955D02*
X15982006Y-8071424D01*
X16220000Y-7740000D02*
X16213430Y-7740000D01*
D40*
X15029982Y-8319518D02*
X15029982Y-8419310D01*
X15070000Y-8279500D02*
X15029982Y-8319518D01*
X15029982Y-8419310D02*
X15029982Y-8461737D01*
D41*
X16220000Y-7580000D02*
X16220000Y-7435000D01*
X16220000Y-7435000D02*
X16230000Y-7425000D01*
X16460000Y-7820000D02*
X16500000Y-7780000D01*
X16430000Y-7850000D02*
X16460000Y-7820000D01*
X16500000Y-7780000D02*
X16500000Y-7740000D01*
X16390000Y-7850000D02*
X16430000Y-7850000D01*
X16065370Y-8174630D02*
X16390000Y-7850000D01*
X16015370Y-8410000D02*
X16065370Y-8360000D01*
X16065370Y-8360000D02*
X16065370Y-8174630D01*
X15920000Y-8410000D02*
X16015370Y-8410000D01*
X15234835Y-8432000D02*
X15205142Y-8461693D01*
X15284000Y-8432000D02*
X15350000Y-8279500D01*
X15290000Y-8426000D02*
X15284000Y-8432000D01*
X15290000Y-8339500D02*
X15290000Y-8426000D01*
X15350000Y-8279500D02*
X15290000Y-8339500D01*
X15284000Y-8432000D02*
X15234835Y-8432000D01*
X16500000Y-7580000D02*
X16650000Y-7580000D01*
X16650000Y-7580000D02*
X16660000Y-7570000D01*
X16332726Y-7827274D02*
X16327872Y-7827274D01*
X16360000Y-7800000D02*
X16332726Y-7827274D01*
X16360000Y-7740000D02*
X16360000Y-7800000D01*
X16297872Y-7857274D02*
X16327872Y-7827274D01*
X16022007Y-8133139D02*
X16297872Y-7857274D01*
X16022007Y-8306216D02*
X16022007Y-8133139D01*
X15987192Y-8341031D02*
X16022007Y-8306216D01*
D40*
X15127500Y-8452000D02*
X15109999Y-8452000D01*
X15152500Y-8337000D02*
X15152500Y-8427000D01*
X15152500Y-8427000D02*
X15127500Y-8452000D01*
X15210000Y-8279500D02*
X15152500Y-8337000D01*
D41*
X16360000Y-7580000D02*
X16360000Y-7520000D01*
X16370000Y-7510000D02*
X16730000Y-7510000D01*
X16360000Y-7520000D02*
X16370000Y-7510000D01*
X16730000Y-7510000D02*
X16790000Y-7570000D01*
X16790000Y-7570000D02*
X16810000Y-7570000D01*
D40*
X15695000Y-9320000D02*
X15840000Y-9320000D01*
X16000000Y-9320000D02*
X16000000Y-9195000D01*
X16000000Y-9195000D02*
X15950000Y-9145000D01*
D41*
X14249999Y-8440000D02*
X14249999Y-8456569D01*
X14249999Y-8456569D02*
X14263430Y-8470000D01*
X14405002Y-8611572D02*
X14249999Y-8456569D01*
X14349894Y-8865000D02*
X14405002Y-8809892D01*
X14405002Y-8809892D02*
X14405002Y-8611572D01*
X14255000Y-8865000D02*
X14349894Y-8865000D01*
X14199051Y-7378949D02*
X14199051Y-7650000D01*
X14199051Y-7690949D02*
X14199051Y-7650000D01*
X14140000Y-7750000D02*
X14199051Y-7690949D01*
X14370500Y-7350000D02*
X14228000Y-7350000D01*
X14228000Y-7350000D02*
X14199051Y-7378949D01*
X14055000Y-8515000D02*
X14055000Y-8794748D01*
X14055000Y-8794748D02*
X13886725Y-8963023D01*
X13886725Y-8963023D02*
X13856725Y-8993023D01*
X14105000Y-8770000D02*
X14105000Y-8800000D01*
X14105000Y-8800000D02*
X14105000Y-8821102D01*
X14105000Y-8800000D02*
X14105000Y-8832413D01*
X14105000Y-8832413D02*
X13949447Y-8987966D01*
X14105000Y-8770000D02*
X14105000Y-8785330D01*
X14105000Y-8515000D02*
X14105000Y-8770000D01*
X14005000Y-8615000D02*
X14005000Y-8515000D01*
X14005000Y-8743800D02*
X14005000Y-8615000D01*
X13796724Y-8952077D02*
X14005000Y-8743800D01*
X13796724Y-9027924D02*
X13796724Y-8952077D01*
X13838799Y-9069999D02*
X13796724Y-9027924D01*
X13993901Y-9069999D02*
X13838799Y-9069999D01*
X14061714Y-9002186D02*
X13993901Y-9069999D01*
X13940000Y-8720000D02*
X13910000Y-8750000D01*
X13910000Y-8750000D02*
X13910000Y-8766570D01*
X13910000Y-8766570D02*
X13705000Y-8971570D01*
X13705000Y-9365000D02*
X13705000Y-8971570D01*
D39*
X14800000Y-9455000D02*
X14702500Y-9455000D01*
X14887500Y-9455000D02*
X14800000Y-9455000D01*
X14800000Y-9455000D02*
X14800000Y-9400000D01*
D41*
X15110000Y-9180000D02*
X15110000Y-9367500D01*
X15110000Y-9367500D02*
X15030000Y-9447500D01*
X15030000Y-9447500D02*
X15030000Y-9450000D01*
X15090000Y-9115000D02*
X15090000Y-9160000D01*
X15090000Y-9160000D02*
X15110000Y-9180000D01*
D39*
X14515000Y-9665000D02*
X14515000Y-9642500D01*
X14515000Y-9642500D02*
X14702500Y-9455000D01*
X14515000Y-9665000D02*
X14515000Y-9625000D01*
X14887500Y-9455000D02*
X15035000Y-9455000D01*
D41*
X13915000Y-9745000D02*
X13860000Y-9745000D01*
X13960000Y-9700000D02*
X13915000Y-9745000D01*
X13960000Y-9691200D02*
X13960000Y-9700000D01*
X13990000Y-9661200D02*
X13960000Y-9691200D01*
X13990000Y-9640000D02*
X13990000Y-9661200D01*
X14020000Y-9610000D02*
X13990000Y-9640000D01*
X14105000Y-9365000D02*
X14105000Y-9475000D01*
X14105000Y-9475000D02*
X14110000Y-9480000D01*
X13700178Y-9494822D02*
X13700178Y-9653824D01*
X13700178Y-9653824D02*
X13763202Y-9716847D01*
X14165000Y-9745000D02*
X14110000Y-9800000D01*
X14210000Y-9745000D02*
X14165000Y-9745000D01*
X14255000Y-9215000D02*
X14147282Y-9215000D01*
X14147282Y-9215000D02*
X14137504Y-9205222D01*
X14137504Y-9205222D02*
X13795001Y-9205222D01*
X13795001Y-9205222D02*
X13765001Y-9235222D01*
X14255000Y-9215000D02*
X14255000Y-9227498D01*
D40*
X14126941Y-9049235D02*
X14126941Y-9069117D01*
X14126941Y-9069117D02*
X14172823Y-9115000D01*
X14172823Y-9115000D02*
X14255000Y-9115000D01*
D41*
X14144999Y-9083640D02*
X14176359Y-9115000D01*
X14176359Y-9115000D02*
X14255000Y-9115000D01*
X14815000Y-8924999D02*
X14810000Y-8919999D01*
X14815000Y-9020000D02*
X14815000Y-8924999D01*
X14112255Y-9144997D02*
X14069829Y-9144997D01*
X14131567Y-9144997D02*
X14112255Y-9144997D01*
X14255000Y-9165000D02*
X14151570Y-9165000D01*
X14151570Y-9165000D02*
X14131567Y-9144997D01*
D40*
X14255000Y-9165000D02*
X14340000Y-9165000D01*
X14340000Y-9165000D02*
X14395000Y-9220000D01*
D41*
X14255000Y-9165000D02*
X14155000Y-9165000D01*
X14945000Y-9020000D02*
X14945000Y-8965000D01*
X14945000Y-8965000D02*
X14910000Y-8930000D01*
X14922500Y-8820000D02*
X14880000Y-8820000D01*
X14925000Y-8820000D02*
X14922500Y-8820000D01*
X15070000Y-8965000D02*
X14925000Y-8820000D01*
X15090000Y-8965000D02*
X15070000Y-8965000D01*
X13740000Y-8880000D02*
X13740000Y-8852426D01*
X13664999Y-8985154D02*
X13664999Y-8955001D01*
X13664999Y-8955001D02*
X13740000Y-8880000D01*
X13535153Y-9115000D02*
X13664999Y-8985154D01*
X13405000Y-9115000D02*
X13535153Y-9115000D01*
X13740000Y-8852426D02*
X13740000Y-8810000D01*
X13710000Y-7920704D02*
X13730001Y-7900703D01*
X13710000Y-8240000D02*
X13710000Y-7920704D01*
X13477309Y-9115000D02*
X13482992Y-9120683D01*
X13405000Y-9115000D02*
X13477309Y-9115000D01*
D40*
X13661250Y-7727269D02*
X13669139Y-7735159D01*
X13661250Y-7701250D02*
X13661250Y-7727269D01*
X13669139Y-7735159D02*
X13699139Y-7765158D01*
X15730000Y-9145000D02*
X15730000Y-9090000D01*
X15350000Y-8965000D02*
X15370000Y-8965000D01*
X15370000Y-8965000D02*
X15447500Y-9042500D01*
X15447500Y-9042500D02*
X15682500Y-9042500D01*
X15682500Y-9042500D02*
X15730000Y-9090000D01*
D41*
X14365001Y-8646360D02*
X14172749Y-8454108D01*
X14365001Y-8793323D02*
X14365001Y-8646360D01*
X14172749Y-8454108D02*
X14172749Y-8419201D01*
X14255000Y-8815000D02*
X14343324Y-8815000D01*
X14343324Y-8815000D02*
X14365001Y-8793323D01*
X14074770Y-7710375D02*
X14044770Y-7740375D01*
X14150000Y-7288000D02*
X14150000Y-7635146D01*
X14150000Y-7635146D02*
X14074770Y-7710375D01*
X14228000Y-7210000D02*
X14150000Y-7288000D01*
X14370500Y-7210000D02*
X14228000Y-7210000D01*
X15910000Y-7488000D02*
X15910000Y-8030290D01*
X15902003Y-8165542D02*
X15837887Y-8229658D01*
X15787905Y-8283176D02*
X15787905Y-8423295D01*
X15629500Y-7350000D02*
X15772000Y-7350000D01*
X15787905Y-8423295D02*
X15611200Y-8600000D01*
X15366845Y-8632006D02*
X15351689Y-8632006D01*
X14772426Y-8740000D02*
X14730000Y-8740000D01*
X15351689Y-8632006D02*
X15243695Y-8740000D01*
X15902003Y-8038287D02*
X15902003Y-8165542D01*
X15837887Y-8229658D02*
X15837887Y-8233194D01*
X15837887Y-8233194D02*
X15787905Y-8283176D01*
X15398850Y-8600000D02*
X15366845Y-8632006D01*
X15243695Y-8740000D02*
X14772426Y-8740000D01*
X15611200Y-8600000D02*
X15398850Y-8600000D01*
X15910000Y-8030290D02*
X15902003Y-8038287D01*
X15772000Y-7350000D02*
X15910000Y-7488000D01*
X14465002Y-8767356D02*
X14465002Y-8724930D01*
X14465002Y-8806462D02*
X14465002Y-8767356D01*
X14356464Y-8915000D02*
X14465002Y-8806462D01*
X14255000Y-8915000D02*
X14356464Y-8915000D01*
X15797886Y-8213089D02*
X15797886Y-8216625D01*
X15382281Y-8559999D02*
X15350276Y-8592005D01*
X15747904Y-8406726D02*
X15594631Y-8559999D01*
X15272916Y-8654209D02*
X14702368Y-8654209D01*
X15862002Y-7720002D02*
X15862002Y-8148973D01*
X15350276Y-8592005D02*
X15335120Y-8592005D01*
X15772000Y-7630000D02*
X15862002Y-7720002D01*
X15335120Y-8592005D02*
X15272916Y-8654209D01*
X15747904Y-8266607D02*
X15747904Y-8406726D01*
X15629500Y-7630000D02*
X15772000Y-7630000D01*
X14702368Y-8654209D02*
X14659942Y-8654209D01*
X15862002Y-8148973D02*
X15797886Y-8213089D01*
X15797886Y-8216625D02*
X15747904Y-8266607D01*
X15594631Y-8559999D02*
X15382281Y-8559999D01*
X13605000Y-8515000D02*
X13605000Y-8625000D01*
X13605000Y-8625000D02*
X13660000Y-8680000D01*
X15707903Y-8390157D02*
X15578062Y-8519998D01*
X15365712Y-8519998D02*
X15333707Y-8552003D01*
X15822001Y-8132404D02*
X15757885Y-8196520D01*
X15822001Y-7820001D02*
X15822001Y-8132404D01*
X15772000Y-7770000D02*
X15822001Y-7820001D01*
X14562431Y-8573077D02*
X14562431Y-8530651D01*
X14703458Y-8610001D02*
X14687665Y-8594208D01*
X15333707Y-8552003D02*
X15318551Y-8552003D01*
X15757885Y-8196520D02*
X15757885Y-8200056D01*
X15757885Y-8200056D02*
X15707903Y-8250038D01*
X15629500Y-7770000D02*
X15772000Y-7770000D01*
X14687665Y-8594208D02*
X14583562Y-8594208D01*
X15260554Y-8610001D02*
X14703458Y-8610001D01*
X15707903Y-8250038D02*
X15707903Y-8390157D01*
X15318551Y-8552003D02*
X15260554Y-8610001D01*
X14583562Y-8594208D02*
X14562431Y-8573077D01*
X15578062Y-8519998D02*
X15365712Y-8519998D01*
X13719065Y-8625001D02*
X13736322Y-8642259D01*
X13686360Y-8625001D02*
X13719065Y-8625001D01*
X13655000Y-8593641D02*
X13686360Y-8625001D01*
X13655000Y-8515000D02*
X13655000Y-8593641D01*
X13655000Y-8515000D02*
X13659999Y-8510001D01*
X15349143Y-8479997D02*
X15317138Y-8512002D01*
X15667902Y-8373588D02*
X15561493Y-8479997D01*
X14725344Y-8570000D02*
X14684850Y-8529506D01*
X15301983Y-8512002D02*
X15243985Y-8570000D01*
X14684850Y-8529506D02*
X14642424Y-8529506D01*
X15317138Y-8512002D02*
X15301983Y-8512002D01*
X15717883Y-8183487D02*
X15667902Y-8233469D01*
X15782000Y-7920000D02*
X15782000Y-8115835D01*
X15782000Y-8115835D02*
X15717883Y-8179952D01*
X15629500Y-7910000D02*
X15772000Y-7910000D01*
X15243985Y-8570000D02*
X14725344Y-8570000D01*
X15717883Y-8179952D02*
X15717883Y-8183487D01*
X15667902Y-8233469D02*
X15667902Y-8373588D01*
X15561493Y-8479997D02*
X15349143Y-8479997D01*
X15772000Y-7910000D02*
X15782000Y-7920000D01*
X13705000Y-8515000D02*
X13705000Y-8415000D01*
X13676287Y-8386287D02*
X13642124Y-8386287D01*
X13705000Y-8415000D02*
X13676287Y-8386287D01*
X15675382Y-8165883D02*
X15627900Y-8213365D01*
X13669226Y-8321652D02*
X13711652Y-8321652D01*
X13621488Y-8321652D02*
X13669226Y-8321652D01*
X13555000Y-8388140D02*
X13621488Y-8321652D01*
X13555000Y-8515000D02*
X13555000Y-8388140D01*
X15285414Y-8472001D02*
X15235062Y-8522353D01*
X15235062Y-8522353D02*
X14747895Y-8522353D01*
X15544924Y-8439996D02*
X15332575Y-8439996D01*
X15300569Y-8472001D02*
X15285414Y-8472001D01*
X15332575Y-8439996D02*
X15300569Y-8472001D01*
X14747895Y-8522353D02*
X14723352Y-8497809D01*
X15675382Y-8095882D02*
X15675382Y-8165883D01*
X15629500Y-8050000D02*
X15675382Y-8095882D01*
X15627900Y-8213365D02*
X15627900Y-8357019D01*
X14723352Y-8497809D02*
X14693352Y-8467809D01*
X15627900Y-8357019D02*
X15544924Y-8439996D01*
X13555000Y-8515000D02*
X13555000Y-8535000D01*
X13309997Y-8460003D02*
X13339996Y-8430004D01*
X13389996Y-8430004D02*
X13600000Y-8220000D01*
X13444960Y-7676239D02*
X13505969Y-7615231D01*
X13339996Y-8430004D02*
X13389996Y-8430004D01*
X13600000Y-8220000D02*
X13600000Y-7970000D01*
X13600000Y-7970000D02*
X13444960Y-7814960D01*
X13444960Y-7814960D02*
X13444960Y-7676239D01*
X13505969Y-7615231D02*
X13554994Y-7615231D01*
X13554994Y-7615231D02*
X13570225Y-7600000D01*
X13570225Y-7600000D02*
X13576250Y-7600000D01*
X13576250Y-7600000D02*
X13610000Y-7600000D01*
X13405000Y-8965000D02*
X13305000Y-8965000D01*
X13305000Y-8965000D02*
X13275502Y-8994498D01*
X13275502Y-8994498D02*
X13275502Y-9023062D01*
X13405000Y-8965000D02*
X13409999Y-8960001D01*
X13384960Y-7641566D02*
X13384960Y-7683992D01*
X13538425Y-7575230D02*
X13451296Y-7575230D01*
X13451296Y-7575230D02*
X13384960Y-7641566D01*
X13610000Y-7550000D02*
X13563655Y-7550000D01*
X13563655Y-7550000D02*
X13538425Y-7575230D01*
X13405000Y-9015000D02*
X13491145Y-9015000D01*
X13491145Y-9015000D02*
X13534677Y-8971468D01*
X13405000Y-9015000D02*
X13400001Y-9019999D01*
X13360000Y-7760000D02*
X13310000Y-7710000D01*
X13310000Y-7710000D02*
X13310000Y-7630000D01*
X13310000Y-7630000D02*
X13500000Y-7440000D01*
X13685000Y-7440000D02*
X13762500Y-7517500D01*
X13762500Y-7517500D02*
X13762500Y-7550000D01*
X13500000Y-7440000D02*
X13685000Y-7440000D01*
X13405000Y-8915000D02*
X13483641Y-8915000D01*
X13483641Y-8915000D02*
X13534972Y-8863669D01*
X13534972Y-8863669D02*
X13534972Y-8860153D01*
X13636383Y-8879479D02*
X13666383Y-8849479D01*
X13528583Y-9065000D02*
X13624998Y-8968585D01*
X13624998Y-8890864D02*
X13636383Y-8879479D01*
X13405000Y-9065000D02*
X13528583Y-9065000D01*
X13624998Y-8968585D02*
X13624998Y-8890864D01*
X13542570Y-7482284D02*
X13539625Y-7485230D01*
X13539625Y-7485230D02*
X13509625Y-7515230D01*
X13661250Y-7548750D02*
X13661250Y-7515000D01*
X13628534Y-7482284D02*
X13542570Y-7482284D01*
X13661250Y-7515000D02*
X13628534Y-7482284D01*
X13504961Y-7814961D02*
X13504961Y-7752121D01*
X13451757Y-8548467D02*
X13451757Y-8434813D01*
X13451757Y-8434813D02*
X13640001Y-8246569D01*
X13640001Y-8246569D02*
X13640001Y-7950001D01*
X13640001Y-7950001D02*
X13504961Y-7814961D01*
X13504961Y-7752121D02*
X13504961Y-7709695D01*
X13405000Y-9065000D02*
X13409999Y-9069999D01*
X13660177Y-9708977D02*
X13660177Y-9543387D01*
X13732564Y-9781364D02*
X13660177Y-9708977D01*
X13660177Y-9543387D02*
X13644960Y-9528170D01*
X13788860Y-9781364D02*
X13732564Y-9781364D01*
X13817496Y-9810000D02*
X13788860Y-9781364D01*
X13644960Y-9528170D02*
X13644960Y-9524233D01*
X13644960Y-9524233D02*
X13614960Y-9494233D01*
X14010000Y-9810000D02*
X13817496Y-9810000D01*
X14071269Y-9858769D02*
X14071269Y-9870001D01*
X14022500Y-9810000D02*
X14071269Y-9858769D01*
X14010000Y-9810000D02*
X14022500Y-9810000D01*
X15422231Y-9839999D02*
X15392231Y-9809999D01*
X15430000Y-9847768D02*
X15422231Y-9839999D01*
X15430000Y-9930000D02*
X15430000Y-9847768D01*
X14010000Y-9810000D02*
X13997500Y-9810000D01*
X15906250Y-9589000D02*
X15906250Y-9703750D01*
X15906250Y-9703750D02*
X15900000Y-9710000D01*
X15810000Y-9707500D02*
X15841250Y-9676250D01*
X15841250Y-9676250D02*
X15841250Y-9589000D01*
X13500000Y-9277574D02*
X13587574Y-9190000D01*
X13610000Y-9717500D02*
X13610000Y-9574126D01*
X13660000Y-9767500D02*
X13610000Y-9717500D01*
X13660000Y-9810000D02*
X13660000Y-9767500D01*
X13610000Y-9574126D02*
X13500000Y-9464126D01*
X13500000Y-9464126D02*
X13500000Y-9277574D01*
X13587574Y-9190000D02*
X13630000Y-9190000D01*
X13760060Y-9841364D02*
X13691364Y-9841364D01*
X13691364Y-9841364D02*
X13660000Y-9810000D01*
D42*
G36*
X15683055Y-9090813D02*
X15677000Y-9090813D01*
X15669118Y-9092296D01*
X15661878Y-9096955D01*
X15657022Y-9104063D01*
X15655313Y-9112500D01*
X15655313Y-9177500D01*
X15656796Y-9185382D01*
X15661455Y-9192622D01*
X15668563Y-9197478D01*
X15677000Y-9199187D01*
X15783000Y-9199187D01*
X15790882Y-9197704D01*
X15798121Y-9193045D01*
X15802978Y-9185937D01*
X15804687Y-9177500D01*
X15804687Y-9112500D01*
X15875313Y-9112500D01*
X15875313Y-9177500D01*
X15876796Y-9185382D01*
X15881455Y-9192622D01*
X15888563Y-9197478D01*
X15897000Y-9199187D01*
X15956429Y-9199187D01*
X15966230Y-9208988D01*
X15966230Y-9258313D01*
X15960000Y-9258313D01*
X15952118Y-9259796D01*
X15944878Y-9264455D01*
X15940022Y-9271563D01*
X15938313Y-9280000D01*
X15938313Y-9360000D01*
X15939796Y-9367882D01*
X15944455Y-9375122D01*
X15951563Y-9379978D01*
X15960000Y-9381687D01*
X16040000Y-9381687D01*
X16047882Y-9380204D01*
X16055121Y-9375545D01*
X16059978Y-9368437D01*
X16061687Y-9360000D01*
X16061687Y-9280000D01*
X16060204Y-9272118D01*
X16055545Y-9264879D01*
X16048437Y-9260022D01*
X16040000Y-9258313D01*
X16033770Y-9258313D01*
X16033770Y-9195000D01*
X16031199Y-9182077D01*
X16024687Y-9172330D01*
X16024687Y-9112500D01*
X16023204Y-9104618D01*
X16018545Y-9097379D01*
X16011437Y-9092522D01*
X16003000Y-9090813D01*
X15897000Y-9090813D01*
X15889118Y-9092296D01*
X15881878Y-9096955D01*
X15877022Y-9104063D01*
X15875313Y-9112500D01*
X15804687Y-9112500D01*
X15803204Y-9104618D01*
X15798545Y-9097379D01*
X15791437Y-9092522D01*
X15783000Y-9090813D01*
X15763770Y-9090813D01*
X15763770Y-9090000D01*
X15762033Y-9081270D01*
X16218730Y-9081270D01*
X16218730Y-9150000D01*
X16218830Y-9150494D01*
X16219114Y-9150910D01*
X16219538Y-9151183D01*
X16220000Y-9151270D01*
X16378730Y-9151270D01*
X16378730Y-9991230D01*
X15481270Y-9991230D01*
X15481270Y-9929930D01*
X15481279Y-9919847D01*
X15481270Y-9919825D01*
X15481270Y-9366270D01*
X15498552Y-9366270D01*
X15499796Y-9372882D01*
X15500522Y-9374010D01*
X15502252Y-9382707D01*
X15512282Y-9397718D01*
X15582282Y-9467718D01*
X15591892Y-9474139D01*
X15597293Y-9477748D01*
X15615000Y-9481270D01*
X15695834Y-9481270D01*
X15732484Y-9517920D01*
X15732063Y-9520000D01*
X15732063Y-9658000D01*
X15733546Y-9665882D01*
X15738205Y-9673122D01*
X15745313Y-9677978D01*
X15753750Y-9679687D01*
X15766035Y-9679687D01*
X15758739Y-9697257D01*
X15758721Y-9717654D01*
X15766510Y-9736504D01*
X15780920Y-9750939D01*
X15799757Y-9758761D01*
X15820153Y-9758779D01*
X15839004Y-9750990D01*
X15853439Y-9736580D01*
X15854476Y-9734082D01*
X15856510Y-9739004D01*
X15870920Y-9753439D01*
X15889757Y-9761261D01*
X15910153Y-9761279D01*
X15929004Y-9753490D01*
X15943439Y-9739080D01*
X15951261Y-9720243D01*
X15951279Y-9699847D01*
X15943490Y-9680996D01*
X15940519Y-9678020D01*
X15948750Y-9679687D01*
X15993750Y-9679687D01*
X16001632Y-9678204D01*
X16008871Y-9673545D01*
X16013728Y-9666437D01*
X16015437Y-9658000D01*
X16015437Y-9520000D01*
X16013954Y-9512118D01*
X16009295Y-9504879D01*
X16002187Y-9500022D01*
X15993750Y-9498313D01*
X15948750Y-9498313D01*
X15940868Y-9499796D01*
X15938802Y-9501126D01*
X15937187Y-9500022D01*
X15928750Y-9498313D01*
X15883750Y-9498313D01*
X15875868Y-9499796D01*
X15873802Y-9501126D01*
X15872187Y-9500022D01*
X15863750Y-9498313D01*
X15822110Y-9498313D01*
X15822520Y-9496250D01*
X15818998Y-9478543D01*
X15808968Y-9463532D01*
X15747718Y-9402282D01*
X15740870Y-9397707D01*
X15732707Y-9392252D01*
X15715000Y-9388730D01*
X15634166Y-9388730D01*
X15591687Y-9346251D01*
X15591687Y-9275000D01*
X15648313Y-9275000D01*
X15648313Y-9365000D01*
X15649796Y-9372882D01*
X15654455Y-9380122D01*
X15661563Y-9384978D01*
X15670000Y-9386687D01*
X15720000Y-9386687D01*
X15727882Y-9385204D01*
X15735121Y-9380545D01*
X15739978Y-9373437D01*
X15741687Y-9365000D01*
X15741687Y-9353770D01*
X15778313Y-9353770D01*
X15778313Y-9360000D01*
X15779796Y-9367882D01*
X15784455Y-9375122D01*
X15791563Y-9379978D01*
X15800000Y-9381687D01*
X15880000Y-9381687D01*
X15887882Y-9380204D01*
X15895121Y-9375545D01*
X15899978Y-9368437D01*
X15901687Y-9360000D01*
X15901687Y-9280000D01*
X15900204Y-9272118D01*
X15895545Y-9264879D01*
X15888437Y-9260022D01*
X15880000Y-9258313D01*
X15800000Y-9258313D01*
X15792118Y-9259796D01*
X15784878Y-9264455D01*
X15780022Y-9271563D01*
X15778313Y-9280000D01*
X15778313Y-9286230D01*
X15741687Y-9286230D01*
X15741687Y-9275000D01*
X15740204Y-9267118D01*
X15735545Y-9259879D01*
X15728437Y-9255022D01*
X15720000Y-9253313D01*
X15670000Y-9253313D01*
X15662118Y-9254796D01*
X15654878Y-9259455D01*
X15650022Y-9266563D01*
X15648313Y-9275000D01*
X15591687Y-9275000D01*
X15590204Y-9267118D01*
X15585545Y-9259879D01*
X15578437Y-9255022D01*
X15570000Y-9253313D01*
X15520000Y-9253313D01*
X15512118Y-9254796D01*
X15504878Y-9259455D01*
X15500022Y-9266563D01*
X15498570Y-9273730D01*
X15359166Y-9273730D01*
X15306270Y-9220834D01*
X15306270Y-9081270D01*
X15673512Y-9081270D01*
X15683055Y-9090813D01*
X15683055Y-9090813D01*
G37*
X15683055Y-9090813D02*
X15677000Y-9090813D01*
X15669118Y-9092296D01*
X15661878Y-9096955D01*
X15657022Y-9104063D01*
X15655313Y-9112500D01*
X15655313Y-9177500D01*
X15656796Y-9185382D01*
X15661455Y-9192622D01*
X15668563Y-9197478D01*
X15677000Y-9199187D01*
X15783000Y-9199187D01*
X15790882Y-9197704D01*
X15798121Y-9193045D01*
X15802978Y-9185937D01*
X15804687Y-9177500D01*
X15804687Y-9112500D01*
X15875313Y-9112500D01*
X15875313Y-9177500D01*
X15876796Y-9185382D01*
X15881455Y-9192622D01*
X15888563Y-9197478D01*
X15897000Y-9199187D01*
X15956429Y-9199187D01*
X15966230Y-9208988D01*
X15966230Y-9258313D01*
X15960000Y-9258313D01*
X15952118Y-9259796D01*
X15944878Y-9264455D01*
X15940022Y-9271563D01*
X15938313Y-9280000D01*
X15938313Y-9360000D01*
X15939796Y-9367882D01*
X15944455Y-9375122D01*
X15951563Y-9379978D01*
X15960000Y-9381687D01*
X16040000Y-9381687D01*
X16047882Y-9380204D01*
X16055121Y-9375545D01*
X16059978Y-9368437D01*
X16061687Y-9360000D01*
X16061687Y-9280000D01*
X16060204Y-9272118D01*
X16055545Y-9264879D01*
X16048437Y-9260022D01*
X16040000Y-9258313D01*
X16033770Y-9258313D01*
X16033770Y-9195000D01*
X16031199Y-9182077D01*
X16024687Y-9172330D01*
X16024687Y-9112500D01*
X16023204Y-9104618D01*
X16018545Y-9097379D01*
X16011437Y-9092522D01*
X16003000Y-9090813D01*
X15897000Y-9090813D01*
X15889118Y-9092296D01*
X15881878Y-9096955D01*
X15877022Y-9104063D01*
X15875313Y-9112500D01*
X15804687Y-9112500D01*
X15803204Y-9104618D01*
X15798545Y-9097379D01*
X15791437Y-9092522D01*
X15783000Y-9090813D01*
X15763770Y-9090813D01*
X15763770Y-9090000D01*
X15762033Y-9081270D01*
X16218730Y-9081270D01*
X16218730Y-9150000D01*
X16218830Y-9150494D01*
X16219114Y-9150910D01*
X16219538Y-9151183D01*
X16220000Y-9151270D01*
X16378730Y-9151270D01*
X16378730Y-9991230D01*
X15481270Y-9991230D01*
X15481270Y-9929930D01*
X15481279Y-9919847D01*
X15481270Y-9919825D01*
X15481270Y-9366270D01*
X15498552Y-9366270D01*
X15499796Y-9372882D01*
X15500522Y-9374010D01*
X15502252Y-9382707D01*
X15512282Y-9397718D01*
X15582282Y-9467718D01*
X15591892Y-9474139D01*
X15597293Y-9477748D01*
X15615000Y-9481270D01*
X15695834Y-9481270D01*
X15732484Y-9517920D01*
X15732063Y-9520000D01*
X15732063Y-9658000D01*
X15733546Y-9665882D01*
X15738205Y-9673122D01*
X15745313Y-9677978D01*
X15753750Y-9679687D01*
X15766035Y-9679687D01*
X15758739Y-9697257D01*
X15758721Y-9717654D01*
X15766510Y-9736504D01*
X15780920Y-9750939D01*
X15799757Y-9758761D01*
X15820153Y-9758779D01*
X15839004Y-9750990D01*
X15853439Y-9736580D01*
X15854476Y-9734082D01*
X15856510Y-9739004D01*
X15870920Y-9753439D01*
X15889757Y-9761261D01*
X15910153Y-9761279D01*
X15929004Y-9753490D01*
X15943439Y-9739080D01*
X15951261Y-9720243D01*
X15951279Y-9699847D01*
X15943490Y-9680996D01*
X15940519Y-9678020D01*
X15948750Y-9679687D01*
X15993750Y-9679687D01*
X16001632Y-9678204D01*
X16008871Y-9673545D01*
X16013728Y-9666437D01*
X16015437Y-9658000D01*
X16015437Y-9520000D01*
X16013954Y-9512118D01*
X16009295Y-9504879D01*
X16002187Y-9500022D01*
X15993750Y-9498313D01*
X15948750Y-9498313D01*
X15940868Y-9499796D01*
X15938802Y-9501126D01*
X15937187Y-9500022D01*
X15928750Y-9498313D01*
X15883750Y-9498313D01*
X15875868Y-9499796D01*
X15873802Y-9501126D01*
X15872187Y-9500022D01*
X15863750Y-9498313D01*
X15822110Y-9498313D01*
X15822520Y-9496250D01*
X15818998Y-9478543D01*
X15808968Y-9463532D01*
X15747718Y-9402282D01*
X15740870Y-9397707D01*
X15732707Y-9392252D01*
X15715000Y-9388730D01*
X15634166Y-9388730D01*
X15591687Y-9346251D01*
X15591687Y-9275000D01*
X15648313Y-9275000D01*
X15648313Y-9365000D01*
X15649796Y-9372882D01*
X15654455Y-9380122D01*
X15661563Y-9384978D01*
X15670000Y-9386687D01*
X15720000Y-9386687D01*
X15727882Y-9385204D01*
X15735121Y-9380545D01*
X15739978Y-9373437D01*
X15741687Y-9365000D01*
X15741687Y-9353770D01*
X15778313Y-9353770D01*
X15778313Y-9360000D01*
X15779796Y-9367882D01*
X15784455Y-9375122D01*
X15791563Y-9379978D01*
X15800000Y-9381687D01*
X15880000Y-9381687D01*
X15887882Y-9380204D01*
X15895121Y-9375545D01*
X15899978Y-9368437D01*
X15901687Y-9360000D01*
X15901687Y-9280000D01*
X15900204Y-9272118D01*
X15895545Y-9264879D01*
X15888437Y-9260022D01*
X15880000Y-9258313D01*
X15800000Y-9258313D01*
X15792118Y-9259796D01*
X15784878Y-9264455D01*
X15780022Y-9271563D01*
X15778313Y-9280000D01*
X15778313Y-9286230D01*
X15741687Y-9286230D01*
X15741687Y-9275000D01*
X15740204Y-9267118D01*
X15735545Y-9259879D01*
X15728437Y-9255022D01*
X15720000Y-9253313D01*
X15670000Y-9253313D01*
X15662118Y-9254796D01*
X15654878Y-9259455D01*
X15650022Y-9266563D01*
X15648313Y-9275000D01*
X15591687Y-9275000D01*
X15590204Y-9267118D01*
X15585545Y-9259879D01*
X15578437Y-9255022D01*
X15570000Y-9253313D01*
X15520000Y-9253313D01*
X15512118Y-9254796D01*
X15504878Y-9259455D01*
X15500022Y-9266563D01*
X15498570Y-9273730D01*
X15359166Y-9273730D01*
X15306270Y-9220834D01*
X15306270Y-9081270D01*
X15673512Y-9081270D01*
X15683055Y-9090813D01*
G36*
X16398730Y-9048730D02*
X16119166Y-9048730D01*
X16091270Y-9020834D01*
X16091270Y-8990000D01*
X16091170Y-8989506D01*
X16090885Y-8989090D01*
X16090462Y-8988817D01*
X16090000Y-8988730D01*
X15881270Y-8988730D01*
X15881270Y-8681270D01*
X16398730Y-8681270D01*
X16398730Y-9048730D01*
X16398730Y-9048730D01*
G37*
X16398730Y-9048730D02*
X16119166Y-9048730D01*
X16091270Y-9020834D01*
X16091270Y-8990000D01*
X16091170Y-8989506D01*
X16090885Y-8989090D01*
X16090462Y-8988817D01*
X16090000Y-8988730D01*
X15881270Y-8988730D01*
X15881270Y-8681270D01*
X16398730Y-8681270D01*
X16398730Y-9048730D01*
G36*
X15808730Y-8988730D02*
X15580000Y-8988730D01*
X15579506Y-8988830D01*
X15579090Y-8989115D01*
X15578817Y-8989538D01*
X15578730Y-8990000D01*
X15578730Y-9008730D01*
X15481270Y-9008730D01*
X15481270Y-8830000D01*
X15481170Y-8829506D01*
X15480885Y-8829090D01*
X15480462Y-8828817D01*
X15480000Y-8828730D01*
X15321270Y-8828730D01*
X15321270Y-8805644D01*
X15394633Y-8732281D01*
X15407334Y-8729755D01*
X15422345Y-8719725D01*
X15430798Y-8711271D01*
X15808730Y-8711271D01*
X15808730Y-8988730D01*
X15808730Y-8988730D01*
G37*
X15808730Y-8988730D02*
X15580000Y-8988730D01*
X15579506Y-8988830D01*
X15579090Y-8989115D01*
X15578817Y-8989538D01*
X15578730Y-8990000D01*
X15578730Y-9008730D01*
X15481270Y-9008730D01*
X15481270Y-8830000D01*
X15481170Y-8829506D01*
X15480885Y-8829090D01*
X15480462Y-8828817D01*
X15480000Y-8828730D01*
X15321270Y-8828730D01*
X15321270Y-8805644D01*
X15394633Y-8732281D01*
X15407334Y-8729755D01*
X15422345Y-8719725D01*
X15430798Y-8711271D01*
X15808730Y-8711271D01*
X15808730Y-8988730D01*
M02*
