M48
;DRILL file {KiCad 4.0.7-e2-6376~61~ubuntu18.04.1} date Fri May  3 18:21:08 2019
;FORMAT={-:-/ absolute / inch / decimal}
FMAT,2
INCH,TZ
T1C0.016
%
G90
G05
M72
T1
X5.1496Y-3.7165
X5.1535Y-3.3504
X5.185Y-3.3425
X5.2266Y-3.5524
X5.2323Y-3.4921
X5.2402Y-3.3307
X5.2598Y-3.0551
X5.2697Y-3.0252
X5.296Y-3.3655
X5.3169Y-3.0353
X5.3187Y-2.9588
X5.3286Y-3.5321
X5.3287Y-3.4882
X5.3602Y-3.7379
X5.3622Y-3.0618
X5.3661Y-3.6181
X5.3709Y-3.3017
X5.378Y-3.4173
X5.3805Y-3.484
X5.3934Y-3.0571
X5.3938Y-3.7381
X5.3976Y-3.2441
X5.3983Y-3.2762
X5.4055Y-3.1105
X5.408Y-3.4025
X5.4094Y-3.4685
X5.4173Y-3.8746
X5.4186Y-3.8255
X5.4187Y-3.3016
X5.4193Y-3.6359
X5.4385Y-3.7382
X5.4554Y-3.5406
X5.4567Y-3.4252
X5.4882Y-3.4331
X5.4919Y-3.5386
X5.4961Y-2.9724
X5.5197Y-3.7835
X5.5294Y-3.0474
X5.5361Y-3.5442
X5.5393Y-3.6004
X5.5399Y-3.8858
X5.5433Y-3.252
X5.5546Y-3.1909
X5.5551Y-3.7323
X5.5551Y-3.8583
X5.5618Y-3.5627
X5.5669Y-3.0512
X5.5798Y-3.3146
X5.6102Y-3.3228
X5.6417Y-3.3228
X5.6708Y-3.7438
X5.6772Y-3.7874
X5.6949Y-3.435
X5.7332Y-3.3585
X5.7559Y-3.4843
X5.7598Y-3.626
X5.7618Y-3.6929
X5.7647Y-3.3581
X5.7716Y-3.4072
X5.7848Y-3.3338
X5.7992Y-3.4409
X5.8268Y-3.7008
X5.8307Y-3.5118
X5.8701Y-3.5157
X5.8858Y-3.3307
X5.9016Y-3.626
X5.9173Y-3.3314
X5.9291Y-3.7913
X5.9488Y-3.3276
X5.9863Y-3.3314
X5.9921Y-3.8346
X6.0118Y-3.6929
X6.0551Y-3.622
X6.0599Y-3.8622
X6.063Y-3.4528
X6.0748Y-3.9094
X6.0866Y-3.6339
X6.0906Y-3.4449
X6.1063Y-3.7756
X6.1063Y-3.8071
X6.1102Y-3.7402
X6.126Y-3.4449
X6.126Y-3.4843
X6.1379Y-3.2092
X6.1457Y-3.6339
X6.1614Y-3.4449
X6.1614Y-3.4843
X6.1969Y-3.4449
X6.1969Y-3.4843
X6.2205Y-2.9724
X6.2244Y-3.8219
X6.2323Y-2.8622
X6.2362Y-3.5984
X6.2362Y-3.6299
X6.2393Y-3.271
X6.2441Y-3.7205
X6.2598Y-3.8228
X6.2615Y-3.2487
X6.2677Y-3.311
X6.2756Y-3.437
X6.2756Y-3.4803
X6.2795Y-3.7205
X6.2942Y-3.2839
X6.315Y-3.437
X6.315Y-3.4803
X6.315Y-3.7205
X6.3307Y-3.0866
X6.3465Y-3.6417
X6.3504Y-2.8346
X6.3504Y-3.6693
X6.3504Y-3.7047
X6.3543Y-3.437
X6.3543Y-3.4803
X6.3858Y-3.084
X6.3858Y-3.6339
X6.3858Y-3.6693
X6.3858Y-3.7047
X6.3917Y-3.5374
X6.3937Y-3.437
X6.3937Y-3.4803
X6.4016Y-2.8346
X6.4213Y-3.6339
X6.4213Y-3.6693
X6.4213Y-3.7047
X6.4213Y-3.7402
X6.4213Y-3.7761
X6.4213Y-3.8071
X6.4283Y-3.0816
X6.4331Y-3.437
X6.4331Y-3.4803
X6.4331Y-3.5276
X6.4724Y-3.3425
X6.4803Y-3.0787
X6.5305Y-3.0692
X6.6496Y-3.0748
T0
M30
