G04 #@! TF.FileFunction,Soldermask,Top*
%FSLAX45Y45*%
G04 Gerber Fmt 4.5, Leading zero omitted, Abs format (unit mm)*
G04 Created by KiCad (PCBNEW 4.0.7-e2-6376~61~ubuntu18.04.1) date Fri May  3 18:21:01 2019*
%MOMM*%
%LPD*%
G01*
G04 APERTURE LIST*
%ADD10C,0.100000*%
%ADD11R,1.150000X0.900000*%
%ADD12R,1.150000X1.000000*%
%ADD13R,1.150000X1.200000*%
%ADD14R,1.200000X1.150000*%
%ADD15R,1.200000X1.200000*%
%ADD16R,0.850000X1.780000*%
%ADD17R,1.875000X2.500000*%
%ADD18R,1.575000X2.300000*%
%ADD19R,2.775000X2.300000*%
%ADD20R,0.850000X1.100000*%
%ADD21R,1.300000X0.900000*%
%ADD22R,0.900000X1.300000*%
%ADD23R,2.850000X1.400000*%
%ADD24R,1.400000X2.850000*%
%ADD25O,1.720000X0.420000*%
%ADD26O,0.420000X1.720000*%
%ADD27R,0.675000X0.650000*%
%ADD28R,0.650000X0.675000*%
%ADD29R,1.460000X1.050000*%
%ADD30R,2.200000X1.400000*%
%ADD31C,2.540000*%
%ADD32R,1.100000X1.900000*%
%ADD33R,1.400000X1.200000*%
%ADD34C,1.300000*%
%ADD35C,3.100000*%
%ADD36R,1.950000X1.000000*%
%ADD37R,2.200000X1.600000*%
%ADD38R,5.400000X2.400000*%
%ADD39R,1.100000X0.850000*%
G04 APERTURE END LIST*
D10*
D11*
X14887500Y-9455000D03*
X14702500Y-9455000D03*
D12*
X14887500Y-9330000D03*
D11*
X14702500Y-9325000D03*
D13*
X13090000Y-8755000D03*
X13090000Y-8605000D03*
X14075000Y-7900000D03*
X14075000Y-8050000D03*
D14*
X13245000Y-9330000D03*
X13095000Y-9330000D03*
D13*
X13240000Y-8755000D03*
X13240000Y-8605000D03*
D14*
X13925000Y-9580000D03*
X13775000Y-9580000D03*
X14155000Y-9580000D03*
X14305000Y-9580000D03*
X14205000Y-9420000D03*
X14355000Y-9420000D03*
X14435000Y-9080000D03*
X14585000Y-9080000D03*
X13870000Y-8350000D03*
X14020000Y-8350000D03*
D13*
X14490000Y-9355000D03*
X14490000Y-9505000D03*
D14*
X14475000Y-8940000D03*
X14625000Y-8940000D03*
D13*
X13880000Y-7550000D03*
X13880000Y-7700000D03*
X15030000Y-9450000D03*
X15030000Y-9300000D03*
X15540000Y-8965000D03*
X15540000Y-9115000D03*
D14*
X14720000Y-9165000D03*
X14870000Y-9165000D03*
D13*
X16140000Y-8985000D03*
X16140000Y-9135000D03*
D15*
X16080000Y-7740000D03*
X16080000Y-7580000D03*
X16220000Y-7740000D03*
X16220000Y-7580000D03*
X16500000Y-7740000D03*
X16500000Y-7580000D03*
X16360000Y-7740000D03*
X16360000Y-7580000D03*
X15840000Y-9320000D03*
X16000000Y-9320000D03*
D16*
X15776250Y-9589000D03*
X15841250Y-9589000D03*
X15906250Y-9589000D03*
X15971250Y-9589000D03*
X16036250Y-9589000D03*
D17*
X15660000Y-9625000D03*
X16152500Y-9625000D03*
D18*
X15822500Y-9855000D03*
X15990000Y-9855000D03*
D19*
X15615000Y-9855000D03*
X16197500Y-9855000D03*
D20*
X14815000Y-9020000D03*
X14945000Y-9020000D03*
X14880000Y-8820000D03*
D21*
X16080000Y-7425000D03*
X16080000Y-7275000D03*
X16230000Y-7425000D03*
X16230000Y-7275000D03*
X16660000Y-7570000D03*
X16660000Y-7720000D03*
X16810000Y-7570000D03*
X16810000Y-7720000D03*
X15090000Y-9115000D03*
X15090000Y-8965000D03*
D22*
X14395000Y-9220000D03*
X14545000Y-9220000D03*
D21*
X15350000Y-8965000D03*
X15350000Y-9115000D03*
D22*
X15545000Y-9320000D03*
X15695000Y-9320000D03*
D23*
X14370500Y-7070000D03*
X14370500Y-7210000D03*
X14370500Y-7350000D03*
X14370500Y-7490000D03*
X14370500Y-7630000D03*
X14370500Y-7770000D03*
X14370500Y-7910000D03*
X14370500Y-8050000D03*
X15629500Y-7070000D03*
X15629500Y-7210000D03*
X15629500Y-7350000D03*
X15629500Y-7490000D03*
X15629500Y-7630000D03*
X15629500Y-7770000D03*
X15629500Y-7910000D03*
X15629500Y-8050000D03*
D24*
X14510000Y-8279500D03*
X14650000Y-8279500D03*
X14790000Y-8279500D03*
X14930000Y-8279500D03*
X15070000Y-8279500D03*
X15210000Y-8279500D03*
X15350000Y-8279500D03*
X15490000Y-8279500D03*
D25*
X13405000Y-8665000D03*
X13405000Y-8715000D03*
X13405000Y-8765000D03*
X13405000Y-8815000D03*
X13405000Y-8865000D03*
X13405000Y-8915000D03*
X13405000Y-8965000D03*
X13405000Y-9015000D03*
X13405000Y-9065000D03*
X13405000Y-9115000D03*
X13405000Y-9165000D03*
X13405000Y-9215000D03*
D26*
X13555000Y-9365000D03*
X13605000Y-9365000D03*
X13655000Y-9365000D03*
X13705000Y-9365000D03*
X13755000Y-9365000D03*
X13805000Y-9365000D03*
X13855000Y-9365000D03*
X13905000Y-9365000D03*
X13955000Y-9365000D03*
X14005000Y-9365000D03*
X14055000Y-9365000D03*
X14105000Y-9365000D03*
D25*
X14255000Y-9215000D03*
X14255000Y-9165000D03*
X14255000Y-9115000D03*
X14255000Y-9065000D03*
X14255000Y-9015000D03*
X14255000Y-8965000D03*
X14255000Y-8915000D03*
X14255000Y-8865000D03*
X14255000Y-8815000D03*
X14255000Y-8765000D03*
X14255000Y-8715000D03*
X14255000Y-8665000D03*
D26*
X14105000Y-8515000D03*
X14055000Y-8515000D03*
X14005000Y-8515000D03*
X13955000Y-8515000D03*
X13905000Y-8515000D03*
X13855000Y-8515000D03*
X13805000Y-8515000D03*
X13755000Y-8515000D03*
X13705000Y-8515000D03*
X13655000Y-8515000D03*
X13605000Y-8515000D03*
X13555000Y-8515000D03*
D27*
X13610000Y-7550000D03*
X13610000Y-7600000D03*
X13610000Y-7650000D03*
X13610000Y-7700000D03*
D28*
X13661250Y-7701250D03*
X13711250Y-7701250D03*
D27*
X13762500Y-7550000D03*
X13762500Y-7700000D03*
X13762500Y-7600000D03*
X13762500Y-7650000D03*
D28*
X13661250Y-7548750D03*
X13711250Y-7548750D03*
D29*
X15950000Y-9145000D03*
X15950000Y-9050000D03*
X15950000Y-8955000D03*
X15730000Y-8955000D03*
X15730000Y-9145000D03*
D30*
X13150000Y-8925000D03*
X13150000Y-9175000D03*
D31*
X16210000Y-8460000D03*
X16610000Y-7310000D03*
X13380000Y-7330000D03*
D32*
X14515000Y-9665000D03*
X14815000Y-9665000D03*
X14965000Y-9665000D03*
D33*
X14375000Y-9730000D03*
X14375000Y-9950000D03*
X15105000Y-9730000D03*
X15105000Y-9950000D03*
D34*
X14590000Y-9840000D03*
X14890000Y-9840000D03*
D35*
X13300000Y-9700000D03*
X16700000Y-9700000D03*
X16700000Y-8100000D03*
X13300000Y-8100000D03*
D36*
X16506250Y-8680000D03*
X16506250Y-8580000D03*
D37*
X16893750Y-8810000D03*
X16893750Y-8450000D03*
D38*
X16690000Y-9010000D03*
X16690000Y-9300000D03*
D39*
X13860000Y-9875000D03*
X13860000Y-9745000D03*
X13660000Y-9810000D03*
X14210000Y-9875000D03*
X14210000Y-9745000D03*
X14010000Y-9810000D03*
M02*
