G04 #@! TF.FileFunction,Copper,L2,Bot,Signal*
%FSLAX45Y45*%
G04 Gerber Fmt 4.5, Leading zero omitted, Abs format (unit mm)*
G04 Created by KiCad (PCBNEW 4.0.7-e2-6376~61~ubuntu18.04.1) date Fri May  3 18:21:01 2019*
%MOMM*%
%LPD*%
G01*
G04 APERTURE LIST*
%ADD10C,0.100000*%
%ADD11C,1.000000*%
%ADD12C,0.600000*%
%ADD13C,0.500000*%
%ADD14C,0.200000*%
%ADD15C,0.250000*%
%ADD16C,0.254000*%
G04 APERTURE END LIST*
D10*
D11*
X13876000Y-9230000D03*
X14003000Y-9230000D03*
X14130000Y-9230000D03*
X13873000Y-8923500D03*
X14000000Y-8923500D03*
X14127000Y-8923500D03*
X13873000Y-8796500D03*
X14000000Y-8796500D03*
X14127000Y-8796500D03*
X16611000Y-7640000D03*
X16357000Y-7640000D03*
X16230000Y-7640000D03*
X16103000Y-7640000D03*
X16484000Y-7640000D03*
X14749000Y-9550000D03*
X15003000Y-9550000D03*
X15130000Y-9550000D03*
X15257000Y-9550000D03*
X14876000Y-9550000D03*
D12*
X15220000Y-9740000D03*
X13813838Y-9495155D03*
X14403849Y-9509139D03*
X14630000Y-9210000D03*
X14420000Y-9620000D03*
X16440000Y-8490000D03*
X15590244Y-8151366D03*
X15840000Y-9140000D03*
X15840000Y-9220000D03*
X15520000Y-9500000D03*
X15510000Y-9590000D03*
X16130000Y-9320000D03*
X16220000Y-9230000D03*
X16310000Y-9670000D03*
X15860000Y-9450000D03*
X15950000Y-9450000D03*
X16040000Y-9450000D03*
X16130000Y-9410000D03*
X16220000Y-9410000D03*
X16220000Y-9320000D03*
X16310000Y-9320000D03*
X16310000Y-9410000D03*
X16310000Y-9500000D03*
X16890000Y-7810000D03*
X16587434Y-7795811D03*
X14330000Y-8440000D03*
X13170000Y-8490000D03*
X13290000Y-8870000D03*
X13763397Y-8386037D03*
X16260000Y-7200000D03*
X16130000Y-7200000D03*
X14080000Y-8260000D03*
X14108738Y-8104999D03*
X14620000Y-8850000D03*
X15799999Y-7550000D03*
X13960000Y-7550000D03*
X13080000Y-9440000D03*
X13090000Y-8510000D03*
X13620004Y-7776900D03*
X16310000Y-9230000D03*
X16310000Y-9591250D03*
X16120000Y-9250000D03*
X15610000Y-9230000D03*
X15460000Y-9230000D03*
X15380000Y-9200000D03*
X14990000Y-9210000D03*
X15830000Y-7270000D03*
X15510000Y-9670000D03*
X14635000Y-9380000D03*
X13860000Y-8700005D03*
X15270000Y-9380000D03*
X15400000Y-8770000D03*
X15470000Y-8750000D03*
X15560000Y-8850000D03*
X15650000Y-8850000D03*
X15560000Y-8750000D03*
X15650000Y-8750000D03*
X15740000Y-8750000D03*
X15740000Y-8850000D03*
X15060000Y-9630000D03*
X16240000Y-8840000D03*
X16140000Y-8840000D03*
X16040000Y-8840000D03*
X16040000Y-8730000D03*
X16140000Y-8730000D03*
X16240000Y-8730000D03*
X15940000Y-8840000D03*
X15940000Y-8730000D03*
X16340000Y-8730000D03*
X16340000Y-8840000D03*
X16340000Y-8960000D03*
X16235000Y-8985000D03*
X16080000Y-7840000D03*
X15904261Y-8251659D03*
X14950000Y-8460000D03*
X16220000Y-7833430D03*
X15847905Y-8308440D03*
X15029982Y-8461737D03*
X16460000Y-7820000D03*
X15920000Y-8410000D03*
X15205142Y-8461693D03*
X16327872Y-7827274D03*
X15987192Y-8341031D03*
X15109999Y-8452000D03*
X14249999Y-8440000D03*
X14140000Y-7750000D03*
X13856725Y-8993023D03*
X13949447Y-8987966D03*
X14061714Y-9002186D03*
X13940000Y-8720000D03*
X14800000Y-9400000D03*
X14020000Y-9610000D03*
X14110000Y-9480000D03*
X13763202Y-9716847D03*
X14110000Y-9800000D03*
X13765001Y-9235222D03*
X13700178Y-9494822D03*
X14126941Y-9049235D03*
X14810000Y-8919999D03*
X14069829Y-9144997D03*
X14910000Y-8930000D03*
X13730001Y-7900703D03*
X13710000Y-8240000D03*
X13740000Y-8810000D03*
X13699139Y-7765158D03*
X14172749Y-8419201D03*
X14044770Y-7740375D03*
X14465002Y-8724930D03*
X14730000Y-8740000D03*
X14659942Y-8654209D03*
X13660000Y-8680000D03*
X14562431Y-8530651D03*
X13736322Y-8642259D03*
X14642424Y-8529506D03*
X13642124Y-8386287D03*
X14693352Y-8467809D03*
X13711652Y-8321652D03*
X13309997Y-8460003D03*
X13275502Y-9023062D03*
X13384960Y-7683992D03*
X13534677Y-8971468D03*
X13360000Y-7760000D03*
X13534972Y-8860153D03*
X13509625Y-7515230D03*
X13504961Y-7709695D03*
X13666383Y-8849479D03*
X13451757Y-8548467D03*
X13614960Y-9494233D03*
X14071269Y-9870001D03*
X15392231Y-9809999D03*
X15430000Y-9930000D03*
X15900000Y-9710000D03*
X13760060Y-9841364D03*
X15810000Y-9707500D03*
X13630000Y-9190000D03*
D13*
X13215000Y-8945000D02*
X13180000Y-8980000D01*
X13290000Y-8870000D02*
X13215000Y-8945000D01*
D14*
X13620004Y-7876864D02*
X13750000Y-8006860D01*
X13620004Y-7776900D02*
X13620004Y-7876864D01*
X13750000Y-8006860D02*
X13750000Y-8010000D01*
X14330000Y-8440000D02*
X14330000Y-8397574D01*
X14330000Y-8397574D02*
X14347574Y-8380000D01*
D13*
X13793396Y-8286603D02*
X13820000Y-8260000D01*
X13763397Y-8386037D02*
X13793396Y-8356037D01*
X13793396Y-8356037D02*
X13793396Y-8286603D01*
X14635000Y-9380000D02*
X14635000Y-9436000D01*
X14635000Y-9436000D02*
X14749000Y-9550000D01*
D15*
X13873000Y-8796500D02*
X13873000Y-8713005D01*
X13873000Y-8713005D02*
X13860000Y-8700005D01*
D13*
X15270000Y-9380000D02*
X15130000Y-9520000D01*
X15130000Y-9520000D02*
X15130000Y-9550000D01*
X15490000Y-8810000D02*
X15490000Y-9000000D01*
X15340000Y-8810000D02*
X15460000Y-8810000D01*
X15460000Y-8810000D02*
X15490000Y-8810000D01*
X15340000Y-8700000D02*
X15340000Y-8810000D01*
X15800000Y-8700000D02*
X15340000Y-8700000D01*
X15800000Y-9010000D02*
X15800000Y-8700000D01*
D15*
X15480000Y-9010000D02*
X15800000Y-9010000D01*
X15800000Y-9010000D02*
X15800000Y-8860000D01*
X15800000Y-8860000D02*
X15780000Y-8880000D01*
X15780000Y-8880000D02*
X15770000Y-8880000D01*
X15770000Y-8880000D02*
X15740000Y-8850000D01*
D13*
X15003000Y-9550000D02*
X15003000Y-9573000D01*
X15003000Y-9573000D02*
X15060000Y-9630000D01*
D15*
X16230000Y-9040000D02*
X15880000Y-9040000D01*
X15880000Y-9040000D02*
X15880000Y-8680000D01*
X15880000Y-8680000D02*
X16390000Y-8680000D01*
X16390000Y-8680000D02*
X16390000Y-9040000D01*
X16390000Y-9040000D02*
X16230000Y-9040000D01*
X16205000Y-9015000D02*
X16205000Y-9015000D01*
X16230000Y-9040000D02*
X16205000Y-9015000D01*
X16205000Y-9015000D02*
X16235000Y-8985000D01*
D14*
X16080000Y-7840000D02*
X16080000Y-7663000D01*
X16080000Y-7663000D02*
X16103000Y-7640000D01*
X14950000Y-8460000D02*
X14950000Y-8417574D01*
X14950000Y-8417574D02*
X15119133Y-8248440D01*
X15119133Y-8248440D02*
X15901043Y-8248440D01*
X15901043Y-8248440D02*
X15904261Y-8251659D01*
X16220000Y-7833430D02*
X16220000Y-7650000D01*
X16220000Y-7650000D02*
X16230000Y-7640000D01*
X15029982Y-8461737D02*
X15029982Y-8419310D01*
X15140852Y-8308440D02*
X15805479Y-8308440D01*
X15029982Y-8419310D02*
X15140852Y-8308440D01*
X15805479Y-8308440D02*
X15847905Y-8308440D01*
X16460000Y-7820000D02*
X16460000Y-7664000D01*
X16460000Y-7664000D02*
X16484000Y-7640000D01*
X15920000Y-8410000D02*
X15877573Y-8410000D01*
X15256835Y-8410000D02*
X15205142Y-8461693D01*
X15877573Y-8410000D02*
X15256835Y-8410000D01*
X16357000Y-7798146D02*
X16327872Y-7827274D01*
X16357000Y-7640000D02*
X16357000Y-7798146D01*
X16300000Y-7860000D02*
X16357000Y-7803000D01*
X16357000Y-7803000D02*
X16357000Y-7640000D01*
X15192000Y-8369999D02*
X15871201Y-8369999D01*
X15944765Y-8341031D02*
X15987192Y-8341031D01*
X15109999Y-8452000D02*
X15192000Y-8369999D01*
X15871201Y-8369999D02*
X15900169Y-8341031D01*
X15900169Y-8341031D02*
X15944765Y-8341031D01*
X14249999Y-8440000D02*
X14249999Y-8407574D01*
X14249999Y-8407574D02*
X14192425Y-8350000D01*
X14192425Y-8350000D02*
X14040000Y-8350000D01*
X14040000Y-8350000D02*
X13960000Y-8270000D01*
X13960000Y-8270000D02*
X13960000Y-7930000D01*
X13960000Y-7930000D02*
X14140000Y-7750000D01*
X13856725Y-8939775D02*
X13856725Y-8950597D01*
X13856725Y-8950597D02*
X13856725Y-8993023D01*
X13873000Y-8923500D02*
X13856725Y-8939775D01*
X13949447Y-8987966D02*
X13949447Y-8974053D01*
X13949447Y-8974053D02*
X14000000Y-8923500D01*
X14127000Y-8923500D02*
X14127000Y-8936900D01*
X14127000Y-8936900D02*
X14061714Y-9002186D01*
X13940000Y-8720000D02*
X13940000Y-8736500D01*
X13940000Y-8736500D02*
X14000000Y-8796500D01*
D13*
X14800000Y-9400000D02*
X14876000Y-9476000D01*
X14876000Y-9476000D02*
X14876000Y-9550000D01*
D14*
X14110000Y-9480000D02*
X14110000Y-9520000D01*
X14110000Y-9520000D02*
X14020000Y-9610000D01*
X13860000Y-9800000D02*
X13846355Y-9800000D01*
X13846355Y-9800000D02*
X13763202Y-9716847D01*
X14110000Y-9800000D02*
X13860000Y-9800000D01*
X13765001Y-9277648D02*
X13765001Y-9235222D01*
X13765001Y-9429999D02*
X13765001Y-9277648D01*
X13700178Y-9494822D02*
X13765001Y-9429999D01*
X14126941Y-9049235D02*
X14156941Y-9019235D01*
X14156941Y-9019235D02*
X14156941Y-9015660D01*
X14156941Y-9015660D02*
X14182600Y-8990000D01*
X14182600Y-8990000D02*
X14739999Y-8990000D01*
X14739999Y-8990000D02*
X14810000Y-8919999D01*
X14069829Y-9144997D02*
X14069829Y-9122380D01*
X14069829Y-9122380D02*
X14082973Y-9109235D01*
X14082973Y-9109235D02*
X14170765Y-9109235D01*
X14170765Y-9109235D02*
X14230000Y-9050000D01*
X14230000Y-9050000D02*
X14790000Y-9050000D01*
X14790000Y-9050000D02*
X14910000Y-8930000D01*
X13730001Y-7796020D02*
X13730001Y-7858277D01*
X13699139Y-7765158D02*
X13730001Y-7796020D01*
X13730001Y-7858277D02*
X13730001Y-7900703D01*
X13680000Y-8270000D02*
X13710000Y-8240000D01*
X13600000Y-8433946D02*
X13580661Y-8414607D01*
X13666570Y-8270000D02*
X13680000Y-8270000D01*
X13580661Y-8355909D02*
X13666570Y-8270000D01*
X13600000Y-8707093D02*
X13600000Y-8433946D01*
X13672907Y-8780000D02*
X13600000Y-8707093D01*
X13740000Y-8810000D02*
X13710000Y-8780000D01*
X13710000Y-8780000D02*
X13672907Y-8780000D01*
X13580661Y-8414607D02*
X13580661Y-8355909D01*
X13910000Y-7880000D02*
X13910000Y-8290000D01*
X14044770Y-7740375D02*
X13910000Y-7875146D01*
X13910000Y-7875146D02*
X13910000Y-7880000D01*
X14049201Y-8419201D02*
X14039201Y-8419201D01*
X14039201Y-8419201D02*
X13910000Y-8290000D01*
X14130322Y-8419201D02*
X14172749Y-8419201D01*
X14049201Y-8419201D02*
X14130322Y-8419201D01*
X14014770Y-7770375D02*
X14044770Y-7740375D01*
X14480073Y-8740000D02*
X14465002Y-8724930D01*
X14730000Y-8740000D02*
X14480073Y-8740000D01*
X14617515Y-8654209D02*
X14659942Y-8654209D01*
X13826276Y-8640004D02*
X14603310Y-8640004D01*
X13756280Y-8710000D02*
X13826276Y-8640004D01*
X13660000Y-8680000D02*
X13690000Y-8710000D01*
X13690000Y-8710000D02*
X13756280Y-8710000D01*
X14603310Y-8640004D02*
X14617515Y-8654209D01*
X14532431Y-8560651D02*
X14562431Y-8530651D01*
X14493082Y-8599999D02*
X14532431Y-8560651D01*
X13736322Y-8642259D02*
X13778582Y-8599999D01*
X13778582Y-8599999D02*
X14493082Y-8599999D01*
X14444283Y-8559998D02*
X14533631Y-8470651D01*
X13860000Y-8510000D02*
X13909998Y-8559998D01*
X14533631Y-8470651D02*
X14591231Y-8470651D01*
X13909998Y-8559998D02*
X14444283Y-8559998D01*
X14642424Y-8521844D02*
X14642424Y-8529506D01*
X14591231Y-8470651D02*
X14642424Y-8521844D01*
X13723411Y-8510000D02*
X13642124Y-8428713D01*
X13860000Y-8510000D02*
X13723411Y-8510000D01*
X13642124Y-8428713D02*
X13642124Y-8386287D01*
X13713430Y-8510000D02*
X13860000Y-8510000D01*
X14663352Y-8437809D02*
X14693352Y-8467809D01*
X14656192Y-8430650D02*
X14663352Y-8437809D01*
X13703396Y-8420257D02*
X13743140Y-8460000D01*
X14514557Y-8430650D02*
X14656192Y-8430650D01*
X14040000Y-8460000D02*
X14090000Y-8510000D01*
X13703396Y-8329908D02*
X13703396Y-8420257D01*
X14435206Y-8510000D02*
X14514557Y-8430650D01*
X13711652Y-8321652D02*
X13703396Y-8329908D01*
X13743140Y-8460000D02*
X14040000Y-8460000D01*
X14090000Y-8510000D02*
X14435206Y-8510000D01*
X13407292Y-8848846D02*
X13410000Y-8848846D01*
X13275502Y-9023062D02*
X13275502Y-8980636D01*
X13275502Y-8980636D02*
X13407292Y-8848846D01*
X13309997Y-8689997D02*
X13309997Y-8460003D01*
X13410000Y-8790000D02*
X13309997Y-8689997D01*
X13410000Y-8848846D02*
X13410000Y-8790000D01*
X13414960Y-7713992D02*
X13384960Y-7683992D01*
X13594972Y-8832613D02*
X13389999Y-8627640D01*
X13389999Y-8627640D02*
X13389999Y-8525372D01*
X13440001Y-8439999D02*
X13640000Y-8240000D01*
X13414960Y-7728390D02*
X13414960Y-7713992D01*
X13640000Y-7953430D02*
X13414960Y-7728390D01*
X13640000Y-8240000D02*
X13640000Y-7953430D01*
X13440001Y-8475369D02*
X13440001Y-8439999D01*
X13389999Y-8525372D02*
X13440001Y-8475369D01*
X13564677Y-8919248D02*
X13594972Y-8888954D01*
X13594972Y-8888954D02*
X13594972Y-8832613D01*
X13564677Y-8941468D02*
X13564677Y-8919248D01*
X13534677Y-8971468D02*
X13564677Y-8941468D01*
X13594972Y-8832613D02*
X13594972Y-8832613D01*
X13360000Y-7760000D02*
X13420000Y-7820000D01*
X13400000Y-8458800D02*
X13349998Y-8508803D01*
X13349998Y-8508803D02*
X13349998Y-8668686D01*
X13599999Y-7970001D02*
X13599999Y-8223431D01*
X13504972Y-8830154D02*
X13534972Y-8860153D01*
X13504972Y-8823660D02*
X13504972Y-8830154D01*
X13599999Y-8223431D02*
X13400000Y-8423430D01*
X13400000Y-8423430D02*
X13400000Y-8458800D01*
X13349998Y-8668686D02*
X13504972Y-8823660D01*
X13420000Y-7820000D02*
X13449998Y-7820000D01*
X13449998Y-7820000D02*
X13599999Y-7970001D01*
X13504961Y-7709695D02*
X13504961Y-7519893D01*
X13504961Y-7519893D02*
X13509625Y-7515230D01*
X13636383Y-8817454D02*
X13451757Y-8632829D01*
X13666383Y-8849479D02*
X13636383Y-8819479D01*
X13636383Y-8819479D02*
X13636383Y-8817454D01*
X13451757Y-8632829D02*
X13451757Y-8590894D01*
X13451757Y-8590894D02*
X13451757Y-8548467D01*
X13876000Y-9230000D02*
X13821222Y-9175222D01*
X13614960Y-9451807D02*
X13614960Y-9494233D01*
X13731567Y-9175222D02*
X13614960Y-9291829D01*
X13614960Y-9291829D02*
X13614960Y-9451807D01*
X13821222Y-9175222D02*
X13731567Y-9175222D01*
X15392231Y-9809999D02*
X15349805Y-9809999D01*
X14113696Y-9870001D02*
X14071269Y-9870001D01*
X14127792Y-9884097D02*
X14113696Y-9870001D01*
X14435903Y-9884097D02*
X14127792Y-9884097D01*
X15030000Y-9870000D02*
X14980000Y-9820000D01*
X14926000Y-9765000D02*
X14555000Y-9765000D01*
X14555000Y-9765000D02*
X14435903Y-9884097D01*
X14980000Y-9820000D02*
X14980000Y-9819000D01*
X15289803Y-9870000D02*
X15030000Y-9870000D01*
X15349805Y-9809999D02*
X15289803Y-9870000D01*
X14980000Y-9819000D02*
X14926000Y-9765000D01*
X15430000Y-9930000D02*
X15688996Y-9930000D01*
X15688996Y-9930000D02*
X15850001Y-9768995D01*
X15850001Y-9759999D02*
X15900000Y-9710000D01*
X15850001Y-9768995D02*
X15850001Y-9759999D01*
X15350000Y-9870000D02*
X15647500Y-9870000D01*
X15647500Y-9870000D02*
X15810000Y-9707500D01*
X14100070Y-9930000D02*
X15290000Y-9930000D01*
X15290000Y-9930000D02*
X15350000Y-9870000D01*
X14100069Y-9930001D02*
X14100070Y-9930000D01*
X13848697Y-9930001D02*
X14100069Y-9930001D01*
X13760060Y-9841364D02*
X13848697Y-9930001D01*
X13650000Y-9190000D02*
X13630000Y-9190000D01*
X14003000Y-9230000D02*
X13923000Y-9150000D01*
X13923000Y-9150000D02*
X13852570Y-9150000D01*
X13852570Y-9150000D02*
X13837589Y-9135019D01*
X13837589Y-9135019D02*
X13704981Y-9135019D01*
X13704981Y-9135019D02*
X13650000Y-9190000D01*
D15*
X14003000Y-9230000D02*
X14008431Y-9230000D01*
D16*
G36*
X16929000Y-9929000D02*
X15793941Y-9929000D01*
X15901973Y-9820968D01*
X15913637Y-9803512D01*
X15918517Y-9803516D01*
X15952894Y-9789312D01*
X15979219Y-9763033D01*
X15989069Y-9739311D01*
X16501466Y-9739311D01*
X16531622Y-9812294D01*
X16587412Y-9868182D01*
X16660343Y-9898465D01*
X16739311Y-9898534D01*
X16812294Y-9868378D01*
X16868182Y-9812588D01*
X16898465Y-9739657D01*
X16898534Y-9660689D01*
X16868378Y-9587706D01*
X16812588Y-9531818D01*
X16739657Y-9501535D01*
X16660689Y-9501466D01*
X16587706Y-9531622D01*
X16531818Y-9587412D01*
X16501535Y-9660343D01*
X16501466Y-9739311D01*
X15989069Y-9739311D01*
X15993484Y-9728680D01*
X15993516Y-9691483D01*
X15979312Y-9657106D01*
X15953033Y-9630781D01*
X15918680Y-9616516D01*
X15881483Y-9616484D01*
X15857995Y-9626189D01*
X15828680Y-9614016D01*
X15791483Y-9613984D01*
X15757106Y-9628188D01*
X15730781Y-9654467D01*
X15716516Y-9688820D01*
X15716509Y-9697046D01*
X15617056Y-9796500D01*
X15485743Y-9796500D01*
X15485747Y-9791482D01*
X15471543Y-9757105D01*
X15445264Y-9730780D01*
X15410911Y-9716515D01*
X15373714Y-9716483D01*
X15339337Y-9730687D01*
X15329461Y-9740545D01*
X15321677Y-9742094D01*
X15297832Y-9758027D01*
X15259359Y-9796500D01*
X15060445Y-9796500D01*
X15033987Y-9770042D01*
X15031972Y-9767028D01*
X14977972Y-9713028D01*
X14954127Y-9697095D01*
X14926000Y-9691500D01*
X14555000Y-9691500D01*
X14526873Y-9697095D01*
X14503028Y-9713028D01*
X14405459Y-9810597D01*
X14203491Y-9810597D01*
X14203516Y-9781483D01*
X14189312Y-9747106D01*
X14163033Y-9720781D01*
X14128680Y-9706516D01*
X14091483Y-9706484D01*
X14057106Y-9720688D01*
X14051284Y-9726500D01*
X13876799Y-9726500D01*
X13856711Y-9706411D01*
X13856718Y-9698330D01*
X13842513Y-9663953D01*
X13816234Y-9637628D01*
X13794293Y-9628517D01*
X13926484Y-9628517D01*
X13940688Y-9662894D01*
X13966967Y-9689219D01*
X14001320Y-9703484D01*
X14038517Y-9703516D01*
X14072894Y-9689312D01*
X14099219Y-9663033D01*
X14113484Y-9628680D01*
X14113491Y-9620454D01*
X14161972Y-9571972D01*
X14177905Y-9548127D01*
X14178287Y-9546206D01*
X14178848Y-9543386D01*
X14189219Y-9533033D01*
X14203484Y-9498680D01*
X14203516Y-9461483D01*
X14189312Y-9427106D01*
X14163033Y-9400781D01*
X14157580Y-9398517D01*
X14541484Y-9398517D01*
X14546500Y-9410657D01*
X14546500Y-9436000D01*
X14546500Y-9436000D01*
X14551787Y-9462579D01*
X14553237Y-9469868D01*
X14569911Y-9494822D01*
X14572421Y-9498579D01*
X14635490Y-9561648D01*
X14635480Y-9572478D01*
X14652723Y-9614209D01*
X14684623Y-9646165D01*
X14726324Y-9663480D01*
X14771477Y-9663520D01*
X14812549Y-9646549D01*
X14853324Y-9663480D01*
X14898477Y-9663520D01*
X14939549Y-9646549D01*
X14959800Y-9654958D01*
X14975725Y-9670884D01*
X14980688Y-9682894D01*
X15006967Y-9709219D01*
X15041320Y-9723484D01*
X15078517Y-9723516D01*
X15112894Y-9709312D01*
X15139219Y-9683033D01*
X15147324Y-9663515D01*
X15152477Y-9663520D01*
X15194209Y-9646277D01*
X15198237Y-9642255D01*
X15199665Y-9650522D01*
X15242497Y-9664811D01*
X15287537Y-9661622D01*
X15314335Y-9650522D01*
X15318050Y-9629010D01*
X15257000Y-9567961D01*
X15255586Y-9569375D01*
X15243494Y-9557283D01*
X15243500Y-9550000D01*
X15274960Y-9550000D01*
X15336010Y-9611050D01*
X15357522Y-9607335D01*
X15371811Y-9564503D01*
X15368622Y-9519463D01*
X15357522Y-9492665D01*
X15336010Y-9488950D01*
X15274960Y-9550000D01*
X15243500Y-9550000D01*
X15243506Y-9542705D01*
X15255586Y-9530625D01*
X15257000Y-9532040D01*
X15318050Y-9470990D01*
X15316490Y-9461958D01*
X15322894Y-9459312D01*
X15349219Y-9433033D01*
X15363484Y-9398680D01*
X15363516Y-9361483D01*
X15349312Y-9327106D01*
X15323033Y-9300781D01*
X15288680Y-9286516D01*
X15251483Y-9286484D01*
X15217106Y-9300688D01*
X15190781Y-9326967D01*
X15185743Y-9339099D01*
X15074870Y-9449972D01*
X15066450Y-9453451D01*
X15025676Y-9436520D01*
X14980522Y-9436480D01*
X14958453Y-9445599D01*
X14957763Y-9442133D01*
X14938579Y-9413421D01*
X14938579Y-9413421D01*
X14884274Y-9359117D01*
X14879312Y-9347106D01*
X14853033Y-9320781D01*
X14818680Y-9306516D01*
X14781483Y-9306484D01*
X14747106Y-9320688D01*
X14722011Y-9345739D01*
X14714312Y-9327106D01*
X14688033Y-9300781D01*
X14653680Y-9286516D01*
X14616483Y-9286484D01*
X14582106Y-9300688D01*
X14555781Y-9326967D01*
X14541516Y-9361320D01*
X14541484Y-9398517D01*
X14157580Y-9398517D01*
X14128680Y-9386516D01*
X14091483Y-9386484D01*
X14057106Y-9400688D01*
X14030781Y-9426967D01*
X14016516Y-9461320D01*
X14016484Y-9498517D01*
X14019716Y-9506339D01*
X14009564Y-9516491D01*
X14001483Y-9516484D01*
X13967106Y-9530688D01*
X13940781Y-9556967D01*
X13926516Y-9591320D01*
X13926484Y-9628517D01*
X13794293Y-9628517D01*
X13781881Y-9623363D01*
X13744685Y-9623331D01*
X13710307Y-9637535D01*
X13683982Y-9663814D01*
X13669718Y-9698167D01*
X13669685Y-9735364D01*
X13683890Y-9769741D01*
X13691663Y-9777528D01*
X13680841Y-9788332D01*
X13666576Y-9822684D01*
X13666544Y-9859881D01*
X13680748Y-9894259D01*
X13707027Y-9920584D01*
X13727296Y-9929000D01*
X13071000Y-9929000D01*
X13071000Y-9739311D01*
X13101466Y-9739311D01*
X13131622Y-9812294D01*
X13187412Y-9868182D01*
X13260343Y-9898465D01*
X13339311Y-9898534D01*
X13412294Y-9868378D01*
X13468182Y-9812588D01*
X13498465Y-9739657D01*
X13498534Y-9660689D01*
X13468378Y-9587706D01*
X13412588Y-9531818D01*
X13339657Y-9501535D01*
X13260689Y-9501466D01*
X13187706Y-9531622D01*
X13131818Y-9587412D01*
X13101535Y-9660343D01*
X13101466Y-9739311D01*
X13071000Y-9739311D01*
X13071000Y-9041579D01*
X13181986Y-9041579D01*
X13196190Y-9075957D01*
X13222469Y-9102281D01*
X13256822Y-9116546D01*
X13294019Y-9116578D01*
X13328396Y-9102374D01*
X13354721Y-9076095D01*
X13368986Y-9041742D01*
X13369018Y-9004546D01*
X13365076Y-8995006D01*
X13453138Y-8906944D01*
X13455660Y-8913048D01*
X13458253Y-8915645D01*
X13455458Y-8918435D01*
X13441194Y-8952788D01*
X13441161Y-8989984D01*
X13455366Y-9024362D01*
X13481645Y-9050687D01*
X13515998Y-9064952D01*
X13553194Y-9064984D01*
X13587572Y-9050779D01*
X13613897Y-9024500D01*
X13628161Y-8990148D01*
X13628173Y-8976194D01*
X13632582Y-8969595D01*
X13636135Y-8951735D01*
X13645727Y-8942143D01*
X13647703Y-8942963D01*
X13684899Y-8942995D01*
X13719277Y-8928791D01*
X13744608Y-8903504D01*
X13758517Y-8903516D01*
X13759518Y-8903103D01*
X13759480Y-8945978D01*
X13767231Y-8964735D01*
X13763241Y-8974343D01*
X13763208Y-9011540D01*
X13777413Y-9045917D01*
X13792988Y-9061519D01*
X13704981Y-9061519D01*
X13676854Y-9067114D01*
X13653008Y-9083047D01*
X13639547Y-9096508D01*
X13611483Y-9096484D01*
X13577106Y-9110688D01*
X13550781Y-9136967D01*
X13536516Y-9171320D01*
X13536484Y-9208517D01*
X13550688Y-9242894D01*
X13556840Y-9249057D01*
X13547055Y-9263702D01*
X13541460Y-9291829D01*
X13541460Y-9435492D01*
X13535741Y-9441201D01*
X13521477Y-9475554D01*
X13521444Y-9512750D01*
X13535649Y-9547128D01*
X13561928Y-9573453D01*
X13596280Y-9587717D01*
X13633477Y-9587750D01*
X13656876Y-9578082D01*
X13681498Y-9588306D01*
X13718695Y-9588338D01*
X13753073Y-9574134D01*
X13779397Y-9547855D01*
X13793662Y-9513502D01*
X13793669Y-9505276D01*
X13816973Y-9481972D01*
X13832906Y-9458127D01*
X13834626Y-9449478D01*
X13838501Y-9429999D01*
X13838501Y-9337325D01*
X13853324Y-9343480D01*
X13898477Y-9343520D01*
X13939549Y-9326549D01*
X13980324Y-9343480D01*
X14025477Y-9343520D01*
X14067209Y-9326277D01*
X14071237Y-9322255D01*
X14072665Y-9330522D01*
X14115497Y-9344811D01*
X14160537Y-9341622D01*
X14187335Y-9330522D01*
X14191050Y-9309010D01*
X14130000Y-9247961D01*
X14128586Y-9249375D01*
X14116494Y-9237283D01*
X14116503Y-9226879D01*
X14122723Y-9224309D01*
X14133920Y-9213131D01*
X14149375Y-9228586D01*
X14147960Y-9230000D01*
X14209010Y-9291050D01*
X14230522Y-9287335D01*
X14244811Y-9244503D01*
X14241622Y-9199463D01*
X14230522Y-9172665D01*
X14210710Y-9169244D01*
X14219835Y-9163146D01*
X14222737Y-9161208D01*
X14260445Y-9123500D01*
X14790000Y-9123500D01*
X14818127Y-9117905D01*
X14841972Y-9101972D01*
X14920435Y-9023509D01*
X14928517Y-9023516D01*
X14962894Y-9009312D01*
X14989219Y-8983033D01*
X15003484Y-8948680D01*
X15003516Y-8911483D01*
X14989312Y-8877106D01*
X14963033Y-8850781D01*
X14928680Y-8836516D01*
X14891483Y-8836484D01*
X14868305Y-8846061D01*
X14863033Y-8840780D01*
X14828680Y-8826515D01*
X14791483Y-8826483D01*
X14757106Y-8840687D01*
X14730781Y-8866966D01*
X14716516Y-8901319D01*
X14716509Y-8909545D01*
X14709554Y-8916500D01*
X14240506Y-8916500D01*
X14240520Y-8901023D01*
X14223277Y-8859291D01*
X14219255Y-8855263D01*
X14227522Y-8853835D01*
X14241811Y-8811003D01*
X14238622Y-8765963D01*
X14227522Y-8739165D01*
X14206010Y-8735450D01*
X14144960Y-8796500D01*
X14146375Y-8797914D01*
X14134283Y-8810006D01*
X14119704Y-8809994D01*
X14113494Y-8803783D01*
X14113506Y-8789205D01*
X14125586Y-8777125D01*
X14127000Y-8778540D01*
X14188050Y-8717490D01*
X14187362Y-8713504D01*
X14371512Y-8713504D01*
X14371486Y-8743446D01*
X14385690Y-8777824D01*
X14411969Y-8804149D01*
X14446322Y-8818413D01*
X14483519Y-8818446D01*
X14495489Y-8813500D01*
X14671258Y-8813500D01*
X14676967Y-8819219D01*
X14711320Y-8833484D01*
X14748517Y-8833516D01*
X14782894Y-8819312D01*
X14809219Y-8793033D01*
X14823484Y-8758680D01*
X14823516Y-8721483D01*
X14814640Y-8700000D01*
X15251500Y-8700000D01*
X15251500Y-8810000D01*
X15258237Y-8843868D01*
X15259451Y-8845686D01*
X15260843Y-8853080D01*
X15274483Y-8874277D01*
X15295295Y-8888497D01*
X15303831Y-8890226D01*
X15306132Y-8891763D01*
X15340000Y-8898500D01*
X15401500Y-8898500D01*
X15401500Y-9000000D01*
X15408237Y-9033868D01*
X15408964Y-9034956D01*
X15409785Y-9039084D01*
X15426260Y-9063740D01*
X15450916Y-9080215D01*
X15455044Y-9081036D01*
X15456132Y-9081763D01*
X15490000Y-9088500D01*
X15502568Y-9086000D01*
X15757507Y-9086000D01*
X15766132Y-9091763D01*
X15800000Y-9098500D01*
X15824114Y-9093703D01*
X15824483Y-9094277D01*
X15845295Y-9108497D01*
X15849672Y-9109384D01*
X15850916Y-9110215D01*
X15880000Y-9116000D01*
X16390000Y-9116000D01*
X16419084Y-9110215D01*
X16419721Y-9109789D01*
X16423079Y-9109157D01*
X16444277Y-9095517D01*
X16458497Y-9074705D01*
X16459383Y-9070328D01*
X16460215Y-9069084D01*
X16466000Y-9040000D01*
X16466000Y-8680000D01*
X16460215Y-8650916D01*
X16459789Y-8650279D01*
X16459157Y-8646921D01*
X16445517Y-8625723D01*
X16424705Y-8611503D01*
X16420328Y-8610617D01*
X16419084Y-8609785D01*
X16390000Y-8604000D01*
X15880000Y-8604000D01*
X15850916Y-8609785D01*
X15850279Y-8610211D01*
X15846920Y-8610843D01*
X15834634Y-8618749D01*
X15833867Y-8618237D01*
X15800000Y-8611500D01*
X15340000Y-8611500D01*
X15306132Y-8618237D01*
X15304314Y-8619451D01*
X15296920Y-8620843D01*
X15275723Y-8634483D01*
X15261503Y-8655295D01*
X15259774Y-8663831D01*
X15258237Y-8666133D01*
X15251500Y-8700000D01*
X14814640Y-8700000D01*
X14809312Y-8687106D01*
X14783033Y-8660781D01*
X14753447Y-8648496D01*
X14753458Y-8635693D01*
X14739253Y-8601315D01*
X14721075Y-8583105D01*
X14721643Y-8582539D01*
X14734300Y-8552057D01*
X14746246Y-8547121D01*
X14772571Y-8520842D01*
X14786836Y-8486489D01*
X14786843Y-8478517D01*
X14856484Y-8478517D01*
X14870688Y-8512894D01*
X14896967Y-8539219D01*
X14931320Y-8553484D01*
X14968517Y-8553516D01*
X14987905Y-8545505D01*
X15011302Y-8555220D01*
X15048499Y-8555253D01*
X15081754Y-8541512D01*
X15091319Y-8545484D01*
X15128515Y-8545516D01*
X15148474Y-8537270D01*
X15152110Y-8540912D01*
X15186462Y-8555176D01*
X15223659Y-8555209D01*
X15258037Y-8541004D01*
X15284362Y-8514725D01*
X15297327Y-8483500D01*
X15861258Y-8483500D01*
X15866967Y-8489219D01*
X15901320Y-8503484D01*
X15938517Y-8503516D01*
X15972894Y-8489312D01*
X15999219Y-8463033D01*
X16012153Y-8431884D01*
X16040086Y-8420343D01*
X16066411Y-8394064D01*
X16080675Y-8359711D01*
X16080708Y-8322514D01*
X16066503Y-8288136D01*
X16040224Y-8261812D01*
X16005871Y-8247547D01*
X15997765Y-8247540D01*
X15997777Y-8233142D01*
X15983573Y-8198764D01*
X15957294Y-8172439D01*
X15922941Y-8158175D01*
X15885744Y-8158142D01*
X15851367Y-8172347D01*
X15848769Y-8174940D01*
X15119133Y-8174940D01*
X15091006Y-8180535D01*
X15067161Y-8196468D01*
X14898028Y-8365601D01*
X14882095Y-8389446D01*
X14880549Y-8397216D01*
X14870781Y-8406967D01*
X14856516Y-8441320D01*
X14856484Y-8478517D01*
X14786843Y-8478517D01*
X14786868Y-8449293D01*
X14772664Y-8414915D01*
X14746385Y-8388590D01*
X14712032Y-8374325D01*
X14701638Y-8374316D01*
X14684319Y-8362744D01*
X14683765Y-8362634D01*
X14656192Y-8357149D01*
X14514557Y-8357149D01*
X14486429Y-8362744D01*
X14462584Y-8378677D01*
X14404762Y-8436500D01*
X14343502Y-8436500D01*
X14343515Y-8421483D01*
X14329310Y-8387106D01*
X14310291Y-8368053D01*
X14301971Y-8355601D01*
X14244397Y-8298028D01*
X14220552Y-8282095D01*
X14192425Y-8276500D01*
X14070445Y-8276500D01*
X14033500Y-8239555D01*
X14033500Y-8139311D01*
X16501466Y-8139311D01*
X16531622Y-8212294D01*
X16587412Y-8268182D01*
X16660343Y-8298465D01*
X16739311Y-8298534D01*
X16812294Y-8268378D01*
X16868182Y-8212588D01*
X16898465Y-8139657D01*
X16898534Y-8060689D01*
X16868378Y-7987706D01*
X16812588Y-7931818D01*
X16739657Y-7901535D01*
X16660689Y-7901466D01*
X16587706Y-7931622D01*
X16531818Y-7987412D01*
X16501535Y-8060343D01*
X16501466Y-8139311D01*
X14033500Y-8139311D01*
X14033500Y-7960445D01*
X14135428Y-7858517D01*
X15986484Y-7858517D01*
X16000688Y-7892894D01*
X16026967Y-7919219D01*
X16061320Y-7933484D01*
X16098517Y-7933516D01*
X16132894Y-7919312D01*
X16153292Y-7898950D01*
X16166967Y-7912649D01*
X16201320Y-7926914D01*
X16238517Y-7926946D01*
X16258241Y-7918796D01*
X16271873Y-7927905D01*
X16300000Y-7933500D01*
X16328127Y-7927905D01*
X16338786Y-7920783D01*
X16346388Y-7920790D01*
X16380766Y-7906585D01*
X16397573Y-7889808D01*
X16406967Y-7899219D01*
X16441320Y-7913484D01*
X16478517Y-7913516D01*
X16512894Y-7899312D01*
X16539219Y-7873033D01*
X16553484Y-7838680D01*
X16553516Y-7801483D01*
X16539312Y-7767106D01*
X16533500Y-7761284D01*
X16533500Y-7742354D01*
X16548209Y-7736277D01*
X16552237Y-7732255D01*
X16553665Y-7740522D01*
X16596497Y-7754811D01*
X16641537Y-7751622D01*
X16668335Y-7740522D01*
X16672050Y-7719010D01*
X16611000Y-7657960D01*
X16609586Y-7659375D01*
X16597494Y-7647283D01*
X16597500Y-7640000D01*
X16628960Y-7640000D01*
X16690010Y-7701050D01*
X16711522Y-7697335D01*
X16725811Y-7654503D01*
X16722622Y-7609462D01*
X16711522Y-7582665D01*
X16690010Y-7578950D01*
X16628960Y-7640000D01*
X16597500Y-7640000D01*
X16597506Y-7632704D01*
X16609586Y-7620625D01*
X16611000Y-7622039D01*
X16672050Y-7560990D01*
X16668335Y-7539478D01*
X16625503Y-7525189D01*
X16580462Y-7528378D01*
X16553665Y-7539478D01*
X16552243Y-7547709D01*
X16548376Y-7543835D01*
X16506676Y-7526520D01*
X16461522Y-7526480D01*
X16420450Y-7543451D01*
X16379676Y-7526520D01*
X16334522Y-7526480D01*
X16293450Y-7543451D01*
X16252676Y-7526520D01*
X16207522Y-7526480D01*
X16166450Y-7543451D01*
X16125676Y-7526520D01*
X16080522Y-7526480D01*
X16038791Y-7543723D01*
X16006835Y-7575623D01*
X15989520Y-7617324D01*
X15989480Y-7662477D01*
X16006500Y-7703668D01*
X16006500Y-7781258D01*
X16000781Y-7786967D01*
X15986516Y-7821320D01*
X15986484Y-7858517D01*
X14135428Y-7858517D01*
X14150435Y-7843509D01*
X14158517Y-7843516D01*
X14192894Y-7829312D01*
X14219219Y-7803033D01*
X14233484Y-7768680D01*
X14233516Y-7731483D01*
X14219312Y-7697106D01*
X14193033Y-7670781D01*
X14158680Y-7656516D01*
X14121483Y-7656484D01*
X14101416Y-7664775D01*
X14097803Y-7661156D01*
X14063450Y-7646891D01*
X14026254Y-7646859D01*
X13991876Y-7661064D01*
X13965551Y-7687343D01*
X13951287Y-7721695D01*
X13951279Y-7729922D01*
X13858028Y-7823173D01*
X13842095Y-7847018D01*
X13836500Y-7875146D01*
X13836500Y-8290000D01*
X13842075Y-8318026D01*
X13842095Y-8318127D01*
X13858028Y-8341972D01*
X13902555Y-8386500D01*
X13779035Y-8386500D01*
X13790871Y-8374685D01*
X13805136Y-8340332D01*
X13805168Y-8303135D01*
X13795121Y-8278819D01*
X13803484Y-8258680D01*
X13803516Y-8221483D01*
X13789312Y-8187106D01*
X13763033Y-8160781D01*
X13728680Y-8146516D01*
X13713500Y-8146503D01*
X13713500Y-7994189D01*
X13748518Y-7994219D01*
X13782895Y-7980015D01*
X13809220Y-7953736D01*
X13823485Y-7919383D01*
X13823517Y-7882186D01*
X13809313Y-7847809D01*
X13803501Y-7841987D01*
X13803501Y-7796020D01*
X13797906Y-7767893D01*
X13794454Y-7762727D01*
X13792644Y-7760017D01*
X13792655Y-7746642D01*
X13778451Y-7712264D01*
X13752172Y-7685939D01*
X13717819Y-7671675D01*
X13680622Y-7671642D01*
X13646245Y-7685847D01*
X13619920Y-7712126D01*
X13605655Y-7746479D01*
X13605623Y-7783675D01*
X13619827Y-7818053D01*
X13646106Y-7844378D01*
X13651738Y-7846716D01*
X13650782Y-7847670D01*
X13647086Y-7856571D01*
X13568698Y-7778183D01*
X13584180Y-7762727D01*
X13598445Y-7728374D01*
X13598477Y-7691178D01*
X13584273Y-7656800D01*
X13578461Y-7650978D01*
X13578461Y-7578627D01*
X13588844Y-7568262D01*
X13603108Y-7533909D01*
X13603141Y-7496713D01*
X13588936Y-7462335D01*
X13562657Y-7436010D01*
X13528305Y-7421746D01*
X13491108Y-7421713D01*
X13456730Y-7435918D01*
X13430405Y-7462197D01*
X13416141Y-7496550D01*
X13416108Y-7533746D01*
X13430313Y-7568124D01*
X13431461Y-7569274D01*
X13431461Y-7602061D01*
X13403640Y-7590508D01*
X13366443Y-7590476D01*
X13332066Y-7604680D01*
X13305741Y-7630959D01*
X13291476Y-7665312D01*
X13291449Y-7696317D01*
X13280781Y-7706967D01*
X13266516Y-7741320D01*
X13266484Y-7778517D01*
X13280688Y-7812894D01*
X13306967Y-7839219D01*
X13341320Y-7853484D01*
X13349546Y-7853491D01*
X13368028Y-7871972D01*
X13391873Y-7887905D01*
X13419442Y-7893389D01*
X13526499Y-8000446D01*
X13526499Y-8192986D01*
X13348028Y-8371457D01*
X13346408Y-8373882D01*
X13328676Y-8366520D01*
X13291480Y-8366487D01*
X13257102Y-8380692D01*
X13230777Y-8406971D01*
X13216513Y-8441324D01*
X13216480Y-8478520D01*
X13230685Y-8512898D01*
X13236497Y-8518720D01*
X13236497Y-8689997D01*
X13242091Y-8718124D01*
X13258024Y-8741969D01*
X13334124Y-8818069D01*
X13223530Y-8928664D01*
X13207597Y-8952509D01*
X13206051Y-8960278D01*
X13196283Y-8970030D01*
X13182018Y-9004382D01*
X13181986Y-9041579D01*
X13071000Y-9041579D01*
X13071000Y-8139311D01*
X13101466Y-8139311D01*
X13131622Y-8212294D01*
X13187412Y-8268182D01*
X13260343Y-8298465D01*
X13339311Y-8298534D01*
X13412294Y-8268378D01*
X13468182Y-8212588D01*
X13498465Y-8139657D01*
X13498534Y-8060689D01*
X13468378Y-7987706D01*
X13412588Y-7931818D01*
X13339657Y-7901535D01*
X13260689Y-7901466D01*
X13187706Y-7931622D01*
X13131818Y-7987412D01*
X13101535Y-8060343D01*
X13101466Y-8139311D01*
X13071000Y-8139311D01*
X13071000Y-7012700D01*
X16929000Y-7012700D01*
X16929000Y-9929000D01*
X16929000Y-9929000D01*
G37*
X16929000Y-9929000D02*
X15793941Y-9929000D01*
X15901973Y-9820968D01*
X15913637Y-9803512D01*
X15918517Y-9803516D01*
X15952894Y-9789312D01*
X15979219Y-9763033D01*
X15989069Y-9739311D01*
X16501466Y-9739311D01*
X16531622Y-9812294D01*
X16587412Y-9868182D01*
X16660343Y-9898465D01*
X16739311Y-9898534D01*
X16812294Y-9868378D01*
X16868182Y-9812588D01*
X16898465Y-9739657D01*
X16898534Y-9660689D01*
X16868378Y-9587706D01*
X16812588Y-9531818D01*
X16739657Y-9501535D01*
X16660689Y-9501466D01*
X16587706Y-9531622D01*
X16531818Y-9587412D01*
X16501535Y-9660343D01*
X16501466Y-9739311D01*
X15989069Y-9739311D01*
X15993484Y-9728680D01*
X15993516Y-9691483D01*
X15979312Y-9657106D01*
X15953033Y-9630781D01*
X15918680Y-9616516D01*
X15881483Y-9616484D01*
X15857995Y-9626189D01*
X15828680Y-9614016D01*
X15791483Y-9613984D01*
X15757106Y-9628188D01*
X15730781Y-9654467D01*
X15716516Y-9688820D01*
X15716509Y-9697046D01*
X15617056Y-9796500D01*
X15485743Y-9796500D01*
X15485747Y-9791482D01*
X15471543Y-9757105D01*
X15445264Y-9730780D01*
X15410911Y-9716515D01*
X15373714Y-9716483D01*
X15339337Y-9730687D01*
X15329461Y-9740545D01*
X15321677Y-9742094D01*
X15297832Y-9758027D01*
X15259359Y-9796500D01*
X15060445Y-9796500D01*
X15033987Y-9770042D01*
X15031972Y-9767028D01*
X14977972Y-9713028D01*
X14954127Y-9697095D01*
X14926000Y-9691500D01*
X14555000Y-9691500D01*
X14526873Y-9697095D01*
X14503028Y-9713028D01*
X14405459Y-9810597D01*
X14203491Y-9810597D01*
X14203516Y-9781483D01*
X14189312Y-9747106D01*
X14163033Y-9720781D01*
X14128680Y-9706516D01*
X14091483Y-9706484D01*
X14057106Y-9720688D01*
X14051284Y-9726500D01*
X13876799Y-9726500D01*
X13856711Y-9706411D01*
X13856718Y-9698330D01*
X13842513Y-9663953D01*
X13816234Y-9637628D01*
X13794293Y-9628517D01*
X13926484Y-9628517D01*
X13940688Y-9662894D01*
X13966967Y-9689219D01*
X14001320Y-9703484D01*
X14038517Y-9703516D01*
X14072894Y-9689312D01*
X14099219Y-9663033D01*
X14113484Y-9628680D01*
X14113491Y-9620454D01*
X14161972Y-9571972D01*
X14177905Y-9548127D01*
X14178287Y-9546206D01*
X14178848Y-9543386D01*
X14189219Y-9533033D01*
X14203484Y-9498680D01*
X14203516Y-9461483D01*
X14189312Y-9427106D01*
X14163033Y-9400781D01*
X14157580Y-9398517D01*
X14541484Y-9398517D01*
X14546500Y-9410657D01*
X14546500Y-9436000D01*
X14546500Y-9436000D01*
X14551787Y-9462579D01*
X14553237Y-9469868D01*
X14569911Y-9494822D01*
X14572421Y-9498579D01*
X14635490Y-9561648D01*
X14635480Y-9572478D01*
X14652723Y-9614209D01*
X14684623Y-9646165D01*
X14726324Y-9663480D01*
X14771477Y-9663520D01*
X14812549Y-9646549D01*
X14853324Y-9663480D01*
X14898477Y-9663520D01*
X14939549Y-9646549D01*
X14959800Y-9654958D01*
X14975725Y-9670884D01*
X14980688Y-9682894D01*
X15006967Y-9709219D01*
X15041320Y-9723484D01*
X15078517Y-9723516D01*
X15112894Y-9709312D01*
X15139219Y-9683033D01*
X15147324Y-9663515D01*
X15152477Y-9663520D01*
X15194209Y-9646277D01*
X15198237Y-9642255D01*
X15199665Y-9650522D01*
X15242497Y-9664811D01*
X15287537Y-9661622D01*
X15314335Y-9650522D01*
X15318050Y-9629010D01*
X15257000Y-9567961D01*
X15255586Y-9569375D01*
X15243494Y-9557283D01*
X15243500Y-9550000D01*
X15274960Y-9550000D01*
X15336010Y-9611050D01*
X15357522Y-9607335D01*
X15371811Y-9564503D01*
X15368622Y-9519463D01*
X15357522Y-9492665D01*
X15336010Y-9488950D01*
X15274960Y-9550000D01*
X15243500Y-9550000D01*
X15243506Y-9542705D01*
X15255586Y-9530625D01*
X15257000Y-9532040D01*
X15318050Y-9470990D01*
X15316490Y-9461958D01*
X15322894Y-9459312D01*
X15349219Y-9433033D01*
X15363484Y-9398680D01*
X15363516Y-9361483D01*
X15349312Y-9327106D01*
X15323033Y-9300781D01*
X15288680Y-9286516D01*
X15251483Y-9286484D01*
X15217106Y-9300688D01*
X15190781Y-9326967D01*
X15185743Y-9339099D01*
X15074870Y-9449972D01*
X15066450Y-9453451D01*
X15025676Y-9436520D01*
X14980522Y-9436480D01*
X14958453Y-9445599D01*
X14957763Y-9442133D01*
X14938579Y-9413421D01*
X14938579Y-9413421D01*
X14884274Y-9359117D01*
X14879312Y-9347106D01*
X14853033Y-9320781D01*
X14818680Y-9306516D01*
X14781483Y-9306484D01*
X14747106Y-9320688D01*
X14722011Y-9345739D01*
X14714312Y-9327106D01*
X14688033Y-9300781D01*
X14653680Y-9286516D01*
X14616483Y-9286484D01*
X14582106Y-9300688D01*
X14555781Y-9326967D01*
X14541516Y-9361320D01*
X14541484Y-9398517D01*
X14157580Y-9398517D01*
X14128680Y-9386516D01*
X14091483Y-9386484D01*
X14057106Y-9400688D01*
X14030781Y-9426967D01*
X14016516Y-9461320D01*
X14016484Y-9498517D01*
X14019716Y-9506339D01*
X14009564Y-9516491D01*
X14001483Y-9516484D01*
X13967106Y-9530688D01*
X13940781Y-9556967D01*
X13926516Y-9591320D01*
X13926484Y-9628517D01*
X13794293Y-9628517D01*
X13781881Y-9623363D01*
X13744685Y-9623331D01*
X13710307Y-9637535D01*
X13683982Y-9663814D01*
X13669718Y-9698167D01*
X13669685Y-9735364D01*
X13683890Y-9769741D01*
X13691663Y-9777528D01*
X13680841Y-9788332D01*
X13666576Y-9822684D01*
X13666544Y-9859881D01*
X13680748Y-9894259D01*
X13707027Y-9920584D01*
X13727296Y-9929000D01*
X13071000Y-9929000D01*
X13071000Y-9739311D01*
X13101466Y-9739311D01*
X13131622Y-9812294D01*
X13187412Y-9868182D01*
X13260343Y-9898465D01*
X13339311Y-9898534D01*
X13412294Y-9868378D01*
X13468182Y-9812588D01*
X13498465Y-9739657D01*
X13498534Y-9660689D01*
X13468378Y-9587706D01*
X13412588Y-9531818D01*
X13339657Y-9501535D01*
X13260689Y-9501466D01*
X13187706Y-9531622D01*
X13131818Y-9587412D01*
X13101535Y-9660343D01*
X13101466Y-9739311D01*
X13071000Y-9739311D01*
X13071000Y-9041579D01*
X13181986Y-9041579D01*
X13196190Y-9075957D01*
X13222469Y-9102281D01*
X13256822Y-9116546D01*
X13294019Y-9116578D01*
X13328396Y-9102374D01*
X13354721Y-9076095D01*
X13368986Y-9041742D01*
X13369018Y-9004546D01*
X13365076Y-8995006D01*
X13453138Y-8906944D01*
X13455660Y-8913048D01*
X13458253Y-8915645D01*
X13455458Y-8918435D01*
X13441194Y-8952788D01*
X13441161Y-8989984D01*
X13455366Y-9024362D01*
X13481645Y-9050687D01*
X13515998Y-9064952D01*
X13553194Y-9064984D01*
X13587572Y-9050779D01*
X13613897Y-9024500D01*
X13628161Y-8990148D01*
X13628173Y-8976194D01*
X13632582Y-8969595D01*
X13636135Y-8951735D01*
X13645727Y-8942143D01*
X13647703Y-8942963D01*
X13684899Y-8942995D01*
X13719277Y-8928791D01*
X13744608Y-8903504D01*
X13758517Y-8903516D01*
X13759518Y-8903103D01*
X13759480Y-8945978D01*
X13767231Y-8964735D01*
X13763241Y-8974343D01*
X13763208Y-9011540D01*
X13777413Y-9045917D01*
X13792988Y-9061519D01*
X13704981Y-9061519D01*
X13676854Y-9067114D01*
X13653008Y-9083047D01*
X13639547Y-9096508D01*
X13611483Y-9096484D01*
X13577106Y-9110688D01*
X13550781Y-9136967D01*
X13536516Y-9171320D01*
X13536484Y-9208517D01*
X13550688Y-9242894D01*
X13556840Y-9249057D01*
X13547055Y-9263702D01*
X13541460Y-9291829D01*
X13541460Y-9435492D01*
X13535741Y-9441201D01*
X13521477Y-9475554D01*
X13521444Y-9512750D01*
X13535649Y-9547128D01*
X13561928Y-9573453D01*
X13596280Y-9587717D01*
X13633477Y-9587750D01*
X13656876Y-9578082D01*
X13681498Y-9588306D01*
X13718695Y-9588338D01*
X13753073Y-9574134D01*
X13779397Y-9547855D01*
X13793662Y-9513502D01*
X13793669Y-9505276D01*
X13816973Y-9481972D01*
X13832906Y-9458127D01*
X13834626Y-9449478D01*
X13838501Y-9429999D01*
X13838501Y-9337325D01*
X13853324Y-9343480D01*
X13898477Y-9343520D01*
X13939549Y-9326549D01*
X13980324Y-9343480D01*
X14025477Y-9343520D01*
X14067209Y-9326277D01*
X14071237Y-9322255D01*
X14072665Y-9330522D01*
X14115497Y-9344811D01*
X14160537Y-9341622D01*
X14187335Y-9330522D01*
X14191050Y-9309010D01*
X14130000Y-9247961D01*
X14128586Y-9249375D01*
X14116494Y-9237283D01*
X14116503Y-9226879D01*
X14122723Y-9224309D01*
X14133920Y-9213131D01*
X14149375Y-9228586D01*
X14147960Y-9230000D01*
X14209010Y-9291050D01*
X14230522Y-9287335D01*
X14244811Y-9244503D01*
X14241622Y-9199463D01*
X14230522Y-9172665D01*
X14210710Y-9169244D01*
X14219835Y-9163146D01*
X14222737Y-9161208D01*
X14260445Y-9123500D01*
X14790000Y-9123500D01*
X14818127Y-9117905D01*
X14841972Y-9101972D01*
X14920435Y-9023509D01*
X14928517Y-9023516D01*
X14962894Y-9009312D01*
X14989219Y-8983033D01*
X15003484Y-8948680D01*
X15003516Y-8911483D01*
X14989312Y-8877106D01*
X14963033Y-8850781D01*
X14928680Y-8836516D01*
X14891483Y-8836484D01*
X14868305Y-8846061D01*
X14863033Y-8840780D01*
X14828680Y-8826515D01*
X14791483Y-8826483D01*
X14757106Y-8840687D01*
X14730781Y-8866966D01*
X14716516Y-8901319D01*
X14716509Y-8909545D01*
X14709554Y-8916500D01*
X14240506Y-8916500D01*
X14240520Y-8901023D01*
X14223277Y-8859291D01*
X14219255Y-8855263D01*
X14227522Y-8853835D01*
X14241811Y-8811003D01*
X14238622Y-8765963D01*
X14227522Y-8739165D01*
X14206010Y-8735450D01*
X14144960Y-8796500D01*
X14146375Y-8797914D01*
X14134283Y-8810006D01*
X14119704Y-8809994D01*
X14113494Y-8803783D01*
X14113506Y-8789205D01*
X14125586Y-8777125D01*
X14127000Y-8778540D01*
X14188050Y-8717490D01*
X14187362Y-8713504D01*
X14371512Y-8713504D01*
X14371486Y-8743446D01*
X14385690Y-8777824D01*
X14411969Y-8804149D01*
X14446322Y-8818413D01*
X14483519Y-8818446D01*
X14495489Y-8813500D01*
X14671258Y-8813500D01*
X14676967Y-8819219D01*
X14711320Y-8833484D01*
X14748517Y-8833516D01*
X14782894Y-8819312D01*
X14809219Y-8793033D01*
X14823484Y-8758680D01*
X14823516Y-8721483D01*
X14814640Y-8700000D01*
X15251500Y-8700000D01*
X15251500Y-8810000D01*
X15258237Y-8843868D01*
X15259451Y-8845686D01*
X15260843Y-8853080D01*
X15274483Y-8874277D01*
X15295295Y-8888497D01*
X15303831Y-8890226D01*
X15306132Y-8891763D01*
X15340000Y-8898500D01*
X15401500Y-8898500D01*
X15401500Y-9000000D01*
X15408237Y-9033868D01*
X15408964Y-9034956D01*
X15409785Y-9039084D01*
X15426260Y-9063740D01*
X15450916Y-9080215D01*
X15455044Y-9081036D01*
X15456132Y-9081763D01*
X15490000Y-9088500D01*
X15502568Y-9086000D01*
X15757507Y-9086000D01*
X15766132Y-9091763D01*
X15800000Y-9098500D01*
X15824114Y-9093703D01*
X15824483Y-9094277D01*
X15845295Y-9108497D01*
X15849672Y-9109384D01*
X15850916Y-9110215D01*
X15880000Y-9116000D01*
X16390000Y-9116000D01*
X16419084Y-9110215D01*
X16419721Y-9109789D01*
X16423079Y-9109157D01*
X16444277Y-9095517D01*
X16458497Y-9074705D01*
X16459383Y-9070328D01*
X16460215Y-9069084D01*
X16466000Y-9040000D01*
X16466000Y-8680000D01*
X16460215Y-8650916D01*
X16459789Y-8650279D01*
X16459157Y-8646921D01*
X16445517Y-8625723D01*
X16424705Y-8611503D01*
X16420328Y-8610617D01*
X16419084Y-8609785D01*
X16390000Y-8604000D01*
X15880000Y-8604000D01*
X15850916Y-8609785D01*
X15850279Y-8610211D01*
X15846920Y-8610843D01*
X15834634Y-8618749D01*
X15833867Y-8618237D01*
X15800000Y-8611500D01*
X15340000Y-8611500D01*
X15306132Y-8618237D01*
X15304314Y-8619451D01*
X15296920Y-8620843D01*
X15275723Y-8634483D01*
X15261503Y-8655295D01*
X15259774Y-8663831D01*
X15258237Y-8666133D01*
X15251500Y-8700000D01*
X14814640Y-8700000D01*
X14809312Y-8687106D01*
X14783033Y-8660781D01*
X14753447Y-8648496D01*
X14753458Y-8635693D01*
X14739253Y-8601315D01*
X14721075Y-8583105D01*
X14721643Y-8582539D01*
X14734300Y-8552057D01*
X14746246Y-8547121D01*
X14772571Y-8520842D01*
X14786836Y-8486489D01*
X14786843Y-8478517D01*
X14856484Y-8478517D01*
X14870688Y-8512894D01*
X14896967Y-8539219D01*
X14931320Y-8553484D01*
X14968517Y-8553516D01*
X14987905Y-8545505D01*
X15011302Y-8555220D01*
X15048499Y-8555253D01*
X15081754Y-8541512D01*
X15091319Y-8545484D01*
X15128515Y-8545516D01*
X15148474Y-8537270D01*
X15152110Y-8540912D01*
X15186462Y-8555176D01*
X15223659Y-8555209D01*
X15258037Y-8541004D01*
X15284362Y-8514725D01*
X15297327Y-8483500D01*
X15861258Y-8483500D01*
X15866967Y-8489219D01*
X15901320Y-8503484D01*
X15938517Y-8503516D01*
X15972894Y-8489312D01*
X15999219Y-8463033D01*
X16012153Y-8431884D01*
X16040086Y-8420343D01*
X16066411Y-8394064D01*
X16080675Y-8359711D01*
X16080708Y-8322514D01*
X16066503Y-8288136D01*
X16040224Y-8261812D01*
X16005871Y-8247547D01*
X15997765Y-8247540D01*
X15997777Y-8233142D01*
X15983573Y-8198764D01*
X15957294Y-8172439D01*
X15922941Y-8158175D01*
X15885744Y-8158142D01*
X15851367Y-8172347D01*
X15848769Y-8174940D01*
X15119133Y-8174940D01*
X15091006Y-8180535D01*
X15067161Y-8196468D01*
X14898028Y-8365601D01*
X14882095Y-8389446D01*
X14880549Y-8397216D01*
X14870781Y-8406967D01*
X14856516Y-8441320D01*
X14856484Y-8478517D01*
X14786843Y-8478517D01*
X14786868Y-8449293D01*
X14772664Y-8414915D01*
X14746385Y-8388590D01*
X14712032Y-8374325D01*
X14701638Y-8374316D01*
X14684319Y-8362744D01*
X14683765Y-8362634D01*
X14656192Y-8357149D01*
X14514557Y-8357149D01*
X14486429Y-8362744D01*
X14462584Y-8378677D01*
X14404762Y-8436500D01*
X14343502Y-8436500D01*
X14343515Y-8421483D01*
X14329310Y-8387106D01*
X14310291Y-8368053D01*
X14301971Y-8355601D01*
X14244397Y-8298028D01*
X14220552Y-8282095D01*
X14192425Y-8276500D01*
X14070445Y-8276500D01*
X14033500Y-8239555D01*
X14033500Y-8139311D01*
X16501466Y-8139311D01*
X16531622Y-8212294D01*
X16587412Y-8268182D01*
X16660343Y-8298465D01*
X16739311Y-8298534D01*
X16812294Y-8268378D01*
X16868182Y-8212588D01*
X16898465Y-8139657D01*
X16898534Y-8060689D01*
X16868378Y-7987706D01*
X16812588Y-7931818D01*
X16739657Y-7901535D01*
X16660689Y-7901466D01*
X16587706Y-7931622D01*
X16531818Y-7987412D01*
X16501535Y-8060343D01*
X16501466Y-8139311D01*
X14033500Y-8139311D01*
X14033500Y-7960445D01*
X14135428Y-7858517D01*
X15986484Y-7858517D01*
X16000688Y-7892894D01*
X16026967Y-7919219D01*
X16061320Y-7933484D01*
X16098517Y-7933516D01*
X16132894Y-7919312D01*
X16153292Y-7898950D01*
X16166967Y-7912649D01*
X16201320Y-7926914D01*
X16238517Y-7926946D01*
X16258241Y-7918796D01*
X16271873Y-7927905D01*
X16300000Y-7933500D01*
X16328127Y-7927905D01*
X16338786Y-7920783D01*
X16346388Y-7920790D01*
X16380766Y-7906585D01*
X16397573Y-7889808D01*
X16406967Y-7899219D01*
X16441320Y-7913484D01*
X16478517Y-7913516D01*
X16512894Y-7899312D01*
X16539219Y-7873033D01*
X16553484Y-7838680D01*
X16553516Y-7801483D01*
X16539312Y-7767106D01*
X16533500Y-7761284D01*
X16533500Y-7742354D01*
X16548209Y-7736277D01*
X16552237Y-7732255D01*
X16553665Y-7740522D01*
X16596497Y-7754811D01*
X16641537Y-7751622D01*
X16668335Y-7740522D01*
X16672050Y-7719010D01*
X16611000Y-7657960D01*
X16609586Y-7659375D01*
X16597494Y-7647283D01*
X16597500Y-7640000D01*
X16628960Y-7640000D01*
X16690010Y-7701050D01*
X16711522Y-7697335D01*
X16725811Y-7654503D01*
X16722622Y-7609462D01*
X16711522Y-7582665D01*
X16690010Y-7578950D01*
X16628960Y-7640000D01*
X16597500Y-7640000D01*
X16597506Y-7632704D01*
X16609586Y-7620625D01*
X16611000Y-7622039D01*
X16672050Y-7560990D01*
X16668335Y-7539478D01*
X16625503Y-7525189D01*
X16580462Y-7528378D01*
X16553665Y-7539478D01*
X16552243Y-7547709D01*
X16548376Y-7543835D01*
X16506676Y-7526520D01*
X16461522Y-7526480D01*
X16420450Y-7543451D01*
X16379676Y-7526520D01*
X16334522Y-7526480D01*
X16293450Y-7543451D01*
X16252676Y-7526520D01*
X16207522Y-7526480D01*
X16166450Y-7543451D01*
X16125676Y-7526520D01*
X16080522Y-7526480D01*
X16038791Y-7543723D01*
X16006835Y-7575623D01*
X15989520Y-7617324D01*
X15989480Y-7662477D01*
X16006500Y-7703668D01*
X16006500Y-7781258D01*
X16000781Y-7786967D01*
X15986516Y-7821320D01*
X15986484Y-7858517D01*
X14135428Y-7858517D01*
X14150435Y-7843509D01*
X14158517Y-7843516D01*
X14192894Y-7829312D01*
X14219219Y-7803033D01*
X14233484Y-7768680D01*
X14233516Y-7731483D01*
X14219312Y-7697106D01*
X14193033Y-7670781D01*
X14158680Y-7656516D01*
X14121483Y-7656484D01*
X14101416Y-7664775D01*
X14097803Y-7661156D01*
X14063450Y-7646891D01*
X14026254Y-7646859D01*
X13991876Y-7661064D01*
X13965551Y-7687343D01*
X13951287Y-7721695D01*
X13951279Y-7729922D01*
X13858028Y-7823173D01*
X13842095Y-7847018D01*
X13836500Y-7875146D01*
X13836500Y-8290000D01*
X13842075Y-8318026D01*
X13842095Y-8318127D01*
X13858028Y-8341972D01*
X13902555Y-8386500D01*
X13779035Y-8386500D01*
X13790871Y-8374685D01*
X13805136Y-8340332D01*
X13805168Y-8303135D01*
X13795121Y-8278819D01*
X13803484Y-8258680D01*
X13803516Y-8221483D01*
X13789312Y-8187106D01*
X13763033Y-8160781D01*
X13728680Y-8146516D01*
X13713500Y-8146503D01*
X13713500Y-7994189D01*
X13748518Y-7994219D01*
X13782895Y-7980015D01*
X13809220Y-7953736D01*
X13823485Y-7919383D01*
X13823517Y-7882186D01*
X13809313Y-7847809D01*
X13803501Y-7841987D01*
X13803501Y-7796020D01*
X13797906Y-7767893D01*
X13794454Y-7762727D01*
X13792644Y-7760017D01*
X13792655Y-7746642D01*
X13778451Y-7712264D01*
X13752172Y-7685939D01*
X13717819Y-7671675D01*
X13680622Y-7671642D01*
X13646245Y-7685847D01*
X13619920Y-7712126D01*
X13605655Y-7746479D01*
X13605623Y-7783675D01*
X13619827Y-7818053D01*
X13646106Y-7844378D01*
X13651738Y-7846716D01*
X13650782Y-7847670D01*
X13647086Y-7856571D01*
X13568698Y-7778183D01*
X13584180Y-7762727D01*
X13598445Y-7728374D01*
X13598477Y-7691178D01*
X13584273Y-7656800D01*
X13578461Y-7650978D01*
X13578461Y-7578627D01*
X13588844Y-7568262D01*
X13603108Y-7533909D01*
X13603141Y-7496713D01*
X13588936Y-7462335D01*
X13562657Y-7436010D01*
X13528305Y-7421746D01*
X13491108Y-7421713D01*
X13456730Y-7435918D01*
X13430405Y-7462197D01*
X13416141Y-7496550D01*
X13416108Y-7533746D01*
X13430313Y-7568124D01*
X13431461Y-7569274D01*
X13431461Y-7602061D01*
X13403640Y-7590508D01*
X13366443Y-7590476D01*
X13332066Y-7604680D01*
X13305741Y-7630959D01*
X13291476Y-7665312D01*
X13291449Y-7696317D01*
X13280781Y-7706967D01*
X13266516Y-7741320D01*
X13266484Y-7778517D01*
X13280688Y-7812894D01*
X13306967Y-7839219D01*
X13341320Y-7853484D01*
X13349546Y-7853491D01*
X13368028Y-7871972D01*
X13391873Y-7887905D01*
X13419442Y-7893389D01*
X13526499Y-8000446D01*
X13526499Y-8192986D01*
X13348028Y-8371457D01*
X13346408Y-8373882D01*
X13328676Y-8366520D01*
X13291480Y-8366487D01*
X13257102Y-8380692D01*
X13230777Y-8406971D01*
X13216513Y-8441324D01*
X13216480Y-8478520D01*
X13230685Y-8512898D01*
X13236497Y-8518720D01*
X13236497Y-8689997D01*
X13242091Y-8718124D01*
X13258024Y-8741969D01*
X13334124Y-8818069D01*
X13223530Y-8928664D01*
X13207597Y-8952509D01*
X13206051Y-8960278D01*
X13196283Y-8970030D01*
X13182018Y-9004382D01*
X13181986Y-9041579D01*
X13071000Y-9041579D01*
X13071000Y-8139311D01*
X13101466Y-8139311D01*
X13131622Y-8212294D01*
X13187412Y-8268182D01*
X13260343Y-8298465D01*
X13339311Y-8298534D01*
X13412294Y-8268378D01*
X13468182Y-8212588D01*
X13498465Y-8139657D01*
X13498534Y-8060689D01*
X13468378Y-7987706D01*
X13412588Y-7931818D01*
X13339657Y-7901535D01*
X13260689Y-7901466D01*
X13187706Y-7931622D01*
X13131818Y-7987412D01*
X13101535Y-8060343D01*
X13101466Y-8139311D01*
X13071000Y-8139311D01*
X13071000Y-7012700D01*
X16929000Y-7012700D01*
X16929000Y-9929000D01*
G36*
X15797300Y-8997300D02*
X15492700Y-8997300D01*
X15492700Y-8830000D01*
X15491699Y-8825059D01*
X15488855Y-8820897D01*
X15484616Y-8818169D01*
X15480000Y-8817300D01*
X15332700Y-8817300D01*
X15332700Y-8692700D01*
X15797300Y-8692700D01*
X15797300Y-8997300D01*
X15797300Y-8997300D01*
G37*
X15797300Y-8997300D02*
X15492700Y-8997300D01*
X15492700Y-8830000D01*
X15491699Y-8825059D01*
X15488855Y-8820897D01*
X15484616Y-8818169D01*
X15480000Y-8817300D01*
X15332700Y-8817300D01*
X15332700Y-8692700D01*
X15797300Y-8692700D01*
X15797300Y-8997300D01*
G36*
X16387300Y-9037300D02*
X15883070Y-9037300D01*
X15888500Y-9010000D01*
X15888500Y-8700000D01*
X15885059Y-8682700D01*
X16387300Y-8682700D01*
X16387300Y-9037300D01*
X16387300Y-9037300D01*
G37*
X16387300Y-9037300D02*
X15883070Y-9037300D01*
X15888500Y-9010000D01*
X15888500Y-8700000D01*
X15885059Y-8682700D01*
X16387300Y-8682700D01*
X16387300Y-9037300D01*
M02*
