<?xml version="1.0" encoding="UTF-8" standalone="no"?>
<svg
   xmlns:dc="http://purl.org/dc/elements/1.1/"
   xmlns:cc="http://creativecommons.org/ns#"
   xmlns:rdf="http://www.w3.org/1999/02/22-rdf-syntax-ns#"
   xmlns:svg="http://www.w3.org/2000/svg"
   xmlns="http://www.w3.org/2000/svg"
   xmlns:sodipodi="http://sodipodi.sourceforge.net/DTD/sodipodi-0.dtd"
   xmlns:inkscape="http://www.inkscape.org/namespaces/inkscape"
   width="10071mm"
   height="8346mm"
   viewBox="-0.5 -1.83 10.07 8.3460001"
   version="1.1"
   id="svg2177"
   sodipodi:docname="floorplan.svg"
   inkscape:version="0.92.4 (unknown)">
  <metadata
     id="metadata2183">
    <rdf:RDF>
      <cc:Work
         rdf:about="">
        <dc:format>image/svg+xml</dc:format>
        <dc:type
           rdf:resource="http://purl.org/dc/dcmitype/StillImage" />
        <dc:title></dc:title>
      </cc:Work>
    </rdf:RDF>
  </metadata>
  <defs
     id="defs2181" />
  <sodipodi:namedview
     pagecolor="#ffffff"
     bordercolor="#666666"
     borderopacity="1"
     objecttolerance="10"
     gridtolerance="10"
     guidetolerance="10"
     inkscape:pageopacity="0"
     inkscape:pageshadow="2"
     inkscape:window-width="2880"
     inkscape:window-height="1491"
     id="namedview2179"
     showgrid="true"
     inkscape:measure-start="6180,9960"
     inkscape:measure-end="8054.12,9475.76"
     inkscape:zoom="0.028284271"
     inkscape:cx="2248.5075"
     inkscape:cy="11307.353"
     inkscape:window-x="0"
     inkscape:window-y="0"
     inkscape:window-maximized="1"
     inkscape:current-layer="Shape2DView"
     inkscape:document-units="mm"
     scale-x="0.001"
     viewbox-y="-1.83"
     viewbox-width="10.27"
     viewbox-height="8.53"
     fit-margin-top="0"
     fit-margin-left="0"
     fit-margin-right="0"
     fit-margin-bottom="0"
     viewbox-x="-0.5"
     inkscape:pagecheckerboard="false"
     showguides="false">
    <inkscape:grid
       type="xygrid"
       id="grid4240"
       originx="4.5127011"
       originy="7.8452609" />
  </sodipodi:namedview>
  <g
     id="Shape2DView"
     transform="matrix(1,0,0,-1,855.81826,464.98147)">
    <title
       id="title2174">b'Shape2DView'</title>
    <g
       id="g1164"
       transform="matrix(0.01,0,0,0.01,-858.28004,438.20837)">
      <path
         inkscape:connector-curvature="0"
         style="fill:none;fill-rule:evenodd;stroke:#000000;stroke-width:1;stroke-miterlimit:4;stroke-dasharray:none;stroke-opacity:1"
         d="m 592.08494,2752.4079 270.43695,-69.4768"
         id="Shape2DView_nwe0063" />
      <path
         inkscape:connector-curvature="0"
         style="fill:none;fill-rule:evenodd;stroke:#000000;stroke-width:1;stroke-miterlimit:4;stroke-dasharray:none;stroke-opacity:1"
         d="m 862.52189,2682.9311 -10.3867,-46.3834"
         id="Shape2DView_nwe0064" />
      <path
         inkscape:connector-curvature="0"
         style="fill:none;fill-rule:evenodd;stroke:#000000;stroke-width:1;stroke-miterlimit:4;stroke-dasharray:none;stroke-opacity:1"
         d="m 852.13519,2636.5477 1.87982,-0.4976"
         id="Shape2DView_nwe0065" />
      <path
         inkscape:connector-curvature="0"
         style="fill:none;fill-rule:evenodd;stroke:#000000;stroke-width:1;stroke-miterlimit:4;stroke-dasharray:none;stroke-opacity:1"
         d="m 854.01501,2636.0501 0.29311,1.1074"
         id="Shape2DView_nwe0066" />
      <path
         inkscape:connector-curvature="0"
         style="fill:none;fill-rule:evenodd;stroke:#000000;stroke-width:1;stroke-miterlimit:4;stroke-dasharray:none;stroke-opacity:1"
         d="m 854.30812,2637.1575 1.24731,-0.3301"
         id="Shape2DView_nwe0067" />
      <path
         inkscape:connector-curvature="0"
         style="fill:none;fill-rule:evenodd;stroke:#000000;stroke-width:1;stroke-miterlimit:4;stroke-dasharray:none;stroke-opacity:1"
         d="m 855.55543,2636.8274 -0.21303,-1.3393"
         id="Shape2DView_nwe0068" />
      <path
         inkscape:connector-curvature="0"
         style="fill:none;fill-rule:evenodd;stroke:#000000;stroke-width:1;stroke-miterlimit:4;stroke-dasharray:none;stroke-opacity:1"
         d="m 855.3424,2635.4881 96.23672,-21.6803"
         id="Shape2DView_nwe0069" />
      <path
         inkscape:connector-curvature="0"
         style="fill:none;fill-rule:evenodd;stroke:#000000;stroke-width:1;stroke-miterlimit:4;stroke-dasharray:none;stroke-opacity:1"
         d="m 951.57912,2613.8078 0.34068,1.2871"
         id="Shape2DView_nwe0070" />
      <path
         inkscape:connector-curvature="0"
         style="fill:none;fill-rule:evenodd;stroke:#000000;stroke-width:1;stroke-miterlimit:4;stroke-dasharray:none;stroke-opacity:1"
         d="m 951.9198,2615.0949 1.01763,-0.2693"
         id="Shape2DView_nwe0071" />
      <path
         inkscape:connector-curvature="0"
         style="fill:none;fill-rule:evenodd;stroke:#000000;stroke-width:1;stroke-miterlimit:4;stroke-dasharray:none;stroke-opacity:1"
         d="m 952.93743,2614.8256 -0.33786,-1.2765"
         id="Shape2DView_nwe0072" />
      <path
         inkscape:connector-curvature="0"
         style="fill:none;fill-rule:evenodd;stroke:#000000;stroke-width:1;stroke-miterlimit:4;stroke-dasharray:none;stroke-opacity:1"
         d="m 952.59957,2613.5491 24.37389,-5.5814"
         id="Shape2DView_nwe0073" />
      <path
         inkscape:connector-curvature="0"
         style="fill:none;fill-rule:evenodd;stroke:#000000;stroke-width:1;stroke-miterlimit:4;stroke-dasharray:none;stroke-opacity:1"
         d="m 976.97346,2607.9677 0.264,-0.5875"
         id="Shape2DView_nwe0074" />
      <path
         inkscape:connector-curvature="0"
         style="fill:none;fill-rule:evenodd;stroke:#000000;stroke-width:1;stroke-miterlimit:4;stroke-dasharray:none;stroke-opacity:1"
         d="m 977.23746,2607.3802 41.28854,-0.9918"
         id="Shape2DView_nwe0075" />
      <path
         inkscape:connector-curvature="0"
         style="fill:none;fill-rule:evenodd;stroke:#000000;stroke-width:1;stroke-miterlimit:4;stroke-dasharray:none;stroke-opacity:1"
         d="m 1018.526,2606.3884 0.078,1.3516"
         id="Shape2DView_nwe0076" />
      <path
         inkscape:connector-curvature="0"
         style="fill:none;fill-rule:evenodd;stroke:#000000;stroke-width:1;stroke-miterlimit:4;stroke-dasharray:none;stroke-opacity:1"
         d="m 1018.6044,2607.74 4.2614,-0.1387"
         id="Shape2DView_nwe0077" />
      <path
         inkscape:connector-curvature="0"
         style="fill:none;fill-rule:evenodd;stroke:#000000;stroke-width:1;stroke-miterlimit:4;stroke-dasharray:none;stroke-opacity:1"
         d="m 1022.8658,2607.6013 0.345,6.4937"
         id="Shape2DView_nwe0078" />
      <path
         inkscape:connector-curvature="0"
         style="fill:none;fill-rule:evenodd;stroke:#000000;stroke-width:1;stroke-miterlimit:4;stroke-dasharray:none;stroke-opacity:1"
         d="m 1023.2108,2614.095 78.9013,0.8877"
         id="Shape2DView_nwe0079" />
      <path
         inkscape:connector-curvature="0"
         style="fill:none;fill-rule:evenodd;stroke:#000000;stroke-width:1;stroke-miterlimit:4;stroke-dasharray:none;stroke-opacity:1"
         d="m 1102.1121,2614.9827 -0.1272,-7.525"
         id="Shape2DView_nwe0080" />
      <path
         inkscape:connector-curvature="0"
         style="fill:none;fill-rule:evenodd;stroke:#000000;stroke-width:1;stroke-miterlimit:4;stroke-dasharray:none;stroke-opacity:1"
         d="m 1101.9849,2607.4577 4.7771,0.06"
         id="Shape2DView_nwe0081" />
      <path
         inkscape:connector-curvature="0"
         style="fill:none;fill-rule:evenodd;stroke:#000000;stroke-width:1;stroke-miterlimit:4;stroke-dasharray:none;stroke-opacity:1"
         d="m 1106.762,2607.5181 0.028,-1.4438"
         id="Shape2DView_nwe0082" />
      <path
         inkscape:connector-curvature="0"
         style="fill:none;fill-rule:evenodd;stroke:#000000;stroke-width:1;stroke-miterlimit:4;stroke-dasharray:none;stroke-opacity:1"
         d="m 1106.7901,2606.0743 24.3491,-0.045"
         id="Shape2DView_nwe0083" />
      <path
         inkscape:connector-curvature="0"
         style="fill:none;fill-rule:evenodd;stroke:#000000;stroke-width:1.00012505;stroke-miterlimit:4;stroke-dasharray:none;stroke-opacity:1"
         d="m 1131.1392,2606.0292 0.4372,-115.4662"
         id="Shape2DView_nwe0084" />
      <path
         inkscape:connector-curvature="0"
         style="fill:none;fill-rule:evenodd;stroke:#000000;stroke-width:1.00012505;stroke-miterlimit:4;stroke-dasharray:none;stroke-opacity:1"
         d="m 1131.3064,2345.831 19.1717,-0.3101"
         id="Shape2DView_nwe0093" />
      <path
         inkscape:connector-curvature="0"
         style="fill:none;fill-rule:evenodd;stroke:#000000;stroke-width:1;stroke-miterlimit:4;stroke-dasharray:none;stroke-opacity:1"
         d="m 1150.4781,2345.5209 -0.1709,-0.6454"
         id="Shape2DView_nwe0094" />
      <path
         inkscape:connector-curvature="0"
         style="fill:none;fill-rule:evenodd;stroke:#000000;stroke-width:1;stroke-miterlimit:4;stroke-dasharray:none;stroke-opacity:1"
         d="m 1150.3072,2344.8755 40.9562,0.4937"
         id="Shape2DView_nwe0095" />
      <path
         inkscape:connector-curvature="0"
         style="fill:none;fill-rule:evenodd;stroke:#000000;stroke-width:1;stroke-miterlimit:4;stroke-dasharray:none;stroke-opacity:1"
         d="m 1191.2634,2345.3692 4.2109,-285.7867"
         id="Shape2DView_nwe0096" />
      <path
         inkscape:connector-curvature="0"
         style="fill:none;fill-rule:evenodd;stroke:#000000;stroke-width:1;stroke-miterlimit:4;stroke-dasharray:none;stroke-opacity:1"
         d="m 507.278,2039.02 -27.26378,25.8445"
         id="Shape2DView_nwe0385" />
      <path
         inkscape:connector-curvature="0"
         style="fill:none;fill-rule:evenodd;stroke:#000000;stroke-width:1;stroke-miterlimit:4;stroke-dasharray:none;stroke-opacity:1"
         d="m 480.01422,2064.8645 a 28.9154,28.9154 0 0 1 5.94342,18.8653"
         id="Shape2DView_nwe0386" />
      <path
         inkscape:connector-curvature="0"
         style="fill:none;fill-rule:evenodd;stroke:#000000;stroke-width:1;stroke-miterlimit:4;stroke-dasharray:none;stroke-opacity:1"
         d="m 485.95777,2083.7297 a 27.0376,27.0376 0 0 1 -7.09146,17.0903"
         id="Shape2DView_nwe0387" />
      <path
         inkscape:connector-curvature="0"
         style="fill:none;fill-rule:evenodd;stroke:#000000;stroke-width:1;stroke-miterlimit:4;stroke-dasharray:none;stroke-opacity:1"
         d="m 478.86687,2100.8254 a 27.8218,27.8218 0 0 1 -11.48602,7.5141"
         id="Shape2DView_nwe0388" />
      <path
         inkscape:connector-curvature="0"
         style="fill:none;fill-rule:evenodd;stroke:#000000;stroke-width:1;stroke-miterlimit:4;stroke-dasharray:none;stroke-opacity:1"
         d="m 467.38191,2108.3354 a 25.8827,25.8827 0 0 1 -18.39558,-0.6171"
         id="Shape2DView_nwe0389" />
      <path
         inkscape:connector-curvature="0"
         style="fill:none;fill-rule:evenodd;stroke:#000000;stroke-width:1;stroke-miterlimit:4;stroke-dasharray:none;stroke-opacity:1"
         d="m 448.99054,2107.7189 a 35.1643,35.1643 0 0 1 -20.54958,-24.0391"
         id="Shape2DView_nwe0390" />
      <path
         inkscape:connector-curvature="0"
         style="fill:none;fill-rule:evenodd;stroke:#000000;stroke-width:1;stroke-miterlimit:4;stroke-dasharray:none;stroke-opacity:1"
         d="m 428.43693,2083.6821 -1.81257,-0.021"
         id="Shape2DView_nwe0391" />
      <path
         inkscape:connector-curvature="0"
         style="fill:none;fill-rule:evenodd;stroke:#000000;stroke-width:1;stroke-miterlimit:4;stroke-dasharray:none;stroke-opacity:1"
         d="m 426.62436,2083.6615 -0.0738,1.5824"
         id="Shape2DView_nwe0392" />
      <path
         inkscape:connector-curvature="0"
         style="fill:none;fill-rule:evenodd;stroke:#000000;stroke-width:1;stroke-miterlimit:4;stroke-dasharray:none;stroke-opacity:1"
         d="m 426.55059,2085.2439 -3.8034,0.045"
         id="Shape2DView_nwe0393" />
      <path
         inkscape:connector-curvature="0"
         style="fill:none;fill-rule:evenodd;stroke:#000000;stroke-width:1;stroke-miterlimit:4;stroke-dasharray:none;stroke-opacity:1"
         d="m 422.74719,2085.289 0.1484,-4.547"
         id="Shape2DView_nwe0394" />
      <path
         inkscape:connector-curvature="0"
         style="fill:none;fill-rule:evenodd;stroke:#000000;stroke-width:1;stroke-miterlimit:4;stroke-dasharray:none;stroke-opacity:1"
         d="m 422.89559,2080.742 -1.28094,-0.01"
         id="Shape2DView_nwe0395" />
      <path
         inkscape:connector-curvature="0"
         style="fill:none;fill-rule:evenodd;stroke:#000000;stroke-width:1;stroke-miterlimit:4;stroke-dasharray:none;stroke-opacity:1"
         d="m 421.61465,2080.735 -0.0754,-3.4546"
         id="Shape2DView_nwe0396" />
      <path
         inkscape:connector-curvature="0"
         style="fill:none;fill-rule:evenodd;stroke:#000000;stroke-width:1;stroke-miterlimit:4;stroke-dasharray:none;stroke-opacity:1"
         d="m 421.53921,2077.2804 1.2877,0.027"
         id="Shape2DView_nwe0397" />
      <path
         inkscape:connector-curvature="0"
         style="fill:none;fill-rule:evenodd;stroke:#000000;stroke-width:1;stroke-miterlimit:4;stroke-dasharray:none;stroke-opacity:1"
         d="m 422.82691,2077.3076 0.0687,-2.0204"
         id="Shape2DView_nwe0398" />
      <path
         inkscape:connector-curvature="0"
         style="fill:none;fill-rule:evenodd;stroke:#000000;stroke-width:1;stroke-miterlimit:4;stroke-dasharray:none;stroke-opacity:1"
         d="m 422.89558,2075.2872 3.92478,0.1758"
         id="Shape2DView_nwe0399" />
      <path
         inkscape:connector-curvature="0"
         style="fill:none;fill-rule:evenodd;stroke:#000000;stroke-width:1;stroke-miterlimit:4;stroke-dasharray:none;stroke-opacity:1"
         d="m 426.82036,2075.463 -0.0934,1.4822"
         id="Shape2DView_nwe0400" />
      <path
         inkscape:connector-curvature="0"
         style="fill:none;fill-rule:evenodd;stroke:#000000;stroke-width:1;stroke-miterlimit:4;stroke-dasharray:none;stroke-opacity:1"
         d="m 426.72697,2076.9452 1.81928,0.034"
         id="Shape2DView_nwe0401" />
      <path
         inkscape:connector-curvature="0"
         style="fill:none;fill-rule:evenodd;stroke:#000000;stroke-width:1;stroke-miterlimit:4;stroke-dasharray:none;stroke-opacity:1"
         d="m 428.54625,2076.979 a 31.398,31.398 0 0 1 11.83958,-17.919"
         id="Shape2DView_nwe0402" />
      <path
         inkscape:connector-curvature="0"
         style="fill:none;fill-rule:evenodd;stroke:#000000;stroke-width:1;stroke-miterlimit:4;stroke-dasharray:none;stroke-opacity:1"
         d="m 440.38666,2059.0601 a 26.8155,26.8155 0 0 1 30.7868,-0.8056"
         id="Shape2DView_nwe0403" />
      <path
         inkscape:connector-curvature="0"
         style="fill:none;fill-rule:evenodd;stroke:#000000;stroke-width:1;stroke-miterlimit:4;stroke-dasharray:none;stroke-opacity:1"
         d="m 471.1704,2058.2533 0.74977,-0.275"
         id="Shape2DView_nwe0404" />
      <path
         inkscape:connector-curvature="0"
         style="fill:none;fill-rule:evenodd;stroke:#000000;stroke-width:1;stroke-miterlimit:4;stroke-dasharray:none;stroke-opacity:1"
         d="m 257.10015,2080.3879 -0.0814,4.1784"
         id="Shape2DView_nwe0621" />
      <path
         inkscape:connector-curvature="0"
         style="fill:none;fill-rule:evenodd;stroke:#000000;stroke-width:1;stroke-miterlimit:4;stroke-dasharray:none;stroke-opacity:1"
         d="m 257.01877,2084.5663 -3.54686,-0.067"
         id="Shape2DView_nwe0622" />
      <path
         inkscape:connector-curvature="0"
         style="fill:none;fill-rule:evenodd;stroke:#000000;stroke-width:1;stroke-miterlimit:4;stroke-dasharray:none;stroke-opacity:1"
         d="m 253.47191,2084.4989 -0.0518,-1.5039"
         id="Shape2DView_nwe0623" />
      <path
         inkscape:connector-curvature="0"
         style="fill:none;fill-rule:evenodd;stroke:#000000;stroke-width:1;stroke-miterlimit:4;stroke-dasharray:none;stroke-opacity:1"
         d="m 253.42015,2082.995 -1.33805,-0.01"
         id="Shape2DView_nwe0624" />
      <path
         inkscape:connector-curvature="0"
         style="fill:none;fill-rule:evenodd;stroke:#000000;stroke-width:1;stroke-miterlimit:4;stroke-dasharray:none;stroke-opacity:1"
         d="m 252.0821,2082.9862 0.0974,1.5518"
         id="Shape2DView_nwe0625" />
      <path
         inkscape:connector-curvature="0"
         style="fill:none;fill-rule:evenodd;stroke:#000000;stroke-width:1;stroke-miterlimit:4;stroke-dasharray:none;stroke-opacity:1"
         d="m 252.17945,2084.538 -41.43127,0.2481"
         id="Shape2DView_nwe0626" />
      <path
         inkscape:connector-curvature="0"
         style="fill:none;fill-rule:evenodd;stroke:#000000;stroke-width:0.88010025;stroke-miterlimit:4;stroke-dasharray:none;stroke-opacity:1"
         d="m 210.74818,2084.7861 -1.37586,767.2917"
         id="Shape2DView_nwe0627" />
      <path
         inkscape:connector-curvature="0"
         style="fill:none;fill-rule:evenodd;stroke:#000000;stroke-width:1;stroke-miterlimit:4;stroke-dasharray:none;stroke-opacity:1"
         d="m 258.15382,2085.5774 -7.88103,81.5977"
         id="Shape2DView_nwe0644" />
      <path
         inkscape:connector-curvature="0"
         style="fill:none;fill-rule:evenodd;stroke:#000000;stroke-width:1;stroke-miterlimit:4;stroke-dasharray:none;stroke-opacity:1"
         d="m 250.27279,2167.1751 4.7101,0.5912"
         id="Shape2DView_nwe0645" />
      <path
         inkscape:connector-curvature="0"
         style="fill:none;fill-rule:evenodd;stroke:#000000;stroke-width:1;stroke-miterlimit:4;stroke-dasharray:none;stroke-opacity:1"
         d="m 254.98289,2167.7663 7.42427,-82.1159"
         id="Shape2DView_nwe0646" />
      <path
         inkscape:connector-curvature="0"
         style="fill:none;fill-rule:evenodd;stroke:#000000;stroke-width:1;stroke-miterlimit:4;stroke-dasharray:none;stroke-opacity:1"
         d="m 262.40716,2085.6504 -4.25334,-0.073"
         id="Shape2DView_nwe0647" />
      <path
         inkscape:connector-curvature="0"
         style="fill:none;fill-rule:evenodd;stroke:#000000;stroke-width:1;stroke-miterlimit:4;stroke-dasharray:none;stroke-opacity:1"
         d="m 418.07436,2087.0629 17.07362,80.5764"
         id="Shape2DView_nwe0648" />
      <path
         inkscape:connector-curvature="0"
         style="fill:none;fill-rule:evenodd;stroke:#000000;stroke-width:1;stroke-miterlimit:4;stroke-dasharray:none;stroke-opacity:1"
         d="m 435.14798,2167.6393 4.67651,-1.2378"
         id="Shape2DView_nwe0649" />
      <path
         inkscape:connector-curvature="0"
         style="fill:none;fill-rule:evenodd;stroke:#000000;stroke-width:1;stroke-miterlimit:4;stroke-dasharray:none;stroke-opacity:1"
         d="m 439.82449,2166.4015 -17.28681,-80.3021"
         id="Shape2DView_nwe0650" />
      <path
         inkscape:connector-curvature="0"
         style="fill:none;fill-rule:evenodd;stroke:#000000;stroke-width:1;stroke-miterlimit:4;stroke-dasharray:none;stroke-opacity:1"
         d="m 422.53768,2086.0994 -4.46332,0.9635"
         id="Shape2DView_nwe0651" />
      <path
         id="path4242"
         d="m 1131.5764,2490.563 0.4372,-145.1779"
         style="fill:none;fill-rule:evenodd;stroke:#000000;stroke-width:1.00012505;stroke-miterlimit:4;stroke-dasharray:none;stroke-opacity:1"
         inkscape:connector-curvature="0" />
      <g
         style="stroke-width:1.41525233"
         transform="matrix(-0.179022,0.5273636,-0.96719584,0.06031425,2982.2838,2636.1584)"
         id="g5398">
        <g
           transform="translate(-275.44815,22.751075)"
           id="g5425">
          <path
             inkscape:connector-curvature="0"
             style="fill:none;fill-rule:evenodd;stroke:#000000;stroke-width:1.41525233;stroke-miterlimit:4;stroke-dasharray:none;stroke-opacity:1"
             d="m 271.41057,2837.5101 78.95998,-23.439"
             id="Shape2DView_nwe0648-7" />
          <path
             inkscape:connector-curvature="0"
             style="fill:none;fill-rule:evenodd;stroke:#000000;stroke-width:1.41542923;stroke-miterlimit:4;stroke-dasharray:none;stroke-opacity:1"
             d="m 350.72742,2813.9651 -1.72492,-4.5278"
             id="Shape2DView_nwe0649-0" />
          <path
             inkscape:connector-curvature="0"
             style="fill:none;fill-rule:evenodd;stroke:#000000;stroke-width:1.41525233;stroke-miterlimit:4;stroke-dasharray:none;stroke-opacity:1"
             d="m 348.7641,2809.5081 -78.66956,23.6296"
             id="Shape2DView_nwe0650-9" />
          <path
             inkscape:connector-curvature="0"
             style="fill:none;fill-rule:evenodd;stroke:#000000;stroke-width:1.41525233;stroke-miterlimit:4;stroke-dasharray:none;stroke-opacity:1"
             d="m 270.09454,2833.1377 1.31603,4.3724"
             id="Shape2DView_nwe0651-3" />
        </g>
      </g>
      <path
         inkscape:connector-curvature="0"
         style="fill:none;fill-rule:evenodd;stroke:#000000;stroke-width:1;stroke-miterlimit:4;stroke-dasharray:none;stroke-opacity:1"
         d="m 353.95645,2734.1545 -7.881,81.5977"
         id="Shape2DView_nwe0644-1" />
      <path
         inkscape:connector-curvature="0"
         style="fill:none;fill-rule:evenodd;stroke:#000000;stroke-width:1;stroke-miterlimit:4;stroke-dasharray:none;stroke-opacity:1"
         d="m 346.07545,2815.7522 4.68286,0.7781"
         id="Shape2DView_nwe0645-8" />
      <path
         inkscape:connector-curvature="0"
         style="fill:none;fill-rule:evenodd;stroke:#000000;stroke-width:1;stroke-miterlimit:4;stroke-dasharray:none;stroke-opacity:1"
         d="m 350.78555,2816.3434 7.4242,-82.1159"
         id="Shape2DView_nwe0646-7" />
      <path
         inkscape:connector-curvature="0"
         style="fill:none;fill-rule:evenodd;stroke:#000000;stroke-width:1;stroke-miterlimit:4;stroke-dasharray:none;stroke-opacity:1"
         d="m 358.20975,2734.2275 -4.2533,-0.073"
         id="Shape2DView_nwe0647-9" />
      <path
         inkscape:connector-curvature="0"
         style="fill:none;fill-rule:evenodd;stroke:#000000;stroke-width:1;stroke-miterlimit:4;stroke-dasharray:none;stroke-opacity:1"
         d="m 346.07545,2815.7522 270.43693,-69.4768"
         id="Shape2DView_nwe0063-2" />
      <path
         sodipodi:nodetypes="cc"
         inkscape:connector-curvature="0"
         id="path5427"
         d="m 209.23346,2851.4729 16.4585,-4.2564"
         style="fill:none;stroke:#000000;stroke-width:1.00012505;stroke-linecap:butt;stroke-linejoin:miter;stroke-miterlimit:4;stroke-dasharray:none;stroke-opacity:1" />
    </g>
    <g
       id="g960"
       transform="translate(0.45,1.476)">
      <path
         transform="matrix(1.552279e-4,0,0,-1.552279e-4,-858.76363,464.79045)"
         d="m 16392.276,1988.3588 c -27.844,27.8447 -280.621,-229.4904 -320,-229.4904 -39.378,0 -292.155,257.3351 -320,229.4904 -27.844,-27.8448 229.491,-280.6216 229.491,-320 0,-39.3784 -257.335,-292.1553 -229.491,-320 27.845,-27.8448 280.622,229.4903 320,229.4903 39.379,0 292.156,-257.3351 320,-229.4903 27.845,27.8447 -229.49,280.6216 -229.49,320 0,39.3784 257.335,292.1552 229.49,320 z"
         inkscape:randomized="0"
         inkscape:rounded="0.1"
         inkscape:flatsided="false"
         sodipodi:arg2="1.5707963"
         sodipodi:arg1="0.78539816"
         sodipodi:r2="90.509666"
         sodipodi:r1="452.54834"
         sodipodi:cy="1668.3588"
         sodipodi:cx="16072.276"
         sodipodi:sides="4"
         id="path892"
         style="fill:#950000;fill-opacity:1;stroke-width:1.00157475;stroke-miterlimit:0"
         sodipodi:type="star" />
      <path
         transform="matrix(2.6458333e-4,0,0,-2.6458333e-4,-853.02176,463.83747)"
         d="M 376.71656,376.71656 C 360.38039,393.05273 212.0792,242.07731 188.97637,242.07731 165.87353,242.07731 17.572343,393.05273 1.2361696,376.71656 -15.100003,360.38039 135.87542,212.0792 135.87542,188.97637 135.87542,165.87353 -15.100004,17.572343 1.2361683,1.2361696 17.572341,-15.100003 165.87353,135.87542 188.97636,135.87542 c 23.10284,0 171.40403,-150.975424 187.7402,-134.6392517 C 393.05273,17.572341 242.07731,165.87353 242.07731,188.97636 c 0,23.10284 150.97542,171.40403 134.63925,187.7402 z"
         inkscape:randomized="0"
         inkscape:rounded="0.1"
         inkscape:flatsided="false"
         sodipodi:arg2="1.5707963"
         sodipodi:arg1="0.78539816"
         sodipodi:r2="53.100948"
         sodipodi:r1="265.50473"
         sodipodi:cy="188.97636"
         sodipodi:cx="188.97636"
         sodipodi:sides="4"
         id="path892-1"
         style="fill:#950000;fill-opacity:1;stroke-width:0.58761203;stroke-miterlimit:0"
         sodipodi:type="star" />
      <path
         transform="matrix(2.6458333e-4,0,0,-2.6458333e-4,-848.54676,462.62147)"
         d="M 376.71656,376.71656 C 360.38039,393.05273 212.0792,242.07731 188.97637,242.07731 165.87353,242.07731 17.572343,393.05273 1.2361696,376.71656 -15.100003,360.38039 135.87542,212.0792 135.87542,188.97637 135.87542,165.87353 -15.100004,17.572343 1.2361683,1.2361696 17.572341,-15.100003 165.87353,135.87542 188.97636,135.87542 c 23.10284,0 171.40403,-150.975424 187.7402,-134.6392517 C 393.05273,17.572341 242.07731,165.87353 242.07731,188.97636 c 0,23.10284 150.97542,171.40403 134.63925,187.7402 z"
         inkscape:randomized="0"
         inkscape:rounded="0.1"
         inkscape:flatsided="false"
         sodipodi:arg2="1.5707963"
         sodipodi:arg1="0.78539816"
         sodipodi:r2="53.100948"
         sodipodi:r1="265.50473"
         sodipodi:cy="188.97636"
         sodipodi:cx="188.97636"
         sodipodi:sides="4"
         id="path892-6"
         style="fill:#950000;fill-opacity:1;stroke-width:0.58761203;stroke-miterlimit:0"
         sodipodi:type="star" />
      <path
         transform="matrix(2.6458333e-4,0,0,-2.6458333e-4,-847.24776,459.78447)"
         d="M 376.71656,376.71656 C 360.38039,393.05273 212.0792,242.07731 188.97637,242.07731 165.87353,242.07731 17.572343,393.05273 1.2361696,376.71656 -15.100003,360.38039 135.87542,212.0792 135.87542,188.97637 135.87542,165.87353 -15.100004,17.572343 1.2361683,1.2361696 17.572341,-15.100003 165.87353,135.87542 188.97636,135.87542 c 23.10284,0 171.40403,-150.975424 187.7402,-134.6392517 C 393.05273,17.572341 242.07731,165.87353 242.07731,188.97636 c 0,23.10284 150.97542,171.40403 134.63925,187.7402 z"
         inkscape:randomized="0"
         inkscape:rounded="0.1"
         inkscape:flatsided="false"
         sodipodi:arg2="1.5707963"
         sodipodi:arg1="0.78539816"
         sodipodi:r2="53.100948"
         sodipodi:r1="265.50473"
         sodipodi:cy="188.97636"
         sodipodi:cx="188.97636"
         sodipodi:sides="4"
         id="path892-7"
         style="fill:#950000;fill-opacity:1;stroke-width:0.58761203;stroke-miterlimit:0"
         sodipodi:type="star" />
      <path
         transform="matrix(2.6458333e-4,0,0,-2.6458333e-4,-856.27076,459.58847)"
         d="M 376.71656,376.71656 C 360.38039,393.05273 212.0792,242.07731 188.97637,242.07731 165.87353,242.07731 17.572343,393.05273 1.2361696,376.71656 -15.100003,360.38039 135.87542,212.0792 135.87542,188.97637 135.87542,165.87353 -15.100004,17.572343 1.2361683,1.2361696 17.572341,-15.100003 165.87353,135.87542 188.97636,135.87542 c 23.10284,0 171.40403,-150.975424 187.7402,-134.6392517 C 393.05273,17.572341 242.07731,165.87353 242.07731,188.97636 c 0,23.10284 150.97542,171.40403 134.63925,187.7402 z"
         inkscape:randomized="0"
         inkscape:rounded="0.1"
         inkscape:flatsided="false"
         sodipodi:arg2="1.5707963"
         sodipodi:arg1="0.78539816"
         sodipodi:r2="53.100948"
         sodipodi:r1="265.50473"
         sodipodi:cy="188.97636"
         sodipodi:cx="188.97636"
         sodipodi:sides="4"
         id="path892-9"
         style="fill:#950000;fill-opacity:1;stroke-width:0.58761203;stroke-miterlimit:0"
         sodipodi:type="star" />
      <path
         transform="matrix(2.6458333e-4,0,0,-2.6458333e-4,-856.23876,458.26147)"
         d="M 376.71656,376.71656 C 360.38039,393.05273 212.0792,242.07731 188.97637,242.07731 165.87353,242.07731 17.572343,393.05273 1.2361696,376.71656 -15.100003,360.38039 135.87542,212.0792 135.87542,188.97637 135.87542,165.87353 -15.100004,17.572343 1.2361683,1.2361696 17.572341,-15.100003 165.87353,135.87542 188.97636,135.87542 c 23.10284,0 171.40403,-150.975424 187.7402,-134.6392517 C 393.05273,17.572341 242.07731,165.87353 242.07731,188.97636 c 0,23.10284 150.97542,171.40403 134.63925,187.7402 z"
         inkscape:randomized="0"
         inkscape:rounded="0.1"
         inkscape:flatsided="false"
         sodipodi:arg2="1.5707963"
         sodipodi:arg1="0.78539816"
         sodipodi:r2="53.100948"
         sodipodi:r1="265.50473"
         sodipodi:cy="188.97636"
         sodipodi:cx="188.97636"
         sodipodi:sides="4"
         id="path892-75"
         style="fill:#950000;fill-opacity:1;stroke-width:0.58761203;stroke-miterlimit:0"
         sodipodi:type="star" />
      <path
         transform="matrix(2.6458333e-4,0,0,-2.6458333e-4,-853.18776,457.23547)"
         d="M 376.71656,376.71656 C 360.38039,393.05273 212.0792,242.07731 188.97637,242.07731 165.87353,242.07731 17.572343,393.05273 1.2361696,376.71656 -15.100003,360.38039 135.87542,212.0792 135.87542,188.97637 135.87542,165.87353 -15.100004,17.572343 1.2361683,1.2361696 17.572341,-15.100003 165.87353,135.87542 188.97636,135.87542 c 23.10284,0 171.40403,-150.975424 187.7402,-134.6392517 C 393.05273,17.572341 242.07731,165.87353 242.07731,188.97636 c 0,23.10284 150.97542,171.40403 134.63925,187.7402 z"
         inkscape:randomized="0"
         inkscape:rounded="0.1"
         inkscape:flatsided="false"
         sodipodi:arg2="1.5707963"
         sodipodi:arg1="0.78539816"
         sodipodi:r2="53.100948"
         sodipodi:r1="265.50473"
         sodipodi:cy="188.97636"
         sodipodi:cx="188.97636"
         sodipodi:sides="4"
         id="path892-3"
         style="fill:#950000;fill-opacity:1;stroke-width:0.58761203;stroke-miterlimit:0"
         sodipodi:type="star" />
      <path
         transform="matrix(2.6458333e-4,0,0,-2.6458333e-4,-851.47276,458.26142)"
         d="M 376.71656,376.71656 C 360.38039,393.05273 212.0792,242.07731 188.97637,242.07731 165.87353,242.07731 17.572343,393.05273 1.2361696,376.71656 -15.100003,360.38039 135.87542,212.0792 135.87542,188.97637 135.87542,165.87353 -15.100004,17.572343 1.2361683,1.2361696 17.572341,-15.100003 165.87353,135.87542 188.97636,135.87542 c 23.10284,0 171.40403,-150.975424 187.7402,-134.6392517 C 393.05273,17.572341 242.07731,165.87353 242.07731,188.97636 c 0,23.10284 150.97542,171.40403 134.63925,187.7402 z"
         inkscape:randomized="0"
         inkscape:rounded="0.1"
         inkscape:flatsided="false"
         sodipodi:arg2="1.5707963"
         sodipodi:arg1="0.78539816"
         sodipodi:r2="53.100948"
         sodipodi:r1="265.50473"
         sodipodi:cy="188.97636"
         sodipodi:cx="188.97636"
         sodipodi:sides="4"
         id="path892-8"
         style="fill:#950000;fill-opacity:1;stroke-width:0.58761203;stroke-miterlimit:0"
         sodipodi:type="star" />
      <path
         transform="matrix(2.6458333e-4,0,0,-2.6458333e-4,-847.59176,458.32047)"
         d="M 376.71656,376.71656 C 360.38039,393.05273 212.0792,242.07731 188.97637,242.07731 165.87353,242.07731 17.572343,393.05273 1.2361696,376.71656 -15.100003,360.38039 135.87542,212.0792 135.87542,188.97637 135.87542,165.87353 -15.100004,17.572343 1.2361683,1.2361696 17.572341,-15.100003 165.87353,135.87542 188.97636,135.87542 c 23.10284,0 171.40403,-150.975424 187.7402,-134.6392517 C 393.05273,17.572341 242.07731,165.87353 242.07731,188.97636 c 0,23.10284 150.97542,171.40403 134.63925,187.7402 z"
         inkscape:randomized="0"
         inkscape:rounded="0.1"
         inkscape:flatsided="false"
         sodipodi:arg2="1.5707963"
         sodipodi:arg1="0.78539816"
         sodipodi:r2="53.100948"
         sodipodi:r1="265.50473"
         sodipodi:cy="188.97636"
         sodipodi:cx="188.97636"
         sodipodi:sides="4"
         id="path892-83"
         style="fill:#950000;fill-opacity:1;stroke-width:0.58761203;stroke-miterlimit:0"
         sodipodi:type="star" />
    </g>
  </g>
</svg>
