G04 #@! TF.FileFunction,Soldermask,Bot*
%FSLAX46Y46*%
G04 Gerber Fmt 4.6, Leading zero omitted, Abs format (unit mm)*
G04 Created by KiCad (PCBNEW 4.0.7-e2-6376~61~ubuntu18.04.1) date Mon Jan 28 20:48:33 2019*
%MOMM*%
%LPD*%
G01*
G04 APERTURE LIST*
%ADD10C,0.100000*%
%ADD11C,3.100000*%
%ADD12R,2.100000X2.100000*%
%ADD13O,2.100000X2.100000*%
%ADD14C,1.500000*%
G04 APERTURE END LIST*
D10*
D11*
X176000000Y-75000000D03*
X124000000Y-75000000D03*
X167000000Y-107000000D03*
X133000000Y-107000000D03*
X167000000Y-81000000D03*
X133000000Y-97000000D03*
X167000000Y-97000000D03*
X133000000Y-81000000D03*
D12*
X119900000Y-105440000D03*
D13*
X119900000Y-102900000D03*
X119900000Y-100360000D03*
D12*
X180000000Y-95760000D03*
D13*
X180000000Y-98300000D03*
X180000000Y-100840000D03*
X180000000Y-103380000D03*
X180000000Y-105920000D03*
D12*
X180000000Y-79820000D03*
D13*
X180000000Y-82360000D03*
X180000000Y-84900000D03*
X180000000Y-87440000D03*
X180000000Y-89980000D03*
D14*
X138730000Y-87965000D03*
X138730000Y-89235000D03*
X140000000Y-87965000D03*
X140000000Y-89235000D03*
X141270000Y-87965000D03*
X141270000Y-89235000D03*
X147490000Y-93500000D03*
X148760000Y-93500000D03*
X150030000Y-93500000D03*
X151300000Y-93500000D03*
X152570000Y-93500000D03*
X166110000Y-76400000D03*
X164840000Y-76400000D03*
X163570000Y-76400000D03*
X162300000Y-76400000D03*
X161030000Y-76400000D03*
X138760000Y-92300000D03*
X140030000Y-92300000D03*
X141300000Y-92300000D03*
M02*
