M48
;DRILL file {KiCad 4.0.7-e2-6376~61~ubuntu18.04.1} date Thu Mar  7 01:25:11 2019
;FORMAT={-:-/ absolute / inch / decimal}
FMAT,2
INCH,TZ
T1C0.016
T2C0.036
T3C0.039
%
G90
G05
M72
T1
X4.7244Y-3.5709
X5.5315Y-3.6811
X5.6024Y-3.4967
T2
X5.4618Y-3.4632
X5.4618Y-3.5132
X5.463Y-3.6339
X5.5118Y-3.4632
X5.5118Y-3.5132
X5.513Y-3.6339
X5.5618Y-3.4632
X5.5618Y-3.5132
X5.563Y-3.6339
X5.8067Y-3.7598
X5.8567Y-3.7598
X5.9067Y-3.7598
X5.9567Y-3.7598
X6.0067Y-3.7598
X6.3398Y-3.0079
X6.3898Y-3.0079
X6.4398Y-3.0079
X6.4898Y-3.0079
X6.5398Y-3.0079
T3
X4.7205Y-3.9512
X4.7205Y-4.0512
X4.7205Y-4.1512
X7.0866Y-3.1425
X7.0866Y-3.2425
X7.0866Y-3.3425
X7.0866Y-3.4425
X7.0866Y-3.5425
X7.0866Y-3.7701
X7.0866Y-3.8701
X7.0866Y-3.9701
X7.0866Y-4.0701
X7.0866Y-4.1701
T0
M30
